<?xml version="1.0" standalone="no"?>
<!DOCTYPE svg PUBLIC "-//W3C//DTD SVG 1.1//EN" "http://www.w3.org/Graphics/SVG/1.1/DTD/svg11.dtd" >
<svg xmlns="http://www.w3.org/2000/svg" xmlns:xlink="http://www.w3.org/1999/xlink" version="1.1">
<metadata>
Created by FontForge 20150824 at Mon Oct 17 02:12:48 2016
 By Everything Fonts
Copyright A^(c) 2014 by RenA~(c) Bieder. All rights reserved.
</metadata>
<defs>
<font id="GalanoGrotesqueBold" horiz-adv-x="610" >
  <font-face 
    font-family="GalanoGrotesqueBold"
    font-weight="700"
    font-stretch="normal"
    units-per-em="1000"
    panose-1="0 0 0 0 0 0 0 0 0 0"
    ascent="796"
    descent="-204"
    x-height="502"
    cap-height="670"
    bbox="-173 -218 1234 958"
    underline-thickness="50"
    underline-position="-150"
    unicode-range="U+0020-FB02"
  />
<missing-glyph horiz-adv-x="772" 
d="M386 684q145 0 246 -100q102 -100 102 -252q0 -149 -102 -248t-246 -99q-145 0 -247 99t-102 248q0 152 102 252q101 100 247 100zM386 629l1 1q-120 0 -204 -84t-84 -211q0 -126 84 -210t204 -84q119 0 203 84t84 210t-84 210t-204 84zM524 401l-1 -1q0 -41 -27 -68
q-28 -28 -74 -35v-29h-84v89h44q24 0 39 12t15 29q0 20 -13 32t-36 12q-25 0 -39 -13q-15 -13 -19 -37l-87 17q6 48 46 80q40 33 102 33q60 0 97 -34t37 -87zM377 236h-1q22 0 37 -15t15 -34q0 -21 -15 -36t-37 -15t-36 15q-14 16 -14 36q0 19 15 34t36 15z" />
    <glyph glyph-name=".notdef" horiz-adv-x="772" 
d="M386 684q145 0 246 -100q102 -100 102 -252q0 -149 -102 -248t-246 -99q-145 0 -247 99t-102 248q0 152 102 252q101 100 247 100zM386 629l1 1q-120 0 -204 -84t-84 -211q0 -126 84 -210t204 -84q119 0 203 84t84 210t-84 210t-204 84zM524 401l-1 -1q0 -41 -27 -68
q-28 -28 -74 -35v-29h-84v89h44q24 0 39 12t15 29q0 20 -13 32t-36 12q-25 0 -39 -13q-15 -13 -19 -37l-87 17q6 48 46 80q40 33 102 33q60 0 97 -34t37 -87zM377 236h-1q22 0 37 -15t15 -34q0 -21 -15 -36t-37 -15t-36 15q-14 16 -14 36q0 19 15 34t36 15z" />
    <glyph glyph-name=".null" horiz-adv-x="0" 
 />
    <glyph glyph-name="nonmarkingreturn" horiz-adv-x="333" 
 />
    <glyph glyph-name="space" unicode=" " horiz-adv-x="232" 
 />
    <glyph glyph-name="exclam" unicode="!" horiz-adv-x="297" 
d="M238 670v-31l-10 -410h-158l-10 410v31h178zM151 172q39 0 65 -26t26 -63q0 -38 -25 -63t-66 -25t-66 25q-26 26 -26 63t26 63t66 26z" />
    <glyph glyph-name="quotedbl" unicode="&#x22;" horiz-adv-x="448" 
d="M47 355v315h151v-315h-151zM250 355v315h151v-315h-151z" />
    <glyph glyph-name="numbersign" unicode="#" horiz-adv-x="711" 
d="M560 386l-29 -117h102l-34 -123h-99l-36 -146h-132l36 146h-116l-36 -146h-132l36 146h-102l33 123h99l29 117h-101l32 123h99l40 161h132l-40 -161h117l40 161h132l-40 -161h102l-34 -123h-98zM427 386h-116l-29 -117h116z" />
    <glyph glyph-name="dollar" unicode="$" horiz-adv-x="607" 
d="M567 211l-1 -2q0 -83 -54 -134q-53 -50 -139 -64v-112h-133v115q-83 18 -139 70t-64 129l156 30q7 -55 42 -81q34 -25 81 -25q40 0 66 18t26 46q0 43 -57 55l-127 28q-172 37 -172 178q0 80 51 131t137 65v111h133v-114q80 -18 131 -69q50 -50 58 -126l-152 -26
q-4 55 -36 79q-31 24 -74 24q-38 0 -60 -18q-23 -18 -23 -45q0 -41 49 -51l129 -29q172 -39 172 -183z" />
    <glyph glyph-name="percent" unicode="%" horiz-adv-x="865" 
d="M214 685v-3q73 0 123 -46q51 -46 51 -121q0 -73 -51 -120q-50 -46 -123 -46q-72 0 -124 47q-51 46 -51 120q0 76 51 122q52 47 124 47zM141 -3l484 670h94l-485 -670h-93zM214 583l-3 -3q-27 0 -46 -18t-19 -49q0 -32 20 -50t47 -18q26 0 45 19q20 20 20 51q0 32 -19 50
t-45 18zM649 314v-3q73 0 123 -46q51 -47 51 -121t-51 -120q-50 -46 -123 -46q-72 0 -124 47q-51 47 -51 120q0 75 51 122q52 47 124 47zM649 212l-3 -3q-26 0 -46 -18q-19 -18 -19 -49q0 -32 20 -50q19 -18 47 -18q26 0 45 19q20 20 20 51q0 32 -19 50q-20 18 -45 18z" />
    <glyph glyph-name="ampersand" unicode="&#x26;" horiz-adv-x="698" 
d="M592 -28l-87 76q-85 -62 -200 -62q-119 0 -192 57q-74 57 -74 152q0 109 113 171q-47 62 -47 132q0 82 63 135q62 52 160 52t153 -52q55 -53 69 -138l-148 -26q-7 88 -75 88q-30 0 -49 -16t-19 -46q0 -27 16 -52q17 -25 60 -63l142 -123q6 25 6 57v45h145v-45
q0 -90 -33 -161l90 -78zM311 115q46 0 87 26l-155 135q-48 -30 -48 -74q0 -39 32 -63q31 -24 84 -24z" />
    <glyph glyph-name="quotesingle" unicode="'" horiz-adv-x="244" 
d="M47 355v315h151v-315h-151z" />
    <glyph glyph-name="parenleft" unicode="(" horiz-adv-x="380" 
d="M204 336l1 2q0 -94 33 -168t108 -153l-113 -99q-197 183 -197 418t197 418l110 -99q-73 -78 -106 -153q-33 -74 -33 -166z" />
    <glyph glyph-name="parenright" unicode=")" horiz-adv-x="380" 
d="M38 655l110 97q198 -182 198 -417t-198 -417l-112 99q74 81 107 153q33 74 33 166t-33 166t-105 153z" />
    <glyph glyph-name="asterisk" unicode="*" horiz-adv-x="447" 
d="M312 536l102 -59l-44 -77l-98 56v-106h-97v106l-98 -56l-44 77l102 59l-102 58l44 77l98 -56v105h97v-105l98 56l44 -77z" />
    <glyph glyph-name="plus" unicode="+" horiz-adv-x="573" 
d="M523 238h-171v-174h-131v174h-171v131h171v174h131v-174h171v-131z" />
    <glyph glyph-name="comma" unicode="," horiz-adv-x="264" 
d="M124 -132h-121l59 288h177v-4z" />
    <glyph glyph-name="hyphen" unicode="-" horiz-adv-x="451" 
d="M391 195h-331v135h331v-135z" />
    <glyph glyph-name="period" unicode="." horiz-adv-x="246" 
d="M123 175l-1 -2q39 0 66 -27t27 -64t-26 -63t-66 -26q-39 0 -65 26t-26 65q0 36 26 64q26 27 65 27z" />
    <glyph glyph-name="slash" unicode="/" horiz-adv-x="435" 
d="M420 741l-288 -813h-117l288 813h117z" />
    <glyph glyph-name="zero" unicode="0" horiz-adv-x="664" 
d="M332 685l-1 -2q134 0 215 -96t81 -253t-81 -253t-214 -96t-214 96t-81 254t81 254t214 96zM331 128l-1 -2q59 0 95 56t36 150t-36 150t-94 56q-59 0 -93 -55q-35 -56 -35 -150t35 -150q34 -55 93 -55z" />
    <glyph glyph-name="one" unicode="1" horiz-adv-x="389" 
d="M322 670v-670h-160v480l-160 -82v148l216 124h104z" />
    <glyph glyph-name="two" unicode="2" horiz-adv-x="548" 
d="M515 144l4 -146h-486v108l231 217l34 32q10 10 26 29q17 20 23 39t6 42q0 35 -23 58q-22 22 -60 22q-87 0 -96 -108l-153 29q5 100 72 159q68 59 174 59q107 0 175 -59q67 -58 67 -158q0 -65 -33 -114q-38 -57 -109 -121l-96 -88h244z" />
    <glyph glyph-name="three" unicode="3" horiz-adv-x="577" 
d="M458 339l-1 -2q83 -42 83 -138q0 -95 -70 -155t-180 -60q-106 0 -177 57q-70 57 -81 155l156 29q8 -51 34 -77q27 -27 71 -27q41 0 69 23q27 22 27 59q0 35 -24 54q-25 20 -67 20h-77v122h70q41 0 66 20q24 19 24 53q0 35 -24 56t-64 21q-42 0 -69 -27q-26 -26 -31 -81
l-151 29q10 98 78 157q67 58 171 58q106 0 173 -59q66 -59 66 -152t-72 -135z" />
    <glyph glyph-name="four" unicode="4" horiz-adv-x="626" 
d="M602 123h-81v-123h-155v123h-348v148l299 399h204v-415h81v-132zM366 255v256l-181 -256h181z" />
    <glyph glyph-name="five" unicode="5" horiz-adv-x="576" 
d="M214 435l92 -2q114 -3 173 -58q63 -59 63 -157q0 -104 -69 -168q-70 -65 -184 -65q-109 0 -183 60q-73 60 -76 170l156 31q2 -62 31 -91q30 -30 75 -30q42 0 70 26q27 25 27 66q0 37 -27 60q-28 23 -70 23h-230l12 370h440v-143h-296z" />
    <glyph glyph-name="six" unicode="6" horiz-adv-x="611" 
d="M341 435l-1 -1q108 0 170 -61q63 -61 63 -160q0 -100 -71 -165q-70 -64 -182 -64q-130 0 -207 89t-77 249q0 187 93 283q79 79 193 79q90 0 153 -42t84 -121l-155 -30q-20 57 -88 57q-46 0 -81 -38q-45 -50 -45 -136q58 61 151 61zM316 119v1q41 0 70 28q30 28 30 70
t-30 69t-70 27q-41 0 -69 -28q-29 -29 -29 -72q0 -41 29 -68t69 -27z" />
    <glyph glyph-name="seven" unicode="7" horiz-adv-x="513" 
d="M493 670v-119l-219 -551h-177l218 526h-302v144h480z" />
    <glyph glyph-name="eight" unicode="8" horiz-adv-x="573" 
d="M428 343l-3 -5q59 -22 90 -63q32 -41 32 -96q0 -87 -72 -142q-71 -55 -189 -55t-192 56q-73 55 -73 143q0 54 32 97q31 41 90 64q-99 46 -99 154q0 82 68 135t174 53q107 0 174 -52q68 -53 68 -135q0 -108 -100 -154zM283 556v1q-37 0 -63 -21q-25 -21 -25 -58
q0 -36 26 -57q25 -21 62 -21t63 21t26 57t-26 57t-63 21zM283 111v-2q39 0 65 22q27 23 27 60q0 38 -27 59t-65 21q-39 0 -65 -21t-26 -60q0 -37 26 -58q25 -21 65 -21z" />
    <glyph glyph-name="nine" unicode="9" horiz-adv-x="611" 
d="M290 685l-1 -2q130 0 207 -89t77 -249q0 -189 -93 -283q-76 -79 -192 -79q-90 0 -153 42t-84 122l155 30q16 -57 87 -57q46 0 81 38q44 48 45 136q-58 -61 -150 -61q-105 0 -169 62q-63 61 -63 161t71 165q70 64 182 64zM293 353v-1q41 0 69 28q29 29 29 72q0 41 -30 68
t-69 27q-41 0 -70 -28q-30 -29 -30 -70q0 -42 30 -69t71 -27z" />
    <glyph glyph-name="colon" unicode=":" horiz-adv-x="246" 
d="M123 496h-1q39 0 66 -27t27 -64t-26 -63t-66 -26q-39 0 -65 26t-26 63q0 36 26 64q26 27 65 27zM122 175l-1 -2q39 0 66 -27t27 -64t-26 -63t-66 -26q-39 0 -65 26t-26 65q0 36 26 64q25 27 65 27z" />
    <glyph glyph-name="semicolon" unicode=";" horiz-adv-x="280" 
d="M157 496v-2q39 0 65 -27q26 -28 26 -64q0 -37 -26 -63t-65 -26q-40 0 -66 26t-26 65q0 36 26 64q25 27 66 27zM124 -134h-121l59 288h177v-4z" />
    <glyph glyph-name="less" unicode="&#x3c;" horiz-adv-x="467" 
d="M429 108l-397 141v155l397 143v-154l-228 -65l228 -68v-152z" />
    <glyph glyph-name="equal" unicode="=" horiz-adv-x="573" 
d="M523 351h-473v127h473v-127zM523 153h-473v127h473v-127z" />
    <glyph glyph-name="greater" unicode="&#x3e;" horiz-adv-x="467" 
d="M268 328l-228 65v154l397 -143v-155l-397 -141v152z" />
    <glyph glyph-name="question" unicode="?" horiz-adv-x="543" 
d="M285 685h1q106 0 171 -60t65 -155q0 -74 -48 -123q-48 -50 -130 -66v-50h-152v161h80q40 0 66 20t26 51q0 36 -23 59t-60 23q-41 0 -66 -25q-25 -26 -33 -69l-155 31q10 86 80 145q68 58 178 58zM266 172q39 0 65 -26t26 -63q0 -38 -25 -63t-66 -25t-66 25q-26 26 -26 63
t26 63t66 26z" />
    <glyph glyph-name="at" unicode="@" horiz-adv-x="936" 
d="M671 469l-4 -282q0 -22 15 -34t36 -12q39 0 60 48t21 111q0 133 -94 217q-95 84 -232 84q-147 0 -244 -94t-97 -238q0 -142 96 -235t239 -93q131 0 240 83l45 -71q-115 -94 -282 -94q-181 0 -303 116q-121 115 -121 293t123 297q122 118 306 118q174 0 293 -106
q120 -107 120 -270q0 -45 -10 -84q-11 -42 -31 -78q-21 -37 -60 -60q-38 -22 -92 -22q-89 0 -120 61q-48 -59 -136 -59q-84 0 -142 56q-57 55 -57 149t57 151t141 57q75 0 122 -46v37h111zM460 166l-2 -1q40 0 68 28q29 29 29 75q0 45 -28 73t-67 28q-38 0 -67 -27
q-28 -27 -28 -73q0 -47 28 -75t67 -28z" />
    <glyph glyph-name="A" unicode="A" horiz-adv-x="729" 
d="M729 0h-176l-47 122h-282l-47 -122h-177l280 670h169zM451 264l-86 220l-85 -220h171z" />
    <glyph glyph-name="B" unicode="B" horiz-adv-x="662" 
d="M498 346l-1 -2q52 -4 91 -45t39 -111q0 -86 -57 -137t-164 -51h-348v670h347q91 0 147 -50t56 -132q0 -62 -35 -100t-75 -42zM222 539l-2 -146h144q38 0 60 21t22 55q0 31 -21 51q-20 19 -53 19h-150zM220 133h155q38 0 60 20q21 19 21 54q0 34 -22 53q-23 20 -57 20
h-157v-147z" />
    <glyph glyph-name="C" unicode="C" horiz-adv-x="764" 
d="M567 283l159 -34q-22 -125 -114 -195q-92 -71 -222 -71q-148 0 -252 101q-103 100 -103 249q0 147 104 249q103 102 252 102q127 0 219 -70q93 -71 117 -187l-162 -38q-15 72 -61 107q-46 36 -114 36q-80 0 -135 -57q-55 -56 -55 -142q0 -84 56 -142q56 -57 135 -57
q66 0 113 38q46 38 63 111z" />
    <glyph glyph-name="D" unicode="D" horiz-adv-x="725" 
d="M58 670l265 2q164 1 266 -93q101 -93 101 -243t-101 -243t-266 -93h-265v670zM223 145l94 -2q92 -1 151 53q57 52 57 140t-57 140q-58 53 -151 53h-94v-384z" />
    <glyph glyph-name="E" unicode="E" horiz-adv-x="625" 
d="M580 142v-142h-522v670h519v-142h-354v-126h325v-134h-325v-126h357z" />
    <glyph glyph-name="F" unicode="F" horiz-adv-x="598" 
d="M223 525v-141h314v-144h-314v-240h-165v670h518v-145h-353z" />
    <glyph glyph-name="G" unicode="G" horiz-adv-x="778" 
d="M370 395l368 -3q4 -28 4 -60q0 -150 -98 -250q-98 -99 -249 -99q-150 0 -256 101q-105 100 -105 249q0 147 104 249t255 102q116 0 204 -52q89 -53 123 -148l-159 -46q-49 96 -168 96q-83 0 -138 -57q-55 -56 -55 -142q0 -85 57 -142t141 -57q64 0 111 32t66 87h-205v140
z" />
    <glyph glyph-name="H" unicode="H" horiz-adv-x="728" 
d="M669 670v-670h-164v265h-282v-265h-165v670h165v-261h282v261h164z" />
    <glyph glyph-name="I" unicode="I" horiz-adv-x="281" 
d="M223 0h-165v670h165v-670z" />
    <glyph glyph-name="J" unicode="J" horiz-adv-x="608" 
d="M552 670l2 -429q0 -112 -75 -184t-196 -72q-113 0 -183 61t-85 165l160 32q5 -53 33 -81q29 -29 75 -29q47 0 75 30q29 31 29 78v429h165z" />
    <glyph glyph-name="K" unicode="K" horiz-adv-x="690" 
d="M693 0h-216l-219 252h-35v-252h-165v670h165v-266h24l228 266h198l-285 -336z" />
    <glyph glyph-name="L" unicode="L" horiz-adv-x="587" 
d="M553 144v-144h-495v670h165v-526h330z" />
    <glyph glyph-name="M" unicode="M" horiz-adv-x="889" 
d="M831 670v-670h-160v334l-175 -334h-102l-176 336v-336h-160v670h162l225 -415l225 415h161z" />
    <glyph glyph-name="N" unicode="N" horiz-adv-x="757" 
d="M698 670v-670h-136l-339 388v-388h-165v670h137l339 -400v400h164z" />
    <glyph glyph-name="O" unicode="O" horiz-adv-x="784" 
d="M392 685l-4 -1q150 0 254 -102t104 -249q0 -145 -103 -247t-253 -102t-253 102t-103 248q0 147 104 249t254 102zM388 135q82 0 138 57q55 56 55 142q0 87 -55 143q-56 57 -138 57t-138 -57q-55 -56 -55 -143q0 -86 55 -142q56 -57 138 -57z" />
    <glyph glyph-name="P" unicode="P" horiz-adv-x="664" 
d="M58 670h331q113 0 179 -63t66 -167q0 -106 -69 -171q-68 -64 -184 -64h-158v-205h-165v670zM224 343l147 -1q47 0 75 26q27 26 27 69q0 41 -28 66q-29 26 -75 26h-146v-186z" />
    <glyph glyph-name="Q" unicode="Q" horiz-adv-x="784" 
d="M749 334l-3 -1q0 -157 -117 -260l110 -132l-124 -110l-137 163q-46 -10 -89 -10q-149 0 -253 102q-103 102 -103 248q0 147 104 249q103 102 254 102t254 -102q104 -102 104 -249zM197 333q0 -86 55 -142q56 -57 138 -57t138 57q55 56 55 142q0 87 -55 143
q-56 57 -138 57t-138 -57q-55 -56 -55 -143z" />
    <glyph glyph-name="R" unicode="R" horiz-adv-x="679" 
d="M672 0h-199l-202 230h-48v-230h-165v670h339q109 0 175 -60t66 -158q0 -81 -47 -139q-47 -57 -129 -75zM223 368l155 -1q45 0 71 22q27 23 27 60q0 35 -27 58q-26 22 -70 22h-156v-161z" />
    <glyph glyph-name="S" unicode="S" horiz-adv-x="646" 
d="M321 685v-3q109 0 183 -51t93 -142l-162 -33q-9 45 -42 69t-75 24q-41 0 -66 -19t-25 -48q0 -44 54 -56l139 -31q184 -40 184 -195q0 -103 -79 -160t-198 -57q-117 0 -198 54q-80 54 -94 150l170 33q24 -99 132 -99q47 0 73 19q27 20 27 51q0 25 -13 38q-14 13 -48 21
l-140 30q-180 39 -180 194q0 97 73 154t192 57z" />
    <glyph glyph-name="T" unicode="T" horiz-adv-x="638" 
d="M618 526h-217v-526h-164v526h-217v144h598v-144z" />
    <glyph glyph-name="U" unicode="U" horiz-adv-x="713" 
d="M657 670l-1 -368q0 -144 -81 -231t-215 -87q-136 0 -220 87t-84 231v368h165v-368q0 -75 38 -121q37 -45 101 -45q60 0 96 45t36 121v368h165z" />
    <glyph glyph-name="V" unicode="V" horiz-adv-x="743" 
d="M736 670l-285 -670h-159l-285 670h182l182 -444l183 444h182z" />
    <glyph glyph-name="W" unicode="W" horiz-adv-x="973" 
d="M967 670l-191 -670h-177l-112 414l-113 -414h-176l-191 670h169l117 -422l115 422h157l115 -422l117 422h170z" />
    <glyph glyph-name="X" unicode="X" horiz-adv-x="683" 
d="M481 0l-140 228l-139 -228h-195l210 336l-208 334h195l137 -226l138 226h195l-208 -334l210 -336h-195z" />
    <glyph glyph-name="Y" unicode="Y" horiz-adv-x="706" 
d="M434 210v-210h-168v208l-259 462h180l165 -294l163 294h184z" />
    <glyph glyph-name="Z" unicode="Z" horiz-adv-x="635" 
d="M597 139v-139h-556v106l338 425h-328v139h538v-126l-313 -405h321z" />
    <glyph glyph-name="bracketleft" unicode="[" horiz-adv-x="410" 
d="M207 610v-561h166v-131h-315v823h315v-131h-166z" />
    <glyph glyph-name="backslash" unicode="\" horiz-adv-x="435" 
d="M420 -72h-117l-288 813h117z" />
    <glyph glyph-name="bracketright" unicode="]" horiz-adv-x="410" 
d="M352 741v-823h-315v131h166v561h-166v131h315z" />
    <glyph glyph-name="asciicircum" unicode="^" horiz-adv-x="464" 
d="M153 421h-136l156 249h118l156 -249h-136l-79 126z" />
    <glyph glyph-name="underscore" unicode="_" horiz-adv-x="540" 
d="M520 -175h-500v119h500v-119z" />
    <glyph glyph-name="grave" unicode="`" horiz-adv-x="600" 
d="M320 719l71 -152h-142l-119 152h190z" />
    <glyph glyph-name="a" unicode="a" horiz-adv-x="644" 
d="M586 502v-503h-160v40q-61 -55 -156 -55q-102 0 -174 75t-72 192q0 116 72 191t174 75q95 0 156 -55v40h160zM303 120q50 0 86 36t36 93q0 55 -36 93q-36 37 -86 37q-53 0 -87 -36q-34 -35 -34 -93q0 -59 34 -94q34 -36 87 -36z" />
    <glyph glyph-name="b" unicode="b" horiz-adv-x="644" 
d="M374 517v1q102 0 174 -75t72 -191q0 -117 -72 -192t-174 -75q-95 0 -156 55v-40h-160v720h160v-258q61 55 156 55zM341 122q53 0 87 36q34 35 34 94q0 58 -34 93q-34 36 -87 36q-50 0 -86 -37q-36 -38 -36 -93q0 -57 36 -93t86 -36z" />
    <glyph glyph-name="c" unicode="c" horiz-adv-x="580" 
d="M299 125v-1q84 0 109 88l147 -32q-19 -88 -90 -142t-165 -54q-116 0 -195 75t-79 192q0 116 80 191t195 75q93 0 164 -53t92 -140l-150 -36q-11 44 -39 66q-29 23 -69 23q-54 0 -87 -36t-33 -91q0 -56 33 -90q33 -35 87 -35z" />
    <glyph glyph-name="d" unicode="d" horiz-adv-x="644" 
d="M586 720v-721h-160v40q-61 -55 -156 -55q-102 0 -174 75t-72 192q0 116 72 191t174 75q95 0 156 -55v258h160zM303 120q50 0 86 36t36 93q0 55 -36 93q-36 37 -86 37q-53 0 -87 -36q-34 -35 -34 -93q0 -59 34 -94q34 -36 87 -36z" />
    <glyph glyph-name="e" unicode="e" horiz-adv-x="575" 
d="M550 251l1 -43h-368q11 -46 39 -71q29 -26 69 -26q76 0 107 58l142 -29q-32 -78 -96 -117t-153 -39q-111 0 -188 75t-77 192q0 116 77 191t189 75q110 0 183 -73q72 -72 75 -193zM292 385q-35 0 -65 -21q-31 -22 -41 -58h207q-11 39 -38 59q-28 20 -63 20z" />
    <glyph glyph-name="f" unicode="f" horiz-adv-x="377" 
d="M246 502l137 -2v-127h-138v-375h-159v375h-72v127h72v39q0 88 56 141t147 53q51 0 99 -21l-34 -124q-26 8 -43 8q-28 0 -47 -17q-18 -17 -18 -45v-32z" />
    <glyph glyph-name="g" unicode="g" horiz-adv-x="634" 
d="M575 502l2 -455q0 -113 -78 -176t-204 -63q-179 0 -252 121l133 72q28 -35 54 -48q25 -13 63 -13q55 0 90 32t35 90v14q-56 -48 -150 -48q-100 0 -171 71t-71 176q0 104 71 173t171 69q94 0 150 -48v33h157zM303 157l-2 -3q49 0 84 33q34 33 34 83q0 49 -34 82
q-35 33 -84 33q-52 0 -86 -32q-33 -31 -33 -81q0 -49 34 -82t87 -33z" />
    <glyph glyph-name="h" unicode="h" horiz-adv-x="619" 
d="M373 517h-3q87 0 141 -57t54 -151v-308h-159v274q0 44 -24 71t-63 27q-48 0 -75 -35q-27 -34 -27 -105v-233h-160v720h160v-266q61 63 156 63z" />
    <glyph glyph-name="i" unicode="i" horiz-adv-x="292" 
d="M146 741v-2q40 0 67 -27t27 -64q0 -38 -27 -63q-26 -25 -67 -25q-40 0 -66 26t-26 63t26 65q26 27 66 27zM226 -2h-160v502h160v-502z" />
    <glyph glyph-name="j" unicode="j" horiz-adv-x="303" 
d="M157 741v-2q40 0 67 -27t27 -64q0 -38 -27 -63q-26 -25 -67 -25q-40 0 -66 26t-26 63t26 65q25 27 66 27zM-27 -161l24 126q27 -8 39 -8q18 0 31 11q12 10 12 29v503h159v-521q0 -74 -43 -117q-44 -44 -117 -44q-52 0 -105 21z" />
    <glyph glyph-name="k" unicode="k" horiz-adv-x="612" 
d="M615 0h-205l-163 181h-29v-181h-160v720h160v-389h22l159 171h193l-220 -239z" />
    <glyph glyph-name="l" unicode="l" horiz-adv-x="276" 
d="M218 0h-160v720h160v-720z" />
    <glyph glyph-name="m" unicode="m" horiz-adv-x="951" 
d="M708 517v-1q82 0 138 -57q55 -56 55 -147v-314h-159v280q0 42 -24 68t-60 26q-45 0 -72 -33t-27 -94v-246h-160v280q0 43 -24 68q-24 26 -61 26q-44 0 -70 -33q-25 -32 -25 -94v-246h-160v502h160v-46q55 61 148 61q112 0 164 -85q64 85 177 85z" />
    <glyph glyph-name="n" unicode="n" horiz-adv-x="618" 
d="M372 517l-2 -1q88 0 142 -57t54 -151v-308h-159v274q0 44 -24 71t-62 27q-49 0 -76 -34t-27 -105v-233h-160v502h160v-48q60 63 154 63z" />
    <glyph glyph-name="o" unicode="o" horiz-adv-x="603" 
d="M303 515q115 0 195 -74t80 -189q0 -117 -80 -191t-195 -74q-116 0 -198 74q-81 74 -81 191q0 116 81 189q82 74 198 74zM303 121q49 0 85 36t36 93t-36 93t-84 36q-50 0 -87 -36t-37 -93t36 -93t87 -36z" />
    <glyph glyph-name="p" unicode="p" horiz-adv-x="644" 
d="M374 517v1q102 0 174 -75t72 -191q0 -117 -72 -192t-174 -75q-95 0 -156 55v-210h-160v672h160v-40q61 55 156 55zM341 122q53 0 87 36q34 35 34 94q0 58 -34 93q-34 36 -87 36q-50 0 -86 -37q-36 -38 -36 -93q0 -57 36 -93t86 -36z" />
    <glyph glyph-name="q" unicode="q" horiz-adv-x="644" 
d="M586 502v-673h-160v210q-61 -55 -156 -55q-102 0 -174 75t-72 192q0 116 72 191t174 75q95 0 156 -55v40h160zM303 120q50 0 86 36t36 93q0 55 -36 93q-36 37 -86 37q-53 0 -87 -36q-34 -35 -34 -93q0 -59 34 -94q34 -36 87 -36z" />
    <glyph glyph-name="r" unicode="r" horiz-adv-x="437" 
d="M391 509q21 0 36 -4l-7 -160h-29q-173 0 -173 -188v-157h-160v502h160v-96q61 103 173 103z" />
    <glyph glyph-name="s" unicode="s" horiz-adv-x="515" 
d="M24 131l153 31q11 -59 90 -59q30 0 48 12t18 29q0 28 -50 37l-102 20q-146 29 -146 146q0 77 60 123q61 47 156 47q92 0 152 -39t75 -105l-146 -29q-4 26 -27 42q-23 17 -57 17q-30 0 -43 -12t-13 -28q0 -27 38 -35l118 -24q68 -13 104 -54q35 -40 35 -96q0 -82 -63 -125
q-64 -44 -165 -44q-95 0 -159 36t-76 110z" />
    <glyph glyph-name="t" unicode="t" horiz-adv-x="433" 
d="M393 148l37 -126q-68 -37 -137 -37q-95 0 -147 51t-52 149v190h-91v127h91v148h160v-148h148v-127h-148v-174q0 -73 67 -73q37 0 72 20z" />
    <glyph glyph-name="u" unicode="u" horiz-adv-x="618" 
d="M560 502l1 -503h-160v48q-60 -63 -154 -63q-88 0 -142 57t-54 152v308h159v-274q0 -44 24 -71t62 -27q50 0 77 35q27 34 27 105v233h160z" />
    <glyph glyph-name="v" unicode="v" horiz-adv-x="593" 
d="M586 503l-208 -503h-163l-208 503h169l121 -310l120 310h169z" />
    <glyph glyph-name="w" unicode="w" horiz-adv-x="795" 
d="M788 502l-161 -503h-139l-90 272l-91 -272h-139l-161 503h157l82 -270l95 270h113l95 -271l82 271h157z" />
    <glyph glyph-name="x" unicode="x" horiz-adv-x="604" 
d="M416 243l166 -243h-184l-96 145l-97 -145h-183l165 243l-165 260h183l97 -156l96 156h184z" />
    <glyph glyph-name="y" unicode="y" horiz-adv-x="604" 
d="M597 503l-290 -673h-173l81 187l-208 486h172l119 -293l127 293h172z" />
    <glyph glyph-name="z" unicode="z" horiz-adv-x="538" 
d="M501 127v-127h-464v103l252 272h-246v127h449v-105l-252 -270h261z" />
    <glyph glyph-name="braceleft" unicode="{" horiz-adv-x="421" 
d="M263 582l-1 -149q0 -79 -62 -105q62 -26 62 -105v-147q0 -29 26 -29h95v-129h-133q-62 0 -99 36t-37 94v154q0 24 -15 36q-17 14 -45 22l-34 10v118l34 10q28 8 45 22q15 12 15 36v154q0 59 38 95t99 36h133v-130h-95q-26 0 -26 -29z" />
    <glyph glyph-name="bar" unicode="|" horiz-adv-x="265" 
d="M207 -72h-149v813h149v-813z" />
    <glyph glyph-name="braceright" unicode="}" horiz-adv-x="421" 
d="M401 388l-1 -116l-34 -10q-29 -8 -46 -22q-15 -12 -15 -36v-154q0 -58 -37 -94q-38 -36 -99 -36h-133v129h94q27 0 27 29v147q0 79 62 105q-62 26 -62 105v147q0 29 -27 29h-94v130h133q61 0 99 -36t38 -95v-154q0 -24 15 -36q17 -14 46 -22z" />
    <glyph glyph-name="asciitilde" unicode="~" horiz-adv-x="507" 
d="M160 227l-118 1q0 89 41 128t90 39q41 0 80 -21t53 -21q17 0 26 11t8 27h123q0 -89 -42 -129q-41 -40 -94 -40q-39 0 -79 20t-52 20q-34 0 -36 -35z" />
    <glyph glyph-name="exclamdown" unicode="&#xa1;" horiz-adv-x="297" 
d="M151 339h-1q-40 0 -66 26t-26 63t26 63q25 25 66 25t66 -25q26 -26 26 -63t-26 -63t-65 -26zM59 -128l10 410h158l10 -410v-31h-178v31z" />
    <glyph glyph-name="cent" unicode="&#xa2;" horiz-adv-x="580" 
d="M299 125l1 1q84 0 109 88l147 -32q-15 -73 -66 -122q-51 -50 -124 -66v-122h-133v123q-91 21 -148 90t-57 167t57 167t149 90v121h133v-120q71 -17 122 -66q52 -50 68 -120l-150 -36q-11 44 -39 66q-29 23 -69 23q-54 0 -87 -36t-33 -91q0 -56 33 -90q33 -35 87 -35z" />
    <glyph glyph-name="sterling" unicode="&#xa3;" horiz-adv-x="617" 
d="M272 143l314 1v-143h-552v103l74 22v108h-74v137h74v85q0 104 66 167t174 63q104 0 168 -63q65 -63 72 -163l-154 -28q-10 105 -85 105q-35 0 -56 -22q-21 -23 -21 -60v-85h166v-137h-166v-90z" />
    <glyph glyph-name="yen" unicode="&#xa5;" horiz-adv-x="698" 
d="M481 331h122v-103h-175v-43h175v-104h-175v-81h-165v81h-167v104h167v43h-167v103h115l-194 339h175l154 -278l152 278h183z" />
    <glyph glyph-name="section" unicode="&#xa7;" horiz-adv-x="550" 
d="M523 253l3 -2q0 -94 -82 -140q26 -38 26 -90q0 -79 -57 -123q-56 -43 -145 -43q-101 0 -157 49q-58 50 -59 132l134 25q8 -87 75 -87q25 0 42 15t17 38q0 35 -48 54l-124 49q-65 26 -95 63t-30 95q0 89 82 138q-26 38 -26 90q0 82 56 126q55 43 144 43q95 0 150 -48
q56 -48 60 -127l-136 -24q-5 80 -69 80q-26 0 -42 -15t-16 -37q0 -34 48 -54l124 -49q125 -50 125 -158zM338 189l11 -4q37 22 37 52q0 36 -48 57l-127 56l-12 5q-36 -19 -36 -53q0 -38 48 -58z" />
    <glyph glyph-name="dieresis" unicode="&#xa8;" horiz-adv-x="600" 
d="M186 731q37 0 63 -26t26 -62q0 -38 -25 -62q-26 -24 -64 -24t-64 24q-25 24 -25 62q0 36 26 62t63 26zM414 731q37 0 63 -26t26 -62q0 -38 -25 -62q-26 -24 -64 -24t-64 24q-25 24 -25 62q0 36 26 62t63 26z" />
    <glyph glyph-name="copyright" unicode="&#xa9;" horiz-adv-x="756" 
d="M376 685q147 0 248 -100q102 -101 102 -252q0 -150 -102 -249t-248 -99t-248 99t-102 249q0 151 102 252q101 100 248 100zM376 629v1q-120 0 -204 -84t-84 -211t84 -209q85 -83 204 -83t204 83q84 82 84 209q0 126 -84 210t-204 84zM381 523l-2 1q76 0 125 -40
q50 -41 56 -102l-96 -18q-8 30 -31 48q-24 18 -55 18q-38 0 -63 -27q-25 -26 -25 -67q0 -39 26 -67q26 -27 63 -27q33 0 57 18q23 18 28 53l97 -16q-5 -66 -54 -108t-126 -42q-78 0 -136 53q-57 52 -57 135t57 135q58 53 136 53z" />
    <glyph glyph-name="ordfeminine" unicode="&#xaa;" horiz-adv-x="390" 
d="M202 674l-2 -2q74 0 117 -34q44 -35 44 -102v-203h-114v19q-37 -28 -93 -28t-90 30t-34 79q0 48 39 76q38 28 106 28h72v10q0 20 -10 30q-12 12 -31 12q-37 0 -49 -37l-104 21q14 50 52 75q40 26 97 26zM187 402h-1q27 0 44 14t17 38v15h-58q-20 0 -32 -9t-12 -24
q0 -34 42 -34z" />
    <glyph glyph-name="guillemotleft" unicode="&#xab;" horiz-adv-x="505" 
d="M25 262l105 178h150l-105 -178l105 -178h-150zM225 262l105 178h150l-105 -178l105 -178h-150z" />
    <glyph glyph-name="registered" unicode="&#xae;" horiz-adv-x="487" 
d="M243 685q83 0 142 -57q58 -57 58 -144q0 -86 -58 -143q-59 -57 -142 -57t-142 57q-58 57 -58 143q0 87 58 144t142 57zM243 326l-2 -1q66 0 111 45t45 113q0 67 -45 114q-45 46 -111 46q-65 0 -110 -46q-45 -47 -45 -114t46 -112t111 -45zM329 519q0 -43 -42 -60l51 -61
h-54l-46 56h-25v-56h-46v182h88q34 0 54 -17t20 -44zM213 493h41q31 0 31 25q0 23 -31 23h-41v-48z" />
    <glyph glyph-name="macron" unicode="&#xaf;" horiz-adv-x="600" 
d="M466 570h-332v124h332v-124z" />
    <glyph glyph-name="degree" unicode="&#xb0;" horiz-adv-x="428" 
d="M215 685l-2 -1q65 0 111 -42t46 -110q0 -67 -46 -109t-111 -42t-112 42q-46 42 -46 110t47 110q46 42 113 42zM213 469q22 0 41 17q18 16 18 45t-18 45q-19 17 -41 17q-24 0 -43 -17q-18 -16 -18 -45t18 -45q19 -17 43 -17z" />
    <glyph glyph-name="plusminus" unicode="&#xb1;" horiz-adv-x="573" 
d="M523 465v-130h-171v-141h-131v141h-171v130h171v160h131v-160h171zM50 130h473v-130h-473v130z" />
    <glyph glyph-name="acute" unicode="&#xb4;" horiz-adv-x="600" 
d="M341 567h-142l71 152h190z" />
    <glyph glyph-name="paragraph" unicode="&#xb6;" horiz-adv-x="606" 
d="M390 0l-112 1v299h-50q-92 0 -150 51q-59 51 -59 137q0 88 53 135t143 47h175v-670zM546 1h-110v670h110v-670z" />
    <glyph glyph-name="periodcentered" unicode="&#xb7;" horiz-adv-x="246" 
d="M123 351l-1 -2q39 0 66 -27t27 -64t-26 -63t-66 -26q-39 0 -65 26t-26 65q0 36 26 64q26 27 65 27z" />
    <glyph glyph-name="cedilla" unicode="&#xb8;" horiz-adv-x="600" 
d="M281 0h115l-49 -160h-166z" />
    <glyph glyph-name="ordmasculine" unicode="&#xba;" horiz-adv-x="422" 
d="M210 674h-1q79 0 132 -49q54 -49 54 -126t-54 -126q-53 -49 -131 -49q-77 0 -130 49q-54 49 -54 126t54 126q53 49 130 49zM209 426v-1q30 0 51 21t21 52q0 32 -21 53t-51 21q-29 0 -48 -21q-20 -22 -20 -52t20 -52q19 -21 48 -21z" />
    <glyph glyph-name="guillemotright" unicode="&#xbb;" horiz-adv-x="505" 
d="M25 84l105 178l-105 178h150l105 -178l-105 -178h-150zM225 84l105 178l-105 178h150l105 -178l-105 -178h-150z" />
    <glyph glyph-name="onequarter" unicode="&#xbc;" horiz-adv-x="750" 
d="M95 531l-78 -46v111l115 74h72v-383h-109v244zM661 670l-484 -670h-94l484 670h94zM727 64h-48v-64h-101v64h-196v98l170 221h127v-230h48v-89zM578 153v121l-92 -121h92z" />
    <glyph glyph-name="onehalf" unicode="&#xbd;" horiz-adv-x="805" 
d="M95 531l-78 -46v111l115 74h72v-383h-109v244zM644 670l-484 -670h-94l485 670h93zM601 93l129 -2v-93h-294v69l141 124q19 17 29 26q9 9 15 21t6 24q0 16 -12 27q-13 11 -31 11q-47 0 -49 -62l-97 21q0 60 40 96t106 36q67 0 107 -34q41 -35 41 -96q0 -37 -21 -66
t-63 -63z" />
    <glyph glyph-name="threequarters" unicode="&#xbe;" horiz-adv-x="825" 
d="M324 406l-4 6q0 -54 -42 -90t-108 -36q-65 0 -106 34q-42 34 -46 91l95 21q6 -57 58 -57q20 0 34 11q13 10 13 27t-13 26q-14 9 -34 9h-42v76h36q22 0 37 9t15 26t-12 27q-11 10 -33 10q-50 0 -51 -54l-98 21q6 53 47 86q40 33 102 33q65 0 105 -34q41 -35 41 -87
q0 -50 -46 -75q52 -25 52 -80zM725 676l-484 -670h-94l485 670h93zM798 70h-48v-64h-101v64h-196v98l170 221h127v-230h48v-89zM649 159v121l-92 -121h92z" />
    <glyph glyph-name="questiondown" unicode="&#xbf;" horiz-adv-x="543" 
d="M278 339q-39 0 -66 27t-27 63q0 37 26 63q25 25 66 25t66 -25q26 -26 26 -63q0 -35 -26 -63q-25 -27 -65 -27zM360 60l152 -35q-10 -85 -80 -144q-68 -58 -178 -58q-106 0 -170 60q-65 60 -65 155q0 74 48 123t131 66v50h152v-161h-80q-40 0 -66 -20q-25 -19 -25 -51
q0 -35 23 -58q22 -22 60 -22q39 0 65 26q25 25 33 69z" />
    <glyph glyph-name="Agrave" unicode="&#xc0;" horiz-adv-x="729" 
d="M296 735l-119 152h190l71 -152h-142zM729 0h-176l-47 122h-282l-47 -122h-177l280 670h169zM451 264l-86 220l-85 -220h171z" />
    <glyph glyph-name="Aacute" unicode="&#xc1;" horiz-adv-x="729" 
d="M438 735h-142l71 152h190zM729 0h-176l-47 122h-282l-47 -122h-177l280 670h169zM451 264l-86 220l-85 -220h171z" />
    <glyph glyph-name="Acircumflex" unicode="&#xc2;" horiz-adv-x="729" 
d="M325 729h-154l115 155h159l116 -155h-155l-40 56zM729 0h-176l-47 122h-282l-47 -122h-177l280 670h169zM451 264l-86 220l-85 -220h171z" />
    <glyph glyph-name="Atilde" unicode="&#xc3;" horiz-adv-x="729" 
d="M319 780l-2 -1q-25 0 -30 -33h-97q0 77 34 114q35 38 81 38q35 0 69 -18q35 -18 52 -18q26 0 30 36h97q0 -78 -33 -116t-82 -38q-35 0 -68 18t-51 18zM727 -1h-176l-47 122h-282l-47 -122h-177l280 670h169zM449 263l-86 220l-85 -220h171z" />
    <glyph glyph-name="Adieresis" unicode="&#xc4;" horiz-adv-x="729" 
d="M251 724q-39 0 -64 24t-25 62q0 36 26 62t63 26t63 -26t26 -62q0 -38 -25 -62t-64 -24zM479 724q-39 0 -64 24t-25 62q0 36 26 62t63 26t63 -26t26 -62q0 -38 -25 -62t-64 -24zM729 0h-176l-47 122h-282l-47 -122h-177l280 670h169zM451 264l-86 220l-85 -220h171z" />
    <glyph glyph-name="Aring" unicode="&#xc5;" horiz-adv-x="729" 
d="M365 711q-53 0 -89 36t-36 87q0 52 36 88t89 36t89 -36t36 -88q0 -51 -36 -87t-89 -36zM365 873v-1q-17 0 -29 -12t-12 -28t12 -28t29 -12t29 12t12 28q0 17 -12 29t-29 12zM729 -1h-176l-47 122h-282l-47 -122h-177l280 670h169zM451 263l-86 220l-85 -220h171z" />
    <glyph glyph-name="AE" unicode="&#xc6;" horiz-adv-x="1046" 
d="M1007 142v-142h-521v109h-229l-65 -109h-192l429 670h575v-142h-354v-126h326v-134h-326v-126h357zM486 251v241l-144 -241h144z" />
    <glyph glyph-name="Ccedilla" unicode="&#xc7;" horiz-adv-x="764" 
d="M567 283l161 -36q-21 -113 -99 -182t-192 -81l-45 -147h-166l95 152q-123 22 -205 119q-81 96 -81 225q0 147 104 249q103 102 252 102q127 0 219 -70q93 -71 117 -187l-162 -38q-15 72 -61 107q-46 36 -114 36q-80 0 -135 -57q-55 -56 -55 -142q0 -84 56 -142
q56 -57 135 -57q66 0 113 38q46 38 63 111z" />
    <glyph glyph-name="Egrave" unicode="&#xc8;" horiz-adv-x="625" 
d="M259 735l-119 152h190l71 -152h-142zM580 142v-142h-522v670h519v-142h-354v-126h325v-134h-325v-126h357z" />
    <glyph glyph-name="Eacute" unicode="&#xc9;" horiz-adv-x="625" 
d="M400 735h-142l71 152h190zM580 142v-142h-522v670h519v-142h-354v-126h325v-134h-325v-126h357z" />
    <glyph glyph-name="Ecircumflex" unicode="&#xca;" horiz-adv-x="625" 
d="M288 729h-154l115 155h159l116 -155h-155l-40 56zM580 142v-142h-522v670h519v-142h-354v-126h325v-134h-325v-126h357z" />
    <glyph glyph-name="Edieresis" unicode="&#xcb;" horiz-adv-x="625" 
d="M214 724q-38 0 -64 24q-25 24 -25 62q0 36 26 62t63 26t63 -26t26 -62q0 -38 -25 -62q-26 -24 -64 -24zM442 724q-38 0 -64 24q-25 24 -25 62q0 36 26 62t63 26t63 -26t26 -62q0 -38 -25 -62q-26 -24 -64 -24zM580 142v-142h-522v670h519v-142h-354v-126h325v-134h-325
v-126h357z" />
    <glyph glyph-name="Igrave" unicode="&#xcc;" horiz-adv-x="281" 
d="M143 887l71 -152h-142l-119 152h190zM223 0h-165v670h165v-670z" />
    <glyph glyph-name="Iacute" unicode="&#xcd;" horiz-adv-x="281" 
d="M213 735h-142l71 152h190zM223 0h-165v670h165v-670z" />
    <glyph glyph-name="Icircumflex" unicode="&#xce;" horiz-adv-x="281" 
d="M100 729h-154l115 155h159l116 -155h-155l-40 56zM58 670h165v-670h-165v670z" />
    <glyph glyph-name="Idieresis" unicode="&#xcf;" horiz-adv-x="281" 
d="M27 899q37 0 63 -26t26 -62q0 -38 -25 -62q-26 -24 -64 -24t-64 24q-25 24 -25 62q0 36 26 62t63 26zM255 899q37 0 63 -26t26 -62q0 -38 -25 -62t-64 -24t-64 24t-25 62q0 36 26 62t63 26zM223 0h-165v670h165v-670z" />
    <glyph glyph-name="Eth" unicode="&#xd0;" horiz-adv-x="733" 
d="M77 670l263 2q164 1 266 -93q101 -93 101 -243t-100 -243t-265 -93h-265v263h-54v144h54v263zM239 145l94 -2q92 -1 151 53q57 52 57 140t-57 140q-58 53 -151 53h-94v-120h113v-144h-113v-120z" />
    <glyph glyph-name="Ntilde" unicode="&#xd1;" horiz-adv-x="757" 
d="M335 780l-2 -1q-25 0 -30 -33h-97q0 77 34 114q35 38 81 38q35 0 69 -18q35 -18 52 -18q26 0 30 36h97q0 -78 -33 -116t-82 -38q-35 0 -68 18t-51 18zM696 669v-670h-136l-339 388v-388h-165v670h137l339 -400v400h164z" />
    <glyph glyph-name="Ograve" unicode="&#xd2;" horiz-adv-x="784" 
d="M323 735l-119 152h190l71 -152h-142zM392 685l-4 -1q150 0 254 -102t104 -249q0 -145 -103 -247t-253 -102t-253 102t-103 248q0 147 104 249t254 102zM388 135q82 0 138 57q55 56 55 142q0 87 -55 143q-56 57 -138 57t-138 -57q-55 -56 -55 -143q0 -86 55 -142
q56 -57 138 -57z" />
    <glyph glyph-name="Oacute" unicode="&#xd3;" horiz-adv-x="784" 
d="M464 735h-142l71 152h190zM392 685l-4 -1q150 0 254 -102t104 -249q0 -145 -103 -247t-253 -102t-253 102t-103 248q0 147 104 249t254 102zM388 135q82 0 138 57q55 56 55 142q0 87 -55 143q-56 57 -138 57t-138 -57q-55 -56 -55 -143q0 -86 55 -142q56 -57 138 -57z
" />
    <glyph glyph-name="Ocircumflex" unicode="&#xd4;" horiz-adv-x="784" 
d="M352 729h-154l115 155h159l116 -155h-155l-40 56zM392 685l-4 -1q150 0 254 -102t104 -249q0 -145 -103 -247t-253 -102t-253 102t-103 248q0 147 104 249t254 102zM388 135q82 0 138 57q55 56 55 142q0 87 -55 143q-56 57 -138 57t-138 -57q-55 -56 -55 -143
q0 -86 55 -142q56 -57 138 -57z" />
    <glyph glyph-name="Otilde" unicode="&#xd5;" horiz-adv-x="784" 
d="M345 780l-2 -1q-25 0 -30 -33h-97q0 77 34 114q35 38 81 38q35 0 69 -18t52 -18q26 0 30 36h97q0 -78 -33 -116t-82 -38q-35 0 -68 18t-51 18zM390 684l-4 -1q150 0 254 -102t104 -249q0 -145 -103 -247t-253 -102t-253 102t-103 248q0 147 104 249t254 102zM386 134
q82 0 138 57q55 56 55 142q0 87 -55 143q-56 57 -138 57t-138 -57q-55 -56 -55 -143q0 -86 55 -142q56 -57 138 -57z" />
    <glyph glyph-name="Odieresis" unicode="&#xd6;" horiz-adv-x="784" 
d="M278 724q-38 0 -64 24q-25 24 -25 62q0 36 26 62t63 26t63 -26t26 -62q0 -38 -25 -62q-26 -24 -64 -24zM506 724q-38 0 -64 24q-25 24 -25 62q0 36 26 62t63 26t63 -26t26 -62q0 -38 -25 -62q-26 -24 -64 -24zM392 685l-4 -1q150 0 254 -102t104 -249q0 -145 -103 -247
t-253 -102t-253 102t-103 248q0 147 104 249t254 102zM388 135q82 0 138 57q55 56 55 142q0 87 -55 143q-56 57 -138 57t-138 -57q-55 -56 -55 -143q0 -86 55 -142q56 -57 138 -57z" />
    <glyph glyph-name="multiply" unicode="&#xd7;" horiz-adv-x="531" 
d="M359 304l132 -132l-93 -93l-132 132l-133 -132l-92 93l132 132l-132 131l92 93l133 -132l132 132l93 -93z" />
    <glyph glyph-name="Oslash" unicode="&#xd8;" horiz-adv-x="784" 
d="M740 593l-58 -56q65 -91 65 -203q0 -145 -103 -247q-104 -102 -253 -102q-109 0 -201 59l-67 -67l-80 80l64 64q-73 91 -73 213q0 147 104 249t254 102q119 0 213 -67l55 55zM198 334h1q0 -54 23 -98l270 270q-44 28 -101 28q-83 0 -138 -57q-55 -56 -55 -143zM391 136
l-1 -2q82 0 138 57q55 56 55 142q0 45 -17 87l-263 -263q39 -21 88 -21z" />
    <glyph glyph-name="Ugrave" unicode="&#xd9;" horiz-adv-x="713" 
d="M287 735l-119 152h190l71 -152h-142zM657 670l-1 -368q0 -144 -81 -231t-215 -87q-136 0 -220 87t-84 231v368h165v-368q0 -75 38 -121q37 -45 101 -45q60 0 96 45t36 121v368h165z" />
    <glyph glyph-name="Uacute" unicode="&#xda;" horiz-adv-x="713" 
d="M428 735h-142l71 152h190zM657 670l-1 -368q0 -144 -81 -231t-215 -87q-136 0 -220 87t-84 231v368h165v-368q0 -75 38 -121q37 -45 101 -45q60 0 96 45t36 121v368h165z" />
    <glyph glyph-name="Ucircumflex" unicode="&#xdb;" horiz-adv-x="713" 
d="M316 729h-154l115 155h159l116 -155h-155l-40 56zM657 670l-1 -368q0 -144 -81 -231t-215 -87q-136 0 -220 87t-84 231v368h165v-368q0 -75 38 -121q37 -45 101 -45q60 0 96 45t36 121v368h165z" />
    <glyph glyph-name="Udieresis" unicode="&#xdc;" horiz-adv-x="713" 
d="M242 724q-38 0 -64 24q-25 24 -25 62q0 36 26 62t63 26t63 -26t26 -62q0 -38 -25 -62q-26 -24 -64 -24zM470 724q-38 0 -64 24q-25 24 -25 62q0 36 26 62t63 26t63 -26t26 -62q0 -38 -25 -62q-26 -24 -64 -24zM657 670l-1 -368q0 -144 -81 -231t-215 -87q-136 0 -220 87
t-84 231v368h165v-368q0 -75 38 -121q37 -45 101 -45q60 0 96 45t36 121v368h165z" />
    <glyph glyph-name="Yacute" unicode="&#xdd;" horiz-adv-x="706" 
d="M425 735h-142l71 152h190zM434 210v-210h-168v208l-259 462h180l165 -294l163 294h184z" />
    <glyph glyph-name="Thorn" unicode="&#xde;" horiz-adv-x="651" 
d="M223 565l149 -1q110 0 177 -63q68 -63 68 -166q0 -104 -69 -167t-181 -63h-144v-105h-165v670h165v-105zM222 242l134 1q46 0 72 25q27 26 27 66q0 41 -27 65t-72 24h-134v-181z" />
    <glyph glyph-name="germandbls" unicode="&#xdf;" horiz-adv-x="664" 
d="M506 383v1q62 -18 96 -64q35 -47 35 -117q0 -92 -62 -152q-61 -60 -162 -60q-71 0 -138 12l17 131q63 -10 95 -10q43 0 72 26t29 60q0 45 -35 71t-98 26h-43v128h22q47 0 73 22q27 23 27 57q0 41 -27 65t-70 24q-54 0 -87 -34q-33 -35 -33 -93v-477h-160v465
q0 122 77 197q76 75 203 75q112 0 182 -58q71 -59 71 -147q0 -109 -84 -148z" />
    <glyph glyph-name="agrave" unicode="&#xe0;" horiz-adv-x="644" 
d="M252 567l-119 152h190l71 -152h-142zM586 502v-503h-160v40q-61 -55 -156 -55q-102 0 -174 75t-72 192q0 116 72 191t174 75q95 0 156 -55v40h160zM303 120q50 0 86 36t36 93q0 55 -36 93q-36 37 -86 37q-53 0 -87 -36q-34 -35 -34 -93q0 -59 34 -94q34 -36 87 -36z" />
    <glyph glyph-name="aacute" unicode="&#xe1;" horiz-adv-x="644" 
d="M394 567h-142l71 152h190zM586 502v-503h-160v40q-61 -55 -156 -55q-102 0 -174 75t-72 192q0 116 72 191t174 75q95 0 156 -55v40h160zM303 120q50 0 86 36t36 93q0 55 -36 93q-36 37 -86 37q-53 0 -87 -36q-34 -35 -34 -93q0 -59 34 -94q34 -36 87 -36z" />
    <glyph glyph-name="acircumflex" unicode="&#xe2;" horiz-adv-x="644" 
d="M281 561h-154l115 155h159l116 -155h-155l-40 56zM586 502v-503h-160v40q-61 -55 -156 -55q-102 0 -174 75t-72 192q0 116 72 191t174 75q95 0 156 -55v40h160zM303 120q50 0 86 36t36 93q0 55 -36 93q-36 37 -86 37q-53 0 -87 -36q-34 -35 -34 -93q0 -59 34 -94
q34 -36 87 -36z" />
    <glyph glyph-name="atilde" unicode="&#xe3;" horiz-adv-x="644" 
d="M275 612l-2 -1q-25 0 -30 -33h-97q0 77 34 114q35 38 81 38q35 0 69 -18t52 -18q26 0 30 36h97q0 -78 -33 -116t-82 -38q-35 0 -68 18t-51 18zM584 501v-503h-160v40q-61 -55 -156 -55q-102 0 -174 75t-72 192q0 116 72 191t174 75q95 0 156 -55v40h160zM301 119
q50 0 86 36t36 93q0 56 -36 93t-86 37q-53 0 -87 -36q-34 -35 -34 -93q0 -59 34 -94q34 -36 87 -36z" />
    <glyph glyph-name="adieresis" unicode="&#xe4;" horiz-adv-x="644" 
d="M207 556q-39 0 -64 24t-25 62q0 36 26 62t63 26t63 -26t26 -62q0 -38 -25 -62t-64 -24zM435 556q-39 0 -64 24t-25 62q0 36 26 62t63 26t63 -26t26 -62q0 -38 -25 -62t-64 -24zM586 502v-503h-160v40q-61 -55 -156 -55q-102 0 -174 75t-72 192q0 116 72 191t174 75
q95 0 156 -55v40h160zM303 120q50 0 86 36t36 93q0 55 -36 93q-36 37 -86 37q-53 0 -87 -36q-34 -35 -34 -93q0 -59 34 -94q34 -36 87 -36z" />
    <glyph glyph-name="aring" unicode="&#xe5;" horiz-adv-x="644" 
d="M321 543q-53 0 -89 36t-36 87q0 52 36 88t89 36t89 -36t36 -88q0 -51 -36 -87t-89 -36zM321 705v-1q-17 0 -29 -12t-12 -28t12 -28t29 -12t29 12t12 28q0 17 -12 29t-29 12zM586 501v-503h-160v40q-61 -55 -156 -55q-102 0 -174 75t-72 192q0 116 72 191t174 75
q95 0 156 -55v40h160zM303 119q50 0 86 36t36 93q0 56 -36 93t-86 37q-53 0 -87 -36q-34 -35 -34 -93q0 -59 34 -94q34 -36 87 -36z" />
    <glyph glyph-name="ae" unicode="&#xe6;" horiz-adv-x="896" 
d="M871 204l-367 1q24 -91 112 -91q70 0 100 58l140 -29q-20 -71 -87 -114t-156 -43q-109 0 -186 71q-76 -71 -201 -71q-97 0 -150 44t-53 117q0 74 54 113t155 39h127v23q0 34 -21 53q-22 20 -56 20q-32 0 -54 -17q-20 -16 -25 -48l-148 30q10 70 71 114t156 44
q105 0 167 -53q71 53 162 53q113 0 186 -75q74 -76 74 -199v-40zM504 299h209q-9 46 -36 68q-28 23 -64 23q-40 0 -70 -24t-39 -67zM359 203l-109 1q-69 0 -69 -47q0 -24 19 -39q20 -15 51 -15q43 0 75 25q33 26 33 60v15z" />
    <glyph glyph-name="ccedilla" unicode="&#xe7;" horiz-adv-x="580" 
d="M299 125v-2q84 0 109 88l147 -32q-17 -76 -70 -126q-55 -52 -131 -65l-46 -150h-166l95 152q-91 19 -151 90q-60 70 -60 171q0 116 80 191t195 75q93 0 164 -53t92 -140l-150 -36q-11 44 -39 66q-29 23 -69 23q-54 0 -87 -36t-33 -91q0 -56 33 -90q33 -35 87 -35z" />
    <glyph glyph-name="egrave" unicode="&#xe8;" horiz-adv-x="575" 
d="M224 567l-119 152h190l71 -152h-142zM550 251l1 -43h-368q11 -46 39 -71q29 -26 69 -26q76 0 107 58l142 -29q-32 -78 -96 -117t-153 -39q-111 0 -188 75t-77 192q0 116 77 191t189 75q110 0 183 -73q72 -72 75 -193zM292 385q-35 0 -65 -21q-31 -22 -41 -58h207
q-11 39 -38 59q-28 20 -63 20z" />
    <glyph glyph-name="eacute" unicode="&#xe9;" horiz-adv-x="575" 
d="M365 567h-142l71 152h190zM550 251l1 -43h-368q11 -46 39 -71q29 -26 69 -26q76 0 107 58l142 -29q-32 -78 -96 -117t-153 -39q-111 0 -188 75t-77 192q0 116 77 191t189 75q110 0 183 -73q72 -72 75 -193zM292 385q-35 0 -65 -21q-31 -22 -41 -58h207q-11 39 -38 59
q-28 20 -63 20z" />
    <glyph glyph-name="ecircumflex" unicode="&#xea;" horiz-adv-x="575" 
d="M253 561h-154l115 155h159l116 -155h-155l-40 56zM550 251l1 -43h-368q11 -46 39 -71q29 -26 69 -26q76 0 107 58l142 -29q-32 -78 -96 -117t-153 -39q-111 0 -188 75t-77 192q0 116 77 191t189 75q110 0 183 -73q72 -72 75 -193zM292 385q-35 0 -65 -21q-31 -22 -41 -58
h207q-11 39 -38 59q-28 20 -63 20z" />
    <glyph glyph-name="edieresis" unicode="&#xeb;" horiz-adv-x="575" 
d="M179 556q-38 0 -64 24q-25 24 -25 62q0 36 26 62t63 26t63 -26t26 -62q0 -38 -25 -62q-26 -24 -64 -24zM407 556q-39 0 -64 24t-25 62q0 36 26 62t63 26t63 -26t26 -62q0 -38 -25 -62t-64 -24zM550 251l1 -43h-368q11 -46 39 -71q29 -26 69 -26q76 0 107 58l142 -29
q-32 -78 -96 -117t-153 -39q-111 0 -188 75t-77 192q0 116 77 191t189 75q110 0 183 -73q72 -72 75 -193zM292 385q-35 0 -65 -21q-31 -22 -41 -58h207q-11 39 -38 59q-28 20 -63 20z" />
    <glyph glyph-name="igrave" unicode="&#xec;" horiz-adv-x="297" 
d="M151 719l71 -152h-142l-119 152h190zM228 0h-159v502h159v-502z" />
    <glyph glyph-name="iacute" unicode="&#xed;" horiz-adv-x="297" 
d="M221 567h-142l71 152h190zM228 0h-159v502h159v-502z" />
    <glyph glyph-name="icircumflex" unicode="&#xee;" horiz-adv-x="297" 
d="M108 561h-154l115 155h159l116 -155h-155l-40 56zM69 502h159v-502h-159v502z" />
    <glyph glyph-name="idieresis" unicode="&#xef;" horiz-adv-x="297" 
d="M35 731q37 0 63 -26t26 -62q0 -38 -25 -62t-64 -24q-38 0 -64 24q-25 24 -25 62q0 36 26 62t63 26zM263 731q37 0 63 -26t26 -62q0 -38 -25 -62t-64 -24t-64 24t-25 62q0 36 26 62t63 26zM228 0h-159v502h159v-502z" />
    <glyph glyph-name="eth" unicode="&#xf0;" horiz-adv-x="605" 
d="M477 643l-62 -25q165 -178 165 -366q0 -68 -24 -120q-24 -53 -64 -84q-41 -32 -88 -48t-99 -16q-115 0 -198 75q-82 75 -82 192q0 118 71 192t180 74q33 0 60 -10q-21 25 -59 58l-133 -52l-36 87l75 29q-60 32 -130 60v31h242q15 -8 43 -30l103 41zM304 120l-1 -2
q55 0 88 40t33 93t-35 91q-34 37 -86 37q-55 0 -89 -36q-35 -37 -35 -93t36 -93t89 -37z" />
    <glyph glyph-name="ntilde" unicode="&#xf1;" horiz-adv-x="618" 
d="M266 612l-2 -1q-26 0 -30 -33h-97q0 77 34 114q35 38 81 38q34 0 69 -18t52 -18q25 0 30 36h97q0 -78 -33 -116t-82 -38q-35 0 -68 18t-51 18zM370 516l-2 -1q88 0 142 -57t54 -151v-308h-159v274q0 44 -24 71t-62 27q-49 0 -76 -34q-27 -35 -27 -105v-233h-160v502h160
v-48q60 63 154 63z" />
    <glyph glyph-name="ograve" unicode="&#xf2;" horiz-adv-x="603" 
d="M234 567l-119 152h190l71 -152h-142zM303 515q115 0 195 -74t80 -189q0 -117 -80 -191t-195 -74q-116 0 -198 74q-81 74 -81 191q0 116 81 189q82 74 198 74zM303 121q49 0 85 36t36 93t-36 93t-84 36q-50 0 -87 -36t-37 -93t36 -93t87 -36z" />
    <glyph glyph-name="oacute" unicode="&#xf3;" horiz-adv-x="603" 
d="M375 567h-142l71 152h190zM303 515q115 0 195 -74t80 -189q0 -117 -80 -191t-195 -74q-116 0 -198 74q-81 74 -81 191q0 116 81 189q82 74 198 74zM303 121q49 0 85 36t36 93t-36 93t-84 36q-50 0 -87 -36t-37 -93t36 -93t87 -36z" />
    <glyph glyph-name="ocircumflex" unicode="&#xf4;" horiz-adv-x="603" 
d="M262 561h-154l115 155h159l116 -155h-155l-40 56zM303 515q115 0 195 -74t80 -189q0 -117 -80 -191t-195 -74q-116 0 -198 74q-81 74 -81 191q0 116 81 189q82 74 198 74zM303 121q49 0 85 36t36 93t-36 93t-84 36q-50 0 -87 -36t-37 -93t36 -93t87 -36z" />
    <glyph glyph-name="otilde" unicode="&#xf5;" horiz-adv-x="603" 
d="M256 612l-2 -1q-26 0 -30 -33h-97q0 77 34 114q35 38 81 38q34 0 69 -18t52 -18q25 0 30 36h97q0 -78 -33 -116t-82 -38q-35 0 -68 18t-51 18zM301 514q115 0 195 -74t80 -189q0 -117 -80 -191t-195 -74q-116 0 -198 74q-81 74 -81 191q0 115 81 189q82 74 198 74z
M301 120q49 0 85 36t36 93t-36 93t-84 36q-50 0 -87 -36t-37 -93t36 -93t87 -36z" />
    <glyph glyph-name="odieresis" unicode="&#xf6;" horiz-adv-x="603" 
d="M189 556q-39 0 -64 24t-25 62q0 36 26 62t63 26t63 -26t26 -62q0 -38 -25 -62t-64 -24zM417 556q-39 0 -64 24t-25 62q0 36 26 62t63 26t63 -26t26 -62q0 -38 -25 -62t-64 -24zM303 515q115 0 195 -74t80 -189q0 -117 -80 -191t-195 -74q-116 0 -198 74q-81 74 -81 191
q0 116 81 189q82 74 198 74zM303 121q49 0 85 36t36 93t-36 93t-84 36q-50 0 -87 -36t-37 -93t36 -93t87 -36z" />
    <glyph glyph-name="divide" unicode="&#xf7;" horiz-adv-x="573" 
d="M284 583h-2q38 0 62 -25q24 -26 24 -60q0 -36 -24 -60t-61 -24t-61 24t-24 60q0 34 24 60q24 25 62 25zM521 248h-473v131h473v-131zM282 215h-2q38 0 62 -25q24 -26 24 -60q0 -36 -24 -60t-61 -24t-61 24t-24 60q0 34 24 60q24 25 62 25z" />
    <glyph glyph-name="oslash" unicode="&#xf8;" horiz-adv-x="603" 
d="M573 458l-49 -47q53 -68 53 -159q0 -117 -80 -191t-195 -74q-87 0 -158 44l-52 -52l-64 64l49 49q-53 70 -53 160q0 116 81 189q82 74 198 74q85 0 155 -44l51 51zM178 252l-1 -1q0 -27 9 -50l167 167q-22 13 -51 13q-50 0 -87 -36t-37 -93zM301 121v1q49 0 85 36t36 93
q0 23 -8 49l-167 -166q25 -13 54 -13z" />
    <glyph glyph-name="ugrave" unicode="&#xf9;" horiz-adv-x="618" 
d="M238 567l-119 152h190l71 -152h-142zM560 502l1 -503h-160v48q-60 -63 -154 -63q-88 0 -142 57t-54 152v308h159v-274q0 -44 24 -71t62 -27q50 0 77 35q27 34 27 105v233h160z" />
    <glyph glyph-name="uacute" unicode="&#xfa;" horiz-adv-x="618" 
d="M380 567h-142l71 152h190zM560 502l1 -503h-160v48q-60 -63 -154 -63q-88 0 -142 57t-54 152v308h159v-274q0 -44 24 -71t62 -27q50 0 77 35q27 34 27 105v233h160z" />
    <glyph glyph-name="ucircumflex" unicode="&#xfb;" horiz-adv-x="618" 
d="M267 561h-154l115 155h159l116 -155h-155l-40 56zM560 502l1 -503h-160v48q-60 -63 -154 -63q-88 0 -142 57t-54 152v308h159v-274q0 -44 24 -71t62 -27q50 0 77 35q27 34 27 105v233h160z" />
    <glyph glyph-name="udieresis" unicode="&#xfc;" horiz-adv-x="618" 
d="M193 556q-39 0 -64 24t-25 62q0 36 26 62t63 26t63 -26t26 -62q0 -38 -25 -62t-64 -24zM421 556q-39 0 -64 24t-25 62q0 36 26 62t63 26t63 -26t26 -62q0 -38 -25 -62t-64 -24zM560 502l1 -503h-160v48q-60 -63 -154 -63q-88 0 -142 57t-54 152v308h159v-274
q0 -44 24 -71t62 -27q50 0 77 35q27 34 27 105v233h160z" />
    <glyph glyph-name="yacute" unicode="&#xfd;" horiz-adv-x="604" 
d="M368 568h-142l71 152h190zM597 503l-290 -673h-173l81 187l-208 486h172l119 -293l127 293h172z" />
    <glyph glyph-name="thorn" unicode="&#xfe;" horiz-adv-x="644" 
d="M374 517v1q102 0 174 -75t72 -191q0 -117 -72 -192t-174 -75q-95 0 -156 55v-210h-160v890h160v-258q61 55 156 55zM341 122q53 0 87 36q34 35 34 94q0 58 -34 93q-34 36 -87 36q-50 0 -86 -37q-36 -38 -36 -93q0 -57 36 -93t86 -36z" />
    <glyph glyph-name="ydieresis" unicode="&#xff;" horiz-adv-x="604" 
d="M181 557q-39 0 -64 24t-25 62q0 36 26 62t63 26t63 -26t26 -62q0 -38 -25 -62t-64 -24zM409 557q-39 0 -64 24t-25 62q0 36 26 62t63 26t63 -26t26 -62q0 -38 -25 -62t-64 -24zM597 503l-290 -673h-173l81 187l-208 486h172l119 -293l127 293h172z" />
    <glyph glyph-name="Amacron" unicode="&#x100;" horiz-adv-x="729" 
d="M531 738h-332v124h332v-124zM729 0h-176l-47 122h-282l-47 -122h-177l280 670h169zM451 264l-86 220l-85 -220h171z" />
    <glyph glyph-name="amacron" unicode="&#x101;" horiz-adv-x="644" 
d="M487 570h-332v124h332v-124zM586 502v-503h-160v40q-61 -55 -156 -55q-102 0 -174 75t-72 192q0 116 72 191t174 75q95 0 156 -55v40h160zM303 120q50 0 86 36t36 93q0 55 -36 93q-36 37 -86 37q-53 0 -87 -36q-34 -35 -34 -93q0 -59 34 -94q34 -36 87 -36z" />
    <glyph glyph-name="Abreve" unicode="&#x102;" horiz-adv-x="729" 
d="M365 718h-3q-82 0 -129 43q-48 43 -48 115h126q0 -22 15 -37t37 -15q23 0 38 15t15 37h126q0 -72 -48 -115q-47 -43 -129 -43zM726 0h-176l-47 122h-282l-47 -122h-177l280 670h169zM448 264l-86 220l-85 -220h171z" />
    <glyph glyph-name="abreve" unicode="&#x103;" horiz-adv-x="644" 
d="M321 550h-3q-82 0 -129 43q-48 43 -48 115h126q0 -22 15 -37t37 -15q23 0 38 15t15 37h126q0 -72 -48 -115q-47 -43 -129 -43zM583 502v-503h-160v40q-61 -55 -156 -55q-102 0 -174 75t-72 192q0 116 72 191t174 75q95 0 156 -55v40h160zM300 120q50 0 86 36t36 93
q0 55 -36 93q-36 37 -86 37q-52 0 -87 -36q-34 -35 -34 -93q0 -59 34 -94q35 -36 87 -36z" />
    <glyph glyph-name="Aogonek" unicode="&#x104;" horiz-adv-x="729" 
d="M747 -100l4 -92q-45 -22 -93 -22q-45 0 -73 24t-28 68q0 65 67 120h-72l-47 122h-282l-47 -122h-177l280 670h169l280 -670q-8 -10 -16 -18q-12 -12 -14 -15q-4 -6 -10 -12q-7 -7 -9 -11q0 -1 -2 -4t-3 -5q-2 -4 -4 -10q-1 -3 -1 -9q0 -24 28 -24q19 0 50 10zM449 263
l-86 220l-85 -220h171z" />
    <glyph glyph-name="aogonek" unicode="&#x105;" horiz-adv-x="644" 
d="M603 -100l4 -93q-45 -22 -93 -22q-44 0 -73 24q-28 24 -28 68q0 65 67 120h-55v40q-61 -55 -156 -55q-102 0 -174 75t-72 192q0 116 72 191t174 75q95 0 156 -55v40h160v-502h-1q-8 -10 -16 -18q-12 -12 -14 -15q-4 -6 -10 -12q-7 -7 -9 -11q0 -1 -2 -4t-3 -5
q-2 -4 -4 -10q-1 -3 -1 -9q0 -24 28 -24q19 0 50 10zM301 119q50 0 86 36t36 93q0 56 -36 93t-86 37q-53 0 -87 -36q-34 -35 -34 -93q0 -59 34 -94q34 -36 87 -36z" />
    <glyph glyph-name="Cacute" unicode="&#x106;" horiz-adv-x="764" 
d="M463 735h-142l71 152h190zM567 283l159 -34q-22 -125 -114 -195q-92 -71 -222 -71q-148 0 -252 101q-103 100 -103 249q0 147 104 249q103 102 252 102q127 0 219 -70q93 -71 117 -187l-162 -38q-15 72 -61 107q-46 36 -114 36q-80 0 -135 -57q-55 -56 -55 -142
q0 -84 56 -142q56 -57 135 -57q66 0 113 38q46 38 63 111z" />
    <glyph glyph-name="cacute" unicode="&#x107;" horiz-adv-x="580" 
d="M371 567h-142l71 152h190zM299 125v-1q84 0 109 88l147 -32q-19 -88 -90 -142t-165 -54q-116 0 -195 75t-79 192q0 116 80 191t195 75q93 0 164 -53t92 -140l-150 -36q-11 44 -39 66q-29 23 -69 23q-54 0 -87 -36t-33 -91q0 -56 33 -90q33 -35 87 -35z" />
    <glyph glyph-name="Cdotaccent" unicode="&#x10a;" horiz-adv-x="764" 
d="M390 732v-2q-39 0 -64 25t-25 63q0 36 26 62t63 26q38 0 63 -25q26 -26 26 -61q0 -38 -25 -63t-64 -25zM567 281l159 -34q-22 -125 -114 -195q-92 -71 -222 -71q-148 0 -252 101q-103 100 -103 249q0 147 104 249q103 102 252 102q127 0 219 -70q93 -71 117 -187
l-162 -38q-15 72 -61 107q-46 36 -114 36q-80 0 -135 -57q-55 -56 -55 -142q0 -84 56 -142q56 -57 135 -57q66 0 113 38q46 38 63 111z" />
    <glyph glyph-name="cdotaccent" unicode="&#x10b;" horiz-adv-x="580" 
d="M298 564v-2q-39 0 -64 25t-25 63q0 36 26 62t63 26q38 0 63 -25q26 -26 26 -61q0 -38 -25 -63t-64 -25zM299 123v-1q84 0 109 88l147 -32q-19 -88 -90 -142t-165 -54q-116 0 -195 75t-79 192q0 116 80 191t195 75q93 0 164 -53t92 -140l-150 -36q-11 44 -39 66
q-29 23 -69 23q-54 0 -87 -36t-33 -91q0 -56 33 -90q33 -35 87 -35z" />
    <glyph glyph-name="Ccaron" unicode="&#x10c;" horiz-adv-x="764" 
d="M311 729l-115 155h154l41 -56l40 56h155l-116 -155h-159zM567 283l159 -34q-22 -125 -114 -195q-92 -71 -222 -71q-148 0 -252 101q-103 100 -103 249q0 147 104 249q103 102 252 102q127 0 219 -70q93 -71 117 -187l-162 -38q-15 72 -61 107q-46 36 -114 36
q-80 0 -135 -57q-55 -56 -55 -142q0 -84 56 -142q56 -57 135 -57q66 0 113 38q46 38 63 111z" />
    <glyph glyph-name="ccaron" unicode="&#x10d;" horiz-adv-x="580" 
d="M219 561l-115 155h154l41 -56l40 56h155l-116 -155h-159zM299 125v-1q84 0 109 88l147 -32q-19 -88 -90 -142t-165 -54q-116 0 -195 75t-79 192q0 116 80 191t195 75q93 0 164 -53t92 -140l-150 -36q-11 44 -39 66q-29 23 -69 23q-54 0 -87 -36t-33 -91q0 -56 33 -90
q33 -35 87 -35z" />
    <glyph glyph-name="Dcaron" unicode="&#x10e;" horiz-adv-x="725" 
d="M273 729l-115 155h154l41 -56l40 56h155l-116 -155h-159zM58 670l265 2q164 1 266 -93q101 -93 101 -243t-101 -243t-266 -93h-265v670zM223 145l94 -2q92 -1 151 53q57 52 57 140t-57 140q-58 53 -151 53h-94v-384z" />
    <glyph glyph-name="dcaron" unicode="&#x10f;" horiz-adv-x="644" 
d="M426 720l160 -1v-720h-160v40q-61 -55 -156 -55q-102 0 -174 75t-72 192q0 116 72 191t174 75q95 0 156 -55v258zM789 719l-35 -199h-116v199h151zM303 120q50 0 86 36t36 93q0 55 -36 93q-36 37 -86 37q-53 0 -87 -36q-34 -35 -34 -93q0 -59 34 -94q34 -36 87 -36z" />
    <glyph glyph-name="Dcroat" unicode="&#x110;" horiz-adv-x="733" 
d="M77 670l263 2q164 1 266 -93q101 -93 101 -243t-100 -243t-265 -93h-265v263h-54v144h54v263zM239 145l94 -2q92 -1 151 53q57 52 57 140t-57 140q-58 53 -151 53h-94v-120h113v-144h-113v-120z" />
    <glyph glyph-name="dcroat" unicode="&#x111;" horiz-adv-x="662" 
d="M636 546l-50 -1v-546h-160v40q-61 -55 -156 -55q-102 0 -174 75t-72 192q0 116 72 191t174 75q95 0 156 -55v84h-135v119h135v55h160v-55h50v-119zM303 120q50 0 86 36t36 93q0 55 -36 93q-36 37 -86 37q-53 0 -87 -36q-34 -35 -34 -93q0 -59 34 -94q34 -36 87 -36z" />
    <glyph glyph-name="Emacron" unicode="&#x112;" horiz-adv-x="625" 
d="M494 738h-332v124h332v-124zM580 142v-142h-522v670h519v-142h-354v-126h325v-134h-325v-126h357z" />
    <glyph glyph-name="emacron" unicode="&#x113;" horiz-adv-x="575" 
d="M459 570h-332v124h332v-124zM550 251l1 -43h-368q11 -46 39 -71q29 -26 69 -26q76 0 107 58l142 -29q-32 -78 -96 -117t-153 -39q-111 0 -188 75t-77 192q0 116 77 191t189 75q110 0 183 -73q72 -72 75 -193zM292 385q-35 0 -65 -21q-31 -22 -41 -58h207q-11 39 -38 59
q-28 20 -63 20z" />
    <glyph glyph-name="Edotaccent" unicode="&#x116;" horiz-adv-x="625" 
d="M327 732v-2q-39 0 -64 25t-25 63q0 36 26 62t63 26q38 0 63 -25q26 -26 26 -61q0 -38 -25 -63t-64 -25zM580 140v-142h-522v670h519v-142h-354v-126h325v-134h-325v-126h357z" />
    <glyph glyph-name="edotaccent" unicode="&#x117;" horiz-adv-x="575" 
d="M292 564v-2q-39 0 -64 25t-25 63q0 36 26 62t63 26q38 0 63 -25q26 -26 26 -61q0 -38 -25 -63t-64 -25zM550 249l1 -43h-368q11 -46 39 -71q29 -26 69 -26q76 0 107 58l142 -29q-32 -78 -96 -117t-153 -39q-111 0 -188 75t-77 192q0 116 77 191t189 75q110 0 183 -73
q72 -72 75 -193zM292 383q-35 0 -65 -21q-31 -22 -41 -58h207q-11 39 -38 59q-28 20 -63 20z" />
    <glyph glyph-name="Eogonek" unicode="&#x118;" horiz-adv-x="625" 
d="M580 0l-31 -1q-8 -10 -16 -18q-12 -12 -14 -15q-4 -6 -10 -12q-7 -7 -9 -11q0 -1 -2 -4t-3 -5q-2 -4 -4 -10q-1 -3 -1 -9q0 -24 28 -24q19 0 50 10l6 -91q-45 -22 -93 -22q-45 0 -73 24t-28 68q0 65 67 120h-389v670h519v-142h-354v-126h325v-134h-325v-126h357v-142z
" />
    <glyph glyph-name="eogonek" unicode="&#x119;" horiz-adv-x="575" 
d="M550 210l-369 -1q9 -46 38 -72q28 -25 69 -25q77 0 108 58l142 -29q-16 -35 -72 -93q-40 -40 -60 -69t-20 -60q0 -30 32 -30q19 0 50 10l6 -85q-46 -29 -96 -29t-79 25q-30 26 -30 67q0 56 40 108l-20 -1q-106 -6 -188 75q-77 75 -77 192q0 116 77 191t188 75t186 -75
t75 -198v-34zM182 307h205q-16 79 -99 79q-35 0 -65 -21q-31 -22 -41 -58z" />
    <glyph glyph-name="Ecaron" unicode="&#x11a;" horiz-adv-x="625" 
d="M249 729l-115 155h154l41 -56l40 56h155l-116 -155h-159zM580 142v-142h-522v670h519v-142h-354v-126h325v-134h-325v-126h357z" />
    <glyph glyph-name="ecaron" unicode="&#x11b;" horiz-adv-x="575" 
d="M214 561l-115 155h154l41 -56l40 56h155l-116 -155h-159zM550 251l1 -43h-368q11 -46 39 -71q29 -26 69 -26q76 0 107 58l142 -29q-32 -78 -96 -117t-153 -39q-111 0 -188 75t-77 192q0 116 77 191t189 75q110 0 183 -73q72 -72 75 -193zM292 385q-35 0 -65 -21
q-31 -22 -41 -58h207q-11 39 -38 59q-28 20 -63 20z" />
    <glyph glyph-name="Gbreve" unicode="&#x11e;" horiz-adv-x="778" 
d="M398 718h-3q-82 0 -129 43q-48 43 -48 115h126q0 -22 15 -37t37 -15q23 0 38 15t15 37h126q0 -72 -48 -115q-47 -43 -129 -43zM367 395l368 -3q4 -28 4 -60q0 -150 -98 -250q-97 -99 -249 -99q-150 0 -256 101q-105 100 -105 249q0 147 104 249q103 102 255 102
q116 0 204 -52q89 -53 123 -148l-159 -46q-50 96 -168 96q-82 0 -138 -57q-55 -56 -55 -142q0 -85 57 -142t141 -57q64 0 111 32q46 32 66 87h-205v140z" />
    <glyph glyph-name="gbreve" unicode="&#x11f;" horiz-adv-x="634" 
d="M314 550h-3q-82 0 -129 43q-48 43 -48 115h126q0 -22 15 -37t37 -15q23 0 38 15t15 37h126q0 -72 -48 -115q-47 -43 -129 -43zM572 502l2 -455q0 -113 -78 -176t-204 -63q-179 0 -252 121l133 72q29 -35 54 -48t63 -13q55 0 90 32t35 90v14q-55 -48 -150 -48
q-100 0 -171 71t-71 176q0 104 71 173q70 69 171 69q95 0 150 -48v33h157zM300 157l-2 -3q50 0 84 33t34 83q0 49 -34 82t-84 33q-52 0 -86 -32q-33 -31 -33 -81q0 -49 34 -82q35 -33 87 -33z" />
    <glyph glyph-name="Gdotaccent" unicode="&#x120;" horiz-adv-x="778" 
d="M397 732v-2q-39 0 -64 25t-25 63q0 36 26 62t63 26q38 0 63 -25q26 -26 26 -61q0 -38 -25 -63t-64 -25zM370 393l368 -3q4 -28 4 -60q0 -150 -98 -250q-98 -99 -249 -99q-150 0 -256 101q-105 100 -105 249q0 147 104 249t255 102q116 0 204 -52q89 -53 123 -148
l-159 -46q-49 96 -168 96q-83 0 -138 -57q-55 -56 -55 -142q0 -85 57 -142t141 -57q64 0 111 32t66 87h-205v140z" />
    <glyph glyph-name="gdotaccent" unicode="&#x121;" horiz-adv-x="634" 
d="M313 564v-2q-39 0 -64 25t-25 63q0 36 26 62t63 26q38 0 63 -25q26 -26 26 -61q0 -38 -25 -63t-64 -25zM575 500l2 -455q0 -113 -78 -176t-204 -63q-179 0 -252 121l133 72q28 -35 54 -48q25 -13 63 -13q55 0 90 32t35 90v14q-56 -48 -150 -48q-100 0 -171 71t-71 176
q0 104 71 173t171 69q94 0 150 -48v33h157zM303 155l-2 -3q49 0 84 33q34 33 34 83q0 49 -34 82q-35 33 -84 33q-52 0 -86 -32q-33 -31 -33 -81q0 -49 34 -82t87 -33z" />
    <glyph glyph-name="Gcommaaccent" unicode="&#x122;" horiz-adv-x="778" 
d="M370 395l368 -3q4 -28 4 -60q0 -150 -98 -250q-98 -99 -249 -99q-150 0 -256 101q-105 100 -105 249q0 147 104 249t255 102q116 0 204 -52q89 -53 123 -148l-159 -46q-49 96 -168 96q-83 0 -138 -57q-55 -56 -55 -142q0 -85 57 -142t141 -57q64 0 111 32t66 87h-205v140
zM310 -48h162l-99 -157h-114z" />
    <glyph glyph-name="gcommaaccent" unicode="&#x123;" horiz-adv-x="633" 
d="M397 564h-162l99 157h114zM575 502l2 -455q0 -113 -78 -176t-204 -63q-179 0 -252 121l133 72q28 -35 54 -48q25 -13 63 -13q55 0 90 32t35 90v14q-56 -48 -150 -48q-100 0 -171 71t-71 176q0 104 71 173t171 69q94 0 150 -48v33h157zM303 157l-2 -3q49 0 84 33
q34 33 34 83q0 49 -34 82q-35 33 -84 33q-52 0 -86 -32q-33 -31 -33 -81q0 -49 34 -82t87 -33z" />
    <glyph glyph-name="Hbar" unicode="&#x126;" horiz-adv-x="764" 
d="M738 439h-54v-439h-165v221h-277v-221h-164v439h-55v127h55v104h164v-104h277v104h165v-104h54v-127zM519 439h-277v-81h277v81z" />
    <glyph glyph-name="hbar" unicode="&#x127;" horiz-adv-x="637" 
d="M391 517l-2 -1q88 0 142 -57t54 -151v-308h-160v274q0 44 -24 71t-63 27q-49 0 -76 -34t-27 -105v-233h-159v556h-54v109h54v55h159v-55h132v-109h-132v-103q61 64 156 64z" />
    <glyph glyph-name="Imacron" unicode="&#x12a;" horiz-adv-x="281" 
d="M307 738h-332v124h332v-124zM223 0h-165v670h165v-670z" />
    <glyph glyph-name="imacron" unicode="&#x12b;" horiz-adv-x="297" 
d="M315 570h-332v124h332v-124zM228 0h-159v502h159v-502z" />
    <glyph glyph-name="Iogonek" unicode="&#x12e;" horiz-adv-x="281" 
d="M240 -100l4 -92q-45 -22 -93 -22q-45 0 -73 24t-28 68q0 65 67 120h-60v670h165v-670h-1q-8 -10 -16 -18q-12 -12 -14 -15q-4 -6 -10 -12q-7 -7 -9 -11q0 -1 -2 -4t-3 -5q-2 -4 -4 -10q-1 -3 -1 -9q0 -24 28 -24q19 0 50 10z" />
    <glyph glyph-name="iogonek" unicode="&#x12f;" horiz-adv-x="297" 
d="M148 564v-2q-39 0 -64 25t-25 63q0 36 26 62t63 26q38 0 63 -25q26 -26 26 -61q0 -38 -25 -63t-64 -25zM246 -102l4 -92q-45 -22 -93 -22q-45 0 -73 24t-28 68q0 65 67 120h-55v502h159v-502q-8 -10 -16 -18q-12 -12 -14 -15q-4 -6 -10 -12q-7 -7 -9 -11q0 -1 -2 -4
t-3 -5q-2 -4 -4 -10q-1 -3 -1 -9q0 -24 28 -24q19 0 50 10z" />
    <glyph glyph-name="Idotaccent" unicode="&#x130;" horiz-adv-x="281" 
d="M140 907v-2q38 0 63 -25q26 -26 26 -61q0 -38 -25 -63t-64 -25t-64 25t-25 63q0 36 26 62t63 26zM223 -2h-165v670h165v-670z" />
    <glyph glyph-name="dotlessi" unicode="&#x131;" horiz-adv-x="297" 
d="M228 0h-159v502h159v-502z" />
    <glyph glyph-name="IJ" unicode="&#x132;" horiz-adv-x="889" 
d="M58 670h165v-670h-165v670zM833 670l2 -429q0 -112 -75 -184t-196 -72q-113 0 -183 61t-85 165l160 32q4 -53 33 -81q29 -29 75 -29t75 30q29 31 29 78v429h165z" />
    <glyph glyph-name="ij" unicode="&#x133;" horiz-adv-x="596" 
d="M146 741v-2q40 0 67 -27t27 -64q0 -38 -27 -63q-26 -25 -67 -25q-40 0 -66 26t-26 63t26 65q26 27 66 27zM449 739v-2q40 0 67 -27t27 -64q0 -38 -27 -63q-26 -25 -67 -25q-40 0 -66 26t-26 63t26 65q25 27 66 27zM226 -4h-160v502h160v-502zM265 -163l24 126
q27 -8 39 -8q18 0 31 11q12 11 12 29v503h159v-521q0 -74 -43 -117q-44 -44 -117 -44q-52 0 -105 21z" />
    <glyph glyph-name="Kcommaaccent" unicode="&#x136;" horiz-adv-x="690" 
d="M693 0h-216l-219 252h-35v-252h-165v670h165v-266h24l228 266h198l-285 -336zM260 -45h162l-99 -157h-114z" />
    <glyph glyph-name="kcommaaccent" unicode="&#x137;" horiz-adv-x="612" 
d="M615 0h-205l-163 181h-29v-181h-160v720h160v-389h22l159 171h193l-220 -239zM232 -45h162l-99 -157h-114z" />
    <glyph glyph-name="Lacute" unicode="&#x139;" horiz-adv-x="587" 
d="M214 735h-142l71 152h190zM553 144v-144h-495v670h165v-526h330z" />
    <glyph glyph-name="lacute" unicode="&#x13a;" horiz-adv-x="276" 
d="M212 785h-142l71 152h190zM218 0h-160v720h160v-720z" />
    <glyph glyph-name="Lcommaaccent" unicode="&#x13b;" horiz-adv-x="587" 
d="M553 144v-144h-495v670h165v-526h330zM221 -45h162l-99 -157h-114z" />
    <glyph glyph-name="lcommaaccent" unicode="&#x13c;" horiz-adv-x="276" 
d="M218 0h-160v720h160v-720zM8 -202l51 157h162l-99 -157h-114z" />
    <glyph glyph-name="Lcaron" unicode="&#x13d;" horiz-adv-x="587" 
d="M553 144v-144h-495v670h165v-526h330zM422 471h-115v199h150z" />
    <glyph glyph-name="lcaron" unicode="&#x13e;" horiz-adv-x="276" 
d="M218 0h-160v720h160v-720zM388 521h-115v199h150z" />
    <glyph glyph-name="Ldot" unicode="&#x13f;" horiz-adv-x="590" 
d="M553 144v-144h-495v670h165v-526h330zM415 271q-41 0 -66 25t-25 63q0 36 26 62t65 26q37 0 63 -26t26 -62q0 -38 -25 -63t-64 -25z" />
    <glyph glyph-name="ldot" unicode="&#x140;" horiz-adv-x="437" 
d="M218 0h-160v720h160v-720zM341 447q39 0 65 -26t26 -62q0 -38 -25 -63t-66 -25q-39 0 -64 25t-25 63q0 36 26 62t63 26z" />
    <glyph glyph-name="Lslash" unicode="&#x141;" horiz-adv-x="605" 
d="M573 144v-144h-495v218l-55 -25v143l55 25v309h165v-234l109 50v-143l-109 -50v-149h330z" />
    <glyph glyph-name="lslash" unicode="&#x142;" horiz-adv-x="322" 
d="M299 356l-58 -32v-324h-159v238l-59 -32v150l59 32v332h159v-246l58 32v-150z" />
    <glyph glyph-name="Nacute" unicode="&#x143;" horiz-adv-x="757" 
d="M454 735h-142l71 152h190zM698 670v-670h-136l-339 388v-388h-165v670h137l339 -400v400h164z" />
    <glyph glyph-name="nacute" unicode="&#x144;" horiz-adv-x="618" 
d="M385 567h-142l71 152h190zM372 517l-2 -1q88 0 142 -57t54 -151v-308h-159v274q0 44 -24 71t-62 27q-49 0 -76 -34t-27 -105v-233h-160v502h160v-48q60 63 154 63z" />
    <glyph glyph-name="Ncommaaccent" unicode="&#x145;" horiz-adv-x="757" 
d="M698 670v-670h-136l-339 388v-388h-165v670h137l339 -400v400h164zM318 -45h162l-99 -157h-114z" />
    <glyph glyph-name="ncommaaccent" unicode="&#x146;" horiz-adv-x="618" 
d="M372 517l-2 -1q88 0 142 -57t54 -151v-308h-159v274q0 44 -24 71t-62 27q-49 0 -76 -34t-27 -105v-233h-160v502h160v-48q60 63 154 63zM232 -46h162l-99 -157h-114z" />
    <glyph glyph-name="Ncaron" unicode="&#x147;" horiz-adv-x="757" 
d="M303 729l-115 155h154l41 -56l40 56h155l-116 -155h-159zM698 670v-670h-136l-339 388v-388h-165v670h137l339 -400v400h164z" />
    <glyph glyph-name="ncaron" unicode="&#x148;" horiz-adv-x="618" 
d="M233 561l-115 155h154l41 -56l40 56h155l-116 -155h-159zM372 517l-2 -1q88 0 142 -57t54 -151v-308h-159v274q0 44 -24 71t-62 27q-49 0 -76 -34t-27 -105v-233h-160v502h160v-48q60 63 154 63z" />
    <glyph glyph-name="Eng" unicode="&#x14a;" horiz-adv-x="743" 
d="M698 670l1 -693q0 -70 -44 -114q-43 -43 -116 -43q-55 0 -124 23l22 112q47 -9 60 -9q42 0 42 37v43l-316 362v-388h-165v670h137l339 -400v400h164z" />
    <glyph glyph-name="eng" unicode="&#x14b;" horiz-adv-x="619" 
d="M372 517h-1q88 0 142 -57t54 -151v-332q0 -70 -44 -114q-43 -43 -116 -43q-55 0 -124 23l22 112q47 -9 60 -9q42 0 42 37v291q0 44 -24 71t-62 27q-49 0 -76 -34t-27 -105v-233h-160v502h160v-48q60 63 154 63z" />
    <glyph glyph-name="Omacron" unicode="&#x14c;" horiz-adv-x="784" 
d="M558 738h-332v124h332v-124zM392 685l-4 -1q150 0 254 -102t104 -249q0 -145 -103 -247t-253 -102t-253 102t-103 248q0 147 104 249t254 102zM388 135q82 0 138 57q55 56 55 142q0 87 -55 143q-56 57 -138 57t-138 -57q-55 -56 -55 -143q0 -86 55 -142q56 -57 138 -57z
" />
    <glyph glyph-name="omacron" unicode="&#x14d;" horiz-adv-x="603" 
d="M469 570h-332v124h332v-124zM303 515q115 0 195 -74t80 -189q0 -117 -80 -191t-195 -74q-116 0 -198 74q-81 74 -81 191q0 116 81 189q82 74 198 74zM303 121q49 0 85 36t36 93t-36 93t-84 36q-50 0 -87 -36t-37 -93t36 -93t87 -36z" />
    <glyph glyph-name="Ohungarumlaut" unicode="&#x150;" horiz-adv-x="784" 
d="M356 735h-137l74 152h180zM420 735l74 152h183l-121 -152h-136zM392 685l-4 -1q150 0 254 -102t104 -249q0 -145 -103 -247t-253 -102t-253 102t-103 248q0 147 104 249t254 102zM388 135q82 0 138 57q55 56 55 142q0 87 -55 143q-56 57 -138 57t-138 -57
q-55 -56 -55 -143q0 -86 55 -142q56 -57 138 -57z" />
    <glyph glyph-name="ohungarumlaut" unicode="&#x151;" horiz-adv-x="603" 
d="M267 567h-137l74 152h180zM331 567l74 152h183l-121 -152h-136zM303 515q115 0 195 -74t80 -189q0 -117 -80 -191t-195 -74q-116 0 -198 74q-81 74 -81 191q0 116 81 189q82 74 198 74zM303 121q49 0 85 36t36 93t-36 93t-84 36q-50 0 -87 -36t-37 -93t36 -93t87 -36z
" />
    <glyph glyph-name="OE" unicode="&#x152;" horiz-adv-x="1029" 
d="M984 142l-2 -142h-565q-171 0 -277 94t-106 241q0 146 107 241q106 94 278 94h562v-142h-354v-126h325v-134h-325v-126h357zM460 142v386h-43q-103 0 -162 -53q-58 -52 -58 -140t58 -140q59 -53 162 -53h43z" />
    <glyph glyph-name="oe" unicode="&#x153;" horiz-adv-x="974" 
d="M949 251l3 -41h-368q11 -46 39 -71q29 -26 69 -26q74 0 105 58l143 -29q-32 -78 -96 -117t-153 -39q-114 0 -191 76q-78 -75 -196 -75q-116 0 -198 74q-81 74 -81 191q0 116 81 189q82 74 198 74q118 0 196 -75q77 77 192 77q109 0 182 -73q65 -65 75 -193zM694 387
q-36 0 -66 -21q-31 -22 -41 -58h207q-11 39 -38 59q-28 20 -62 20zM306 121q49 0 85 36t36 93t-36 93t-84 36q-49 0 -87 -36q-37 -36 -37 -93t36 -93t87 -36z" />
    <glyph glyph-name="Racute" unicode="&#x154;" horiz-adv-x="679" 
d="M403 735h-142l71 152h190zM672 0h-199l-202 230h-48v-230h-165v670h339q109 0 175 -60t66 -158q0 -81 -47 -139q-47 -57 -129 -75zM223 368l155 -1q45 0 71 22q27 23 27 60q0 35 -27 58q-26 22 -70 22h-156v-161z" />
    <glyph glyph-name="racute" unicode="&#x155;" horiz-adv-x="437" 
d="M306 567h-142l71 152h190zM391 509q21 0 36 -4l-7 -160h-29q-173 0 -173 -188v-157h-160v502h160v-96q61 103 173 103z" />
    <glyph glyph-name="Rcommaaccent" unicode="&#x156;" horiz-adv-x="679" 
d="M672 0h-199l-202 230h-48v-230h-165v670h339q109 0 175 -60t66 -158q0 -81 -47 -139q-47 -57 -129 -75zM223 368l155 -1q45 0 71 22q27 23 27 60q0 35 -27 58q-26 22 -70 22h-156v-161zM268 -46h162l-99 -157h-114z" />
    <glyph glyph-name="rcommaaccent" unicode="&#x157;" horiz-adv-x="437" 
d="M391 509q21 0 36 -4l-7 -160h-29q-173 0 -173 -188v-157h-160v502h160v-96q61 103 173 103zM59 -45h162l-99 -157h-114z" />
    <glyph glyph-name="Rcaron" unicode="&#x158;" horiz-adv-x="679" 
d="M252 729l-115 155h154l41 -56l40 56h155l-116 -155h-159zM672 0h-199l-202 230h-48v-230h-165v670h339q109 0 175 -60t66 -158q0 -81 -47 -139q-47 -57 -129 -75zM223 368l155 -1q45 0 71 22q27 23 27 60q0 35 -27 58q-26 22 -70 22h-156v-161z" />
    <glyph glyph-name="rcaron" unicode="&#x159;" horiz-adv-x="437" 
d="M154 561l-115 155h154l41 -56l40 56h155l-116 -155h-159zM218 502v-96q61 103 173 103q21 0 36 -4l-7 -160h-29q-173 0 -173 -188v-157h-160v502h160z" />
    <glyph glyph-name="Sacute" unicode="&#x15a;" horiz-adv-x="646" 
d="M402 735h-142l71 152h190zM321 685v-3q109 0 183 -51t93 -142l-162 -33q-9 45 -42 69t-75 24q-41 0 -66 -19t-25 -48q0 -44 54 -56l139 -31q184 -40 184 -195q0 -103 -79 -160t-198 -57q-117 0 -198 54q-80 54 -94 150l170 33q24 -99 132 -99q47 0 73 19q27 20 27 51
q0 25 -13 38q-14 13 -48 21l-140 30q-180 39 -180 194q0 97 73 154t192 57z" />
    <glyph glyph-name="sacute" unicode="&#x15b;" horiz-adv-x="515" 
d="M335 567h-142l71 152h190zM24 131l153 31q11 -59 90 -59q30 0 48 12t18 29q0 28 -50 37l-102 20q-146 29 -146 146q0 77 60 123q61 47 156 47q92 0 152 -39t75 -105l-146 -29q-4 26 -27 42q-23 17 -57 17q-30 0 -43 -12t-13 -28q0 -27 38 -35l118 -24q68 -13 104 -54
q35 -40 35 -96q0 -82 -63 -125q-64 -44 -165 -44q-95 0 -159 36t-76 110z" />
    <glyph glyph-name="Scedilla" unicode="&#x15e;" horiz-adv-x="646" 
d="M606 202l-1 -2q0 -88 -60 -144t-156 -69l-46 -149h-166l93 149q-96 12 -158 64q-63 53 -75 135l170 33q24 -99 132 -99q47 0 73 19q27 19 27 51q0 25 -13 38q-14 14 -48 21l-140 30q-180 39 -180 194q0 97 73 154t192 57q109 0 183 -51t93 -142l-162 -33q-9 45 -42 69
t-75 24q-41 0 -66 -19t-25 -48q0 -44 54 -56l139 -31q184 -40 184 -195z" />
    <glyph glyph-name="scedilla" unicode="&#x15f;" horiz-adv-x="515" 
d="M488 154l-2 -2q0 -66 -43 -108q-43 -41 -117 -55l-46 -151h-166l92 148q-74 9 -124 45t-60 99l156 32q11 -59 90 -59q30 0 48 12t18 29q0 28 -50 37l-102 20q-146 29 -146 146q0 77 60 123q61 47 156 47q92 0 152 -39t75 -105l-146 -29q-5 26 -27 42q-23 17 -57 17
q-29 0 -43 -12q-13 -12 -13 -28q0 -27 38 -35l118 -24q68 -13 104 -54q35 -40 35 -96z" />
    <glyph glyph-name="Scaron" unicode="&#x160;" horiz-adv-x="646" 
d="M250 729l-115 155h154l41 -56l40 56h155l-116 -155h-159zM283 428l139 -34q184 -45 184 -195q0 -103 -79 -160t-198 -57q-117 0 -198 54q-80 54 -94 150l170 33q24 -99 132 -99q47 0 73 19q27 19 27 51q0 25 -13 38q-14 14 -48 21l-140 30q-180 39 -180 194q0 97 73 154
t192 57q109 0 183 -51t93 -142l-162 -33q-9 45 -42 69t-75 24q-41 0 -66 -19t-25 -48q0 -42 54 -56z" />
    <glyph glyph-name="scaron" unicode="&#x161;" horiz-adv-x="515" 
d="M183 561l-115 155h154l41 -56l40 56h155l-116 -155h-159zM231 329l115 -25q70 -15 104 -54q35 -40 35 -96q0 -82 -63 -125q-64 -44 -165 -44q-95 0 -159 36t-76 110l156 32q11 -59 90 -59q30 0 48 12t18 29q0 28 -50 37l-102 20q-146 29 -146 146q0 76 60 123
q61 47 156 47q92 0 152 -39t75 -105l-146 -29q-5 25 -27 42q-23 17 -57 17q-29 0 -43 -12q-13 -12 -13 -28q0 -27 38 -35z" />
    <glyph glyph-name="tcedilla" unicode="&#x163;" horiz-adv-x="433" 
d="M393 148l38 -126q-58 -31 -107 -35l-45 -146h-166l98 156q-117 41 -117 188v190h-91v127h91v148h160v-148h148v-127h-148v-174q0 -73 67 -73q37 0 72 20z" />
    <glyph glyph-name="Tcaron" unicode="&#x164;" horiz-adv-x="638" 
d="M240 729l-115 155h154l41 -56l40 56h155l-116 -155h-159zM618 526h-217v-526h-164v526h-217v144h598v-144z" />
    <glyph glyph-name="tcaron" unicode="&#x165;" horiz-adv-x="433" 
d="M411 536h-115v199h150zM320 128q37 0 72 20l37 -126q-68 -37 -137 -37q-94 0 -147 51q-52 51 -52 149v190h-91v127h91v148h160v-148h148v-127h-148v-174q0 -73 67 -73z" />
    <glyph glyph-name="Tbar" unicode="&#x166;" horiz-adv-x="638" 
d="M401 526v-135h114v-131h-114v-260h-164v260h-114v131h114v135h-217v144h598v-144h-217z" />
    <glyph glyph-name="tbar" unicode="&#x167;" horiz-adv-x="433" 
d="M394 152l21 -133q-58 -34 -127 -34q-94 0 -147 51q-52 51 -52 149v45h-70v112h70v43h-87v117h87v148h159v-148h149v-117h-149v-43h103v-112h-103v-29q0 -73 67 -73q37 0 79 24z" />
    <glyph glyph-name="Umacron" unicode="&#x16a;" horiz-adv-x="713" 
d="M522 738h-332v124h332v-124zM657 670l-1 -368q0 -144 -81 -231t-215 -87q-136 0 -220 87t-84 231v368h165v-368q0 -75 38 -121q37 -45 101 -45q60 0 96 45t36 121v368h165z" />
    <glyph glyph-name="umacron" unicode="&#x16b;" horiz-adv-x="618" 
d="M473 570h-332v124h332v-124zM560 502l1 -503h-160v48q-60 -63 -154 -63q-88 0 -142 57t-54 152v308h159v-274q0 -44 24 -71t62 -27q50 0 77 35q27 34 27 105v233h160z" />
    <glyph glyph-name="Uring" unicode="&#x16e;" horiz-adv-x="713" 
d="M356 711q-53 0 -89 36t-36 87q0 52 36 88t89 36t89 -36t36 -88q0 -51 -36 -87t-89 -36zM356 873v-1q-17 0 -29 -12t-12 -28t12 -28t29 -12t29 12t12 28q0 17 -12 29t-29 12zM657 669l-1 -368q0 -144 -81 -231t-215 -87q-136 0 -220 87t-84 231v368h165v-368
q0 -75 38 -121q37 -45 101 -45q60 0 96 45t36 121v368h165z" />
    <glyph glyph-name="uring" unicode="&#x16f;" horiz-adv-x="618" 
d="M307 543q-53 0 -89 36t-36 87q0 52 36 88t89 36t89 -36t36 -88q0 -51 -36 -87t-89 -36zM307 705v-1q-17 0 -29 -12t-12 -28t12 -28t29 -12t29 12t12 28q0 17 -12 29t-29 12zM560 501l1 -503h-160v48q-60 -63 -154 -63q-88 0 -142 57t-54 152v308h159v-274q0 -44 24 -71
t62 -27q50 0 77 35t27 105v233h160z" />
    <glyph glyph-name="Uhungarumlaut" unicode="&#x170;" horiz-adv-x="713" 
d="M320 735h-137l74 152h180zM384 735l74 152h183l-121 -152h-136zM657 670l-1 -368q0 -144 -81 -231t-215 -87q-136 0 -220 87t-84 231v368h165v-368q0 -75 38 -121q37 -45 101 -45q60 0 96 45t36 121v368h165z" />
    <glyph glyph-name="uhungarumlaut" unicode="&#x171;" horiz-adv-x="618" 
d="M271 567h-137l74 152h180zM335 567l74 152h183l-121 -152h-136zM400 502l161 -1v-502h-160v48q-60 -63 -154 -63q-88 0 -142 57t-54 152v308h159v-274q0 -44 24 -71t62 -27q50 0 77 35q27 34 27 105v233z" />
    <glyph glyph-name="Uogonek" unicode="&#x172;" horiz-adv-x="713" 
d="M556 52q-40 -38 -47 -46q-15 -17 -26 -37q-12 -23 -12 -45q0 -30 31 -30q12 0 56 14l25 -93q-63 -33 -124 -33q-47 0 -79 27q-31 27 -31 69q0 57 47 109q-30 -2 -36 -2q-136 0 -220 84t-84 224v377h165v-377q0 -71 38 -114q37 -42 101 -42q60 0 96 42t36 114v377h165
v-377q0 -148 -101 -241z" />
    <glyph glyph-name="uogonek" unicode="&#x173;" horiz-adv-x="618" 
d="M578 -100l5 -93q-45 -22 -93 -22q-44 0 -73 24q-28 24 -28 68q0 65 67 120h-56v48q-60 -63 -154 -63q-88 0 -142 57t-54 152v308h159v-274q0 -44 24 -71t62 -27q50 0 77 35q27 34 27 105v233h160v-502q-8 -10 -16 -18q-12 -12 -14 -15q-4 -6 -10 -12q-7 -7 -9 -11
q0 -1 -2 -4t-3 -5q-2 -4 -4 -10q-1 -3 -1 -9q0 -24 28 -24q19 0 50 10z" />
    <glyph glyph-name="Wcircumflex" unicode="&#x174;" horiz-adv-x="973" 
d="M446 729h-154l115 155h159l116 -155h-155l-40 56zM967 670l-191 -670h-177l-112 414l-113 -414h-176l-191 670h169l117 -422l115 422h157l115 -422l117 422h170z" />
    <glyph glyph-name="wcircumflex" unicode="&#x175;" horiz-adv-x="795" 
d="M358 561h-154l115 155h159l116 -155h-155l-40 56zM788 502l-161 -503h-139l-90 272l-91 -272h-139l-161 503h157l82 -270l95 270h113l95 -271l82 271h157z" />
    <glyph glyph-name="Ycircumflex" unicode="&#x176;" horiz-adv-x="706" 
d="M312 729h-154l115 155h159l116 -155h-155l-40 56zM434 210v-210h-168v208l-259 462h180l165 -294l163 294h184z" />
    <glyph glyph-name="ycircumflex" unicode="&#x177;" horiz-adv-x="604" 
d="M255 562h-154l115 155h159l116 -155h-155l-40 56zM597 503l-290 -673h-173l81 187l-208 486h172l119 -293l127 293h172z" />
    <glyph glyph-name="Ydieresis" unicode="&#x178;" horiz-adv-x="706" 
d="M239 724q-38 0 -64 24q-25 24 -25 62q0 36 26 62t63 26t63 -26t26 -62q0 -38 -25 -62t-64 -24zM467 724q-39 0 -64 24t-25 62q0 36 26 62t63 26t63 -26t26 -62q0 -38 -25 -62t-64 -24zM434 210v-210h-168v208l-259 462h180l165 -294l163 294h184z" />
    <glyph glyph-name="Zacute" unicode="&#x179;" horiz-adv-x="635" 
d="M393 735h-142l71 152h190zM597 139v-139h-556v106l338 425h-328v139h538v-126l-313 -405h321z" />
    <glyph glyph-name="zacute" unicode="&#x17a;" horiz-adv-x="538" 
d="M345 567h-142l71 152h190zM501 127v-127h-464v103l252 272h-246v127h449v-105l-252 -270h261z" />
    <glyph glyph-name="Zdotaccent" unicode="&#x17b;" horiz-adv-x="635" 
d="M320 732v-2q-39 0 -64 25t-25 63q0 36 26 62t63 26q38 0 63 -25q26 -26 26 -61q0 -38 -25 -63t-64 -25zM597 137v-139h-556v106l338 425h-328v139h538v-126l-313 -405h321z" />
    <glyph glyph-name="zdotaccent" unicode="&#x17c;" horiz-adv-x="538" 
d="M272 564v-2q-39 0 -64 25t-25 63q0 36 26 62t63 26q38 0 63 -25q26 -26 26 -61q0 -38 -25 -63t-64 -25zM501 125v-127h-464v103l252 272h-246v127h449v-105l-252 -270h261z" />
    <glyph glyph-name="Zcaron" unicode="&#x17d;" horiz-adv-x="635" 
d="M242 729l-115 155h154l41 -56l40 56h155l-116 -155h-159zM597 139v-139h-556v106l338 425h-328v139h538v-126l-313 -405h321z" />
    <glyph glyph-name="zcaron" unicode="&#x17e;" horiz-adv-x="538" 
d="M193 561l-115 155h154l41 -56l40 56h155l-116 -155h-159zM501 127v-127h-464v103l252 272h-246v127h449v-105l-252 -270h261z" />
    <glyph glyph-name="florin" unicode="&#x192;" horiz-adv-x="588" 
d="M452 547h-3q-66 0 -78 -70l-15 -85h137v-127h-161l-45 -250q-15 -84 -70 -131q-55 -48 -136 -48q-51 0 -110 32l47 121q35 -11 56 -11t36 12q17 14 20 32l44 244h-96v127h119l16 91q17 92 80 146t155 54q71 0 126 -34l-50 -124q-34 21 -72 21z" />
    <glyph glyph-name="AEacute" unicode="&#x1fc;" horiz-adv-x="1046" 
d="M737 735h-142l71 152h190zM1007 142v-142h-521v109h-229l-65 -109h-192l429 670h575v-142h-354v-126h326v-134h-326v-126h357zM486 251v241l-144 -241h144z" />
    <glyph glyph-name="aeacute" unicode="&#x1fd;" horiz-adv-x="896" 
d="M515 567h-142l71 152h190zM871 204l-367 1q24 -91 112 -91q70 0 100 58l140 -29q-20 -71 -87 -114t-156 -43q-109 0 -186 71q-76 -71 -201 -71q-97 0 -150 44t-53 117q0 74 54 113t155 39h127v23q0 34 -21 53q-22 20 -56 20q-32 0 -54 -17q-20 -16 -25 -48l-148 30
q10 70 71 114t156 44q105 0 167 -53q71 53 162 53q113 0 186 -75q74 -76 74 -199v-40zM504 299h209q-9 46 -36 68q-28 23 -64 23q-40 0 -70 -24t-39 -67zM359 203l-109 1q-69 0 -69 -47q0 -24 19 -39q20 -15 51 -15q43 0 75 25q33 26 33 60v15z" />
    <glyph glyph-name="Scommaaccent" unicode="&#x218;" horiz-adv-x="646" 
d="M321 685v-3q109 0 183 -51t93 -142l-162 -33q-9 45 -42 69t-75 24q-41 0 -66 -19t-25 -48q0 -44 54 -56l139 -31q184 -40 184 -195q0 -103 -79 -160t-198 -57q-117 0 -198 54q-80 54 -94 150l170 33q24 -99 132 -99q47 0 73 19q27 20 27 51q0 25 -13 38q-14 13 -48 21
l-140 30q-180 39 -180 194q0 97 73 154t192 57zM199 -205l51 157h162l-99 -157h-114z" />
    <glyph glyph-name="scommaaccent" unicode="&#x219;" horiz-adv-x="515" 
d="M24 131l153 31q11 -59 90 -59q30 0 48 12t18 29q0 28 -50 37l-102 20q-146 29 -146 146q0 77 60 123q61 47 156 47q92 0 152 -39t75 -105l-146 -29q-4 26 -27 42q-23 17 -57 17q-30 0 -43 -12t-13 -28q0 -27 38 -35l118 -24q68 -13 104 -54q35 -40 35 -96q0 -82 -63 -125
q-64 -44 -165 -44q-95 0 -159 36t-76 110zM135 -203l51 157h162l-99 -157h-114z" />
    <glyph glyph-name="uni021A" unicode="&#x21a;" horiz-adv-x="638" 
d="M618 670v-144h-217v-526h-164v526h-217v144h598zM243 -45h162l-99 -157h-114z" />
    <glyph glyph-name="uni021B" unicode="&#x21b;" horiz-adv-x="433" 
d="M293 -15q-95 0 -147 51t-52 149v190h-91v127h91v148h160v-148h148v-127h-148v-174q0 -73 67 -73q37 0 72 20l37 -126q-68 -37 -137 -37zM184 -44h162l-99 -157h-114z" />
    <glyph glyph-name="circumflex" unicode="&#x2c6;" horiz-adv-x="600" 
d="M341 561l-40 56l-41 -56h-154l115 155h159l116 -155h-155z" />
    <glyph glyph-name="caron" unicode="&#x2c7;" horiz-adv-x="600" 
d="M496 716l-116 -155h-159l-115 155h154l41 -56l40 56h155z" />
    <glyph glyph-name="breve" unicode="&#x2d8;" horiz-adv-x="600" 
d="M300 549h-3q-82 0 -129 43q-48 44 -48 115h126q0 -22 15 -37t37 -15q23 0 38 15t15 37h126q0 -71 -48 -115q-47 -43 -129 -43z" />
    <glyph glyph-name="dotaccent" unicode="&#x2d9;" horiz-adv-x="600" 
d="M300 739v-2q38 0 63 -25q26 -26 26 -61q0 -38 -25 -63t-64 -25t-64 25t-25 63q0 36 26 62t63 26z" />
    <glyph glyph-name="ring" unicode="&#x2da;" horiz-adv-x="600" 
d="M426 665q0 -51 -36 -87t-89 -36t-89 36t-36 87q0 52 36 88t89 36t89 -36t36 -88zM341 665v-1q0 17 -12 29t-29 12t-29 -12t-12 -28t12 -28t29 -12t29 12t12 28z" />
    <glyph glyph-name="ogonek" unicode="&#x2db;" horiz-adv-x="600" 
d="M229 3l98 -4q-8 -10 -16 -18q-12 -12 -14 -15q-4 -6 -10 -12q-7 -7 -9 -11q0 -1 -2 -4t-3 -5q-2 -4 -4 -10q-1 -3 -1 -9q0 -24 28 -24q19 0 50 10l6 -91q-45 -22 -93 -22q-45 0 -73 24t-28 68q0 66 71 123z" />
    <glyph glyph-name="tilde" unicode="&#x2dc;" horiz-adv-x="600" 
d="M223 579l-99 -1q0 77 34 114q35 38 81 38q35 0 69 -18t52 -18q26 0 30 36h97q0 -78 -33 -116t-82 -38q-35 0 -68 18t-51 18q-25 0 -30 -33z" />
    <glyph glyph-name="hungarumlaut" unicode="&#x2dd;" horiz-adv-x="600" 
d="M214 567h-137l74 152h180zM414 567h-136l74 152h183z" />
    <glyph glyph-name="uni0326" unicode="&#x326;" horiz-adv-x="0" 
d="M186 -202l51 157h162l-99 -157h-114z" />
    <glyph glyph-name="Wgrave" unicode="&#x1e80;" horiz-adv-x="973" 
d="M418 735l-119 152h190l71 -152h-142zM967 670l-191 -670h-177l-112 414l-113 -414h-176l-191 670h169l117 -422l115 422h157l115 -422l117 422h170z" />
    <glyph glyph-name="wgrave" unicode="&#x1e81;" horiz-adv-x="795" 
d="M329 567l-119 152h190l71 -152h-142zM788 502l-161 -503h-139l-90 272l-91 -272h-139l-161 503h157l82 -270l95 270h113l95 -271l82 271h157z" />
    <glyph glyph-name="Wacute" unicode="&#x1e82;" horiz-adv-x="973" 
d="M559 735h-142l71 152h190zM967 670l-191 -670h-177l-112 414l-113 -414h-176l-191 670h169l117 -422l115 422h157l115 -422l117 422h170z" />
    <glyph glyph-name="wacute" unicode="&#x1e83;" horiz-adv-x="795" 
d="M470 567h-142l71 152h190zM788 502l-161 -503h-139l-90 272l-91 -272h-139l-161 503h157l82 -270l95 270h113l95 -271l82 271h157z" />
    <glyph glyph-name="Wdieresis" unicode="&#x1e84;" horiz-adv-x="973" 
d="M373 724q-39 0 -64 24t-25 62q0 36 26 62t63 26t63 -26t26 -62q0 -38 -25 -62t-64 -24zM601 724q-39 0 -64 24t-25 62q0 36 26 62t63 26t63 -26t26 -62q0 -38 -25 -62t-64 -24zM967 670l-191 -670h-177l-112 414l-113 -414h-176l-191 670h169l117 -422l115 422h157
l115 -422l117 422h170z" />
    <glyph glyph-name="wdieresis" unicode="&#x1e85;" horiz-adv-x="795" 
d="M284 556q-38 0 -64 24q-25 24 -25 62q0 36 26 62t63 26t63 -26t26 -62q0 -38 -25 -62q-26 -24 -64 -24zM512 556q-38 0 -64 24q-25 24 -25 62q0 36 26 62t63 26t63 -26t26 -62q0 -38 -25 -62q-26 -24 -64 -24zM788 502l-161 -503h-139l-90 272l-91 -272h-139l-161 503
h157l82 -270l95 270h113l95 -271l82 271h157z" />
    <glyph glyph-name="Ygrave" unicode="&#x1ef2;" horiz-adv-x="706" 
d="M284 735l-119 152h190l71 -152h-142zM434 210v-210h-168v208l-259 462h180l165 -294l163 294h184z" />
    <glyph glyph-name="ygrave" unicode="&#x1ef3;" horiz-adv-x="604" 
d="M226 568l-119 152h190l71 -152h-142zM597 503l-290 -673h-173l81 187l-208 486h172l119 -293l127 293h172z" />
    <glyph glyph-name="endash" unicode="&#x2013;" horiz-adv-x="620" 
d="M560 201h-500v123h500v-123z" />
    <glyph glyph-name="emdash" unicode="&#x2014;" horiz-adv-x="1040" 
d="M980 201h-920v123h920v-123z" />
    <glyph glyph-name="quoteleft" unicode="&#x2018;" horiz-adv-x="299" 
d="M147 670h121l-59 -288h-177v4z" />
    <glyph glyph-name="quoteright" unicode="&#x2019;" horiz-adv-x="299" 
d="M153 382h-121l59 288h177v-4z" />
    <glyph glyph-name="quotesinglbase" unicode="&#x201a;" horiz-adv-x="299" 
d="M153 -132h-121l59 288h177v-4z" />
    <glyph glyph-name="quotedblleft" unicode="&#x201c;" horiz-adv-x="513" 
d="M147 670h121l-59 -288h-177v4zM360 670h121l-59 -288h-177v4z" />
    <glyph glyph-name="quotedblright" unicode="&#x201d;" horiz-adv-x="513" 
d="M153 382h-121l59 288h177v-4zM366 382h-121l59 288h177v-4z" />
    <glyph glyph-name="quotedblbase" unicode="&#x201e;" horiz-adv-x="513" 
d="M153 -132h-121l59 288h177v-4zM366 -132h-121l59 288h177v-4z" />
    <glyph glyph-name="dagger" unicode="&#x2020;" horiz-adv-x="400" 
d="M362 650v-93h-112v-248h-100v248h-112v93h112v90h100v-90h112z" />
    <glyph glyph-name="daggerdbl" unicode="&#x2021;" horiz-adv-x="400" 
d="M250 557v-65h112v-93h-112v-90h-100v90h-112v93h112v65h-112v93h112v90h100v-90h112v-93h-112z" />
    <glyph glyph-name="bullet" unicode="&#x2022;" horiz-adv-x="415" 
d="M207 433l-1 -1q75 0 126 -51t51 -121q0 -73 -50 -123q-49 -49 -126 -49t-126 49t-49 123q0 70 50 122q50 51 125 51z" />
    <glyph glyph-name="ellipsis" unicode="&#x2026;" horiz-adv-x="800" 
d="M123 175l-1 -2q39 0 66 -27t27 -64t-26 -63t-66 -26q-39 0 -65 26t-26 65q0 36 26 64q26 27 65 27zM399 173v-2q39 0 65 -27q26 -28 26 -64q0 -39 -25 -64t-66 -25q-40 0 -66 26t-26 65q0 36 26 64q25 27 66 27zM675 171v-2q41 0 66 -27q26 -28 26 -64q0 -38 -26 -64
q-25 -25 -66 -25q-40 0 -66 26q-25 25 -25 65q0 36 26 64q26 27 65 27z" />
    <glyph glyph-name="perthousand" unicode="&#x2030;" horiz-adv-x="1271" 
d="M214 685v-3q73 0 123 -46q51 -46 51 -121q0 -73 -51 -120q-50 -46 -123 -46q-72 0 -124 47q-51 46 -51 120q0 76 51 122q52 47 124 47zM143 -3l484 670h94l-485 -670h-93zM214 583l-3 -3q-27 0 -46 -18t-19 -49q0 -32 20 -50t47 -18q26 0 45 19q20 20 20 51q0 32 -19 50
t-45 18zM649 314v-3q73 0 123 -46q51 -47 51 -121t-51 -120q-50 -46 -123 -46q-72 0 -124 47q-51 47 -51 120q0 75 51 122q52 47 124 47zM1056 311v-3q73 0 122 -46q50 -47 50 -121q0 -73 -50 -120q-49 -46 -122 -46q-72 0 -124 47q-51 46 -51 120q0 75 51 122q52 47 124 47
zM649 209l-3 -3q-26 0 -46 -18q-19 -18 -19 -49q0 -32 20 -50q19 -18 47 -18q26 0 45 19q20 20 20 51q0 32 -19 50q-20 18 -45 18zM1053 206l-1 -1q-28 0 -47 -18q-20 -18 -20 -49t20 -51q19 -19 47 -19q26 0 45 19q20 20 20 51q0 32 -19 50q-20 18 -45 18z" />
    <glyph glyph-name="guilsinglleft" unicode="&#x2039;" horiz-adv-x="305" 
d="M25 262l105 178h150l-105 -178l105 -178h-150z" />
    <glyph glyph-name="guilsinglright" unicode="&#x203a;" horiz-adv-x="305" 
d="M25 84l105 178l-105 178h150l105 -178l-105 -178h-150z" />
    <glyph glyph-name="fraction" unicode="&#x2044;" horiz-adv-x="245" 
d="M-173 0l484 670h94l-485 -670h-93z" />
    <glyph glyph-name="Euro" unicode="&#x20ac;" horiz-adv-x="761" 
d="M437 130l-3 -1q97 0 129 137l160 -32q-23 -115 -100 -182q-79 -68 -190 -68q-105 0 -181 62q-74 61 -103 170h-97v96h83v22v22h-83v95h97q28 107 104 171q75 63 182 63q113 0 189 -67q77 -68 101 -180l-163 -31q-14 69 -46 101q-33 33 -79 33q-77 0 -115 -89h178l-21 -95
h-176l-1 -22q0 -17 1 -22h168l-21 -96h-128q36 -87 115 -87z" />
    <glyph glyph-name="uni2116" unicode="&#x2116;" horiz-adv-x="1198" 
d="M954 331v-2q-77 0 -130 49q-54 50 -54 126t54 126q53 49 130 49q79 0 132 -49q54 -50 54 -126q0 -77 -54 -125t-132 -48zM534 668h164v-670h-136l-339 388v-388h-165v670h137l339 -400v400zM954 571l-2 -1q-27 0 -45 -19t-18 -48t19 -48t45 -19q29 0 48 19q20 20 20 48
q0 29 -19 48q-20 20 -48 20zM777 282h353v-120h-353v120z" />
    <glyph glyph-name="uni2117" unicode="&#x2117;" horiz-adv-x="756" 
d="M376 685q147 0 248 -100q102 -101 102 -252q0 -150 -102 -249t-248 -99t-248 99t-102 249q0 151 102 252q101 100 248 100zM376 42v1q119 0 204 83q84 82 84 209q0 126 -84 210t-204 84t-204 -84t-84 -211q0 -126 84 -209q85 -83 204 -83zM242 517l175 1q67 0 105 -36
t38 -93q0 -60 -40 -96t-108 -36h-76v-104h-94v364zM337 337l69 -2q27 -1 45 15q17 15 17 38t-16 36q-17 14 -45 14h-70v-101z" />
    <glyph glyph-name="trademark" unicode="&#x2122;" horiz-adv-x="689" 
d="M292 596h-85v-203h-88v203h-84v74h257v-74zM643 393h-82v133l-56 -132h-44l-56 132v-133h-83v277h94l67 -150l67 150h93v-277z" />
    <glyph glyph-name="oneeighth" unicode="&#x215b;" horiz-adv-x="814" 
d="M95 531l-78 -46v111l115 74h72v-383h-109v244zM664 670l-484 -670h-94l485 670h93zM715 199h-2q67 -25 67 -95q0 -49 -44 -82t-116 -33q-70 0 -114 33t-44 82q0 70 67 95q-52 25 -52 81q0 46 42 77q43 32 104 32q60 0 103 -32q42 -31 42 -77q0 -57 -53 -81zM620 310l-1 2
q-19 0 -33 -11q-13 -10 -13 -30q0 -16 14 -28q13 -12 33 -12q19 0 33 11t14 27q0 20 -13 30q-14 11 -34 11zM620 76v1q22 0 35 12q14 12 14 31q0 18 -15 30t-36 12q-22 0 -36 -12t-14 -31t15 -31t37 -12z" />
    <glyph glyph-name="threeeighths" unicode="&#x215c;" horiz-adv-x="866" 
d="M324 406l-4 6q0 -54 -42 -90t-108 -36q-65 0 -106 34q-42 34 -46 91l95 21q6 -57 58 -57q20 0 34 11q13 10 13 27t-13 26q-14 9 -34 9h-42v76h36q22 0 37 9t15 26t-12 27q-11 10 -33 10q-50 0 -51 -54l-98 21q6 53 47 86q40 33 102 33q65 0 105 -34q41 -35 41 -87
q0 -50 -46 -75q52 -25 52 -80zM712 676l-484 -670h-94l484 670h94zM760 205h-2q67 -25 67 -95q0 -49 -44 -82q-43 -33 -116 -33q-71 0 -114 33q-44 33 -44 82q0 70 67 95q-52 25 -52 81q0 46 42 77q43 32 104 32q60 0 103 -32q42 -31 42 -77q0 -57 -53 -81zM665 316l-1 2
q-19 0 -33 -11q-13 -10 -13 -30q0 -16 14 -28t33 -12t33 11t14 27q0 20 -13 30q-14 11 -34 11zM665 82v1q21 0 35 12t14 31q0 18 -15 30t-36 12q-23 0 -36 -12q-14 -12 -14 -31t15 -31t37 -12z" />
    <glyph glyph-name="fiveeighths" unicode="&#x215d;" horiz-adv-x="845" 
d="M331 414l1 -1q0 -61 -42 -99q-41 -37 -110 -37q-64 0 -108 35q-43 34 -49 86l102 18q4 -22 19 -34t35 -12q21 0 35 11t14 30t-15 30q-16 11 -39 11h-137l10 218h264v-94h-171l-2 -38h61q61 0 96 -34q36 -34 36 -90zM710 669l-484 -670h-94l484 670h94zM748 198h-2
q67 -25 67 -95q0 -49 -44 -82q-43 -33 -116 -33q-71 0 -114 33q-44 33 -44 82q0 70 67 95q-52 25 -52 81q0 45 42 77q43 32 104 32q60 0 103 -32q42 -32 42 -77q0 -57 -53 -81zM653 309l-1 2q-19 0 -33 -11q-13 -10 -13 -30q0 -16 14 -28t33 -12t33 11t14 27q0 20 -13 30
q-14 11 -34 11zM653 75v1q21 0 35 12t14 31q0 18 -15 30t-36 12q-23 0 -36 -12q-14 -12 -14 -31t15 -31t37 -12z" />
    <glyph glyph-name="seveneighths" unicode="&#x215e;" horiz-adv-x="769" 
d="M50 287l133 289h-176v94h291v-83l-132 -300h-116zM633 670l-484 -670h-94l484 670h94zM671 199h-2q67 -25 67 -95q0 -49 -44 -82t-116 -33q-70 0 -114 33t-44 82q0 70 67 95q-52 25 -52 81q0 46 42 77q43 32 104 32q60 0 103 -32q42 -31 42 -77q0 -57 -53 -81zM576 310
l-1 2q-19 0 -33 -11q-13 -10 -13 -30q0 -16 14 -28q13 -12 33 -12q19 0 33 11t14 27q0 20 -13 30q-14 11 -34 11zM576 76v1q22 0 35 12q14 12 14 31q0 18 -15 30t-36 12q-22 0 -36 -12t-14 -31t15 -31t37 -12z" />
    <glyph glyph-name="arrowleft" unicode="&#x2190;" horiz-adv-x="727" 
d="M687 250h-394l154 -155l-104 -104l-333 333l334 334l104 -105l-155 -155h394v-148z" />
    <glyph glyph-name="arrowup" unicode="&#x2191;" horiz-adv-x="747" 
d="M603 240l-155 154v-394h-148v394l-155 -155l-105 104l334 334l333 -333z" />
    <glyph glyph-name="arrowright" unicode="&#x2192;" horiz-adv-x="727" 
d="M717 324l-333 -333l-104 104l154 155h-394v148h394l-155 155l104 105z" />
    <glyph glyph-name="arrowdown" unicode="&#x2193;" horiz-adv-x="747" 
d="M707 326l-333 -333l-334 334l105 104l155 -155v394h148v-394l155 154z" />
    <glyph glyph-name="uni2196" unicode="&#x2196;" horiz-adv-x="748" 
d="M599 -9l-421 423v-236h-148v492h491l-1 -148h-234l422 -422z" />
    <glyph glyph-name="uni2197" unicode="&#x2197;" horiz-adv-x="747" 
d="M717 670v-492h-148v235l-421 -422l-109 109l422 422h-234l-1 148h491z" />
    <glyph glyph-name="uni2198" unicode="&#x2198;" horiz-adv-x="748" 
d="M718 492v-492h-491l1 148h234l-422 422l109 109l421 -422v235h148z" />
    <glyph glyph-name="uni2199" unicode="&#x2199;" horiz-adv-x="748" 
d="M520 148l1 -148h-491v492h148v-236l421 423l109 -109l-422 -422h234z" />
    <glyph glyph-name="minus" unicode="&#x2212;" horiz-adv-x="573" 
d="M523 238h-473v131h473v-131z" />
    <glyph glyph-name="approxequal" unicode="&#x2248;" horiz-adv-x="572" 
d="M522 460v-121q-44 -21 -105 -21q-53 0 -124 24q-70 24 -121 24q-80 0 -121 -29v119q40 31 120 31q53 0 125 -24t122 -24q65 0 104 21zM522 302l-1 -119q-45 -22 -106 -22q-53 0 -124 24q-70 24 -121 24q-78 0 -121 -29v118q44 32 121 32q53 0 125 -24t122 -24
q63 0 105 20z" />
    <glyph glyph-name="notequal" unicode="&#x2260;" horiz-adv-x="573" 
d="M369 351l-39 -71h193v-127h-262l-42 -77h-123l42 77h-88v127h157l39 71h-196v127h265l40 74h123l-40 -74h85v-127h-154z" />
    <glyph glyph-name="lessequal" unicode="&#x2264;" horiz-adv-x="457" 
d="M419 216l-387 114v150l387 114v-143l-233 -46l233 -49v-140zM419 200v-130h-387v130h387z" />
    <glyph glyph-name="greaterequal" unicode="&#x2265;" horiz-adv-x="457" 
d="M273 405l-233 46v143l387 -114v-150l-387 -114v140zM427 70h-387v130h387v-130z" />
    <glyph glyph-name="fi" unicode="&#xfb01;" horiz-adv-x="656" 
d="M510 561l-3 -2q-41 0 -66 25q-26 26 -26 64t27 65t67 27q39 0 66 -27t27 -64t-26 -63q-25 -25 -66 -25zM587 500l-2 -504h-160v375h-184v-375h-159v375h-72v127h72v39q0 88 56 141t149 53q45 0 91 -17l-29 -126q-28 6 -40 6q-31 0 -48 -16q-18 -16 -18 -46v-32h344z" />
    <glyph glyph-name="fl" unicode="&#xfb02;" horiz-adv-x="653" 
d="M311 597l-1 -2q-28 0 -47 -17q-18 -16 -18 -45v-32h138v-127h-138v-375h-159v375h-72v127h72v39q0 88 56 141t147 53q51 0 99 -21l-34 -124q-26 8 -43 8zM594 718v-720h-160v720h160z" />
    <glyph glyph-name="K.ss03" horiz-adv-x="714" 
d="M717 0h-200l-176 256l-118 -141v-115h-165v670h165v-331l279 331h187l-241 -287z" />
    <glyph glyph-name="Kcommaaccent.ss03" horiz-adv-x="714" 
d="M717 0h-200l-176 256l-118 -141v-115h-165v670h165v-331l279 331h187l-241 -287zM290 -45h162l-99 -157h-114z" />
    <glyph glyph-name="Q.ss04" horiz-adv-x="784" 
d="M571 -170l-122 159q-35 -5 -60 -5q-149 0 -253 102q-103 102 -103 248q0 147 104 249q103 102 254 102t254 -102q104 -102 104 -249q0 -83 -36 -155t-100 -121l174 -228h-216zM197 333q0 -86 55 -142q56 -57 138 -57t138 57q55 56 55 142q0 87 -55 143q-56 57 -138 57
t-138 -57q-55 -56 -55 -143z" />
    <glyph glyph-name="I.ss05" horiz-adv-x="458" 
d="M311 526v-382h127v-144h-418v144h127v382h-127v144h418v-144h-127z" />
    <glyph glyph-name="IJ.ss05" horiz-adv-x="1066" 
d="M438 670v-144h-127v-382h127v-144h-418v144h127v382h-127v144h418zM1010 670l2 -429q0 -112 -75 -184t-196 -72q-113 0 -183 61t-85 165l160 32q5 -53 33 -81q29 -29 75 -29q47 0 75 30q29 31 29 78v285h-207v144h372z" />
    <glyph glyph-name="Iacute.ss05" horiz-adv-x="458" 
d="M301 735h-142l71 152h190zM311 526v-382h127v-144h-418v144h127v382h-127v144h418v-144h-127z" />
    <glyph glyph-name="Icircumflex.ss05" horiz-adv-x="458" 
d="M189 729h-154l115 155h159l116 -155h-155l-40 56zM311 526v-382h127v-144h-418v144h127v382h-127v144h418v-144h-127z" />
    <glyph glyph-name="Idieresis.ss05" horiz-adv-x="458" 
d="M115 724q-39 0 -64 24t-25 62q0 36 26 62t63 26t63 -26t26 -62q0 -38 -25 -62t-64 -24zM343 724q-39 0 -64 24t-25 62q0 36 26 62t63 26t63 -26t26 -62q0 -38 -25 -62t-64 -24zM311 526v-382h127v-144h-418v144h127v382h-127v144h418v-144h-127z" />
    <glyph glyph-name="Idotaccent.ss05" horiz-adv-x="458" 
d="M228 732v-2q-39 0 -64 25t-25 63q0 36 26 62t63 26q38 0 63 -25q26 -26 26 -61q0 -38 -25 -63t-64 -25zM311 524v-382h127v-144h-418v144h127v382h-127v144h418v-144h-127z" />
    <glyph glyph-name="Igrave.ss05" horiz-adv-x="458" 
d="M160 735l-119 152h190l71 -152h-142zM311 526v-382h127v-144h-418v144h127v382h-127v144h418v-144h-127z" />
    <glyph glyph-name="Imacron.ss05" horiz-adv-x="458" 
d="M395 738h-332v124h332v-124zM311 526v-382h127v-144h-418v144h127v382h-127v144h418v-144h-127z" />
    <glyph glyph-name="Iogonek.ss05" horiz-adv-x="458" 
d="M311 526l-2 -383h127v-144h-127q-8 -10 -16 -18q-12 -12 -14 -15q-4 -6 -10 -12q-7 -7 -9 -11q0 -1 -2 -4t-3 -5q-2 -4 -4 -10q-1 -3 -1 -9q0 -24 28 -24q19 0 50 10l6 -91q-45 -22 -93 -22q-45 0 -73 24t-28 68q0 65 67 120h-187v144h127v382h-127v144h418v-144h-127z
" />
    <glyph glyph-name="J.ss05" horiz-adv-x="608" 
d="M552 670l2 -429q0 -112 -75 -184t-196 -72q-113 0 -183 61t-85 165l160 32q5 -53 33 -81q29 -29 75 -29q47 0 75 30q29 31 29 78v285h-207v144h372z" />
    <glyph glyph-name="i.loclTRK" horiz-adv-x="297" 
d="M148 739v-2q38 0 63 -25q26 -26 26 -61q0 -38 -25 -63t-64 -25t-64 25t-25 63q0 36 26 62t63 26zM228 -2h-159v502h159v-502z" />
    <glyph glyph-name="germandbls.case" horiz-adv-x="1276" 
d="M321 685v-3q109 0 183 -51t93 -142l-162 -33q-9 45 -42 69t-75 24q-41 0 -66 -19t-25 -48q0 -44 54 -56l139 -31q184 -40 184 -195q0 -103 -79 -160t-198 -57q-117 0 -198 54q-80 54 -94 150l170 33q24 -99 132 -99q47 0 73 19q27 20 27 51q0 25 -13 38q-14 13 -48 21
l-140 30q-180 39 -180 194q0 97 73 154t192 57zM951 682v-3q109 0 183 -51t93 -142l-162 -33q-9 45 -42 69t-75 24q-41 0 -66 -19t-25 -48q0 -44 54 -56l139 -31q184 -40 184 -195q0 -103 -79 -160t-198 -57q-117 0 -198 54q-80 54 -94 150l170 33q24 -99 132 -99
q47 0 73 19q27 19 27 51q0 25 -13 38q-14 14 -48 21l-140 30q-180 39 -180 194q0 97 73 154t192 57z" />
    <glyph glyph-name="a.ss01" horiz-adv-x="556" 
d="M284 517l-2 -2q107 0 168 -52q62 -53 62 -147v-318h-154v37q-61 -52 -150 -52q-84 0 -135 45t-51 119q0 76 55 119q56 44 154 44h128v10q0 32 -19 51q-20 20 -51 20q-73 0 -84 -63l-151 31q17 74 78 116t152 42zM253 103v1q43 0 75 26q31 25 31 66v11h-110q-30 0 -48 -15
t-18 -37q0 -25 19 -38q20 -14 51 -14z" />
    <glyph glyph-name="aacute.ss01" horiz-adv-x="556" 
d="M355 567h-142l71 152h190zM284 517l-2 -2q107 0 168 -52q62 -53 62 -147v-318h-154v37q-61 -52 -150 -52q-84 0 -135 45t-51 119q0 76 55 119q56 44 154 44h128v10q0 32 -19 51q-20 20 -51 20q-73 0 -84 -63l-151 31q17 74 78 116t152 42zM253 103v1q43 0 75 26
q31 25 31 66v11h-110q-30 0 -48 -15t-18 -37q0 -25 19 -38q20 -14 51 -14z" />
    <glyph glyph-name="abreve.ss01" horiz-adv-x="556" 
d="M283 550h-3q-82 0 -129 43q-48 43 -48 115h126q0 -22 15 -37t37 -15q23 0 38 15t15 37h126q0 -72 -48 -115q-47 -43 -129 -43zM281 517l-2 -2q107 0 168 -52q62 -53 62 -147v-318h-154v37q-61 -52 -150 -52q-84 0 -135 45t-51 119q0 76 55 119q56 44 154 44h128v10
q0 32 -19 51q-20 20 -51 20q-74 0 -84 -63l-151 31q17 74 78 116q62 42 152 42zM250 103v1q43 0 75 26q31 25 31 66v11h-110q-30 0 -48 -15t-18 -37q0 -25 19 -38q20 -14 51 -14z" />
    <glyph glyph-name="acircumflex.ss01" horiz-adv-x="556" 
d="M243 561h-154l115 155h159l116 -155h-155l-40 56zM284 517l-2 -2q107 0 168 -52q62 -53 62 -147v-318h-154v37q-61 -52 -150 -52q-84 0 -135 45t-51 119q0 76 55 119q56 44 154 44h128v10q0 32 -19 51q-20 20 -51 20q-73 0 -84 -63l-151 31q17 74 78 116t152 42zM253 103
v1q43 0 75 26q31 25 31 66v11h-110q-30 0 -48 -15t-18 -37q0 -25 19 -38q20 -14 51 -14z" />
    <glyph glyph-name="adieresis.ss01" horiz-adv-x="556" 
d="M169 556q-39 0 -64 24t-25 62q0 36 26 62t63 26t63 -26t26 -62q0 -38 -25 -62q-26 -24 -64 -24zM397 556q-38 0 -64 24q-25 24 -25 62q0 36 26 62t63 26t63 -26t26 -62q0 -38 -25 -62t-64 -24zM284 517l-2 -2q107 0 168 -52q62 -53 62 -147v-318h-154v37
q-61 -52 -150 -52q-84 0 -135 45t-51 119q0 76 55 119q56 44 154 44h128v10q0 32 -19 51q-20 20 -51 20q-73 0 -84 -63l-151 31q17 74 78 116t152 42zM253 103v1q43 0 75 26q31 25 31 66v11h-110q-30 0 -48 -15t-18 -37q0 -25 19 -38q20 -14 51 -14z" />
    <glyph glyph-name="agrave.ss01" horiz-adv-x="556" 
d="M214 567l-119 152h190l71 -152h-142zM284 517l-2 -2q107 0 168 -52q62 -53 62 -147v-318h-154v37q-61 -52 -150 -52q-84 0 -135 45t-51 119q0 76 55 119q56 44 154 44h128v10q0 32 -19 51q-20 20 -51 20q-73 0 -84 -63l-151 31q17 74 78 116t152 42zM253 103v1
q43 0 75 26q31 25 31 66v11h-110q-30 0 -48 -15t-18 -37q0 -25 19 -38q20 -14 51 -14z" />
    <glyph glyph-name="amacron.ss01" horiz-adv-x="556" 
d="M449 570h-332v124h332v-124zM284 517l-2 -2q107 0 168 -52q62 -53 62 -147v-318h-154v37q-61 -52 -150 -52q-84 0 -135 45t-51 119q0 76 55 119q56 44 154 44h128v10q0 32 -19 51q-20 20 -51 20q-73 0 -84 -63l-151 31q17 74 78 116t152 42zM253 103v1q43 0 75 26
q31 25 31 66v11h-110q-30 0 -48 -15t-18 -37q0 -25 19 -38q20 -14 51 -14z" />
    <glyph glyph-name="aogonek.ss01" horiz-adv-x="556" 
d="M531 -100l2 -94q-45 -22 -93 -22q-44 0 -73 24q-28 24 -28 68q0 65 67 120h-49v37q-61 -52 -150 -52q-84 0 -135 45t-51 119q0 76 55 119q56 44 154 44h128v10q0 32 -19 51q-20 20 -51 20q-74 0 -84 -63l-151 31q17 74 78 116q62 42 152 42q107 0 168 -52q62 -53 62 -147
v-318h-1q-8 -10 -16 -18q-12 -12 -14 -15q-4 -6 -10 -12q-7 -7 -9 -11q0 -1 -2 -4t-3 -5q-2 -4 -4 -10q-1 -3 -1 -9q0 -24 28 -24q19 0 50 10zM251 102v1q43 0 75 26q31 25 31 66v11h-110q-30 0 -48 -15t-18 -37q0 -25 19 -38q20 -14 51 -14z" />
    <glyph glyph-name="aring.ss01" horiz-adv-x="556" 
d="M283 543q-53 0 -89 36t-36 87q0 52 36 88t89 36t89 -36t36 -88q0 -51 -36 -87t-89 -36zM283 705v-1q-17 0 -29 -12t-12 -28t12 -28t29 -12t29 12t12 28q0 17 -12 29t-29 12zM284 516l-2 -2q107 0 168 -52q62 -53 62 -147v-318h-154v37q-61 -52 -150 -52q-84 0 -135 45
t-51 119q0 76 55 119q56 44 154 44h128v10q0 32 -19 51q-20 20 -51 20q-73 0 -84 -63l-151 31q17 74 78 116t152 42zM253 102v1q43 0 75 26q31 25 31 66v11h-110q-30 0 -48 -15t-18 -37q0 -25 19 -38q20 -14 51 -14z" />
    <glyph glyph-name="atilde.ss01" horiz-adv-x="556" 
d="M236 612l-2 -1q-26 0 -30 -33h-97q0 77 34 114q35 38 81 38q34 0 69 -18t52 -18q25 0 30 36h97q0 -78 -33 -116t-82 -38q-35 0 -68 18t-51 18zM282 516l-2 -2q107 0 168 -52q62 -53 62 -147v-318h-154v37q-61 -52 -150 -52q-84 0 -135 45t-51 119q0 76 55 119
q56 44 154 44h128v10q0 32 -19 51q-20 20 -51 20q-73 0 -84 -63l-151 31q17 74 78 116t152 42zM251 102v1q43 0 75 26q31 25 31 66v11h-110q-30 0 -48 -15t-18 -37q0 -25 19 -38q20 -14 51 -14z" />
    <glyph glyph-name="l.ss02" horiz-adv-x="339" 
d="M211 720v-549q0 -20 13 -32q14 -12 36 -12q16 0 58 14l25 -125q-63 -31 -118 -31q-78 0 -126 48t-48 126v561h160z" />
    <glyph glyph-name="lacute.ss02" horiz-adv-x="339" 
d="M204 785h-142l71 152h190zM211 720v-549q0 -20 13 -32q14 -12 36 -12q16 0 58 14l25 -125q-63 -31 -118 -31q-78 0 -126 48t-48 126v561h160z" />
    <glyph glyph-name="lcaron.ss02" horiz-adv-x="339" 
d="M211 720v-549q0 -20 13 -32q14 -12 36 -12q16 0 58 14l25 -125q-63 -31 -118 -31q-78 0 -126 48t-48 126v561h160zM370 521h-115v199h150z" />
    <glyph glyph-name="lcommaaccent.ss02" horiz-adv-x="339" 
d="M211 720v-549q0 -20 13 -32q14 -12 36 -12q16 0 58 14l25 -125q-63 -31 -118 -31q-78 0 -126 48t-48 126v561h160zM67 -202l51 157h162l-99 -157h-114z" />
    <glyph glyph-name="ldot.ss02" horiz-adv-x="442" 
d="M217 720l-1 -550q0 -20 14 -32t36 -12q17 0 57 14l26 -125q-1 -1 -9 -4q-5 -2 -11 -5l-10 -4l-12 -4l-12 -4q-3 -1 -14 -4q-4 -1 -14 -3t-17 -2h-18q-78 0 -126 48t-48 126v561h159zM347 446q37 0 63 -26t26 -62q0 -38 -25 -63t-64 -25t-64 25t-25 63q0 36 26 62t63 26z
" />
    <glyph glyph-name="lslash.ss02" horiz-adv-x="364" 
d="M342 141l25 -126q-1 -1 -9 -4q-5 -2 -11 -5l-10 -4q-2 -1 -4.5 -1.5t-4.5 -1.5t-3 -1l-12 -4q-3 -1 -14 -4q-4 -1 -14 -3t-17 -2h-18q-78 0 -126 48t-48 126v76l-54 -29v150l54 29v335h159v-248l63 34v-150l-63 -34v-151q0 -20 14 -32q13 -12 36 -12q18 0 57 14z" />
    <glyph glyph-name="k.ss03" horiz-adv-x="622" 
d="M625 0h-197l-134 171l-76 -86v-85h-160v720h160v-419l181 201h187l-185 -210z" />
    <glyph glyph-name="kcommaaccent.ss03" horiz-adv-x="622" 
d="M625 0h-197l-134 171l-76 -86v-85h-160v720h160v-419l181 201h187l-185 -210zM247 -45h162l-99 -157h-114z" />
    <glyph glyph-name="f_j" horiz-adv-x="684" 
d="M538 561v-2q-40 0 -66 26t-26 63t26 65q26 27 66 27t67 -27t27 -64t-27 -63q-26 -25 -67 -25zM619 500l-2 -523q0 -74 -43 -117q-44 -44 -117 -44q-53 0 -105 21l24 126q27 -8 39 -8q18 0 31 11q12 11 12 29v376h-214v-375h-159v375h-72v127h72v39q0 88 56 141t149 53
q45 0 91 -17l-29 -126q-28 6 -40 6q-31 0 -48 -16q-18 -16 -18 -46v-32h373z" />
    <glyph glyph-name="f_t" horiz-adv-x="796" 
d="M757 148l33 -128q-68 -37 -137 -37q-95 0 -147 51t-52 149v190h-211v-375h-159v375h-72v127h72v39q0 88 56 141t149 53q45 0 91 -17l-29 -126q-29 6 -40 6q-31 0 -48 -16q-18 -16 -18 -46v-32h211v148h160v-148h148v-127h-148v-174q0 -73 66 -73q37 0 75 20z" />
    <glyph glyph-name="fl.ss02" horiz-adv-x="716" 
d="M311 597l-1 -2q-28 0 -47 -17q-18 -16 -18 -45v-32h138v-127h-138v-375h-159v375h-72v127h72v39q0 88 56 141t147 53q51 0 99 -21l-34 -124q-26 8 -43 8zM693 139l25 -126q-1 -1 -9 -4q-5 -2 -11 -5l-10 -4l-12 -4l-12 -4q-3 -1 -14 -4q-4 -1 -14 -3t-17 -2h-18
q-78 0 -126 48t-48 126v561h159v-549q0 -20 14 -32t36 -12q18 0 57 14z" />
    <glyph glyph-name="zero.tf" 
d="M305 685v-2q125 0 201 -96q77 -97 77 -253t-77 -253q-76 -96 -201 -96t-201 96q-77 97 -77 254t77 254q76 96 201 96zM305 128h-2q53 0 83 54t30 150t-30 150t-82 54t-82 -54t-30 -150t30 -150t83 -54z" />
    <glyph glyph-name="one.tf" 
d="M553 146v-146h-488v146h180v330l-173 -80v150l229 124h104v-524h148z" />
    <glyph glyph-name="two.tf" 
d="M554 144l2 -147h-486v108l232 217q10 9 18.5 18t16 16.5l9.5 9.5q12 12 29 41q16 28 16 57q0 35 -23 58q-22 22 -60 22q-88 0 -96 -108l-153 29q5 101 72 159q68 59 176 59q107 0 174 -59q66 -58 66 -158q0 -64 -32 -114q-31 -50 -108 -120l-96 -88h243z" />
    <glyph glyph-name="three.tf" 
d="M478 339l-4 -2q83 -42 83 -138q0 -95 -69 -155t-180 -60q-106 0 -177 57q-70 57 -81 155l156 29q17 -104 105 -104q41 0 69 23q27 22 27 59q0 35 -24 54q-25 20 -67 20h-77v122h70q41 0 66 20q24 19 24 53q0 35 -24 56t-64 21q-42 0 -69 -27q-26 -26 -31 -81l-151 29
q12 98 80 157q67 58 170 58q106 0 174 -59q67 -58 67 -152q0 -99 -73 -135z" />
    <glyph glyph-name="four.tf" 
d="M582 123h-72v-123h-156v123h-322v148l274 399h204v-415h72v-132zM354 255v252l-165 -252h165z" />
    <glyph glyph-name="five.tf" 
d="M234 435l92 -2q114 -3 173 -58q63 -59 63 -157q0 -104 -69 -168q-70 -65 -184 -65q-109 0 -183 60q-73 60 -76 170l156 31q2 -62 31 -91q30 -30 75 -30q42 0 70 26q27 25 27 66q0 37 -27 60q-28 23 -70 23h-230l13 370h439v-143h-296z" />
    <glyph glyph-name="six.tf" 
d="M349 435v-1q108 0 170 -61q63 -61 63 -160q0 -100 -71 -165q-70 -64 -182 -64q-130 0 -207 89t-77 249q0 189 93 283q76 79 192 79q90 0 153 -42t84 -121l-155 -30q-16 57 -87 57q-46 0 -81 -38q-44 -48 -45 -136q58 61 150 61zM325 119l-2 1q42 0 71 28q30 28 30 70
t-30 69t-70 27q-41 0 -69 -28q-29 -29 -29 -72q0 -41 30 -68t69 -27z" />
    <glyph glyph-name="seven.tf" 
d="M562 670v-119l-260 -551h-178l255 526h-341v144h524z" />
    <glyph glyph-name="eight.tf" 
d="M448 343l-4 -2q58 -23 90 -63q32 -41 32 -96q0 -88 -72 -144q-71 -55 -190 -55t-190 55q-72 56 -72 144q0 114 121 160q-99 46 -99 154q0 82 68 135t174 53q107 0 174 -52q68 -53 68 -135q0 -104 -100 -154zM302 559v1q-36 0 -61 -21t-25 -58q0 -36 25 -57q26 -21 61 -21
q38 0 63 21q26 21 26 57t-26 57q-25 21 -63 21zM302 114v-2q38 0 66 22t28 60t-28 59t-66 21q-37 0 -64 -21t-27 -60q0 -37 26 -58q25 -21 65 -21z" />
    <glyph glyph-name="nine.tf" 
d="M280 684v-2q130 0 207 -89t77 -249q0 -187 -93 -283q-79 -79 -193 -79q-90 0 -153 42t-84 122l155 30q20 -57 88 -57q46 0 81 38q45 49 45 136q-58 -61 -151 -61q-105 0 -169 62q-63 62 -63 161q0 100 71 165q70 64 182 64zM284 352v-1q41 0 69 28q29 29 29 72
q0 41 -29 68t-69 27q-41 0 -70 -28q-30 -29 -30 -70q0 -42 30 -69t70 -27z" />
    <glyph glyph-name="zero.zero.tf" 
d="M305 685v-2q125 0 201 -96q77 -97 77 -253t-77 -253q-76 -96 -201 -96t-201 96q-77 97 -77 254t77 254q76 96 201 96zM305 537l-1 -1q-52 0 -82 -54t-30 -150q0 -28 5 -66l177 237q-28 34 -69 34zM304 127l-1 1q53 0 83 54t30 150q0 42 -4 66l-177 -238q29 -33 69 -33z
" />
    <glyph glyph-name="zero.zero" horiz-adv-x="653" 
d="M332 685l-1 -2q134 0 215 -96t81 -253t-81 -253t-214 -96t-214 96t-81 254t81 254t214 96zM331 538h-2q-59 0 -93 -55q-35 -56 -35 -150q0 -39 6 -72l190 254q-29 23 -66 23zM329 128l-1 -1q59 0 95 56q36 55 36 150q0 49 -11 93l-197 -263q32 -35 78 -35z" />
    <glyph glyph-name="zero.dnom" horiz-adv-x="409" 
d="M205 390v-2q79 0 127 -54t48 -145t-48 -145t-127 -54q-78 0 -126 55t-48 145t48 145t126 55zM205 83h-1q59 0 59 105q0 50 -15 77t-43 27q-27 0 -43 -27q-16 -26 -16 -77t15 -78t44 -27z" />
    <glyph glyph-name="one.dnom" horiz-adv-x="257" 
d="M204 0h-109v244l-78 -46v111l115 74h72v-383z" />
    <glyph glyph-name="two.dnom" horiz-adv-x="357" 
d="M193 93l129 -2v-93h-294v69l141 124q19 17 29 26q9 9 15 21t6 24q0 16 -12 27q-13 11 -31 11q-47 0 -49 -62l-97 21q0 60 40 96q41 36 106 36q67 0 107 -34q41 -35 41 -96q0 -37 -21 -66t-63 -63z" />
    <glyph glyph-name="three.dnom" horiz-adv-x="351" 
d="M272 195l-4 6q52 -25 52 -80q0 -54 -42 -90t-108 -36q-65 0 -106 34q-42 34 -46 91l95 21q6 -57 58 -57q20 0 34 11q13 10 13 27t-13 26q-14 9 -34 9h-42v76h36q22 0 37 9t15 26q0 16 -12 27q-11 10 -33 10q-50 0 -51 -54l-98 21q6 53 47 86q40 33 102 33q65 0 105 -34
q41 -35 41 -87q0 -50 -46 -75z" />
    <glyph glyph-name="four.dnom" horiz-adv-x="386" 
d="M363 64h-48v-64h-101v64h-196v98l170 221h127v-230h48v-89zM214 153v121l-92 -121h92z" />
    <glyph glyph-name="five.dnom" horiz-adv-x="352" 
d="M137 250l62 -1q62 -2 96 -34q36 -35 36 -90q0 -61 -42 -99q-41 -37 -110 -37q-64 0 -108 35q-43 34 -49 86l102 18q4 -22 19 -34t35 -12q21 0 35 11t14 30t-15 30q-16 11 -39 11h-137l10 218h264v-94h-171z" />
    <glyph glyph-name="six.dnom" horiz-adv-x="359" 
d="M206 249l-1 -1q59 0 96 -36t37 -93q0 -58 -42 -94t-106 -36q-79 0 -124 50q-45 49 -45 140q0 108 56 164q45 45 114 45q59 0 96 -28t48 -81l-104 -16q-6 38 -44 38q-23 0 -39 -19q-17 -20 -20 -54q34 21 78 21zM185 73h-1q22 0 37 15t15 37t-15 37t-37 15t-37 -15
t-15 -37t15 -37t38 -15z" />
    <glyph glyph-name="seven.dnom" horiz-adv-x="307" 
d="M298 383v-83l-132 -300h-116l133 289h-176v94h291z" />
    <glyph glyph-name="eight.dnom" horiz-adv-x="376" 
d="M281 199h-2q67 -25 67 -95q0 -49 -44 -82t-116 -33q-70 0 -114 33t-44 82q0 70 67 95q-52 25 -52 81q0 46 42 77q43 32 104 32q60 0 103 -32q42 -31 42 -77q0 -57 -53 -81zM186 310l-1 2q-19 0 -33 -11q-13 -10 -13 -30q0 -16 14 -28q13 -12 33 -12q19 0 33 11t14 27
q0 20 -13 30q-14 11 -34 11zM186 76v1q22 0 35 12q14 12 14 31q0 18 -15 30t-36 12q-22 0 -36 -12t-14 -31t15 -31t37 -12z" />
    <glyph glyph-name="nine.dnom" horiz-adv-x="359" 
d="M169 389q80 0 125 -50q45 -49 45 -140q0 -107 -56 -165q-44 -44 -114 -44q-57 0 -97 29q-39 29 -48 81l103 16q6 -37 45 -37q23 0 39 19q17 20 21 55q-35 -23 -79 -23q-59 0 -96 36t-37 92q0 59 42 95t107 36zM173 203q22 0 37 15t15 37q0 23 -15 36q-16 14 -37 14
q-22 0 -38 -14q-15 -13 -15 -36q0 -22 15 -37t38 -15z" />
    <glyph glyph-name="zero.numr" horiz-adv-x="409" 
d="M205 680v-2q79 0 127 -54t48 -145t-48 -145t-127 -54q-78 0 -126 55t-48 145t48 145t126 55zM205 373h-1q59 0 59 105q0 50 -15 77t-43 27q-27 0 -43 -27q-16 -26 -16 -77t15 -78t44 -27z" />
    <glyph glyph-name="one.numr" horiz-adv-x="257" 
d="M204 287h-109v244l-78 -46v111l115 74h72v-383z" />
    <glyph glyph-name="two.numr" horiz-adv-x="357" 
d="M193 380l129 -2v-93h-294v69l141 124q19 17 29 26q9 9 15 21t6 24q0 17 -12 27q-13 11 -31 11q-47 0 -49 -62l-97 21q0 60 40 96t106 36q67 0 107 -34q41 -35 41 -96q0 -38 -21 -66t-63 -63z" />
    <glyph glyph-name="three.numr" horiz-adv-x="351" 
d="M272 486l-4 6q52 -25 52 -80q0 -54 -42 -90t-108 -36q-65 0 -106 34q-42 34 -46 91l95 21q6 -57 58 -57q20 0 34 11q13 10 13 27t-13 26q-14 9 -34 9h-42v76h36q22 0 37 9t15 26t-12 27q-11 10 -33 10q-50 0 -51 -54l-98 21q6 53 47 86q40 33 102 33q65 0 105 -34
q41 -35 41 -87q0 -50 -46 -75z" />
    <glyph glyph-name="four.numr" horiz-adv-x="386" 
d="M363 351h-48v-64h-101v64h-196v98l170 221h127v-230h48v-89zM214 440v121l-92 -121h92z" />
    <glyph glyph-name="five.numr" horiz-adv-x="352" 
d="M137 538l62 -1q62 -2 96 -34q36 -35 36 -90q0 -61 -42 -99q-41 -37 -110 -37q-64 0 -108 35q-43 34 -49 86l102 18q4 -22 19 -34t35 -12q21 0 35 11t14 30t-15 30q-16 11 -39 11h-137l10 218h264v-94h-171z" />
    <glyph glyph-name="six.numr" horiz-adv-x="359" 
d="M206 540l-1 -1q59 0 96 -36t37 -93q0 -58 -42 -94t-106 -36q-79 0 -124 50t-45 140q0 108 56 164q45 45 114 45q59 0 96 -28q37 -29 48 -81l-104 -16q-6 38 -44 38q-23 0 -39 -19q-17 -20 -20 -54q34 21 78 21zM185 364h-1q22 0 37 15t15 37t-15 37t-37 15t-37 -15
t-15 -37t15 -37t38 -15z" />
    <glyph glyph-name="seven.numr" horiz-adv-x="307" 
d="M298 670v-83l-132 -300h-116l133 289h-176v94h291z" />
    <glyph glyph-name="eight.numr" horiz-adv-x="376" 
d="M281 490h-2q67 -25 67 -95q0 -49 -44 -82t-116 -33q-70 0 -114 33t-44 82q0 70 67 95q-52 25 -52 81q0 45 42 77q43 32 104 32q60 0 103 -32q42 -32 42 -77q0 -57 -53 -81zM186 601l-1 2q-19 0 -33 -11q-13 -10 -13 -30q0 -16 14 -28q13 -12 33 -12q19 0 33 11t14 27
q0 20 -13 30q-14 11 -34 11zM186 367v1q22 0 35 12q14 12 14 31q0 18 -15 30t-36 12q-22 0 -36 -12t-14 -31t15 -31t37 -12z" />
    <glyph glyph-name="nine.numr" horiz-adv-x="359" 
d="M169 680h-1q80 0 125 -50t45 -140q0 -107 -56 -165q-44 -44 -114 -44q-57 0 -97 29q-39 28 -48 81l103 16q6 -37 45 -37q23 0 39 19q17 20 21 55q-35 -23 -78 -23q-59 0 -96 36t-37 92q0 59 42 95t107 36zM172 494q22 0 37 15t15 37t-15 36q-16 14 -37 14q-22 0 -38 -14
q-15 -14 -15 -36t15 -37t38 -15z" />
    <glyph glyph-name="backslash.case" horiz-adv-x="435" 
d="M411 0h-150l-237 670h150z" />
    <glyph glyph-name="periodcentered.case" horiz-adv-x="246" 
d="M123 416h-1q39 0 66 -27t27 -64t-26 -63t-66 -26q-39 0 -65 26t-26 63q0 36 26 64q26 27 65 27z" />
    <glyph glyph-name="bullet.case" horiz-adv-x="415" 
d="M207 498l-1 -1q75 0 126 -51t51 -121q0 -73 -50 -123q-49 -49 -126 -49t-126 49t-49 123q0 70 50 122q50 51 125 51z" />
    <glyph glyph-name="colon.case" horiz-adv-x="246" 
d="M123 563l-1 -1q39 0 66 -27t27 -64t-26 -63q-25 -25 -66 -25q-39 0 -65 26t-26 63q0 36 26 64q26 27 65 27zM122 254l-1 -2q39 0 66 -27t27 -64t-26 -63t-66 -26q-39 0 -65 26t-26 65q0 36 26 64q25 27 65 27z" />
    <glyph glyph-name="exclamdown.case" horiz-adv-x="297" 
d="M151 498h-1q-40 0 -66 26t-26 63t26 63q25 25 66 25t66 -25q26 -26 26 -63t-26 -63t-65 -26zM59 31l10 410h158l10 -410v-31h-178v31z" />
    <glyph glyph-name="questiondown.case" horiz-adv-x="543" 
d="M278 502q-39 0 -66 27t-27 63q0 37 26 63q25 25 66 25t66 -25q26 -26 26 -63q0 -35 -26 -63q-25 -27 -65 -27zM360 224l153 -33q-10 -85 -80 -144q-68 -58 -179 -58q-106 0 -170 60q-65 60 -65 155q0 74 48 123t131 66v50h152v-161h-80q-40 0 -66 -20q-25 -19 -25 -53
q0 -35 23 -58q22 -22 60 -22q39 0 65 26q25 25 33 69z" />
    <glyph glyph-name="semicolon.case" horiz-adv-x="280" 
d="M157 563v-1q39 0 65 -27q26 -28 26 -64q0 -37 -26 -63q-25 -25 -65 -25t-66 26t-26 63q0 36 26 64q25 27 66 27zM124 -133h-121l59 288h177v-4z" />
    <glyph glyph-name="slash.case" horiz-adv-x="481" 
d="M182 0h-135l252 670h135z" />
    <glyph glyph-name="braceleft.case" horiz-adv-x="421" 
d="M263 511l-1 -69q-2 -80 -62 -108q62 -29 62 -108v-68q0 -29 26 -29h95v-129h-133q-62 0 -99 36t-37 95v74q0 23 -15 37q-14 13 -45 22l-34 10v119l34 10q30 9 45 21t15 36v79q0 59 38 95t99 36h133v-129h-95q-26 0 -26 -30z" />
    <glyph glyph-name="braceright.case" horiz-adv-x="421" 
d="M401 393l-2 -123l-34 -10q-28 -8 -45 -22q-15 -12 -15 -36v-74q0 -59 -37 -95q-38 -36 -99 -36h-133v129h94q27 0 27 29v68q0 80 61 108q-61 28 -61 108v71q0 14 -7 22q-8 9 -19 9h-94v129h133q62 0 99 -36q38 -36 38 -95v-79q0 -24 15 -36t45 -21z" />
    <glyph glyph-name="bracketleft.case" horiz-adv-x="410" 
d="M207 539v-408h166v-131h-315v670h315v-131h-166z" />
    <glyph glyph-name="bracketright.case" horiz-adv-x="410" 
d="M352 670v-670h-315v131h166v408h-166v131h315z" />
    <glyph glyph-name="parenleft.case" horiz-adv-x="350" 
d="M204 335l1 1q0 -75 27 -132q26 -56 84 -124l-103 -95q-177 157 -177 351t177 351l100 -96q-55 -67 -82 -124t-27 -132z" />
    <glyph glyph-name="parenright.case" horiz-adv-x="350" 
d="M38 591l100 96q178 -157 178 -352t-178 -352l-102 95q56 67 84 125q27 57 27 132t-27 132t-82 124z" />
    <glyph glyph-name="emdash.case" horiz-adv-x="1040" 
d="M980 267h-920v123h920v-123z" />
    <glyph glyph-name="endash.case" horiz-adv-x="620" 
d="M560 267h-500v123h500v-123z" />
    <glyph glyph-name="hyphen.case" horiz-adv-x="451" 
d="M391 261h-331v135h331v-135z" />
    <glyph glyph-name="guillemotleft.case" horiz-adv-x="505" 
d="M25 322l105 178h150l-105 -178l105 -178h-150zM225 322l105 178h150l-105 -178l105 -178h-150z" />
    <glyph glyph-name="guillemotright.case" horiz-adv-x="505" 
d="M25 144l105 178l-105 178h150l105 -178l-105 -178h-150zM225 144l105 178l-105 178h150l105 -178l-105 -178h-150z" />
    <glyph glyph-name="guilsinglleft.case" horiz-adv-x="305" 
d="M25 322l105 178h150l-105 -178l105 -178h-150z" />
    <glyph glyph-name="guilsinglright.case" horiz-adv-x="305" 
d="M25 144l105 178l-105 178h150l105 -178l-105 -178h-150z" />
    <glyph glyph-name="cent.tf" 
d="M302 125q85 0 110 88l146 -32q-15 -73 -66 -122q-51 -50 -124 -66v-122h-133v123q-91 21 -148 90t-57 167t57 167t149 90v121h133v-120q71 -16 123 -65t68 -120l-150 -36q-10 44 -39 66q-29 23 -69 23q-54 0 -87 -36t-33 -91q0 -56 33 -90q33 -35 87 -35z" />
    <glyph glyph-name="dollar.tf" 
d="M565 211l2 -2q0 -83 -54 -134q-53 -50 -139 -64v-112h-133v115q-83 18 -139 70t-64 129l156 30q8 -55 42 -81q34 -25 81 -25q41 0 66 18q26 18 26 46q0 43 -57 55l-128 28q-171 38 -171 178q0 80 51 131q52 51 137 65v111h133v-114q80 -18 129 -69t57 -126l-152 -26
q-3 55 -35 79t-74 24q-37 0 -61 -18t-24 -45q0 -40 50 -51l128 -29q173 -39 173 -183z" />
    <glyph glyph-name="Euro.tf" 
d="M324 130h-1q70 0 102 128l162 -30q-21 -110 -91 -177t-172 -67q-101 0 -169 61q-69 61 -93 174h-48v96h37v20v20h-37v95h48q24 112 93 174q68 61 169 61q103 0 174 -68q70 -67 90 -180l-161 -28q-24 132 -103 132q-72 0 -96 -91h150l-20 -95h-143v-20v-20h138l-20 -96
h-105q26 -89 96 -89z" />
    <glyph glyph-name="florin.tf" 
d="M483 547h-2q-66 0 -78 -70l-15 -85h137v-127h-161l-45 -250q-15 -84 -70 -131q-55 -48 -136 -48q-51 0 -110 32l47 121q35 -11 56 -11t36 12q17 14 20 32l44 244h-96v127h119l16 91q17 92 80 146t155 54q71 0 126 -34l-50 -124q-34 21 -73 21z" />
    <glyph glyph-name="sterling.tf" 
d="M574 143l-2 -143h-539v103l72 22v108h-72v137h72v91q0 101 64 162q65 62 171 62q100 0 162 -59q62 -58 69 -159l-149 -26q-8 54 -27 75t-54 21q-33 0 -53 -21q-20 -22 -20 -55v-91h157v-137h-157v-90h306z" />
    <glyph glyph-name="yen.tf" 
d="M428 331h102v-103h-147v-43h147v-104h-147v-81h-164v81h-139v104h139v43h-139v103h95l-166 339h175l117 -278l116 278h183z" />
    <glyph glyph-name="approxequal.tf" 
d="M541 460v-121q-43 -21 -105 -21q-54 0 -124 24q-71 24 -121 24q-80 0 -121 -29v119q40 31 120 31q53 0 125 -24t122 -24q65 0 104 21zM541 302l-1 -119q-45 -22 -106 -22q-54 0 -124 24q-71 24 -121 24q-78 0 -121 -29v118q44 32 121 32q53 0 125 -24t122 -24
q63 0 105 20z" />
    <glyph glyph-name="divide.tf" 
d="M302 561q35 0 59 -24t24 -57q0 -34 -24 -57q-25 -23 -60 -23q-36 0 -59 23t-23 57q0 33 24 57t59 24zM542 238h-474v131h474v-131zM302 200q35 0 59 -24t24 -57q0 -35 -24 -57q-25 -23 -60 -23q-36 0 -59 23t-23 57q0 33 24 57t59 24z" />
    <glyph glyph-name="equal.tf" 
d="M542 351h-474v127h474v-127zM542 153h-474v127h474v-127z" />
    <glyph glyph-name="greater.tf" 
d="M348 328l-229 65v154l398 -143v-155l-398 -141v152z" />
    <glyph glyph-name="greaterequal.tf" 
d="M348 405l-233 46v143l387 -114v-150l-387 -114v140zM503 70h-388v130h388v-130z" />
    <glyph glyph-name="less.tf" 
d="M491 108l-398 141v155l398 143v-154l-229 -65l229 -68v-152z" />
    <glyph glyph-name="lessequal.tf" 
d="M496 216l-387 114v150l387 114v-143l-233 -46l233 -49v-140zM496 200v-130h-387v130h387z" />
    <glyph glyph-name="minus.tf" 
d="M542 238h-474v131h474v-131z" />
    <glyph glyph-name="multiply.tf" 
d="M397 304l132 -132l-92 -93l-133 132l-132 -132l-93 93l132 132l-132 131l93 93l132 -132l133 132l92 -93z" />
    <glyph glyph-name="notequal.tf" 
d="M388 351l-39 -71h193v-127h-262l-42 -77h-124l42 77h-88v127h157l39 71h-196v127h265l40 74h124l-40 -74h85v-127h-154z" />
    <glyph glyph-name="plus.tf" 
d="M542 238h-172v-174h-130v174h-172v131h172v174h130v-174h172v-131z" />
    <glyph glyph-name="plusminus.tf" 
d="M542 465v-130h-172v-141h-130v141h-172v130h172v160h130v-160h172zM68 130h474v-130h-474v130z" />
    <glyph glyph-name="bar.case" horiz-adv-x="265" 
d="M207 -41h-149v752h149v-752z" />
    <glyph glyph-name="at.case" horiz-adv-x="936" 
d="M671 509l-4 -282q0 -22 15 -34t36 -12q39 0 60 48t21 111q0 133 -94 217q-95 84 -232 84q-147 0 -244 -94t-97 -238q0 -142 96 -235t239 -93q131 0 240 83l45 -71q-115 -94 -282 -94q-181 0 -303 116q-121 115 -121 293t123 297q122 118 306 118q174 0 293 -106
q120 -107 120 -270q0 -45 -10 -84q-11 -42 -31 -78q-21 -37 -60 -60q-38 -22 -92 -22q-89 0 -120 61q-48 -59 -136 -59q-84 0 -142 56q-57 56 -57 149q0 94 57 151t141 57q75 0 122 -46v37h111zM460 206l-2 -1q40 0 68 28q29 29 29 75q0 45 -28 73t-67 28q-38 0 -67 -27
q-28 -27 -28 -73q0 -47 28 -75t67 -28z" />
    <glyph glyph-name="caron.alt" horiz-adv-x="600" 
d="M354 451h-115v199h150z" />
    </font>
</defs>
</svg>
