<?xml version="1.0" standalone="no"?>
<!DOCTYPE svg PUBLIC "-//W3C//DTD SVG 1.1//EN" "http://www.w3.org/Graphics/SVG/1.1/DTD/svg11.dtd" >
<svg xmlns="http://www.w3.org/2000/svg" xmlns:xlink="http://www.w3.org/1999/xlink" version="1.1">
<metadata>
Created by FontForge 20150824 at Thu Sep  8 02:13:16 2016
 By Everything Fonts
Copyright (c) 2014 by Rene' Bieder. All rights reserved.
</metadata>
<defs>
<font id="GalanoGrotesque-Bold" horiz-adv-x="610" >
  <font-face 
    font-family="Galano Grotesque"
    font-weight="700"
    font-stretch="normal"
    units-per-em="1000"
    panose-1="0 0 0 0 0 0 0 0 0 0"
    ascent="796"
    descent="-204"
    x-height="502"
    cap-height="670"
    bbox="-173 -218 1234 958"
    underline-thickness="50"
    underline-position="-100"
    stemh="152"
    stemv="165"
    unicode-range="U+0020-FB02"
  />
<missing-glyph horiz-adv-x="772" 
d="M386 684c96 0 178 -33 246 -100s102 -151 102 -252c0 -99 -34 -182 -102 -248s-150 -99 -246 -99c-97 0 -179 33 -247 99s-102 149 -102 248c0 101 34 185 102 252s150 100 247 100zM386 629l1 1c-80 0 -148 -28 -204 -84s-84 -126 -84 -211c0 -84 28 -154 84 -210
s124 -84 204 -84c79 0 147 28 203 84s84 126 84 210s-28 154 -84 210s-124 84 -204 84zM524 401l-1 -1c0 -27 -9 -50 -27 -68s-43 -30 -74 -35v-29h-84v89h44c16 0 29 4 39 12s15 18 15 29c0 13 -4 24 -13 32s-21 12 -36 12c-16 0 -29 -4 -39 -13s-16 -21 -19 -37l-87 17
c4 31 19 58 46 80s61 33 102 33c40 0 72 -11 97 -34s37 -52 37 -87zM377 236h-1c15 0 27 -5 37 -15s15 -21 15 -34c0 -14 -5 -26 -15 -36s-22 -15 -37 -15s-27 5 -36 15s-14 22 -14 36c0 13 5 24 15 34s22 15 36 15z" />
    <glyph glyph-name=".notdef" horiz-adv-x="772" 
d="M386 684c96 0 178 -33 246 -100s102 -151 102 -252c0 -99 -34 -182 -102 -248s-150 -99 -246 -99c-97 0 -179 33 -247 99s-102 149 -102 248c0 101 34 185 102 252s150 100 247 100zM386 629l1 1c-80 0 -148 -28 -204 -84s-84 -126 -84 -211c0 -84 28 -154 84 -210
s124 -84 204 -84c79 0 147 28 203 84s84 126 84 210s-28 154 -84 210s-124 84 -204 84zM524 401l-1 -1c0 -27 -9 -50 -27 -68s-43 -30 -74 -35v-29h-84v89h44c16 0 29 4 39 12s15 18 15 29c0 13 -4 24 -13 32s-21 12 -36 12c-16 0 -29 -4 -39 -13s-16 -21 -19 -37l-87 17
c4 31 19 58 46 80s61 33 102 33c40 0 72 -11 97 -34s37 -52 37 -87zM377 236h-1c15 0 27 -5 37 -15s15 -21 15 -34c0 -14 -5 -26 -15 -36s-22 -15 -37 -15s-27 5 -36 15s-14 22 -14 36c0 13 5 24 15 34s22 15 36 15z" />
    <glyph glyph-name="space" unicode=" " horiz-adv-x="232" 
 />
    <glyph glyph-name="exclam" unicode="!" horiz-adv-x="297" 
d="M238 670v-31l-10 -410h-158l-10 410v31h178zM151 172c26 0 48 -9 65 -26s26 -38 26 -63s-8 -46 -25 -63s-39 -25 -66 -25s-49 8 -66 25s-26 38 -26 63s9 46 26 63s39 26 66 26z" />
    <glyph glyph-name="quotedbl" unicode="&#x22;" horiz-adv-x="448" 
d="M47 355v315h151v-315h-151zM250 355v315h151v-315h-151z" />
    <glyph glyph-name="numbersign" unicode="#" horiz-adv-x="711" 
d="M560 386l-29 -117h102l-34 -123h-99l-36 -146h-132l36 146h-116l-36 -146h-132l36 146h-102l33 123h99l29 117h-101l32 123h99l40 161h132l-40 -161h117l40 161h132l-40 -161h102l-34 -123h-98zM427 386h-116l-29 -117h116z" />
    <glyph glyph-name="dollar" unicode="$" horiz-adv-x="607" 
d="M567 211l-1 -2c0 -55 -18 -100 -54 -134s-82 -55 -139 -64v-112h-133v115c-55 12 -101 35 -139 70s-59 78 -64 129l156 30c5 -37 19 -64 42 -81s50 -25 81 -25c27 0 49 6 66 18s26 27 26 46c0 28 -19 47 -57 55l-127 28c-115 25 -172 84 -172 178c0 53 17 97 51 131
s80 56 137 65v111h133v-114c53 -12 97 -35 131 -69s53 -76 58 -126l-152 -26c-3 37 -15 63 -36 79s-46 24 -74 24c-25 0 -45 -6 -60 -18s-23 -27 -23 -45c0 -27 16 -44 49 -51l129 -29c115 -26 172 -87 172 -183z" />
    <glyph glyph-name="percent" unicode="%" horiz-adv-x="865" 
d="M214 685v-3c48 0 89 -15 123 -46s51 -71 51 -121c0 -49 -17 -89 -51 -120s-75 -46 -123 -46c-49 0 -90 16 -124 47s-51 71 -51 120c0 50 17 91 51 122s75 47 124 47zM141 -3l484 670h94l-485 -670h-93zM214 583l-3 -3c-18 0 -33 -6 -46 -18s-19 -28 -19 -49s7 -38 20 -50
s29 -18 47 -18c17 0 32 6 45 19s20 30 20 51s-6 38 -19 50s-28 18 -45 18zM649 314v-3c48 0 89 -15 123 -46s51 -71 51 -121c0 -49 -17 -89 -51 -120s-75 -46 -123 -46c-49 0 -90 16 -124 47s-51 71 -51 120c0 50 17 91 51 122s75 47 124 47zM649 212l-3 -3
c-18 0 -33 -6 -46 -18s-19 -28 -19 -49s7 -38 20 -50s29 -18 47 -18c17 0 32 6 45 19s20 30 20 51s-6 38 -19 50s-28 18 -45 18z" />
    <glyph glyph-name="ampersand" unicode="&#x26;" horiz-adv-x="698" 
d="M592 -28l-87 76c-56 -41 -123 -62 -200 -62c-79 0 -143 19 -192 57s-74 89 -74 152c0 73 38 130 113 171c-31 41 -47 85 -47 132c0 55 21 100 63 135s95 52 160 52s116 -17 153 -52s60 -81 69 -138l-148 -26c-5 59 -30 88 -75 88c-20 0 -36 -5 -49 -16s-19 -26 -19 -46
c0 -18 5 -35 16 -52s31 -38 60 -63l142 -123c4 17 6 36 6 57v45h145v-45c0 -60 -11 -114 -33 -161l90 -78zM311 115c31 0 60 9 87 26l-155 135c-32 -20 -48 -45 -48 -74c0 -26 11 -47 32 -63s49 -24 84 -24z" />
    <glyph glyph-name="quoteright" unicode="&#x2019;" horiz-adv-x="299" 
d="M153 382h-121l59 288h177v-4z" />
    <glyph glyph-name="parenleft" unicode="(" horiz-adv-x="380" 
d="M204 336l1 2c0 -63 11 -119 33 -168s58 -100 108 -153l-113 -99c-131 122 -197 261 -197 418s66 296 197 418l110 -99c-49 -53 -84 -104 -106 -153s-33 -104 -33 -166z" />
    <glyph glyph-name="parenright" unicode=")" horiz-adv-x="380" 
d="M38 655l110 97c132 -121 198 -260 198 -417s-66 -296 -198 -417l-112 99c49 53 85 104 107 153s33 104 33 166s-11 117 -33 166s-57 100 -105 153z" />
    <glyph glyph-name="asterisk" unicode="*" horiz-adv-x="447" 
d="M312 536l102 -59l-44 -77l-98 56v-106h-97v106l-98 -56l-44 77l102 59l-102 58l44 77l98 -56v105h97v-105l98 56l44 -77z" />
    <glyph glyph-name="plus" unicode="+" horiz-adv-x="573" 
d="M523 238h-171v-174h-131v174h-171v131h171v174h131v-174h171v-131z" />
    <glyph glyph-name="comma" unicode="," horiz-adv-x="264" 
d="M124 -132h-121l59 288h177v-4z" />
    <glyph glyph-name="hyphen" unicode="-" horiz-adv-x="451" 
d="M391 195h-331v135h331v-135z" />
    <glyph glyph-name="period" unicode="." horiz-adv-x="246" 
d="M123 175l-1 -2c26 0 48 -9 66 -27s27 -39 27 -64s-9 -46 -26 -63s-39 -26 -66 -26c-26 0 -48 9 -65 26s-26 39 -26 65c0 25 9 46 26 64s39 27 65 27z" />
    <glyph glyph-name="slash" unicode="/" horiz-adv-x="435" 
d="M420 741l-288 -813h-117l288 813h117z" />
    <glyph glyph-name="zero" unicode="0" horiz-adv-x="664" 
d="M332 685l-1 -2c89 0 161 -32 215 -96s81 -148 81 -253s-27 -189 -81 -253s-125 -96 -214 -96s-160 32 -214 96s-81 149 -81 254s27 190 81 254s125 96 214 96zM331 128l-1 -2c39 0 71 19 95 56s36 87 36 150s-12 113 -36 150s-55 56 -94 56s-70 -18 -93 -55
s-35 -87 -35 -150s12 -113 35 -150s54 -55 93 -55z" />
    <glyph glyph-name="one" unicode="1" horiz-adv-x="389" 
d="M322 670v-670h-160v480l-160 -82v148l216 124h104z" />
    <glyph glyph-name="two" unicode="2" horiz-adv-x="548" 
d="M515 144l4 -146h-486v108l231 217c17 16 28 26 34 32s15 16 26 29s19 26 23 39s6 27 6 42c0 24 -8 43 -23 58s-35 22 -60 22c-58 0 -90 -36 -96 -108l-153 29c3 67 27 120 72 159s103 59 174 59c72 0 130 -20 175 -59s67 -92 67 -158c0 -43 -11 -81 -33 -114
s-57 -74 -109 -121l-96 -88h244z" />
    <glyph glyph-name="three" unicode="3" horiz-adv-x="577" 
d="M458 339l-1 -2c55 -28 83 -74 83 -138c0 -63 -23 -115 -70 -155s-107 -60 -180 -60c-71 0 -130 19 -177 57s-74 90 -81 155l156 29c5 -33 16 -59 34 -77s42 -27 71 -27c28 0 51 8 69 23s27 35 27 59c0 23 -8 41 -24 54s-38 20 -67 20h-77v122h70c28 0 50 7 66 20
s24 31 24 53c0 23 -8 42 -24 56s-37 21 -64 21c-28 0 -51 -9 -69 -27s-28 -45 -31 -81l-151 29c7 66 33 118 78 157s102 58 171 58c71 0 129 -20 173 -59s66 -90 66 -152s-24 -107 -72 -135z" />
    <glyph glyph-name="four" unicode="4" horiz-adv-x="626" 
d="M602 123h-81v-123h-155v123h-348v148l299 399h204v-415h81v-132zM366 255v256l-181 -256h181z" />
    <glyph glyph-name="five" unicode="5" horiz-adv-x="576" 
d="M214 435l92 -2c73 -2 131 -19 173 -58s63 -91 63 -157c0 -69 -23 -125 -69 -168s-107 -65 -184 -65c-73 0 -134 20 -183 60s-74 97 -76 170l156 31c1 -41 11 -71 31 -91s45 -30 75 -30c29 0 52 9 70 26s27 39 27 66c0 25 -9 45 -27 60s-41 23 -70 23h-230l12 370h440
v-143h-296z" />
    <glyph glyph-name="six" unicode="6" horiz-adv-x="611" 
d="M341 435l-1 -1c71 0 128 -20 170 -61s63 -94 63 -160c0 -67 -24 -122 -71 -165s-108 -64 -182 -64c-87 0 -156 30 -207 89s-77 142 -77 249c0 127 32 220 93 283c52 52 115 79 193 79c60 0 111 -14 153 -42s70 -68 84 -121l-155 -30c-13 38 -42 57 -88 57
c-31 0 -58 -13 -81 -38c-30 -33 -45 -78 -45 -136c39 41 89 61 151 61zM316 119v1c27 0 50 9 70 28s30 42 30 70s-10 51 -30 69s-43 27 -70 27s-50 -9 -69 -28s-29 -43 -29 -72c0 -27 10 -50 29 -68s42 -27 69 -27z" />
    <glyph glyph-name="seven" unicode="7" horiz-adv-x="513" 
d="M493 670v-119l-219 -551h-177l218 526h-302v144h480z" />
    <glyph glyph-name="eight" unicode="8" horiz-adv-x="573" 
d="M428 343l-3 -5c39 -15 69 -36 90 -63s32 -59 32 -96c0 -58 -24 -105 -72 -142s-111 -55 -189 -55c-79 0 -143 19 -192 56s-73 85 -73 143c0 37 11 69 32 97s51 49 90 64c-66 31 -99 82 -99 154c0 55 23 100 68 135s103 53 174 53s129 -17 174 -52s68 -80 68 -135
c0 -72 -33 -123 -100 -154zM283 556v1c-25 0 -46 -7 -63 -21s-25 -33 -25 -58c0 -24 9 -43 26 -57s38 -21 62 -21c25 0 46 7 63 21s26 33 26 57s-9 43 -26 57s-38 21 -63 21zM283 111v-2c25 0 47 7 65 22s27 35 27 60s-9 45 -27 59s-40 21 -65 21c-26 0 -48 -7 -65 -21
s-26 -34 -26 -60c0 -25 9 -44 26 -58s39 -21 65 -21z" />
    <glyph glyph-name="nine" unicode="9" horiz-adv-x="611" 
d="M290 685l-1 -2c87 0 156 -30 207 -89s77 -142 77 -249c0 -126 -31 -220 -93 -283c-51 -53 -115 -79 -192 -79c-60 0 -111 14 -153 42s-70 69 -84 122l155 30c11 -38 40 -57 87 -57c31 0 58 13 81 38c29 32 44 77 45 136c-39 -41 -89 -61 -150 -61c-71 0 -127 21 -169 62
s-63 95 -63 161c0 67 24 122 71 165s108 64 182 64zM293 353v-1c27 0 50 9 69 28s29 43 29 72c0 27 -10 50 -30 68s-43 27 -69 27c-27 0 -50 -9 -70 -28s-30 -42 -30 -70s10 -51 30 -69s44 -27 71 -27z" />
    <glyph glyph-name="colon" unicode=":" horiz-adv-x="246" 
d="M123 496h-1c26 0 48 -9 66 -27s27 -39 27 -64s-9 -46 -26 -63s-39 -26 -66 -26c-26 0 -48 9 -65 26s-26 38 -26 63s9 46 26 64s39 27 65 27zM122 175l-1 -2c26 0 48 -9 66 -27s27 -39 27 -64s-9 -46 -26 -63s-39 -26 -66 -26c-26 0 -48 9 -65 26s-26 39 -26 65
c0 25 9 46 26 64s39 27 65 27z" />
    <glyph glyph-name="semicolon" unicode=";" horiz-adv-x="280" 
d="M157 496v-2c26 0 48 -9 65 -27s26 -39 26 -64s-9 -46 -26 -63s-39 -26 -65 -26c-27 0 -49 9 -66 26s-26 39 -26 65c0 25 9 46 26 64s39 27 66 27zM124 -134h-121l59 288h177v-4z" />
    <glyph glyph-name="less" unicode="&#x3c;" horiz-adv-x="467" 
d="M429 108l-397 141v155l397 143v-154l-228 -65l228 -68v-152z" />
    <glyph glyph-name="equal" unicode="=" horiz-adv-x="573" 
d="M523 351h-473v127h473v-127zM523 153h-473v127h473v-127z" />
    <glyph glyph-name="greater" unicode="&#x3e;" horiz-adv-x="467" 
d="M268 328l-228 65v154l397 -143v-155l-397 -141v152z" />
    <glyph glyph-name="question" unicode="?" horiz-adv-x="543" 
d="M285 685h1c71 0 128 -20 171 -60s65 -92 65 -155c0 -49 -16 -90 -48 -123s-75 -55 -130 -66v-50h-152v161h80c27 0 49 7 66 20s26 30 26 51c0 24 -8 44 -23 59s-35 23 -60 23c-27 0 -49 -8 -66 -25s-28 -40 -33 -69l-155 31c7 58 34 106 80 145s105 58 178 58zM266 172
c26 0 48 -9 65 -26s26 -38 26 -63s-8 -46 -25 -63s-39 -25 -66 -25s-49 8 -66 25s-26 38 -26 63s9 46 26 63s39 26 66 26z" />
    <glyph glyph-name="at" unicode="@" horiz-adv-x="936" 
d="M671 469l-4 -282c0 -15 5 -26 15 -34s22 -12 36 -12c26 0 46 16 60 48s21 69 21 111c0 89 -31 161 -94 217s-140 84 -232 84c-98 0 -179 -31 -244 -94s-97 -142 -97 -238c0 -95 32 -173 96 -235s144 -93 239 -93c88 0 168 28 240 83l45 -71c-77 -63 -171 -94 -282 -94
c-121 0 -222 39 -303 116s-121 175 -121 293c0 119 41 218 123 297s184 118 306 118c115 0 213 -35 293 -106s120 -161 120 -270c0 -29 -3 -57 -10 -84s-17 -53 -31 -78s-34 -45 -60 -60s-57 -22 -92 -22c-59 0 -99 20 -120 61c-32 -39 -77 -59 -136 -59
c-57 0 -104 19 -142 56s-57 87 -57 149c0 63 19 113 57 151s85 57 141 57c49 0 90 -15 122 -46v37h111zM460 166l-2 -1c26 0 49 9 68 28s29 44 29 75c0 30 -9 54 -28 73s-41 28 -67 28s-48 -9 -67 -27s-28 -42 -28 -73s9 -56 28 -75s41 -28 67 -28z" />
    <glyph glyph-name="A" unicode="A" horiz-adv-x="729" 
d="M729 0h-176l-47 122h-282l-47 -122h-177l280 670h169zM451 264l-86 220l-85 -220h171z" />
    <glyph glyph-name="B" unicode="B" horiz-adv-x="662" 
d="M498 346l-1 -2c35 -3 65 -18 91 -45s39 -64 39 -111c0 -57 -19 -103 -57 -137s-93 -51 -164 -51h-348v670h347c61 0 110 -17 147 -50s56 -77 56 -132c0 -42 -12 -75 -35 -100s-48 -39 -75 -42zM222 539l-2 -146h144c25 0 45 7 60 21s22 32 22 55c0 21 -7 38 -21 51
s-32 19 -53 19h-150zM220 133h155c26 0 46 7 60 20s21 31 21 54c0 22 -7 40 -22 53s-34 20 -57 20h-157v-147z" />
    <glyph glyph-name="C" unicode="C" horiz-adv-x="764" 
d="M567 283l159 -34c-15 -83 -53 -148 -114 -195s-135 -71 -222 -71c-99 0 -183 34 -252 101s-103 150 -103 249c0 98 35 181 104 249s153 102 252 102c84 0 157 -23 219 -70s101 -109 117 -187l-162 -38c-10 47 -30 83 -61 107s-69 36 -114 36c-53 0 -98 -19 -135 -57
s-55 -85 -55 -142s19 -104 56 -142s82 -57 135 -57c44 0 82 13 113 38s52 62 63 111z" />
    <glyph glyph-name="D" unicode="D" horiz-adv-x="725" 
d="M58 670l265 2c110 1 199 -31 266 -93s101 -143 101 -243s-34 -181 -101 -243s-156 -93 -266 -93h-265v670zM223 145l94 -2c63 -1 113 18 151 53s57 82 57 140s-19 105 -57 140s-88 53 -151 53h-94v-384z" />
    <glyph glyph-name="E" unicode="E" horiz-adv-x="625" 
d="M580 142v-142h-522v670h519v-142h-354v-126h325v-134h-325v-126h357z" />
    <glyph glyph-name="F" unicode="F" horiz-adv-x="598" 
d="M223 525v-141h314v-144h-314v-240h-165v670h518v-145h-353z" />
    <glyph glyph-name="G" unicode="G" horiz-adv-x="778" 
d="M370 395l368 -3c3 -21 4 -41 4 -60c0 -101 -33 -184 -98 -250s-148 -99 -249 -99s-186 34 -256 101s-105 150 -105 249c0 98 35 181 104 249s154 102 255 102c77 0 145 -17 204 -52s100 -84 123 -148l-159 -46c-33 64 -89 96 -168 96c-55 0 -101 -19 -138 -57
s-55 -85 -55 -142s19 -104 57 -142s85 -57 141 -57c43 0 80 11 111 32s53 50 66 87h-205v140z" />
    <glyph glyph-name="H" unicode="H" horiz-adv-x="728" 
d="M669 670v-670h-164v265h-282v-265h-165v670h165v-261h282v261h164z" />
    <glyph glyph-name="I" unicode="I" horiz-adv-x="281" 
d="M223 0h-165v670h165v-670z" />
    <glyph glyph-name="J" unicode="J" horiz-adv-x="608" 
d="M552 670l2 -429c0 -75 -25 -136 -75 -184s-115 -72 -196 -72c-75 0 -136 20 -183 61s-75 96 -85 165l160 32c3 -35 14 -62 33 -81s44 -29 75 -29s56 10 75 30s29 46 29 78v429h165z" />
    <glyph glyph-name="K" unicode="K" horiz-adv-x="690" 
d="M693 0h-216l-219 252h-35v-252h-165v670h165v-266h24l228 266h198l-285 -336z" />
    <glyph glyph-name="L" unicode="L" horiz-adv-x="587" 
d="M553 144v-144h-495v670h165v-526h330z" />
    <glyph glyph-name="M" unicode="M" horiz-adv-x="889" 
d="M831 670v-670h-160v334l-175 -334h-102l-176 336v-336h-160v670h162l225 -415l225 415h161z" />
    <glyph glyph-name="N" unicode="N" horiz-adv-x="757" 
d="M698 670v-670h-136l-339 388v-388h-165v670h137l339 -400v400h164z" />
    <glyph glyph-name="O" unicode="O" horiz-adv-x="784" 
d="M392 685l-4 -1c100 0 185 -34 254 -102s104 -151 104 -249c0 -97 -34 -179 -103 -247s-153 -102 -253 -102s-184 34 -253 102s-103 151 -103 248c0 98 35 181 104 249s154 102 254 102zM388 135c55 0 101 19 138 57s55 85 55 142s-18 105 -55 143s-83 57 -138 57
s-101 -19 -138 -57s-55 -86 -55 -143s18 -104 55 -142s83 -57 138 -57z" />
    <glyph glyph-name="P" unicode="P" horiz-adv-x="664" 
d="M58 670h331c75 0 135 -21 179 -63s66 -98 66 -167c0 -71 -23 -128 -69 -171s-107 -64 -184 -64h-158v-205h-165v670zM224 343l147 -1c32 0 57 9 75 26s27 40 27 69c0 27 -9 49 -28 66s-44 26 -75 26h-146v-186z" />
    <glyph glyph-name="Q" unicode="Q" horiz-adv-x="784" 
d="M749 334l-3 -1c0 -104 -39 -191 -117 -260l110 -132l-124 -110l-137 163c-32 -7 -62 -10 -89 -10c-100 0 -184 34 -253 102s-103 151 -103 248c0 98 35 181 104 249s154 102 254 102s185 -34 254 -102s104 -151 104 -249zM197 333c0 -57 18 -104 55 -142s83 -57 138 -57
s101 19 138 57s55 85 55 142s-18 105 -55 143s-83 57 -138 57s-101 -19 -138 -57s-55 -86 -55 -143z" />
    <glyph glyph-name="R" unicode="R" horiz-adv-x="679" 
d="M672 0h-199l-202 230h-48v-230h-165v670h339c73 0 131 -20 175 -60s66 -93 66 -158c0 -55 -16 -101 -47 -139s-74 -63 -129 -75zM223 368l155 -1c29 0 53 7 71 22s27 35 27 60c0 24 -9 43 -27 58s-41 22 -70 22h-156v-161z" />
    <glyph glyph-name="S" unicode="S" horiz-adv-x="646" 
d="M321 685v-3c73 0 134 -17 183 -51s80 -81 93 -142l-162 -33c-6 30 -20 53 -42 69s-47 24 -75 24c-27 0 -49 -6 -66 -19s-25 -29 -25 -48c0 -29 18 -48 54 -56l139 -31c123 -27 184 -92 184 -195c0 -69 -26 -122 -79 -160s-119 -57 -198 -57c-78 0 -144 18 -198 54
s-85 86 -94 150l170 33c16 -66 60 -99 132 -99c31 0 55 6 73 19s27 30 27 51c0 16 -4 29 -13 38s-25 16 -48 21l-140 30c-120 26 -180 92 -180 194c0 65 24 116 73 154s113 57 192 57z" />
    <glyph glyph-name="T" unicode="T" horiz-adv-x="638" 
d="M618 526h-217v-526h-164v526h-217v144h598v-144z" />
    <glyph glyph-name="U" unicode="U" horiz-adv-x="713" 
d="M657 670l-1 -368c0 -96 -27 -173 -81 -231s-126 -87 -215 -87c-91 0 -164 29 -220 87s-84 135 -84 231v368h165v-368c0 -51 13 -91 38 -121s59 -45 101 -45c40 0 72 15 96 45s36 70 36 121v368h165z" />
    <glyph glyph-name="V" unicode="V" horiz-adv-x="743" 
d="M736 670l-285 -670h-159l-285 670h182l182 -444l183 444h182z" />
    <glyph glyph-name="W" unicode="W" horiz-adv-x="973" 
d="M967 670l-191 -670h-177l-112 414l-113 -414h-176l-191 670h169l117 -422l115 422h157l115 -422l117 422h170z" />
    <glyph glyph-name="X" unicode="X" horiz-adv-x="683" 
d="M481 0l-140 228l-139 -228h-195l210 336l-208 334h195l137 -226l138 226h195l-208 -334l210 -336h-195z" />
    <glyph glyph-name="Y" unicode="Y" horiz-adv-x="706" 
d="M434 210v-210h-168v208l-259 462h180l165 -294l163 294h184z" />
    <glyph glyph-name="Z" unicode="Z" horiz-adv-x="635" 
d="M597 139v-139h-556v106l338 425h-328v139h538v-126l-313 -405h321z" />
    <glyph glyph-name="bracketleft" unicode="[" horiz-adv-x="410" 
d="M207 610v-561h166v-131h-315v823h315v-131h-166z" />
    <glyph glyph-name="backslash" unicode="\" horiz-adv-x="435" 
d="M420 -72h-117l-288 813h117z" />
    <glyph glyph-name="bracketright" unicode="]" horiz-adv-x="410" 
d="M352 741v-823h-315v131h166v561h-166v131h315z" />
    <glyph glyph-name="asciicircum" unicode="^" horiz-adv-x="464" 
d="M153 421h-136l156 249h118l156 -249h-136l-79 126z" />
    <glyph glyph-name="underscore" unicode="_" horiz-adv-x="540" 
d="M520 -175h-500v119h500v-119z" />
    <glyph glyph-name="quoteleft" unicode="&#x2018;" horiz-adv-x="299" 
d="M147 670h121l-59 -288h-177v4z" />
    <glyph glyph-name="a" unicode="a" horiz-adv-x="644" 
d="M586 502v-503h-160v40c-41 -37 -93 -55 -156 -55c-68 0 -126 25 -174 75s-72 114 -72 192c0 77 24 141 72 191s106 75 174 75c63 0 115 -18 156 -55v40h160zM303 120c33 0 62 12 86 36s36 55 36 93c0 37 -12 68 -36 93s-53 37 -86 37c-35 0 -64 -12 -87 -36
s-34 -55 -34 -93c0 -39 11 -70 34 -94s52 -36 87 -36z" />
    <glyph glyph-name="b" unicode="b" horiz-adv-x="644" 
d="M374 517v1c68 0 126 -25 174 -75s72 -114 72 -191c0 -78 -24 -142 -72 -192s-106 -75 -174 -75c-63 0 -115 18 -156 55v-40h-160v720h160v-258c41 37 93 55 156 55zM341 122c35 0 64 12 87 36s34 55 34 94c0 38 -11 69 -34 93s-52 36 -87 36c-33 0 -62 -12 -86 -37
s-36 -56 -36 -93c0 -38 12 -69 36 -93s53 -36 86 -36z" />
    <glyph glyph-name="c" unicode="c" horiz-adv-x="580" 
d="M299 125v-1c56 0 92 29 109 88l147 -32c-13 -59 -43 -106 -90 -142s-102 -54 -165 -54c-77 0 -142 25 -195 75s-79 114 -79 192c0 77 27 141 80 191s118 75 195 75c62 0 117 -18 164 -53s78 -82 92 -140l-150 -36c-7 29 -20 51 -39 66s-42 23 -69 23
c-36 0 -65 -12 -87 -36s-33 -54 -33 -91s11 -67 33 -90s51 -35 87 -35z" />
    <glyph glyph-name="d" unicode="d" horiz-adv-x="644" 
d="M586 720v-721h-160v40c-41 -37 -93 -55 -156 -55c-68 0 -126 25 -174 75s-72 114 -72 192c0 77 24 141 72 191s106 75 174 75c63 0 115 -18 156 -55v258h160zM303 120c33 0 62 12 86 36s36 55 36 93c0 37 -12 68 -36 93s-53 37 -86 37c-35 0 -64 -12 -87 -36
s-34 -55 -34 -93c0 -39 11 -70 34 -94s52 -36 87 -36z" />
    <glyph glyph-name="e" unicode="e" horiz-adv-x="575" 
d="M550 251l1 -43h-368c7 -30 20 -54 39 -71s42 -26 69 -26c50 0 86 19 107 58l142 -29c-21 -52 -53 -91 -96 -117s-94 -39 -153 -39c-74 0 -137 25 -188 75s-77 114 -77 192c0 77 26 141 77 191s114 75 189 75c73 0 134 -24 183 -73s73 -113 75 -193zM292 385
c-23 0 -45 -7 -65 -21s-34 -33 -41 -58h207c-7 26 -20 46 -38 59s-39 20 -63 20z" />
    <glyph glyph-name="f" unicode="f" horiz-adv-x="377" 
d="M246 502l137 -2v-127h-138v-375h-159v375h-72v127h72v39c0 59 19 106 56 141s86 53 147 53c34 0 67 -7 99 -21l-34 -124c-16 5 -30 8 -43 8c-19 0 -35 -6 -47 -17s-18 -26 -18 -45v-32z" />
    <glyph glyph-name="g" unicode="g" horiz-adv-x="634" 
d="M575 502l2 -455c0 -75 -26 -134 -78 -176s-120 -63 -204 -63c-119 0 -203 40 -252 121l133 72c19 -23 37 -39 54 -48s38 -13 63 -13c37 0 67 11 90 32s35 51 35 90v14c-37 -32 -87 -48 -150 -48c-67 0 -124 24 -171 71s-71 106 -71 176c0 69 24 127 71 173s104 69 171 69
c63 0 113 -16 150 -48v33h157zM303 157l-2 -3c33 0 61 11 84 33s34 50 34 83s-11 60 -34 82s-51 33 -84 33c-35 0 -64 -11 -86 -32s-33 -48 -33 -81s11 -60 34 -82s52 -33 87 -33z" />
    <glyph glyph-name="h" unicode="h" horiz-adv-x="619" 
d="M373 517h-3c58 0 105 -19 141 -57s54 -88 54 -151v-308h-159v274c0 29 -8 53 -24 71s-37 27 -63 27c-32 0 -57 -12 -75 -35s-27 -58 -27 -105v-233h-160v720h160v-266c41 42 93 63 156 63z" />
    <glyph glyph-name="i" unicode="i" horiz-adv-x="292" 
d="M146 741v-2c27 0 49 -9 67 -27s27 -39 27 -64s-9 -46 -27 -63s-40 -25 -67 -25s-49 9 -66 26s-26 38 -26 63s9 47 26 65s39 27 66 27zM226 -2h-160v502h160v-502z" />
    <glyph glyph-name="j" unicode="j" horiz-adv-x="303" 
d="M157 741v-2c27 0 49 -9 67 -27s27 -39 27 -64s-9 -46 -27 -63s-40 -25 -67 -25s-49 9 -66 26s-26 38 -26 63s9 47 26 65s39 27 66 27zM-27 -161l24 126c17 -5 30 -8 39 -8c13 0 23 4 31 11s12 17 12 29v503h159v-521c0 -49 -14 -88 -43 -117s-68 -44 -117 -44
c-35 0 -70 7 -105 21z" />
    <glyph glyph-name="k" unicode="k" horiz-adv-x="612" 
d="M615 0h-205l-163 181h-29v-181h-160v720h160v-389h22l159 171h193l-220 -239z" />
    <glyph glyph-name="l" unicode="l" horiz-adv-x="276" 
d="M218 0h-160v720h160v-720z" />
    <glyph glyph-name="m" unicode="m" horiz-adv-x="951" 
d="M708 517v-1c55 0 101 -19 138 -57s55 -87 55 -147v-314h-159v280c0 28 -8 51 -24 68s-36 26 -60 26c-30 0 -54 -11 -72 -33s-27 -53 -27 -94v-246h-160v280c0 28 -8 51 -24 68s-36 26 -61 26c-30 0 -53 -11 -70 -33s-25 -53 -25 -94v-246h-160v502h160v-46
c37 41 86 61 148 61c74 0 129 -28 164 -85c43 57 102 85 177 85z" />
    <glyph glyph-name="n" unicode="n" horiz-adv-x="618" 
d="M372 517l-2 -1c59 0 106 -19 142 -57s54 -88 54 -151v-308h-159v274c0 29 -8 53 -24 71s-37 27 -62 27c-33 0 -58 -11 -76 -34s-27 -58 -27 -105v-233h-160v502h160v-48c40 42 91 63 154 63z" />
    <glyph glyph-name="o" unicode="o" horiz-adv-x="603" 
d="M303 515c77 0 142 -25 195 -74s80 -112 80 -189c0 -78 -27 -142 -80 -191s-118 -74 -195 -74c-78 0 -144 25 -198 74s-81 113 -81 191c0 77 27 140 81 189s120 74 198 74zM303 121c33 0 61 12 85 36s36 55 36 93s-12 69 -36 93s-52 36 -84 36c-33 0 -62 -12 -87 -36
s-37 -55 -37 -93s12 -69 36 -93s53 -36 87 -36z" />
    <glyph glyph-name="p" unicode="p" horiz-adv-x="644" 
d="M374 517v1c68 0 126 -25 174 -75s72 -114 72 -191c0 -78 -24 -142 -72 -192s-106 -75 -174 -75c-63 0 -115 18 -156 55v-210h-160v672h160v-40c41 37 93 55 156 55zM341 122c35 0 64 12 87 36s34 55 34 94c0 38 -11 69 -34 93s-52 36 -87 36c-33 0 -62 -12 -86 -37
s-36 -56 -36 -93c0 -38 12 -69 36 -93s53 -36 86 -36z" />
    <glyph glyph-name="q" unicode="q" horiz-adv-x="644" 
d="M586 502v-673h-160v210c-41 -37 -93 -55 -156 -55c-68 0 -126 25 -174 75s-72 114 -72 192c0 77 24 141 72 191s106 75 174 75c63 0 115 -18 156 -55v40h160zM303 120c33 0 62 12 86 36s36 55 36 93c0 37 -12 68 -36 93s-53 37 -86 37c-35 0 -64 -12 -87 -36
s-34 -55 -34 -93c0 -39 11 -70 34 -94s52 -36 87 -36z" />
    <glyph glyph-name="r" unicode="r" horiz-adv-x="437" 
d="M391 509c13 0 25 -1 36 -4l-7 -160h-29c-115 0 -173 -63 -173 -188v-157h-160v502h160v-96c41 69 99 103 173 103z" />
    <glyph glyph-name="s" unicode="s" horiz-adv-x="515" 
d="M24 131l153 31c7 -39 37 -59 90 -59c20 0 36 4 48 12s18 18 18 29c0 19 -17 31 -50 37l-102 20c-97 19 -146 67 -146 146c0 51 20 92 60 123s92 47 156 47c61 0 112 -13 152 -39s65 -61 75 -105l-146 -29c-3 17 -12 31 -27 42s-34 17 -57 17c-20 0 -34 -4 -43 -12
s-13 -17 -13 -28c0 -18 13 -30 38 -35l118 -24c46 -9 81 -28 104 -54s35 -58 35 -96c0 -54 -21 -96 -63 -125s-97 -44 -165 -44c-63 0 -116 12 -159 36s-68 61 -76 110z" />
    <glyph glyph-name="t" unicode="t" horiz-adv-x="433" 
d="M393 148l37 -126c-46 -25 -92 -37 -137 -37c-63 0 -112 17 -147 51s-52 84 -52 149v190h-91v127h91v148h160v-148h148v-127h-148v-174c0 -49 22 -73 67 -73c25 0 49 7 72 20z" />
    <glyph glyph-name="u" unicode="u" horiz-adv-x="618" 
d="M560 502l1 -503h-160v48c-40 -42 -91 -63 -154 -63c-59 0 -106 19 -142 57s-54 89 -54 152v308h159v-274c0 -29 8 -53 24 -71s37 -27 62 -27c33 0 59 12 77 35s27 58 27 105v233h160z" />
    <glyph glyph-name="v" unicode="v" horiz-adv-x="593" 
d="M586 503l-208 -503h-163l-208 503h169l121 -310l120 310h169z" />
    <glyph glyph-name="w" unicode="w" horiz-adv-x="795" 
d="M788 502l-161 -503h-139l-90 272l-91 -272h-139l-161 503h157l82 -270l95 270h113l95 -271l82 271h157z" />
    <glyph glyph-name="x" unicode="x" horiz-adv-x="604" 
d="M416 243l166 -243h-184l-96 145l-97 -145h-183l165 243l-165 260h183l97 -156l96 156h184z" />
    <glyph glyph-name="y" unicode="y" horiz-adv-x="604" 
d="M597 503l-290 -673h-173l81 187l-208 486h172l119 -293l127 293h172z" />
    <glyph glyph-name="z" unicode="z" horiz-adv-x="538" 
d="M501 127v-127h-464v103l252 272h-246v127h449v-105l-252 -270h261z" />
    <glyph glyph-name="braceleft" unicode="{" horiz-adv-x="421" 
d="M263 582l-1 -149c0 -53 -21 -88 -62 -105c41 -17 62 -52 62 -105v-147c0 -19 9 -29 26 -29h95v-129h-133c-41 0 -74 12 -99 36s-37 55 -37 94v154c0 16 -5 28 -15 36s-25 16 -45 22l-34 10v118l34 10c20 6 35 14 45 22s15 20 15 36v154c0 39 13 71 38 95s58 36 99 36h133
v-130h-95c-17 0 -26 -10 -26 -29z" />
    <glyph glyph-name="bar" unicode="|" horiz-adv-x="265" 
d="M207 -72h-149v813h149v-813z" />
    <glyph glyph-name="braceright" unicode="}" horiz-adv-x="421" 
d="M401 388l-1 -116l-34 -10c-21 -6 -36 -14 -46 -22s-15 -20 -15 -36v-154c0 -39 -12 -70 -37 -94s-58 -36 -99 -36h-133v129h94c18 0 27 10 27 29v147c0 53 21 88 62 105c-41 17 -62 52 -62 105v147c0 19 -9 29 -27 29h-94v130h133c41 0 74 -12 99 -36s38 -56 38 -95v-154
c0 -16 5 -28 15 -36s25 -16 46 -22z" />
    <glyph glyph-name="asciitilde" unicode="~" horiz-adv-x="507" 
d="M160 227l-118 1c0 59 14 102 41 128s57 39 90 39c27 0 54 -7 80 -21s44 -21 53 -21c11 0 20 4 26 11s9 16 8 27h123c0 -59 -14 -102 -42 -129s-59 -40 -94 -40c-27 0 -53 7 -79 20s-43 20 -52 20c-23 0 -35 -12 -36 -35z" />
    <glyph glyph-name="exclamdown" unicode="&#xa1;" horiz-adv-x="297" 
d="M151 339h-1c-27 0 -49 9 -66 26s-26 38 -26 63s9 46 26 63s39 25 66 25s49 -8 66 -25s26 -38 26 -63s-9 -46 -26 -63s-39 -26 -65 -26zM59 -128l10 410h158l10 -410v-31h-178v31z" />
    <glyph glyph-name="cent" unicode="&#xa2;" horiz-adv-x="580" 
d="M299 125l1 1c56 0 92 29 109 88l147 -32c-10 -48 -32 -89 -66 -122s-75 -55 -124 -66v-122h-133v123c-61 14 -110 44 -148 90s-57 102 -57 167s19 121 57 167s88 76 149 90v121h133v-120c47 -11 88 -33 122 -66s57 -73 68 -120l-150 -36c-7 29 -20 51 -39 66
s-42 23 -69 23c-36 0 -65 -12 -87 -36s-33 -54 -33 -91s11 -67 33 -90s51 -35 87 -35z" />
    <glyph glyph-name="sterling" unicode="&#xa3;" horiz-adv-x="617" 
d="M272 143l314 1v-143h-552v103l74 22v108h-74v137h74v85c0 69 22 125 66 167s102 63 174 63c69 0 125 -21 168 -63s67 -96 72 -163l-154 -28c-7 70 -35 105 -85 105c-23 0 -42 -7 -56 -22s-21 -35 -21 -60v-85h166v-137h-166v-90z" />
    <glyph glyph-name="fraction" unicode="&#x2044;" horiz-adv-x="245" 
d="M-173 0l484 670h94l-485 -670h-93z" />
    <glyph glyph-name="yen" unicode="&#xa5;" horiz-adv-x="698" 
d="M481 331h122v-103h-175v-43h175v-104h-175v-81h-165v81h-167v104h167v43h-167v103h115l-194 339h175l154 -278l152 278h183z" />
    <glyph glyph-name="florin" unicode="&#x192;" horiz-adv-x="588" 
d="M452 547h-3c-43 0 -70 -23 -78 -70l-15 -85h137v-127h-161l-45 -250c-10 -55 -33 -99 -70 -131s-82 -48 -136 -48c-34 0 -71 11 -110 32l47 121c22 -7 41 -11 56 -11c14 0 26 4 36 12s18 19 20 32l44 244h-96v127h119l16 91c11 61 38 110 80 146s94 54 155 54
c47 0 89 -11 126 -34l-50 -124c-23 14 -47 21 -72 21z" />
    <glyph glyph-name="section" unicode="&#xa7;" horiz-adv-x="550" 
d="M523 253l3 -2c0 -62 -27 -109 -82 -140c17 -25 26 -55 26 -90c0 -53 -19 -94 -57 -123s-86 -43 -145 -43c-67 0 -119 16 -157 49s-58 77 -59 132l134 25c5 -58 30 -87 75 -87c17 0 31 5 42 15s17 23 17 38c0 22 -16 41 -48 54l-124 49c-43 17 -75 38 -95 63
s-30 57 -30 95c0 59 27 105 82 138c-17 25 -26 55 -26 90c0 55 19 97 56 126s85 43 144 43c63 0 113 -16 150 -48s57 -74 60 -127l-136 -24c-3 53 -26 80 -69 80c-17 0 -31 -5 -42 -15s-16 -22 -16 -37c0 -22 16 -41 48 -54l124 -49c82 -33 125 -84 125 -158zM338 189l11 -4
c25 15 37 32 37 52c0 23 -16 43 -48 57l-127 56l-12 5c-24 -13 -36 -31 -36 -53c0 -23 15 -44 48 -58z" />
    <glyph glyph-name="quotesingle" unicode="'" horiz-adv-x="244" 
d="M47 355v315h151v-315h-151z" />
    <glyph glyph-name="quotedblleft" unicode="&#x201c;" horiz-adv-x="513" 
d="M147 670h121l-59 -288h-177v4zM360 670h121l-59 -288h-177v4z" />
    <glyph glyph-name="guillemotleft" unicode="&#xab;" horiz-adv-x="505" 
d="M25 262l105 178h150l-105 -178l105 -178h-150zM225 262l105 178h150l-105 -178l105 -178h-150z" />
    <glyph glyph-name="guilsinglleft" unicode="&#x2039;" horiz-adv-x="305" 
d="M25 262l105 178h150l-105 -178l105 -178h-150z" />
    <glyph glyph-name="guilsinglright" unicode="&#x203a;" horiz-adv-x="305" 
d="M25 84l105 178l-105 178h150l105 -178l-105 -178h-150z" />
    <glyph glyph-name="fi" unicode="&#xfb01;" horiz-adv-x="656" 
d="M510 561l-3 -2c-27 0 -49 8 -66 25s-26 38 -26 64c0 25 9 47 27 65s40 27 67 27c26 0 48 -9 66 -27s27 -39 27 -64s-9 -46 -26 -63s-39 -25 -66 -25zM587 500l-2 -504h-160v375h-184v-375h-159v375h-72v127h72v39c0 59 19 106 56 141s87 53 149 53c31 0 61 -6 91 -17
l-29 -126c-19 4 -32 6 -40 6c-20 0 -36 -5 -48 -16s-18 -26 -18 -46v-32h344z" />
    <glyph glyph-name="fl" unicode="&#xfb02;" horiz-adv-x="653" 
d="M311 597l-1 -2c-19 0 -35 -6 -47 -17s-18 -26 -18 -45v-32h138v-127h-138v-375h-159v375h-72v127h72v39c0 59 19 106 56 141s86 53 147 53c34 0 67 -7 99 -21l-34 -124c-16 5 -30 8 -43 8zM594 718v-720h-160v720h160z" />
    <glyph glyph-name="endash" unicode="&#x2013;" horiz-adv-x="620" 
d="M560 201h-500v123h500v-123z" />
    <glyph glyph-name="dagger" unicode="&#x2020;" horiz-adv-x="400" 
d="M362 650v-93h-112v-248h-100v248h-112v93h112v90h100v-90h112z" />
    <glyph glyph-name="daggerdbl" unicode="&#x2021;" horiz-adv-x="400" 
d="M250 557v-65h112v-93h-112v-90h-100v90h-112v93h112v65h-112v93h112v90h100v-90h112v-93h-112z" />
    <glyph glyph-name="periodcentered" unicode="&#xb7;" horiz-adv-x="246" 
d="M123 351l-1 -2c26 0 48 -9 66 -27s27 -39 27 -64s-9 -46 -26 -63s-39 -26 -66 -26c-26 0 -48 9 -65 26s-26 39 -26 65c0 25 9 46 26 64s39 27 65 27z" />
    <glyph glyph-name="paragraph" unicode="&#xb6;" horiz-adv-x="606" 
d="M390 0l-112 1v299h-50c-61 0 -111 17 -150 51s-59 80 -59 137c0 59 18 104 53 135s83 47 143 47h175v-670zM546 1h-110v670h110v-670z" />
    <glyph glyph-name="bullet" unicode="&#x2022;" horiz-adv-x="415" 
d="M207 433l-1 -1c50 0 92 -17 126 -51s51 -74 51 -121c0 -49 -17 -90 -50 -123s-75 -49 -126 -49s-93 16 -126 49s-49 74 -49 123c0 47 17 88 50 122s75 51 125 51z" />
    <glyph glyph-name="quotesinglbase" unicode="&#x201a;" horiz-adv-x="299" 
d="M153 -132h-121l59 288h177v-4z" />
    <glyph glyph-name="quotedblbase" unicode="&#x201e;" horiz-adv-x="513" 
d="M153 -132h-121l59 288h177v-4zM366 -132h-121l59 288h177v-4z" />
    <glyph glyph-name="quotedblright" unicode="&#x201d;" horiz-adv-x="513" 
d="M153 382h-121l59 288h177v-4zM366 382h-121l59 288h177v-4z" />
    <glyph glyph-name="guillemotright" unicode="&#xbb;" horiz-adv-x="505" 
d="M25 84l105 178l-105 178h150l105 -178l-105 -178h-150zM225 84l105 178l-105 178h150l105 -178l-105 -178h-150z" />
    <glyph glyph-name="ellipsis" unicode="&#x2026;" horiz-adv-x="800" 
d="M123 175l-1 -2c26 0 48 -9 66 -27s27 -39 27 -64s-9 -46 -26 -63s-39 -26 -66 -26c-26 0 -48 9 -65 26s-26 39 -26 65c0 25 9 46 26 64s39 27 65 27zM399 173v-2c26 0 48 -9 65 -27s26 -39 26 -64c0 -26 -8 -47 -25 -64s-39 -25 -66 -25s-49 9 -66 26s-26 39 -26 65
c0 25 9 46 26 64s39 27 66 27zM675 171v-2c27 0 49 -9 66 -27s26 -39 26 -64c0 -26 -9 -47 -26 -64s-39 -25 -66 -25s-49 9 -66 26s-25 39 -25 65c0 25 9 46 26 64s39 27 65 27z" />
    <glyph glyph-name="perthousand" unicode="&#x2030;" horiz-adv-x="1271" 
d="M214 685v-3c48 0 89 -15 123 -46s51 -71 51 -121c0 -49 -17 -89 -51 -120s-75 -46 -123 -46c-49 0 -90 16 -124 47s-51 71 -51 120c0 50 17 91 51 122s75 47 124 47zM143 -3l484 670h94l-485 -670h-93zM214 583l-3 -3c-18 0 -33 -6 -46 -18s-19 -28 -19 -49s7 -38 20 -50
s29 -18 47 -18c17 0 32 6 45 19s20 30 20 51s-6 38 -19 50s-28 18 -45 18zM649 314v-3c48 0 89 -15 123 -46s51 -71 51 -121c0 -49 -17 -89 -51 -120s-75 -46 -123 -46c-49 0 -90 16 -124 47s-51 71 -51 120c0 50 17 91 51 122s75 47 124 47zM1056 311v-3
c48 0 89 -15 122 -46s50 -71 50 -121c0 -49 -17 -89 -50 -120s-74 -46 -122 -46c-49 0 -90 16 -124 47s-51 71 -51 120c0 50 17 91 51 122s75 47 124 47zM649 209l-3 -3c-18 0 -33 -6 -46 -18s-19 -28 -19 -49s7 -38 20 -50s29 -18 47 -18c17 0 32 6 45 19s20 30 20 51
s-6 38 -19 50s-28 18 -45 18zM1053 206l-1 -1c-18 0 -34 -6 -47 -18s-20 -28 -20 -49s7 -38 20 -51s29 -19 47 -19c17 0 32 6 45 19s20 30 20 51s-6 38 -19 50s-28 18 -45 18z" />
    <glyph glyph-name="questiondown" unicode="&#xbf;" horiz-adv-x="543" 
d="M278 339c-26 0 -48 9 -66 27s-27 39 -27 63c0 25 9 46 26 63s39 25 66 25s49 -8 66 -25s26 -38 26 -63c0 -24 -9 -45 -26 -63s-39 -27 -65 -27zM360 60l152 -35c-7 -57 -34 -105 -80 -144s-105 -58 -178 -58c-70 0 -127 20 -170 60s-65 92 -65 155c0 49 16 90 48 123
s76 55 131 66v50h152v-161h-80c-27 0 -49 -7 -66 -20s-25 -30 -25 -51c0 -24 8 -43 23 -58s35 -22 60 -22c26 0 48 9 65 26s28 40 33 69z" />
    <glyph glyph-name="grave" unicode="`" horiz-adv-x="600" 
d="M320 719l71 -152h-142l-119 152h190z" />
    <glyph glyph-name="acute" unicode="&#xb4;" horiz-adv-x="600" 
d="M341 567h-142l71 152h190z" />
    <glyph glyph-name="circumflex" unicode="&#x2c6;" horiz-adv-x="600" 
d="M341 561l-40 56l-41 -56h-154l115 155h159l116 -155h-155z" />
    <glyph glyph-name="tilde" unicode="&#x2dc;" horiz-adv-x="600" 
d="M223 579l-99 -1c0 51 11 89 34 114s50 38 81 38c23 0 46 -6 69 -18s40 -18 52 -18c17 0 27 12 30 36h97c0 -52 -11 -91 -33 -116s-49 -38 -82 -38c-23 0 -46 6 -68 18s-39 18 -51 18c-17 0 -27 -11 -30 -33z" />
    <glyph glyph-name="macron" unicode="&#xaf;" horiz-adv-x="600" 
d="M466 570h-332v124h332v-124z" />
    <glyph glyph-name="breve" unicode="&#x2d8;" horiz-adv-x="600" 
d="M300 549h-3c-54 0 -97 14 -129 43s-48 67 -48 115h126c0 -15 5 -27 15 -37s22 -15 37 -15s28 5 38 15s15 22 15 37h126c0 -48 -16 -86 -48 -115s-75 -43 -129 -43z" />
    <glyph glyph-name="dotaccent" unicode="&#x2d9;" horiz-adv-x="600" 
d="M300 739v-2c25 0 46 -8 63 -25s26 -37 26 -61c0 -25 -8 -46 -25 -63s-38 -25 -64 -25s-47 8 -64 25s-25 38 -25 63c0 24 9 45 26 62s38 26 63 26z" />
    <glyph glyph-name="dieresis" unicode="&#xa8;" horiz-adv-x="600" 
d="M186 731c25 0 46 -9 63 -26s26 -38 26 -62c0 -25 -8 -46 -25 -62s-38 -24 -64 -24s-47 8 -64 24s-25 37 -25 62c0 24 9 45 26 62s38 26 63 26zM414 731c25 0 46 -9 63 -26s26 -38 26 -62c0 -25 -8 -46 -25 -62s-38 -24 -64 -24s-47 8 -64 24s-25 37 -25 62
c0 24 9 45 26 62s38 26 63 26z" />
    <glyph glyph-name="ring" unicode="&#x2da;" horiz-adv-x="600" 
d="M426 665c0 -34 -12 -63 -36 -87s-54 -36 -89 -36s-65 12 -89 36s-36 53 -36 87c0 35 12 64 36 88s54 36 89 36s65 -12 89 -36s36 -53 36 -88zM341 665v-1c0 11 -4 21 -12 29s-18 12 -29 12s-21 -4 -29 -12s-12 -17 -12 -28s4 -20 12 -28s18 -12 29 -12s21 4 29 12
s12 17 12 28z" />
    <glyph glyph-name="cedilla" unicode="&#xb8;" horiz-adv-x="600" 
d="M281 0h115l-49 -160h-166z" />
    <glyph glyph-name="hungarumlaut" unicode="&#x2dd;" horiz-adv-x="600" 
d="M214 567h-137l74 152h180zM414 567h-136l74 152h183z" />
    <glyph glyph-name="ogonek" unicode="&#x2db;" horiz-adv-x="600" 
d="M229 3l98 -4c-4 -5 -9 -11 -16 -18s-12 -12 -14 -15s-5 -7 -10 -12s-8 -9 -9 -11s-3 -5 -5 -9s-3 -7 -4 -10s-1 -6 -1 -9c0 -16 9 -24 28 -24c11 0 28 3 50 10l6 -91c-31 -15 -62 -22 -93 -22c-30 0 -54 8 -73 24s-28 39 -28 68c0 44 24 85 71 123z" />
    <glyph glyph-name="caron" unicode="&#x2c7;" horiz-adv-x="600" 
d="M496 716l-116 -155h-159l-115 155h154l41 -56l40 56h155z" />
    <glyph glyph-name="emdash" unicode="&#x2014;" horiz-adv-x="1040" 
d="M980 201h-920v123h920v-123z" />
    <glyph glyph-name="AE" unicode="&#xc6;" horiz-adv-x="1046" 
d="M1007 142v-142h-521v109h-229l-65 -109h-192l429 670h575v-142h-354v-126h326v-134h-326v-126h357zM486 251v241l-144 -241h144z" />
    <glyph glyph-name="ordfeminine" unicode="&#xaa;" horiz-adv-x="390" 
d="M202 674l-2 -2c49 0 88 -11 117 -34s44 -57 44 -102v-203h-114v19c-25 -19 -56 -28 -93 -28s-67 10 -90 30s-34 46 -34 79c0 32 13 57 39 76s61 28 106 28h72v10c0 12 -2 22 -10 30s-18 12 -31 12c-25 0 -41 -12 -49 -37l-104 21c9 33 26 58 52 75s58 26 97 26zM187 402
h-1c18 0 33 5 44 14s17 22 17 38v15h-58c-13 0 -24 -3 -32 -9s-12 -14 -12 -24c0 -23 14 -34 42 -34z" />
    <glyph glyph-name="Lslash" unicode="&#x141;" horiz-adv-x="605" 
d="M573 144v-144h-495v218l-55 -25v143l55 25v309h165v-234l109 50v-143l-109 -50v-149h330z" />
    <glyph glyph-name="Oslash" unicode="&#xd8;" horiz-adv-x="784" 
d="M740 593l-58 -56c43 -60 65 -128 65 -203c0 -97 -34 -179 -103 -247s-153 -102 -253 -102c-73 0 -140 20 -201 59l-67 -67l-80 80l64 64c-49 61 -73 132 -73 213c0 98 35 181 104 249s154 102 254 102c79 0 150 -22 213 -67l55 55zM198 334h1c0 -36 8 -69 23 -98l270 270
c-30 19 -64 28 -101 28c-55 0 -101 -19 -138 -57s-55 -86 -55 -143zM391 136l-1 -2c55 0 101 19 138 57s55 85 55 142c0 31 -6 60 -17 87l-263 -263c26 -14 55 -21 88 -21z" />
    <glyph glyph-name="OE" unicode="&#x152;" horiz-adv-x="1029" 
d="M984 142l-2 -142h-565c-114 0 -206 31 -277 94s-106 143 -106 241s36 178 107 241s164 94 278 94h562v-142h-354v-126h325v-134h-325v-126h357zM460 142v386h-43c-69 0 -123 -18 -162 -53s-58 -82 -58 -140s19 -105 58 -140s93 -53 162 -53h43z" />
    <glyph glyph-name="ordmasculine" unicode="&#xba;" horiz-adv-x="422" 
d="M210 674h-1c52 0 96 -16 132 -49s54 -75 54 -126s-18 -93 -54 -126s-80 -49 -131 -49s-94 16 -130 49s-54 75 -54 126s18 93 54 126s79 49 130 49zM209 426v-1c20 0 37 7 51 21s21 31 21 52s-7 39 -21 53s-31 21 -51 21c-19 0 -35 -7 -48 -21s-20 -31 -20 -52
s7 -38 20 -52s29 -21 48 -21z" />
    <glyph glyph-name="ae" unicode="&#xe6;" horiz-adv-x="896" 
d="M871 204l-367 1c16 -61 53 -91 112 -91c47 0 80 19 100 58l140 -29c-13 -47 -42 -85 -87 -114s-97 -43 -156 -43c-73 0 -135 24 -186 71c-50 -47 -117 -71 -201 -71c-65 0 -115 15 -150 44s-53 68 -53 117s18 87 54 113s88 39 155 39h127v23c0 22 -7 40 -21 53
s-33 20 -56 20c-22 0 -40 -6 -54 -17s-22 -27 -25 -48l-148 30c7 47 31 85 71 114s92 44 156 44c70 0 126 -18 167 -53c47 35 101 53 162 53c75 0 137 -25 186 -75s74 -116 74 -199v-40zM504 299h209c-6 30 -18 53 -36 68s-39 23 -64 23c-27 0 -50 -8 -70 -24
s-33 -38 -39 -67zM359 203l-109 1c-46 0 -69 -16 -69 -47c0 -16 6 -29 19 -39s30 -15 51 -15c28 0 53 8 75 25s33 37 33 60v15z" />
    <glyph glyph-name="dotlessi" unicode="&#x131;" horiz-adv-x="297" 
d="M228 0h-159v502h159v-502z" />
    <glyph glyph-name="lslash" unicode="&#x142;" horiz-adv-x="322" 
d="M299 356l-58 -32v-324h-159v238l-59 -32v150l59 32v332h159v-246l58 32v-150z" />
    <glyph glyph-name="oslash" unicode="&#xf8;" horiz-adv-x="603" 
d="M573 458l-49 -47c35 -45 53 -98 53 -159c0 -78 -27 -142 -80 -191s-118 -74 -195 -74c-58 0 -111 15 -158 44l-52 -52l-64 64l49 49c-35 46 -53 99 -53 160c0 77 27 140 81 189s120 74 198 74c57 0 109 -15 155 -44l51 51zM178 252l-1 -1c0 -18 3 -35 9 -50l167 167
c-15 9 -32 13 -51 13c-33 0 -62 -12 -87 -36s-37 -55 -37 -93zM301 121v1c33 0 61 12 85 36s36 55 36 93c0 17 -3 33 -8 49l-167 -166c17 -9 35 -13 54 -13z" />
    <glyph glyph-name="oe" unicode="&#x153;" horiz-adv-x="974" 
d="M949 251l3 -41h-368c7 -30 20 -54 39 -71s42 -26 69 -26c49 0 84 19 105 58l143 -29c-21 -52 -53 -91 -96 -117s-94 -39 -153 -39c-75 0 -139 25 -191 76c-52 -50 -117 -75 -196 -75c-78 0 -144 25 -198 74s-81 113 -81 191c0 77 27 140 81 189s120 74 198 74
c79 0 144 -25 196 -75c51 51 115 77 192 77c72 0 133 -24 182 -73s69 -113 75 -193zM694 387c-24 0 -46 -7 -66 -21s-34 -33 -41 -58h207c-7 26 -20 46 -38 59s-39 20 -62 20zM306 121c33 0 61 12 85 36s36 55 36 93s-12 69 -36 93s-52 36 -84 36c-33 0 -62 -12 -87 -36
s-37 -55 -37 -93s12 -69 36 -93s53 -36 87 -36z" />
    <glyph glyph-name="germandbls" unicode="&#xdf;" horiz-adv-x="664" 
d="M506 383v1c41 -12 73 -33 96 -64s35 -70 35 -117c0 -61 -21 -112 -62 -152s-95 -60 -162 -60c-47 0 -93 4 -138 12l17 131c44 -7 76 -10 95 -10c29 0 53 9 72 26s29 37 29 60c0 30 -12 54 -35 71s-56 26 -98 26h-43v128h22c31 0 55 7 73 22s27 34 27 57
c0 27 -9 49 -27 65s-41 24 -70 24c-36 0 -65 -11 -87 -34s-33 -54 -33 -93v-477h-160v465c0 81 26 147 77 197s119 75 203 75c74 0 135 -19 182 -58s71 -88 71 -147c0 -73 -28 -122 -84 -148z" />
    <glyph glyph-name="trademark" unicode="&#x2122;" horiz-adv-x="689" 
d="M292 596h-85v-203h-88v203h-84v74h257v-74zM643 393h-82v133l-56 -132h-44l-56 132v-133h-83v277h94l67 -150l67 150h93v-277z" />
    <glyph glyph-name="Eth" unicode="&#xd0;" horiz-adv-x="733" 
d="M77 670l263 2c110 1 199 -31 266 -93s101 -143 101 -243s-33 -181 -100 -243s-155 -93 -265 -93h-265v263h-54v144h54v263zM239 145l94 -2c63 -1 113 18 151 53s57 82 57 140s-19 105 -57 140s-88 53 -151 53h-94v-120h113v-144h-113v-120z" />
    <glyph glyph-name="onehalf" unicode="&#xbd;" horiz-adv-x="805" 
d="M95 531l-78 -46v111l115 74h72v-383h-109v244zM644 670l-484 -670h-94l485 670h93zM601 93l129 -2v-93h-294v69l141 124c13 11 23 20 29 26s11 13 15 21s6 16 6 24c0 11 -4 20 -12 27s-18 11 -31 11c-32 0 -48 -21 -49 -62l-97 21c0 40 13 72 40 96s62 36 106 36
s80 -11 107 -34s41 -55 41 -96c0 -25 -7 -47 -21 -66s-35 -40 -63 -63z" />
    <glyph glyph-name="plusminus" unicode="&#xb1;" horiz-adv-x="573" 
d="M523 465v-130h-171v-141h-131v141h-171v130h171v160h131v-160h171zM50 130h473v-130h-473v130z" />
    <glyph glyph-name="Thorn" unicode="&#xde;" horiz-adv-x="651" 
d="M223 565l149 -1c73 0 132 -21 177 -63s68 -97 68 -166s-23 -125 -69 -167s-106 -63 -181 -63h-144v-105h-165v670h165v-105zM222 242l134 1c30 0 54 8 72 25s27 39 27 66s-9 49 -27 65s-42 24 -72 24h-134v-181z" />
    <glyph glyph-name="onequarter" unicode="&#xbc;" horiz-adv-x="750" 
d="M95 531l-78 -46v111l115 74h72v-383h-109v244zM661 670l-484 -670h-94l484 670h94zM727 64h-48v-64h-101v64h-196v98l170 221h127v-230h48v-89zM578 153v121l-92 -121h92z" />
    <glyph glyph-name="divide" unicode="&#xf7;" horiz-adv-x="573" 
d="M284 583h-2c25 0 46 -8 62 -25s24 -37 24 -60c0 -24 -8 -44 -24 -60s-36 -24 -61 -24s-45 8 -61 24s-24 36 -24 60c0 23 8 43 24 60s37 25 62 25zM521 248h-473v131h473v-131zM282 215h-2c25 0 46 -8 62 -25s24 -37 24 -60c0 -24 -8 -44 -24 -60s-36 -24 -61 -24
s-45 8 -61 24s-24 36 -24 60c0 23 8 43 24 60s37 25 62 25z" />
    <glyph glyph-name="degree" unicode="&#xb0;" horiz-adv-x="428" 
d="M215 685l-2 -1c43 0 80 -14 111 -42s46 -65 46 -110s-15 -81 -46 -109s-68 -42 -111 -42c-44 0 -81 14 -112 42s-46 65 -46 110s16 82 47 110s69 42 113 42zM213 469c15 0 29 6 41 17s18 26 18 45s-6 34 -18 45s-26 17 -41 17c-17 0 -31 -6 -43 -17s-18 -26 -18 -45
s6 -34 18 -45s26 -17 43 -17z" />
    <glyph glyph-name="thorn" unicode="&#xfe;" horiz-adv-x="644" 
d="M374 517v1c68 0 126 -25 174 -75s72 -114 72 -191c0 -78 -24 -142 -72 -192s-106 -75 -174 -75c-63 0 -115 18 -156 55v-210h-160v890h160v-258c41 37 93 55 156 55zM341 122c35 0 64 12 87 36s34 55 34 94c0 38 -11 69 -34 93s-52 36 -87 36c-33 0 -62 -12 -86 -37
s-36 -56 -36 -93c0 -38 12 -69 36 -93s53 -36 86 -36z" />
    <glyph glyph-name="threequarters" unicode="&#xbe;" horiz-adv-x="825" 
d="M324 406l-4 6c0 -36 -14 -66 -42 -90s-64 -36 -108 -36c-43 0 -78 11 -106 34s-43 53 -46 91l95 21c4 -38 23 -57 58 -57c14 0 25 4 34 11s13 16 13 27s-4 20 -13 26s-20 9 -34 9h-42v76h36c15 0 27 3 37 9s15 15 15 26s-4 20 -12 27s-19 10 -33 10
c-33 0 -50 -18 -51 -54l-98 21c4 35 20 64 47 86s61 33 102 33c43 0 78 -11 105 -34s41 -52 41 -87c0 -33 -15 -58 -46 -75c35 -17 52 -44 52 -80zM725 676l-484 -670h-94l485 670h93zM798 70h-48v-64h-101v64h-196v98l170 221h127v-230h48v-89zM649 159v121l-92 -121h92z
" />
    <glyph glyph-name="registered" unicode="&#xae;" horiz-adv-x="487" 
d="M243 685c56 0 103 -19 142 -57s58 -86 58 -144c0 -57 -19 -105 -58 -143s-86 -57 -142 -57s-103 19 -142 57s-58 86 -58 143c0 58 19 106 58 144s86 57 142 57zM243 326l-2 -1c44 0 81 15 111 45s45 68 45 113s-15 83 -45 114s-67 46 -111 46c-43 0 -80 -15 -110 -46
s-45 -69 -45 -114s15 -82 46 -112s68 -45 111 -45zM329 519c0 -29 -14 -49 -42 -60l51 -61h-54l-46 56h-25v-56h-46v182h88c23 0 41 -6 54 -17s20 -26 20 -44zM213 493h41c21 0 31 8 31 25c0 15 -10 23 -31 23h-41v-48z" />
    <glyph glyph-name="minus" unicode="&#x2212;" horiz-adv-x="573" 
d="M523 238h-473v131h473v-131z" />
    <glyph glyph-name="eth" unicode="&#xf0;" horiz-adv-x="605" 
d="M477 643l-62 -25c110 -119 165 -241 165 -366c0 -45 -8 -85 -24 -120s-37 -63 -64 -84s-56 -37 -88 -48s-65 -16 -99 -16c-77 0 -143 25 -198 75s-82 114 -82 192c0 79 24 143 71 192s107 74 180 74c21 0 41 -3 60 -10c-16 19 -36 38 -59 58l-133 -52l-36 87l75 29
c-39 21 -82 41 -130 60v31h242c11 -6 25 -16 43 -30l103 41zM304 120l-1 -2c37 0 66 13 88 40s33 58 33 93c0 36 -12 66 -35 91s-52 37 -86 37c-36 0 -66 -12 -89 -36s-35 -55 -35 -93c0 -37 12 -68 36 -93s54 -37 89 -37z" />
    <glyph glyph-name="multiply" unicode="&#xd7;" horiz-adv-x="531" 
d="M359 304l132 -132l-93 -93l-132 132l-133 -132l-92 93l132 132l-132 131l92 93l133 -132l132 132l93 -93z" />
    <glyph glyph-name="copyright" unicode="&#xa9;" horiz-adv-x="756" 
d="M376 685c97 0 180 -33 248 -100s102 -151 102 -252c0 -100 -34 -183 -102 -249s-151 -99 -248 -99s-180 33 -248 99s-102 149 -102 249c0 101 34 185 102 252s151 100 248 100zM376 629v1c-80 0 -148 -28 -204 -84s-84 -126 -84 -211c0 -84 28 -154 84 -209
s124 -83 204 -83s148 28 204 83s84 125 84 209s-28 154 -84 210s-124 84 -204 84zM381 523l-2 1c50 0 92 -13 125 -40s52 -61 56 -102l-96 -18c-5 20 -15 36 -31 48s-34 18 -55 18c-25 0 -46 -9 -63 -27s-25 -40 -25 -67s9 -49 26 -67s38 -27 63 -27c22 0 41 6 57 18
s25 30 28 53l97 -16c-3 -44 -21 -80 -54 -108s-75 -42 -126 -42c-53 0 -98 18 -136 53s-57 80 -57 135s19 100 57 135s83 53 136 53z" />
    <glyph glyph-name="Aacute" unicode="&#xc1;" horiz-adv-x="729" 
d="M438 735h-142l71 152h190zM729 0h-176l-47 122h-282l-47 -122h-177l280 670h169zM451 264l-86 220l-85 -220h171z" />
    <glyph glyph-name="Acircumflex" unicode="&#xc2;" horiz-adv-x="729" 
d="M325 729h-154l115 155h159l116 -155h-155l-40 56zM729 0h-176l-47 122h-282l-47 -122h-177l280 670h169zM451 264l-86 220l-85 -220h171z" />
    <glyph glyph-name="Adieresis" unicode="&#xc4;" horiz-adv-x="729" 
d="M251 724c-26 0 -47 8 -64 24s-25 37 -25 62c0 24 9 45 26 62s38 26 63 26s46 -9 63 -26s26 -38 26 -62c0 -25 -8 -46 -25 -62s-38 -24 -64 -24zM479 724c-26 0 -47 8 -64 24s-25 37 -25 62c0 24 9 45 26 62s38 26 63 26s46 -9 63 -26s26 -38 26 -62c0 -25 -8 -46 -25 -62
s-38 -24 -64 -24zM729 0h-176l-47 122h-282l-47 -122h-177l280 670h169zM451 264l-86 220l-85 -220h171z" />
    <glyph glyph-name="Agrave" unicode="&#xc0;" horiz-adv-x="729" 
d="M296 735l-119 152h190l71 -152h-142zM729 0h-176l-47 122h-282l-47 -122h-177l280 670h169zM451 264l-86 220l-85 -220h171z" />
    <glyph glyph-name="Aring" unicode="&#xc5;" horiz-adv-x="729" 
d="M365 711c-35 0 -65 12 -89 36s-36 53 -36 87c0 35 12 64 36 88s54 36 89 36s65 -12 89 -36s36 -53 36 -88c0 -34 -12 -63 -36 -87s-54 -36 -89 -36zM365 873v-1c-11 0 -21 -4 -29 -12s-12 -17 -12 -28s4 -20 12 -28s18 -12 29 -12s21 4 29 12s12 17 12 28s-4 21 -12 29
s-18 12 -29 12zM729 -1h-176l-47 122h-282l-47 -122h-177l280 670h169zM451 263l-86 220l-85 -220h171z" />
    <glyph glyph-name="Atilde" unicode="&#xc3;" horiz-adv-x="729" 
d="M319 780l-2 -1c-17 0 -27 -11 -30 -33h-97c0 51 11 89 34 114s50 38 81 38c23 0 46 -6 69 -18s40 -18 52 -18c17 0 27 12 30 36h97c0 -52 -11 -91 -33 -116s-49 -38 -82 -38c-23 0 -46 6 -68 18s-39 18 -51 18zM727 -1h-176l-47 122h-282l-47 -122h-177l280 670h169z
M449 263l-86 220l-85 -220h171z" />
    <glyph glyph-name="Ccedilla" unicode="&#xc7;" horiz-adv-x="764" 
d="M567 283l161 -36c-14 -75 -47 -136 -99 -182s-116 -73 -192 -81l-45 -147h-166l95 152c-83 15 -151 55 -205 119s-81 139 -81 225c0 98 35 181 104 249s153 102 252 102c84 0 157 -23 219 -70s101 -109 117 -187l-162 -38c-10 47 -30 83 -61 107s-69 36 -114 36
c-53 0 -98 -19 -135 -57s-55 -85 -55 -142s19 -104 56 -142s82 -57 135 -57c44 0 82 13 113 38s52 62 63 111z" />
    <glyph glyph-name="Eacute" unicode="&#xc9;" horiz-adv-x="625" 
d="M400 735h-142l71 152h190zM580 142v-142h-522v670h519v-142h-354v-126h325v-134h-325v-126h357z" />
    <glyph glyph-name="Ecircumflex" unicode="&#xca;" horiz-adv-x="625" 
d="M288 729h-154l115 155h159l116 -155h-155l-40 56zM580 142v-142h-522v670h519v-142h-354v-126h325v-134h-325v-126h357z" />
    <glyph glyph-name="Edieresis" unicode="&#xcb;" horiz-adv-x="625" 
d="M214 724c-26 0 -47 8 -64 24s-25 37 -25 62c0 24 9 45 26 62s38 26 63 26s46 -9 63 -26s26 -38 26 -62c0 -25 -8 -46 -25 -62s-38 -24 -64 -24zM442 724c-26 0 -47 8 -64 24s-25 37 -25 62c0 24 9 45 26 62s38 26 63 26s46 -9 63 -26s26 -38 26 -62c0 -25 -8 -46 -25 -62
s-38 -24 -64 -24zM580 142v-142h-522v670h519v-142h-354v-126h325v-134h-325v-126h357z" />
    <glyph glyph-name="Egrave" unicode="&#xc8;" horiz-adv-x="625" 
d="M259 735l-119 152h190l71 -152h-142zM580 142v-142h-522v670h519v-142h-354v-126h325v-134h-325v-126h357z" />
    <glyph glyph-name="Iacute" unicode="&#xcd;" horiz-adv-x="281" 
d="M213 735h-142l71 152h190zM223 0h-165v670h165v-670z" />
    <glyph glyph-name="Icircumflex" unicode="&#xce;" horiz-adv-x="281" 
d="M100 729h-154l115 155h159l116 -155h-155l-40 56zM58 670h165v-670h-165v670z" />
    <glyph glyph-name="Idieresis" unicode="&#xcf;" horiz-adv-x="281" 
d="M27 899c25 0 46 -9 63 -26s26 -38 26 -62c0 -25 -8 -46 -25 -62s-38 -24 -64 -24s-47 8 -64 24s-25 37 -25 62c0 24 9 45 26 62s38 26 63 26zM255 899c25 0 46 -9 63 -26s26 -38 26 -62c0 -25 -8 -46 -25 -62s-38 -24 -64 -24s-47 8 -64 24s-25 37 -25 62
c0 24 9 45 26 62s38 26 63 26zM223 0h-165v670h165v-670z" />
    <glyph glyph-name="Igrave" unicode="&#xcc;" horiz-adv-x="281" 
d="M143 887l71 -152h-142l-119 152h190zM223 0h-165v670h165v-670z" />
    <glyph glyph-name="Ntilde" unicode="&#xd1;" horiz-adv-x="757" 
d="M335 780l-2 -1c-17 0 -27 -11 -30 -33h-97c0 51 11 89 34 114s50 38 81 38c23 0 46 -6 69 -18s40 -18 52 -18c17 0 27 12 30 36h97c0 -52 -11 -91 -33 -116s-49 -38 -82 -38c-23 0 -46 6 -68 18s-39 18 -51 18zM696 669v-670h-136l-339 388v-388h-165v670h137l339 -400
v400h164z" />
    <glyph glyph-name="Oacute" unicode="&#xd3;" horiz-adv-x="784" 
d="M464 735h-142l71 152h190zM392 685l-4 -1c100 0 185 -34 254 -102s104 -151 104 -249c0 -97 -34 -179 -103 -247s-153 -102 -253 -102s-184 34 -253 102s-103 151 -103 248c0 98 35 181 104 249s154 102 254 102zM388 135c55 0 101 19 138 57s55 85 55 142
s-18 105 -55 143s-83 57 -138 57s-101 -19 -138 -57s-55 -86 -55 -143s18 -104 55 -142s83 -57 138 -57z" />
    <glyph glyph-name="Ocircumflex" unicode="&#xd4;" horiz-adv-x="784" 
d="M352 729h-154l115 155h159l116 -155h-155l-40 56zM392 685l-4 -1c100 0 185 -34 254 -102s104 -151 104 -249c0 -97 -34 -179 -103 -247s-153 -102 -253 -102s-184 34 -253 102s-103 151 -103 248c0 98 35 181 104 249s154 102 254 102zM388 135c55 0 101 19 138 57
s55 85 55 142s-18 105 -55 143s-83 57 -138 57s-101 -19 -138 -57s-55 -86 -55 -143s18 -104 55 -142s83 -57 138 -57z" />
    <glyph glyph-name="Odieresis" unicode="&#xd6;" horiz-adv-x="784" 
d="M278 724c-26 0 -47 8 -64 24s-25 37 -25 62c0 24 9 45 26 62s38 26 63 26s46 -9 63 -26s26 -38 26 -62c0 -25 -8 -46 -25 -62s-38 -24 -64 -24zM506 724c-26 0 -47 8 -64 24s-25 37 -25 62c0 24 9 45 26 62s38 26 63 26s46 -9 63 -26s26 -38 26 -62c0 -25 -8 -46 -25 -62
s-38 -24 -64 -24zM392 685l-4 -1c100 0 185 -34 254 -102s104 -151 104 -249c0 -97 -34 -179 -103 -247s-153 -102 -253 -102s-184 34 -253 102s-103 151 -103 248c0 98 35 181 104 249s154 102 254 102zM388 135c55 0 101 19 138 57s55 85 55 142s-18 105 -55 143
s-83 57 -138 57s-101 -19 -138 -57s-55 -86 -55 -143s18 -104 55 -142s83 -57 138 -57z" />
    <glyph glyph-name="Ograve" unicode="&#xd2;" horiz-adv-x="784" 
d="M323 735l-119 152h190l71 -152h-142zM392 685l-4 -1c100 0 185 -34 254 -102s104 -151 104 -249c0 -97 -34 -179 -103 -247s-153 -102 -253 -102s-184 34 -253 102s-103 151 -103 248c0 98 35 181 104 249s154 102 254 102zM388 135c55 0 101 19 138 57s55 85 55 142
s-18 105 -55 143s-83 57 -138 57s-101 -19 -138 -57s-55 -86 -55 -143s18 -104 55 -142s83 -57 138 -57z" />
    <glyph glyph-name="Otilde" unicode="&#xd5;" horiz-adv-x="784" 
d="M345 780l-2 -1c-17 0 -27 -11 -30 -33h-97c0 51 11 89 34 114s50 38 81 38c23 0 46 -6 69 -18s40 -18 52 -18c17 0 27 12 30 36h97c0 -52 -11 -91 -33 -116s-49 -38 -82 -38c-23 0 -46 6 -68 18s-39 18 -51 18zM390 684l-4 -1c100 0 185 -34 254 -102s104 -151 104 -249
c0 -97 -34 -179 -103 -247s-153 -102 -253 -102s-184 34 -253 102s-103 151 -103 248c0 98 35 181 104 249s154 102 254 102zM386 134c55 0 101 19 138 57s55 85 55 142s-18 105 -55 143s-83 57 -138 57s-101 -19 -138 -57s-55 -86 -55 -143s18 -104 55 -142s83 -57 138 -57
z" />
    <glyph glyph-name="Scaron" unicode="&#x160;" horiz-adv-x="646" 
d="M250 729l-115 155h154l41 -56l40 56h155l-116 -155h-159zM283 428l139 -34c122 -30 184 -92 184 -195c0 -69 -26 -122 -79 -160s-119 -57 -198 -57c-78 0 -144 18 -198 54s-85 86 -94 150l170 33c16 -66 60 -99 132 -99c31 0 55 6 73 19s27 30 27 51c0 16 -4 29 -13 38
s-25 16 -48 21l-140 30c-120 26 -180 92 -180 194c0 65 24 116 73 154s113 57 192 57c73 0 134 -17 183 -51s80 -81 93 -142l-162 -33c-6 30 -20 53 -42 69s-47 24 -75 24c-27 0 -49 -6 -66 -19s-25 -29 -25 -48c0 -29 18 -47 54 -56z" />
    <glyph glyph-name="Uacute" unicode="&#xda;" horiz-adv-x="713" 
d="M428 735h-142l71 152h190zM657 670l-1 -368c0 -96 -27 -173 -81 -231s-126 -87 -215 -87c-91 0 -164 29 -220 87s-84 135 -84 231v368h165v-368c0 -51 13 -91 38 -121s59 -45 101 -45c40 0 72 15 96 45s36 70 36 121v368h165z" />
    <glyph glyph-name="Ucircumflex" unicode="&#xdb;" horiz-adv-x="713" 
d="M316 729h-154l115 155h159l116 -155h-155l-40 56zM657 670l-1 -368c0 -96 -27 -173 -81 -231s-126 -87 -215 -87c-91 0 -164 29 -220 87s-84 135 -84 231v368h165v-368c0 -51 13 -91 38 -121s59 -45 101 -45c40 0 72 15 96 45s36 70 36 121v368h165z" />
    <glyph glyph-name="Udieresis" unicode="&#xdc;" horiz-adv-x="713" 
d="M242 724c-26 0 -47 8 -64 24s-25 37 -25 62c0 24 9 45 26 62s38 26 63 26s46 -9 63 -26s26 -38 26 -62c0 -25 -8 -46 -25 -62s-38 -24 -64 -24zM470 724c-26 0 -47 8 -64 24s-25 37 -25 62c0 24 9 45 26 62s38 26 63 26s46 -9 63 -26s26 -38 26 -62c0 -25 -8 -46 -25 -62
s-38 -24 -64 -24zM657 670l-1 -368c0 -96 -27 -173 -81 -231s-126 -87 -215 -87c-91 0 -164 29 -220 87s-84 135 -84 231v368h165v-368c0 -51 13 -91 38 -121s59 -45 101 -45c40 0 72 15 96 45s36 70 36 121v368h165z" />
    <glyph glyph-name="Ugrave" unicode="&#xd9;" horiz-adv-x="713" 
d="M287 735l-119 152h190l71 -152h-142zM657 670l-1 -368c0 -96 -27 -173 -81 -231s-126 -87 -215 -87c-91 0 -164 29 -220 87s-84 135 -84 231v368h165v-368c0 -51 13 -91 38 -121s59 -45 101 -45c40 0 72 15 96 45s36 70 36 121v368h165z" />
    <glyph glyph-name="Yacute" unicode="&#xdd;" horiz-adv-x="706" 
d="M425 735h-142l71 152h190zM434 210v-210h-168v208l-259 462h180l165 -294l163 294h184z" />
    <glyph glyph-name="Ydieresis" unicode="&#x178;" horiz-adv-x="706" 
d="M239 724c-26 0 -47 8 -64 24s-25 37 -25 62c0 24 9 45 26 62s38 26 63 26s46 -9 63 -26s26 -38 26 -62c0 -25 -8 -46 -25 -62s-38 -24 -64 -24zM467 724c-26 0 -47 8 -64 24s-25 37 -25 62c0 24 9 45 26 62s38 26 63 26s46 -9 63 -26s26 -38 26 -62c0 -25 -8 -46 -25 -62
s-38 -24 -64 -24zM434 210v-210h-168v208l-259 462h180l165 -294l163 294h184z" />
    <glyph glyph-name="Zcaron" unicode="&#x17d;" horiz-adv-x="635" 
d="M242 729l-115 155h154l41 -56l40 56h155l-116 -155h-159zM597 139v-139h-556v106l338 425h-328v139h538v-126l-313 -405h321z" />
    <glyph glyph-name="aacute" unicode="&#xe1;" horiz-adv-x="644" 
d="M394 567h-142l71 152h190zM586 502v-503h-160v40c-41 -37 -93 -55 -156 -55c-68 0 -126 25 -174 75s-72 114 -72 192c0 77 24 141 72 191s106 75 174 75c63 0 115 -18 156 -55v40h160zM303 120c33 0 62 12 86 36s36 55 36 93c0 37 -12 68 -36 93s-53 37 -86 37
c-35 0 -64 -12 -87 -36s-34 -55 -34 -93c0 -39 11 -70 34 -94s52 -36 87 -36z" />
    <glyph glyph-name="acircumflex" unicode="&#xe2;" horiz-adv-x="644" 
d="M281 561h-154l115 155h159l116 -155h-155l-40 56zM586 502v-503h-160v40c-41 -37 -93 -55 -156 -55c-68 0 -126 25 -174 75s-72 114 -72 192c0 77 24 141 72 191s106 75 174 75c63 0 115 -18 156 -55v40h160zM303 120c33 0 62 12 86 36s36 55 36 93c0 37 -12 68 -36 93
s-53 37 -86 37c-35 0 -64 -12 -87 -36s-34 -55 -34 -93c0 -39 11 -70 34 -94s52 -36 87 -36z" />
    <glyph glyph-name="adieresis" unicode="&#xe4;" horiz-adv-x="644" 
d="M207 556c-26 0 -47 8 -64 24s-25 37 -25 62c0 24 9 45 26 62s38 26 63 26s46 -9 63 -26s26 -38 26 -62c0 -25 -8 -46 -25 -62s-38 -24 -64 -24zM435 556c-26 0 -47 8 -64 24s-25 37 -25 62c0 24 9 45 26 62s38 26 63 26s46 -9 63 -26s26 -38 26 -62c0 -25 -8 -46 -25 -62
s-38 -24 -64 -24zM586 502v-503h-160v40c-41 -37 -93 -55 -156 -55c-68 0 -126 25 -174 75s-72 114 -72 192c0 77 24 141 72 191s106 75 174 75c63 0 115 -18 156 -55v40h160zM303 120c33 0 62 12 86 36s36 55 36 93c0 37 -12 68 -36 93s-53 37 -86 37
c-35 0 -64 -12 -87 -36s-34 -55 -34 -93c0 -39 11 -70 34 -94s52 -36 87 -36z" />
    <glyph glyph-name="agrave" unicode="&#xe0;" horiz-adv-x="644" 
d="M252 567l-119 152h190l71 -152h-142zM586 502v-503h-160v40c-41 -37 -93 -55 -156 -55c-68 0 -126 25 -174 75s-72 114 -72 192c0 77 24 141 72 191s106 75 174 75c63 0 115 -18 156 -55v40h160zM303 120c33 0 62 12 86 36s36 55 36 93c0 37 -12 68 -36 93s-53 37 -86 37
c-35 0 -64 -12 -87 -36s-34 -55 -34 -93c0 -39 11 -70 34 -94s52 -36 87 -36z" />
    <glyph glyph-name="aring" unicode="&#xe5;" horiz-adv-x="644" 
d="M321 543c-35 0 -65 12 -89 36s-36 53 -36 87c0 35 12 64 36 88s54 36 89 36s65 -12 89 -36s36 -53 36 -88c0 -34 -12 -63 -36 -87s-54 -36 -89 -36zM321 705v-1c-11 0 -21 -4 -29 -12s-12 -17 -12 -28s4 -20 12 -28s18 -12 29 -12s21 4 29 12s12 17 12 28s-4 21 -12 29
s-18 12 -29 12zM586 501v-503h-160v40c-41 -37 -93 -55 -156 -55c-68 0 -126 25 -174 75s-72 114 -72 192c0 77 24 141 72 191s106 75 174 75c63 0 115 -18 156 -55v40h160zM303 119c33 0 62 12 86 36s36 55 36 93c0 37 -12 68 -36 93s-53 37 -86 37c-35 0 -64 -12 -87 -36
s-34 -55 -34 -93c0 -39 11 -70 34 -94s52 -36 87 -36z" />
    <glyph glyph-name="atilde" unicode="&#xe3;" horiz-adv-x="644" 
d="M275 612l-2 -1c-17 0 -27 -11 -30 -33h-97c0 51 11 89 34 114s50 38 81 38c23 0 46 -6 69 -18s40 -18 52 -18c17 0 27 12 30 36h97c0 -52 -11 -91 -33 -116s-49 -38 -82 -38c-23 0 -46 6 -68 18s-39 18 -51 18zM584 501v-503h-160v40c-41 -37 -93 -55 -156 -55
c-68 0 -126 25 -174 75s-72 114 -72 192c0 77 24 141 72 191s106 75 174 75c63 0 115 -18 156 -55v40h160zM301 119c33 0 62 12 86 36s36 55 36 93c0 37 -12 68 -36 93s-53 37 -86 37c-35 0 -64 -12 -87 -36s-34 -55 -34 -93c0 -39 11 -70 34 -94s52 -36 87 -36z" />
    <glyph glyph-name="ccedilla" unicode="&#xe7;" horiz-adv-x="580" 
d="M299 125v-2c56 0 92 29 109 88l147 -32c-11 -50 -34 -92 -70 -126s-80 -56 -131 -65l-46 -150h-166l95 152c-61 13 -111 43 -151 90s-60 104 -60 171c0 77 27 141 80 191s118 75 195 75c62 0 117 -18 164 -53s78 -82 92 -140l-150 -36c-7 29 -20 51 -39 66s-42 23 -69 23
c-36 0 -65 -12 -87 -36s-33 -54 -33 -91s11 -67 33 -90s51 -35 87 -35z" />
    <glyph glyph-name="eacute" unicode="&#xe9;" horiz-adv-x="575" 
d="M365 567h-142l71 152h190zM550 251l1 -43h-368c7 -30 20 -54 39 -71s42 -26 69 -26c50 0 86 19 107 58l142 -29c-21 -52 -53 -91 -96 -117s-94 -39 -153 -39c-74 0 -137 25 -188 75s-77 114 -77 192c0 77 26 141 77 191s114 75 189 75c73 0 134 -24 183 -73
s73 -113 75 -193zM292 385c-23 0 -45 -7 -65 -21s-34 -33 -41 -58h207c-7 26 -20 46 -38 59s-39 20 -63 20z" />
    <glyph glyph-name="ecircumflex" unicode="&#xea;" horiz-adv-x="575" 
d="M253 561h-154l115 155h159l116 -155h-155l-40 56zM550 251l1 -43h-368c7 -30 20 -54 39 -71s42 -26 69 -26c50 0 86 19 107 58l142 -29c-21 -52 -53 -91 -96 -117s-94 -39 -153 -39c-74 0 -137 25 -188 75s-77 114 -77 192c0 77 26 141 77 191s114 75 189 75
c73 0 134 -24 183 -73s73 -113 75 -193zM292 385c-23 0 -45 -7 -65 -21s-34 -33 -41 -58h207c-7 26 -20 46 -38 59s-39 20 -63 20z" />
    <glyph glyph-name="edieresis" unicode="&#xeb;" horiz-adv-x="575" 
d="M179 556c-26 0 -47 8 -64 24s-25 37 -25 62c0 24 9 45 26 62s38 26 63 26s46 -9 63 -26s26 -38 26 -62c0 -25 -8 -46 -25 -62s-38 -24 -64 -24zM407 556c-26 0 -47 8 -64 24s-25 37 -25 62c0 24 9 45 26 62s38 26 63 26s46 -9 63 -26s26 -38 26 -62c0 -25 -8 -46 -25 -62
s-38 -24 -64 -24zM550 251l1 -43h-368c7 -30 20 -54 39 -71s42 -26 69 -26c50 0 86 19 107 58l142 -29c-21 -52 -53 -91 -96 -117s-94 -39 -153 -39c-74 0 -137 25 -188 75s-77 114 -77 192c0 77 26 141 77 191s114 75 189 75c73 0 134 -24 183 -73s73 -113 75 -193z
M292 385c-23 0 -45 -7 -65 -21s-34 -33 -41 -58h207c-7 26 -20 46 -38 59s-39 20 -63 20z" />
    <glyph glyph-name="egrave" unicode="&#xe8;" horiz-adv-x="575" 
d="M224 567l-119 152h190l71 -152h-142zM550 251l1 -43h-368c7 -30 20 -54 39 -71s42 -26 69 -26c50 0 86 19 107 58l142 -29c-21 -52 -53 -91 -96 -117s-94 -39 -153 -39c-74 0 -137 25 -188 75s-77 114 -77 192c0 77 26 141 77 191s114 75 189 75c73 0 134 -24 183 -73
s73 -113 75 -193zM292 385c-23 0 -45 -7 -65 -21s-34 -33 -41 -58h207c-7 26 -20 46 -38 59s-39 20 -63 20z" />
    <glyph glyph-name="iacute" unicode="&#xed;" horiz-adv-x="297" 
d="M221 567h-142l71 152h190zM228 0h-159v502h159v-502z" />
    <glyph glyph-name="icircumflex" unicode="&#xee;" horiz-adv-x="297" 
d="M108 561h-154l115 155h159l116 -155h-155l-40 56zM69 502h159v-502h-159v502z" />
    <glyph glyph-name="idieresis" unicode="&#xef;" horiz-adv-x="297" 
d="M35 731c25 0 46 -9 63 -26s26 -38 26 -62c0 -25 -8 -46 -25 -62s-38 -24 -64 -24s-47 8 -64 24s-25 37 -25 62c0 24 9 45 26 62s38 26 63 26zM263 731c25 0 46 -9 63 -26s26 -38 26 -62c0 -25 -8 -46 -25 -62s-38 -24 -64 -24s-47 8 -64 24s-25 37 -25 62
c0 24 9 45 26 62s38 26 63 26zM228 0h-159v502h159v-502z" />
    <glyph glyph-name="igrave" unicode="&#xec;" horiz-adv-x="297" 
d="M151 719l71 -152h-142l-119 152h190zM228 0h-159v502h159v-502z" />
    <glyph glyph-name="ntilde" unicode="&#xf1;" horiz-adv-x="618" 
d="M266 612l-2 -1c-17 0 -27 -11 -30 -33h-97c0 51 11 89 34 114s50 38 81 38c23 0 46 -6 69 -18s40 -18 52 -18c17 0 27 12 30 36h97c0 -52 -11 -91 -33 -116s-49 -38 -82 -38c-23 0 -46 6 -68 18s-39 18 -51 18zM370 516l-2 -1c59 0 106 -19 142 -57s54 -88 54 -151v-308
h-159v274c0 29 -8 53 -24 71s-37 27 -62 27c-33 0 -58 -11 -76 -34s-27 -58 -27 -105v-233h-160v502h160v-48c40 42 91 63 154 63z" />
    <glyph glyph-name="oacute" unicode="&#xf3;" horiz-adv-x="603" 
d="M375 567h-142l71 152h190zM303 515c77 0 142 -25 195 -74s80 -112 80 -189c0 -78 -27 -142 -80 -191s-118 -74 -195 -74c-78 0 -144 25 -198 74s-81 113 -81 191c0 77 27 140 81 189s120 74 198 74zM303 121c33 0 61 12 85 36s36 55 36 93s-12 69 -36 93s-52 36 -84 36
c-33 0 -62 -12 -87 -36s-37 -55 -37 -93s12 -69 36 -93s53 -36 87 -36z" />
    <glyph glyph-name="ocircumflex" unicode="&#xf4;" horiz-adv-x="603" 
d="M262 561h-154l115 155h159l116 -155h-155l-40 56zM303 515c77 0 142 -25 195 -74s80 -112 80 -189c0 -78 -27 -142 -80 -191s-118 -74 -195 -74c-78 0 -144 25 -198 74s-81 113 -81 191c0 77 27 140 81 189s120 74 198 74zM303 121c33 0 61 12 85 36s36 55 36 93
s-12 69 -36 93s-52 36 -84 36c-33 0 -62 -12 -87 -36s-37 -55 -37 -93s12 -69 36 -93s53 -36 87 -36z" />
    <glyph glyph-name="odieresis" unicode="&#xf6;" horiz-adv-x="603" 
d="M189 556c-26 0 -47 8 -64 24s-25 37 -25 62c0 24 9 45 26 62s38 26 63 26s46 -9 63 -26s26 -38 26 -62c0 -25 -8 -46 -25 -62s-38 -24 -64 -24zM417 556c-26 0 -47 8 -64 24s-25 37 -25 62c0 24 9 45 26 62s38 26 63 26s46 -9 63 -26s26 -38 26 -62c0 -25 -8 -46 -25 -62
s-38 -24 -64 -24zM303 515c77 0 142 -25 195 -74s80 -112 80 -189c0 -78 -27 -142 -80 -191s-118 -74 -195 -74c-78 0 -144 25 -198 74s-81 113 -81 191c0 77 27 140 81 189s120 74 198 74zM303 121c33 0 61 12 85 36s36 55 36 93s-12 69 -36 93s-52 36 -84 36
c-33 0 -62 -12 -87 -36s-37 -55 -37 -93s12 -69 36 -93s53 -36 87 -36z" />
    <glyph glyph-name="ograve" unicode="&#xf2;" horiz-adv-x="603" 
d="M234 567l-119 152h190l71 -152h-142zM303 515c77 0 142 -25 195 -74s80 -112 80 -189c0 -78 -27 -142 -80 -191s-118 -74 -195 -74c-78 0 -144 25 -198 74s-81 113 -81 191c0 77 27 140 81 189s120 74 198 74zM303 121c33 0 61 12 85 36s36 55 36 93s-12 69 -36 93
s-52 36 -84 36c-33 0 -62 -12 -87 -36s-37 -55 -37 -93s12 -69 36 -93s53 -36 87 -36z" />
    <glyph glyph-name="otilde" unicode="&#xf5;" horiz-adv-x="603" 
d="M256 612l-2 -1c-17 0 -27 -11 -30 -33h-97c0 51 11 89 34 114s50 38 81 38c23 0 46 -6 69 -18s40 -18 52 -18c17 0 27 12 30 36h97c0 -52 -11 -91 -33 -116s-49 -38 -82 -38c-23 0 -46 6 -68 18s-39 18 -51 18zM301 514c77 0 142 -25 195 -74s80 -112 80 -189
c0 -78 -27 -142 -80 -191s-118 -74 -195 -74c-78 0 -144 25 -198 74s-81 113 -81 191c0 77 27 140 81 189s120 74 198 74zM301 120c33 0 61 12 85 36s36 55 36 93s-12 69 -36 93s-52 36 -84 36c-33 0 -62 -12 -87 -36s-37 -55 -37 -93s12 -69 36 -93s53 -36 87 -36z" />
    <glyph glyph-name="scaron" unicode="&#x161;" horiz-adv-x="515" 
d="M183 561l-115 155h154l41 -56l40 56h155l-116 -155h-159zM231 329l115 -25c46 -10 81 -28 104 -54s35 -58 35 -96c0 -54 -21 -96 -63 -125s-97 -44 -165 -44c-63 0 -116 12 -159 36s-68 61 -76 110l156 32c7 -39 37 -59 90 -59c20 0 36 4 48 12s18 18 18 29
c0 19 -17 31 -50 37l-102 20c-97 19 -146 67 -146 146c0 51 20 92 60 123s92 47 156 47c61 0 112 -13 152 -39s65 -61 75 -105l-146 -29c-3 17 -12 31 -27 42s-34 17 -57 17c-20 0 -34 -4 -43 -12s-13 -17 -13 -28c0 -18 13 -30 38 -35z" />
    <glyph glyph-name="uacute" unicode="&#xfa;" horiz-adv-x="618" 
d="M380 567h-142l71 152h190zM560 502l1 -503h-160v48c-40 -42 -91 -63 -154 -63c-59 0 -106 19 -142 57s-54 89 -54 152v308h159v-274c0 -29 8 -53 24 -71s37 -27 62 -27c33 0 59 12 77 35s27 58 27 105v233h160z" />
    <glyph glyph-name="ucircumflex" unicode="&#xfb;" horiz-adv-x="618" 
d="M267 561h-154l115 155h159l116 -155h-155l-40 56zM560 502l1 -503h-160v48c-40 -42 -91 -63 -154 -63c-59 0 -106 19 -142 57s-54 89 -54 152v308h159v-274c0 -29 8 -53 24 -71s37 -27 62 -27c33 0 59 12 77 35s27 58 27 105v233h160z" />
    <glyph glyph-name="udieresis" unicode="&#xfc;" horiz-adv-x="618" 
d="M193 556c-26 0 -47 8 -64 24s-25 37 -25 62c0 24 9 45 26 62s38 26 63 26s46 -9 63 -26s26 -38 26 -62c0 -25 -8 -46 -25 -62s-38 -24 -64 -24zM421 556c-26 0 -47 8 -64 24s-25 37 -25 62c0 24 9 45 26 62s38 26 63 26s46 -9 63 -26s26 -38 26 -62c0 -25 -8 -46 -25 -62
s-38 -24 -64 -24zM560 502l1 -503h-160v48c-40 -42 -91 -63 -154 -63c-59 0 -106 19 -142 57s-54 89 -54 152v308h159v-274c0 -29 8 -53 24 -71s37 -27 62 -27c33 0 59 12 77 35s27 58 27 105v233h160z" />
    <glyph glyph-name="ugrave" unicode="&#xf9;" horiz-adv-x="618" 
d="M238 567l-119 152h190l71 -152h-142zM560 502l1 -503h-160v48c-40 -42 -91 -63 -154 -63c-59 0 -106 19 -142 57s-54 89 -54 152v308h159v-274c0 -29 8 -53 24 -71s37 -27 62 -27c33 0 59 12 77 35s27 58 27 105v233h160z" />
    <glyph glyph-name="yacute" unicode="&#xfd;" horiz-adv-x="604" 
d="M368 568h-142l71 152h190zM597 503l-290 -673h-173l81 187l-208 486h172l119 -293l127 293h172z" />
    <glyph glyph-name="ydieresis" unicode="&#xff;" horiz-adv-x="604" 
d="M181 557c-26 0 -47 8 -64 24s-25 37 -25 62c0 24 9 45 26 62s38 26 63 26s46 -9 63 -26s26 -38 26 -62c0 -25 -8 -46 -25 -62s-38 -24 -64 -24zM409 557c-26 0 -47 8 -64 24s-25 37 -25 62c0 24 9 45 26 62s38 26 63 26s46 -9 63 -26s26 -38 26 -62c0 -25 -8 -46 -25 -62
s-38 -24 -64 -24zM597 503l-290 -673h-173l81 187l-208 486h172l119 -293l127 293h172z" />
    <glyph glyph-name="zcaron" unicode="&#x17e;" horiz-adv-x="538" 
d="M193 561l-115 155h154l41 -56l40 56h155l-116 -155h-159zM501 127v-127h-464v103l252 272h-246v127h449v-105l-252 -270h261z" />
    <glyph glyph-name="oneeighth" unicode="&#x215b;" horiz-adv-x="814" 
d="M95 531l-78 -46v111l115 74h72v-383h-109v244zM664 670l-484 -670h-94l485 670h93zM715 199h-2c45 -17 67 -49 67 -95c0 -33 -15 -60 -44 -82s-68 -33 -116 -33c-47 0 -85 11 -114 33s-44 49 -44 82c0 46 22 78 67 95c-35 17 -52 44 -52 81c0 30 14 56 42 77
s63 32 104 32s75 -11 103 -32s42 -47 42 -77c0 -38 -18 -65 -53 -81zM620 310l-1 2c-13 0 -24 -4 -33 -11s-13 -17 -13 -30c0 -11 5 -20 14 -28s20 -12 33 -12s24 4 33 11s14 16 14 27c0 13 -4 23 -13 30s-20 11 -34 11zM620 76v1c14 0 26 4 35 12s14 18 14 31
c0 12 -5 22 -15 30s-22 12 -36 12c-15 0 -27 -4 -36 -12s-14 -18 -14 -31s5 -23 15 -31s22 -12 37 -12z" />
    <glyph glyph-name="threeeighths" unicode="&#x215c;" horiz-adv-x="866" 
d="M324 406l-4 6c0 -36 -14 -66 -42 -90s-64 -36 -108 -36c-43 0 -78 11 -106 34s-43 53 -46 91l95 21c4 -38 23 -57 58 -57c14 0 25 4 34 11s13 16 13 27s-4 20 -13 26s-20 9 -34 9h-42v76h36c15 0 27 3 37 9s15 15 15 26s-4 20 -12 27s-19 10 -33 10
c-33 0 -50 -18 -51 -54l-98 21c4 35 20 64 47 86s61 33 102 33c43 0 78 -11 105 -34s41 -52 41 -87c0 -33 -15 -58 -46 -75c35 -17 52 -44 52 -80zM712 676l-484 -670h-94l484 670h94zM760 205h-2c45 -17 67 -49 67 -95c0 -33 -15 -60 -44 -82s-68 -33 -116 -33
c-47 0 -85 11 -114 33s-44 49 -44 82c0 46 22 78 67 95c-35 17 -52 44 -52 81c0 30 14 56 42 77s63 32 104 32s75 -11 103 -32s42 -47 42 -77c0 -38 -18 -65 -53 -81zM665 316l-1 2c-13 0 -24 -4 -33 -11s-13 -17 -13 -30c0 -11 5 -20 14 -28s20 -12 33 -12s24 4 33 11
s14 16 14 27c0 13 -4 23 -13 30s-20 11 -34 11zM665 82v1c14 0 26 4 35 12s14 18 14 31c0 12 -5 22 -15 30s-22 12 -36 12c-15 0 -27 -4 -36 -12s-14 -18 -14 -31s5 -23 15 -31s22 -12 37 -12z" />
    <glyph glyph-name="fiveeighths" unicode="&#x215d;" horiz-adv-x="845" 
d="M331 414l1 -1c0 -41 -14 -74 -42 -99s-65 -37 -110 -37c-43 0 -79 12 -108 35s-45 52 -49 86l102 18c3 -15 9 -26 19 -34s22 -12 35 -12c14 0 26 4 35 11s14 17 14 30s-5 23 -15 30s-23 11 -39 11h-137l10 218h264v-94h-171l-2 -38h61c40 0 72 -11 96 -34s36 -53 36 -90z
M710 669l-484 -670h-94l484 670h94zM748 198h-2c45 -17 67 -49 67 -95c0 -33 -15 -60 -44 -82s-68 -33 -116 -33c-47 0 -85 11 -114 33s-44 49 -44 82c0 46 22 78 67 95c-35 17 -52 44 -52 81c0 30 14 56 42 77s63 32 104 32s75 -11 103 -32s42 -47 42 -77
c0 -38 -18 -65 -53 -81zM653 309l-1 2c-13 0 -24 -4 -33 -11s-13 -17 -13 -30c0 -11 5 -20 14 -28s20 -12 33 -12s24 4 33 11s14 16 14 27c0 13 -4 23 -13 30s-20 11 -34 11zM653 75v1c14 0 26 4 35 12s14 18 14 31c0 12 -5 22 -15 30s-22 12 -36 12c-15 0 -27 -4 -36 -12
s-14 -18 -14 -31s5 -23 15 -31s22 -12 37 -12z" />
    <glyph glyph-name="seveneighths" unicode="&#x215e;" horiz-adv-x="769" 
d="M50 287l133 289h-176v94h291v-83l-132 -300h-116zM633 670l-484 -670h-94l484 670h94zM671 199h-2c45 -17 67 -49 67 -95c0 -33 -15 -60 -44 -82s-68 -33 -116 -33c-47 0 -85 11 -114 33s-44 49 -44 82c0 46 22 78 67 95c-35 17 -52 44 -52 81c0 30 14 56 42 77
s63 32 104 32s75 -11 103 -32s42 -47 42 -77c0 -38 -18 -65 -53 -81zM576 310l-1 2c-13 0 -24 -4 -33 -11s-13 -17 -13 -30c0 -11 5 -20 14 -28s20 -12 33 -12s24 4 33 11s14 16 14 27c0 13 -4 23 -13 30s-20 11 -34 11zM576 76v1c14 0 26 4 35 12s14 18 14 31
c0 12 -5 22 -15 30s-22 12 -36 12c-15 0 -27 -4 -36 -12s-14 -18 -14 -31s5 -23 15 -31s22 -12 37 -12z" />
    <glyph glyph-name="Euro" unicode="&#x20ac;" horiz-adv-x="761" 
d="M437 130l-3 -1c65 0 108 46 129 137l160 -32c-15 -76 -48 -137 -100 -182s-115 -68 -190 -68c-71 0 -131 21 -181 62s-84 98 -103 170h-97v96h83v22v22h-83v95h97c19 72 54 129 104 171s111 63 182 63c75 0 138 -22 189 -67s85 -105 101 -180l-163 -31
c-9 45 -24 79 -46 101s-48 33 -79 33c-52 0 -90 -30 -115 -89h178l-21 -95h-176l-1 -22c0 -10 0 -17 1 -22h168l-21 -96h-128c24 -58 62 -87 115 -87z" />
    <glyph glyph-name="Amacron" unicode="&#x100;" horiz-adv-x="729" 
d="M531 738h-332v124h332v-124zM729 0h-176l-47 122h-282l-47 -122h-177l280 670h169zM451 264l-86 220l-85 -220h171z" />
    <glyph glyph-name="amacron" unicode="&#x101;" horiz-adv-x="644" 
d="M487 570h-332v124h332v-124zM586 502v-503h-160v40c-41 -37 -93 -55 -156 -55c-68 0 -126 25 -174 75s-72 114 -72 192c0 77 24 141 72 191s106 75 174 75c63 0 115 -18 156 -55v40h160zM303 120c33 0 62 12 86 36s36 55 36 93c0 37 -12 68 -36 93s-53 37 -86 37
c-35 0 -64 -12 -87 -36s-34 -55 -34 -93c0 -39 11 -70 34 -94s52 -36 87 -36z" />
    <glyph glyph-name="Abreve" unicode="&#x102;" horiz-adv-x="729" 
d="M365 718h-3c-54 0 -97 14 -129 43s-48 67 -48 115h126c0 -15 5 -27 15 -37s22 -15 37 -15s28 5 38 15s15 22 15 37h126c0 -48 -16 -86 -48 -115s-75 -43 -129 -43zM726 0h-176l-47 122h-282l-47 -122h-177l280 670h169zM448 264l-86 220l-85 -220h171z" />
    <glyph glyph-name="abreve" unicode="&#x103;" horiz-adv-x="644" 
d="M321 550h-3c-54 0 -97 14 -129 43s-48 67 -48 115h126c0 -15 5 -27 15 -37s22 -15 37 -15s28 5 38 15s15 22 15 37h126c0 -48 -16 -86 -48 -115s-75 -43 -129 -43zM583 502v-503h-160v40c-41 -37 -93 -55 -156 -55c-68 0 -126 25 -174 75s-72 114 -72 192
c0 77 24 141 72 191s106 75 174 75c63 0 115 -18 156 -55v40h160zM300 120c33 0 62 12 86 36s36 55 36 93c0 37 -12 68 -36 93s-53 37 -86 37c-35 0 -64 -12 -87 -36s-34 -55 -34 -93c0 -39 11 -70 34 -94s52 -36 87 -36z" />
    <glyph glyph-name="Aogonek" unicode="&#x104;" horiz-adv-x="729" 
d="M747 -100l4 -92c-31 -15 -62 -22 -93 -22c-30 0 -54 8 -73 24s-28 39 -28 68c0 43 22 83 67 120h-72l-47 122h-282l-47 -122h-177l280 670h169l280 -670c-4 -5 -9 -11 -16 -18s-12 -12 -14 -15s-5 -7 -10 -12s-8 -9 -9 -11s-3 -5 -5 -9s-3 -7 -4 -10s-1 -6 -1 -9
c0 -16 9 -24 28 -24c11 0 28 3 50 10zM449 263l-86 220l-85 -220h171z" />
    <glyph glyph-name="aogonek" unicode="&#x105;" horiz-adv-x="644" 
d="M603 -100l4 -93c-31 -15 -62 -22 -93 -22c-30 0 -54 8 -73 24s-28 39 -28 68c0 43 22 83 67 120h-55v40c-41 -37 -93 -55 -156 -55c-68 0 -126 25 -174 75s-72 114 -72 192c0 77 24 141 72 191s106 75 174 75c63 0 115 -18 156 -55v40h160v-502h-1c-4 -5 -9 -11 -16 -18
s-12 -12 -14 -15s-5 -7 -10 -12s-8 -9 -9 -11s-3 -5 -5 -9s-3 -7 -4 -10s-1 -6 -1 -9c0 -16 9 -24 28 -24c11 0 28 3 50 10zM301 119c33 0 62 12 86 36s36 55 36 93c0 37 -12 68 -36 93s-53 37 -86 37c-35 0 -64 -12 -87 -36s-34 -55 -34 -93c0 -39 11 -70 34 -94
s52 -36 87 -36z" />
    <glyph glyph-name="Cacute" unicode="&#x106;" horiz-adv-x="764" 
d="M463 735h-142l71 152h190zM567 283l159 -34c-15 -83 -53 -148 -114 -195s-135 -71 -222 -71c-99 0 -183 34 -252 101s-103 150 -103 249c0 98 35 181 104 249s153 102 252 102c84 0 157 -23 219 -70s101 -109 117 -187l-162 -38c-10 47 -30 83 -61 107s-69 36 -114 36
c-53 0 -98 -19 -135 -57s-55 -85 -55 -142s19 -104 56 -142s82 -57 135 -57c44 0 82 13 113 38s52 62 63 111z" />
    <glyph glyph-name="cacute" unicode="&#x107;" horiz-adv-x="580" 
d="M371 567h-142l71 152h190zM299 125v-1c56 0 92 29 109 88l147 -32c-13 -59 -43 -106 -90 -142s-102 -54 -165 -54c-77 0 -142 25 -195 75s-79 114 -79 192c0 77 27 141 80 191s118 75 195 75c62 0 117 -18 164 -53s78 -82 92 -140l-150 -36c-7 29 -20 51 -39 66
s-42 23 -69 23c-36 0 -65 -12 -87 -36s-33 -54 -33 -91s11 -67 33 -90s51 -35 87 -35z" />
    <glyph glyph-name="Cdotaccent" unicode="&#x10a;" horiz-adv-x="764" 
d="M390 732v-2c-26 0 -47 8 -64 25s-25 38 -25 63c0 24 9 45 26 62s38 26 63 26s46 -8 63 -25s26 -37 26 -61c0 -25 -8 -46 -25 -63s-38 -25 -64 -25zM567 281l159 -34c-15 -83 -53 -148 -114 -195s-135 -71 -222 -71c-99 0 -183 34 -252 101s-103 150 -103 249
c0 98 35 181 104 249s153 102 252 102c84 0 157 -23 219 -70s101 -109 117 -187l-162 -38c-10 47 -30 83 -61 107s-69 36 -114 36c-53 0 -98 -19 -135 -57s-55 -85 -55 -142s19 -104 56 -142s82 -57 135 -57c44 0 82 13 113 38s52 62 63 111z" />
    <glyph glyph-name="cdotaccent" unicode="&#x10b;" horiz-adv-x="580" 
d="M298 564v-2c-26 0 -47 8 -64 25s-25 38 -25 63c0 24 9 45 26 62s38 26 63 26s46 -8 63 -25s26 -37 26 -61c0 -25 -8 -46 -25 -63s-38 -25 -64 -25zM299 123v-1c56 0 92 29 109 88l147 -32c-13 -59 -43 -106 -90 -142s-102 -54 -165 -54c-77 0 -142 25 -195 75
s-79 114 -79 192c0 77 27 141 80 191s118 75 195 75c62 0 117 -18 164 -53s78 -82 92 -140l-150 -36c-7 29 -20 51 -39 66s-42 23 -69 23c-36 0 -65 -12 -87 -36s-33 -54 -33 -91s11 -67 33 -90s51 -35 87 -35z" />
    <glyph glyph-name="Ccaron" unicode="&#x10c;" horiz-adv-x="764" 
d="M311 729l-115 155h154l41 -56l40 56h155l-116 -155h-159zM567 283l159 -34c-15 -83 -53 -148 -114 -195s-135 -71 -222 -71c-99 0 -183 34 -252 101s-103 150 -103 249c0 98 35 181 104 249s153 102 252 102c84 0 157 -23 219 -70s101 -109 117 -187l-162 -38
c-10 47 -30 83 -61 107s-69 36 -114 36c-53 0 -98 -19 -135 -57s-55 -85 -55 -142s19 -104 56 -142s82 -57 135 -57c44 0 82 13 113 38s52 62 63 111z" />
    <glyph glyph-name="ccaron" unicode="&#x10d;" horiz-adv-x="580" 
d="M219 561l-115 155h154l41 -56l40 56h155l-116 -155h-159zM299 125v-1c56 0 92 29 109 88l147 -32c-13 -59 -43 -106 -90 -142s-102 -54 -165 -54c-77 0 -142 25 -195 75s-79 114 -79 192c0 77 27 141 80 191s118 75 195 75c62 0 117 -18 164 -53s78 -82 92 -140l-150 -36
c-7 29 -20 51 -39 66s-42 23 -69 23c-36 0 -65 -12 -87 -36s-33 -54 -33 -91s11 -67 33 -90s51 -35 87 -35z" />
    <glyph glyph-name="Dcaron" unicode="&#x10e;" horiz-adv-x="725" 
d="M273 729l-115 155h154l41 -56l40 56h155l-116 -155h-159zM58 670l265 2c110 1 199 -31 266 -93s101 -143 101 -243s-34 -181 -101 -243s-156 -93 -266 -93h-265v670zM223 145l94 -2c63 -1 113 18 151 53s57 82 57 140s-19 105 -57 140s-88 53 -151 53h-94v-384z" />
    <glyph glyph-name="dcaron" unicode="&#x10f;" horiz-adv-x="644" 
d="M426 720l160 -1v-720h-160v40c-41 -37 -93 -55 -156 -55c-68 0 -126 25 -174 75s-72 114 -72 192c0 77 24 141 72 191s106 75 174 75c63 0 115 -18 156 -55v258zM789 719l-35 -199h-116v199h151zM303 120c33 0 62 12 86 36s36 55 36 93c0 37 -12 68 -36 93s-53 37 -86 37
c-35 0 -64 -12 -87 -36s-34 -55 -34 -93c0 -39 11 -70 34 -94s52 -36 87 -36z" />
    <glyph glyph-name="Dcroat" unicode="&#x110;" horiz-adv-x="733" 
d="M77 670l263 2c110 1 199 -31 266 -93s101 -143 101 -243s-33 -181 -100 -243s-155 -93 -265 -93h-265v263h-54v144h54v263zM239 145l94 -2c63 -1 113 18 151 53s57 82 57 140s-19 105 -57 140s-88 53 -151 53h-94v-120h113v-144h-113v-120z" />
    <glyph glyph-name="dcroat" unicode="&#x111;" horiz-adv-x="662" 
d="M636 546l-50 -1v-546h-160v40c-41 -37 -93 -55 -156 -55c-68 0 -126 25 -174 75s-72 114 -72 192c0 77 24 141 72 191s106 75 174 75c63 0 115 -18 156 -55v84h-135v119h135v55h160v-55h50v-119zM303 120c33 0 62 12 86 36s36 55 36 93c0 37 -12 68 -36 93s-53 37 -86 37
c-35 0 -64 -12 -87 -36s-34 -55 -34 -93c0 -39 11 -70 34 -94s52 -36 87 -36z" />
    <glyph glyph-name="Emacron" unicode="&#x112;" horiz-adv-x="625" 
d="M494 738h-332v124h332v-124zM580 142v-142h-522v670h519v-142h-354v-126h325v-134h-325v-126h357z" />
    <glyph glyph-name="emacron" unicode="&#x113;" horiz-adv-x="575" 
d="M459 570h-332v124h332v-124zM550 251l1 -43h-368c7 -30 20 -54 39 -71s42 -26 69 -26c50 0 86 19 107 58l142 -29c-21 -52 -53 -91 -96 -117s-94 -39 -153 -39c-74 0 -137 25 -188 75s-77 114 -77 192c0 77 26 141 77 191s114 75 189 75c73 0 134 -24 183 -73
s73 -113 75 -193zM292 385c-23 0 -45 -7 -65 -21s-34 -33 -41 -58h207c-7 26 -20 46 -38 59s-39 20 -63 20z" />
    <glyph glyph-name="Edotaccent" unicode="&#x116;" horiz-adv-x="625" 
d="M327 732v-2c-26 0 -47 8 -64 25s-25 38 -25 63c0 24 9 45 26 62s38 26 63 26s46 -8 63 -25s26 -37 26 -61c0 -25 -8 -46 -25 -63s-38 -25 -64 -25zM580 140v-142h-522v670h519v-142h-354v-126h325v-134h-325v-126h357z" />
    <glyph glyph-name="edotaccent" unicode="&#x117;" horiz-adv-x="575" 
d="M292 564v-2c-26 0 -47 8 -64 25s-25 38 -25 63c0 24 9 45 26 62s38 26 63 26s46 -8 63 -25s26 -37 26 -61c0 -25 -8 -46 -25 -63s-38 -25 -64 -25zM550 249l1 -43h-368c7 -30 20 -54 39 -71s42 -26 69 -26c50 0 86 19 107 58l142 -29c-21 -52 -53 -91 -96 -117
s-94 -39 -153 -39c-74 0 -137 25 -188 75s-77 114 -77 192c0 77 26 141 77 191s114 75 189 75c73 0 134 -24 183 -73s73 -113 75 -193zM292 383c-23 0 -45 -7 -65 -21s-34 -33 -41 -58h207c-7 26 -20 46 -38 59s-39 20 -63 20z" />
    <glyph glyph-name="Eogonek" unicode="&#x118;" horiz-adv-x="625" 
d="M580 0l-31 -1c-4 -5 -9 -11 -16 -18s-12 -12 -14 -15s-5 -7 -10 -12s-8 -9 -9 -11s-3 -5 -5 -9s-3 -7 -4 -10s-1 -6 -1 -9c0 -16 9 -24 28 -24c11 0 28 3 50 10l6 -91c-31 -15 -62 -22 -93 -22c-30 0 -54 8 -73 24s-28 39 -28 68c0 43 22 83 67 120h-389v670h519v-142
h-354v-126h325v-134h-325v-126h357v-142z" />
    <glyph glyph-name="eogonek" unicode="&#x119;" horiz-adv-x="575" 
d="M550 210l-369 -1c6 -31 19 -55 38 -72s42 -25 69 -25c51 0 87 19 108 58l142 -29c-11 -23 -35 -54 -72 -93c-27 -27 -47 -50 -60 -69s-20 -39 -20 -60c0 -20 11 -30 32 -30c11 0 28 3 50 10l6 -85c-30 -19 -62 -29 -96 -29c-33 0 -59 8 -79 25s-30 39 -30 67
c0 37 13 73 40 108l-20 -1c-74 -4 -137 25 -188 75s-77 114 -77 192c0 77 26 141 77 191s114 75 188 75s136 -25 186 -75s75 -116 75 -198v-34zM182 307h205c-11 53 -44 79 -99 79c-23 0 -45 -7 -65 -21s-34 -33 -41 -58z" />
    <glyph glyph-name="Ecaron" unicode="&#x11a;" horiz-adv-x="625" 
d="M249 729l-115 155h154l41 -56l40 56h155l-116 -155h-159zM580 142v-142h-522v670h519v-142h-354v-126h325v-134h-325v-126h357z" />
    <glyph glyph-name="ecaron" unicode="&#x11b;" horiz-adv-x="575" 
d="M214 561l-115 155h154l41 -56l40 56h155l-116 -155h-159zM550 251l1 -43h-368c7 -30 20 -54 39 -71s42 -26 69 -26c50 0 86 19 107 58l142 -29c-21 -52 -53 -91 -96 -117s-94 -39 -153 -39c-74 0 -137 25 -188 75s-77 114 -77 192c0 77 26 141 77 191s114 75 189 75
c73 0 134 -24 183 -73s73 -113 75 -193zM292 385c-23 0 -45 -7 -65 -21s-34 -33 -41 -58h207c-7 26 -20 46 -38 59s-39 20 -63 20z" />
    <glyph glyph-name="Gbreve" unicode="&#x11e;" horiz-adv-x="778" 
d="M398 718h-3c-54 0 -97 14 -129 43s-48 67 -48 115h126c0 -15 5 -27 15 -37s22 -15 37 -15s28 5 38 15s15 22 15 37h126c0 -48 -16 -86 -48 -115s-75 -43 -129 -43zM367 395l368 -3c3 -21 4 -41 4 -60c0 -101 -33 -184 -98 -250s-148 -99 -249 -99s-186 34 -256 101
s-105 150 -105 249c0 98 35 181 104 249s154 102 255 102c77 0 145 -17 204 -52s100 -84 123 -148l-159 -46c-33 64 -89 96 -168 96c-55 0 -101 -19 -138 -57s-55 -85 -55 -142s19 -104 57 -142s85 -57 141 -57c43 0 80 11 111 32s53 50 66 87h-205v140z" />
    <glyph glyph-name="gbreve" unicode="&#x11f;" horiz-adv-x="634" 
d="M314 550h-3c-54 0 -97 14 -129 43s-48 67 -48 115h126c0 -15 5 -27 15 -37s22 -15 37 -15s28 5 38 15s15 22 15 37h126c0 -48 -16 -86 -48 -115s-75 -43 -129 -43zM572 502l2 -455c0 -75 -26 -134 -78 -176s-120 -63 -204 -63c-119 0 -203 40 -252 121l133 72
c19 -23 37 -39 54 -48s38 -13 63 -13c37 0 67 11 90 32s35 51 35 90v14c-37 -32 -87 -48 -150 -48c-67 0 -124 24 -171 71s-71 106 -71 176c0 69 24 127 71 173s104 69 171 69c63 0 113 -16 150 -48v33h157zM300 157l-2 -3c33 0 61 11 84 33s34 50 34 83s-11 60 -34 82
s-51 33 -84 33c-35 0 -64 -11 -86 -32s-33 -48 -33 -81s11 -60 34 -82s52 -33 87 -33z" />
    <glyph glyph-name="Gdotaccent" unicode="&#x120;" horiz-adv-x="778" 
d="M397 732v-2c-26 0 -47 8 -64 25s-25 38 -25 63c0 24 9 45 26 62s38 26 63 26s46 -8 63 -25s26 -37 26 -61c0 -25 -8 -46 -25 -63s-38 -25 -64 -25zM370 393l368 -3c3 -21 4 -41 4 -60c0 -101 -33 -184 -98 -250s-148 -99 -249 -99s-186 34 -256 101s-105 150 -105 249
c0 98 35 181 104 249s154 102 255 102c77 0 145 -17 204 -52s100 -84 123 -148l-159 -46c-33 64 -89 96 -168 96c-55 0 -101 -19 -138 -57s-55 -85 -55 -142s19 -104 57 -142s85 -57 141 -57c43 0 80 11 111 32s53 50 66 87h-205v140z" />
    <glyph glyph-name="gdotaccent" unicode="&#x121;" horiz-adv-x="634" 
d="M313 564v-2c-26 0 -47 8 -64 25s-25 38 -25 63c0 24 9 45 26 62s38 26 63 26s46 -8 63 -25s26 -37 26 -61c0 -25 -8 -46 -25 -63s-38 -25 -64 -25zM575 500l2 -455c0 -75 -26 -134 -78 -176s-120 -63 -204 -63c-119 0 -203 40 -252 121l133 72c19 -23 37 -39 54 -48
s38 -13 63 -13c37 0 67 11 90 32s35 51 35 90v14c-37 -32 -87 -48 -150 -48c-67 0 -124 24 -171 71s-71 106 -71 176c0 69 24 127 71 173s104 69 171 69c63 0 113 -16 150 -48v33h157zM303 155l-2 -3c33 0 61 11 84 33s34 50 34 83s-11 60 -34 82s-51 33 -84 33
c-35 0 -64 -11 -86 -32s-33 -48 -33 -81s11 -60 34 -82s52 -33 87 -33z" />
    <glyph glyph-name="Gcommaaccent" unicode="&#x122;" horiz-adv-x="778" 
d="M370 395l368 -3c3 -21 4 -41 4 -60c0 -101 -33 -184 -98 -250s-148 -99 -249 -99s-186 34 -256 101s-105 150 -105 249c0 98 35 181 104 249s154 102 255 102c77 0 145 -17 204 -52s100 -84 123 -148l-159 -46c-33 64 -89 96 -168 96c-55 0 -101 -19 -138 -57
s-55 -85 -55 -142s19 -104 57 -142s85 -57 141 -57c43 0 80 11 111 32s53 50 66 87h-205v140zM310 -48h162l-99 -157h-114z" />
    <glyph glyph-name="gcommaaccent" unicode="&#x123;" horiz-adv-x="633" 
d="M397 564h-162l99 157h114zM575 502l2 -455c0 -75 -26 -134 -78 -176s-120 -63 -204 -63c-119 0 -203 40 -252 121l133 72c19 -23 37 -39 54 -48s38 -13 63 -13c37 0 67 11 90 32s35 51 35 90v14c-37 -32 -87 -48 -150 -48c-67 0 -124 24 -171 71s-71 106 -71 176
c0 69 24 127 71 173s104 69 171 69c63 0 113 -16 150 -48v33h157zM303 157l-2 -3c33 0 61 11 84 33s34 50 34 83s-11 60 -34 82s-51 33 -84 33c-35 0 -64 -11 -86 -32s-33 -48 -33 -81s11 -60 34 -82s52 -33 87 -33z" />
    <glyph glyph-name="Hbar" unicode="&#x126;" horiz-adv-x="764" 
d="M738 439h-54v-439h-165v221h-277v-221h-164v439h-55v127h55v104h164v-104h277v104h165v-104h54v-127zM519 439h-277v-81h277v81z" />
    <glyph glyph-name="hbar" unicode="&#x127;" horiz-adv-x="637" 
d="M391 517l-2 -1c59 0 106 -19 142 -57s54 -88 54 -151v-308h-160v274c0 29 -8 53 -24 71s-37 27 -63 27c-33 0 -58 -11 -76 -34s-27 -58 -27 -105v-233h-159v556h-54v109h54v55h159v-55h132v-109h-132v-103c41 43 93 64 156 64z" />
    <glyph glyph-name="Imacron" unicode="&#x12a;" horiz-adv-x="281" 
d="M307 738h-332v124h332v-124zM223 0h-165v670h165v-670z" />
    <glyph glyph-name="imacron" unicode="&#x12b;" horiz-adv-x="297" 
d="M315 570h-332v124h332v-124zM228 0h-159v502h159v-502z" />
    <glyph glyph-name="Iogonek" unicode="&#x12e;" horiz-adv-x="281" 
d="M240 -100l4 -92c-31 -15 -62 -22 -93 -22c-30 0 -54 8 -73 24s-28 39 -28 68c0 43 22 83 67 120h-60v670h165v-670h-1c-4 -5 -9 -11 -16 -18s-12 -12 -14 -15s-5 -7 -10 -12s-8 -9 -9 -11s-3 -5 -5 -9s-3 -7 -4 -10s-1 -6 -1 -9c0 -16 9 -24 28 -24c11 0 28 3 50 10z" />
    <glyph glyph-name="iogonek" unicode="&#x12f;" horiz-adv-x="297" 
d="M148 564v-2c-26 0 -47 8 -64 25s-25 38 -25 63c0 24 9 45 26 62s38 26 63 26s46 -8 63 -25s26 -37 26 -61c0 -25 -8 -46 -25 -63s-38 -25 -64 -25zM246 -102l4 -92c-31 -15 -62 -22 -93 -22c-30 0 -54 8 -73 24s-28 39 -28 68c0 43 22 83 67 120h-55v502h159v-502
c-4 -5 -9 -11 -16 -18s-12 -12 -14 -15s-5 -7 -10 -12s-8 -9 -9 -11s-3 -5 -5 -9s-3 -7 -4 -10s-1 -6 -1 -9c0 -16 9 -24 28 -24c11 0 28 3 50 10z" />
    <glyph glyph-name="Idotaccent" unicode="&#x130;" horiz-adv-x="281" 
d="M140 907v-2c25 0 46 -8 63 -25s26 -37 26 -61c0 -25 -8 -46 -25 -63s-38 -25 -64 -25s-47 8 -64 25s-25 38 -25 63c0 24 9 45 26 62s38 26 63 26zM223 -2h-165v670h165v-670z" />
    <glyph glyph-name="IJ" unicode="&#x132;" horiz-adv-x="889" 
d="M58 670h165v-670h-165v670zM833 670l2 -429c0 -75 -25 -136 -75 -184s-115 -72 -196 -72c-75 0 -136 20 -183 61s-75 96 -85 165l160 32c3 -35 14 -62 33 -81s44 -29 75 -29s56 10 75 30s29 46 29 78v429h165z" />
    <glyph glyph-name="ij" unicode="&#x133;" horiz-adv-x="596" 
d="M146 741v-2c27 0 49 -9 67 -27s27 -39 27 -64s-9 -46 -27 -63s-40 -25 -67 -25s-49 9 -66 26s-26 38 -26 63s9 47 26 65s39 27 66 27zM449 739v-2c27 0 49 -9 67 -27s27 -39 27 -64s-9 -46 -27 -63s-40 -25 -67 -25s-49 9 -66 26s-26 38 -26 63s9 47 26 65s39 27 66 27z
M226 -4h-160v502h160v-502zM265 -163l24 126c17 -5 30 -8 39 -8c13 0 23 4 31 11s12 17 12 29v503h159v-521c0 -49 -14 -88 -43 -117s-68 -44 -117 -44c-35 0 -70 7 -105 21z" />
    <glyph glyph-name="Kcommaaccent" unicode="&#x136;" horiz-adv-x="690" 
d="M693 0h-216l-219 252h-35v-252h-165v670h165v-266h24l228 266h198l-285 -336zM260 -45h162l-99 -157h-114z" />
    <glyph glyph-name="kcommaaccent" unicode="&#x137;" horiz-adv-x="612" 
d="M615 0h-205l-163 181h-29v-181h-160v720h160v-389h22l159 171h193l-220 -239zM232 -45h162l-99 -157h-114z" />
    <glyph glyph-name="Lacute" unicode="&#x139;" horiz-adv-x="587" 
d="M214 735h-142l71 152h190zM553 144v-144h-495v670h165v-526h330z" />
    <glyph glyph-name="lacute" unicode="&#x13a;" horiz-adv-x="276" 
d="M212 785h-142l71 152h190zM218 0h-160v720h160v-720z" />
    <glyph glyph-name="Lcommaaccent" unicode="&#x13b;" horiz-adv-x="587" 
d="M553 144v-144h-495v670h165v-526h330zM221 -45h162l-99 -157h-114z" />
    <glyph glyph-name="lcommaaccent" unicode="&#x13c;" horiz-adv-x="276" 
d="M218 0h-160v720h160v-720zM8 -202l51 157h162l-99 -157h-114z" />
    <glyph glyph-name="Lcaron" unicode="&#x13d;" horiz-adv-x="587" 
d="M553 144v-144h-495v670h165v-526h330zM422 471h-115v199h150z" />
    <glyph glyph-name="lcaron" unicode="&#x13e;" horiz-adv-x="276" 
d="M218 0h-160v720h160v-720zM388 521h-115v199h150z" />
    <glyph glyph-name="Ldot" unicode="&#x13f;" horiz-adv-x="590" 
d="M553 144v-144h-495v670h165v-526h330zM415 271c-27 0 -49 8 -66 25s-25 38 -25 63c0 24 9 45 26 62s39 26 65 26c25 0 46 -9 63 -26s26 -38 26 -62c0 -25 -8 -46 -25 -63s-38 -25 -64 -25z" />
    <glyph glyph-name="ldot" unicode="&#x140;" horiz-adv-x="437" 
d="M218 0h-160v720h160v-720zM341 447c26 0 48 -9 65 -26s26 -38 26 -62c0 -25 -8 -46 -25 -63s-39 -25 -66 -25c-26 0 -47 8 -64 25s-25 38 -25 63c0 24 9 45 26 62s38 26 63 26z" />
    <glyph glyph-name="Nacute" unicode="&#x143;" horiz-adv-x="757" 
d="M454 735h-142l71 152h190zM698 670v-670h-136l-339 388v-388h-165v670h137l339 -400v400h164z" />
    <glyph glyph-name="nacute" unicode="&#x144;" horiz-adv-x="618" 
d="M385 567h-142l71 152h190zM372 517l-2 -1c59 0 106 -19 142 -57s54 -88 54 -151v-308h-159v274c0 29 -8 53 -24 71s-37 27 -62 27c-33 0 -58 -11 -76 -34s-27 -58 -27 -105v-233h-160v502h160v-48c40 42 91 63 154 63z" />
    <glyph glyph-name="Ncommaaccent" unicode="&#x145;" horiz-adv-x="757" 
d="M698 670v-670h-136l-339 388v-388h-165v670h137l339 -400v400h164zM318 -45h162l-99 -157h-114z" />
    <glyph glyph-name="ncommaaccent" unicode="&#x146;" horiz-adv-x="618" 
d="M372 517l-2 -1c59 0 106 -19 142 -57s54 -88 54 -151v-308h-159v274c0 29 -8 53 -24 71s-37 27 -62 27c-33 0 -58 -11 -76 -34s-27 -58 -27 -105v-233h-160v502h160v-48c40 42 91 63 154 63zM232 -46h162l-99 -157h-114z" />
    <glyph glyph-name="Ncaron" unicode="&#x147;" horiz-adv-x="757" 
d="M303 729l-115 155h154l41 -56l40 56h155l-116 -155h-159zM698 670v-670h-136l-339 388v-388h-165v670h137l339 -400v400h164z" />
    <glyph glyph-name="ncaron" unicode="&#x148;" horiz-adv-x="618" 
d="M233 561l-115 155h154l41 -56l40 56h155l-116 -155h-159zM372 517l-2 -1c59 0 106 -19 142 -57s54 -88 54 -151v-308h-159v274c0 29 -8 53 -24 71s-37 27 -62 27c-33 0 -58 -11 -76 -34s-27 -58 -27 -105v-233h-160v502h160v-48c40 42 91 63 154 63z" />
    <glyph glyph-name="Eng" unicode="&#x14a;" horiz-adv-x="743" 
d="M698 670l1 -693c0 -47 -15 -85 -44 -114s-68 -43 -116 -43c-38 0 -79 8 -124 23l22 112c31 -6 51 -9 60 -9c28 0 42 12 42 37v43l-316 362v-388h-165v670h137l339 -400v400h164z" />
    <glyph glyph-name="eng" unicode="&#x14b;" horiz-adv-x="619" 
d="M372 517h-1c59 0 106 -19 142 -57s54 -88 54 -151v-332c0 -47 -15 -85 -44 -114s-68 -43 -116 -43c-38 0 -79 8 -124 23l22 112c31 -6 51 -9 60 -9c28 0 42 12 42 37v291c0 29 -8 53 -24 71s-37 27 -62 27c-33 0 -58 -11 -76 -34s-27 -58 -27 -105v-233h-160v502h160v-48
c40 42 91 63 154 63z" />
    <glyph glyph-name="Omacron" unicode="&#x14c;" horiz-adv-x="784" 
d="M558 738h-332v124h332v-124zM392 685l-4 -1c100 0 185 -34 254 -102s104 -151 104 -249c0 -97 -34 -179 -103 -247s-153 -102 -253 -102s-184 34 -253 102s-103 151 -103 248c0 98 35 181 104 249s154 102 254 102zM388 135c55 0 101 19 138 57s55 85 55 142
s-18 105 -55 143s-83 57 -138 57s-101 -19 -138 -57s-55 -86 -55 -143s18 -104 55 -142s83 -57 138 -57z" />
    <glyph glyph-name="omacron" unicode="&#x14d;" horiz-adv-x="603" 
d="M469 570h-332v124h332v-124zM303 515c77 0 142 -25 195 -74s80 -112 80 -189c0 -78 -27 -142 -80 -191s-118 -74 -195 -74c-78 0 -144 25 -198 74s-81 113 -81 191c0 77 27 140 81 189s120 74 198 74zM303 121c33 0 61 12 85 36s36 55 36 93s-12 69 -36 93s-52 36 -84 36
c-33 0 -62 -12 -87 -36s-37 -55 -37 -93s12 -69 36 -93s53 -36 87 -36z" />
    <glyph glyph-name="Ohungarumlaut" unicode="&#x150;" horiz-adv-x="784" 
d="M356 735h-137l74 152h180zM420 735l74 152h183l-121 -152h-136zM392 685l-4 -1c100 0 185 -34 254 -102s104 -151 104 -249c0 -97 -34 -179 -103 -247s-153 -102 -253 -102s-184 34 -253 102s-103 151 -103 248c0 98 35 181 104 249s154 102 254 102zM388 135
c55 0 101 19 138 57s55 85 55 142s-18 105 -55 143s-83 57 -138 57s-101 -19 -138 -57s-55 -86 -55 -143s18 -104 55 -142s83 -57 138 -57z" />
    <glyph glyph-name="ohungarumlaut" unicode="&#x151;" horiz-adv-x="603" 
d="M267 567h-137l74 152h180zM331 567l74 152h183l-121 -152h-136zM303 515c77 0 142 -25 195 -74s80 -112 80 -189c0 -78 -27 -142 -80 -191s-118 -74 -195 -74c-78 0 -144 25 -198 74s-81 113 -81 191c0 77 27 140 81 189s120 74 198 74zM303 121c33 0 61 12 85 36
s36 55 36 93s-12 69 -36 93s-52 36 -84 36c-33 0 -62 -12 -87 -36s-37 -55 -37 -93s12 -69 36 -93s53 -36 87 -36z" />
    <glyph glyph-name="Racute" unicode="&#x154;" horiz-adv-x="679" 
d="M403 735h-142l71 152h190zM672 0h-199l-202 230h-48v-230h-165v670h339c73 0 131 -20 175 -60s66 -93 66 -158c0 -55 -16 -101 -47 -139s-74 -63 -129 -75zM223 368l155 -1c29 0 53 7 71 22s27 35 27 60c0 24 -9 43 -27 58s-41 22 -70 22h-156v-161z" />
    <glyph glyph-name="racute" unicode="&#x155;" horiz-adv-x="437" 
d="M306 567h-142l71 152h190zM391 509c13 0 25 -1 36 -4l-7 -160h-29c-115 0 -173 -63 -173 -188v-157h-160v502h160v-96c41 69 99 103 173 103z" />
    <glyph glyph-name="Rcommaaccent" unicode="&#x156;" horiz-adv-x="679" 
d="M672 0h-199l-202 230h-48v-230h-165v670h339c73 0 131 -20 175 -60s66 -93 66 -158c0 -55 -16 -101 -47 -139s-74 -63 -129 -75zM223 368l155 -1c29 0 53 7 71 22s27 35 27 60c0 24 -9 43 -27 58s-41 22 -70 22h-156v-161zM268 -46h162l-99 -157h-114z" />
    <glyph glyph-name="rcommaaccent" unicode="&#x157;" horiz-adv-x="437" 
d="M391 509c13 0 25 -1 36 -4l-7 -160h-29c-115 0 -173 -63 -173 -188v-157h-160v502h160v-96c41 69 99 103 173 103zM59 -45h162l-99 -157h-114z" />
    <glyph glyph-name="Rcaron" unicode="&#x158;" horiz-adv-x="679" 
d="M252 729l-115 155h154l41 -56l40 56h155l-116 -155h-159zM672 0h-199l-202 230h-48v-230h-165v670h339c73 0 131 -20 175 -60s66 -93 66 -158c0 -55 -16 -101 -47 -139s-74 -63 -129 -75zM223 368l155 -1c29 0 53 7 71 22s27 35 27 60c0 24 -9 43 -27 58s-41 22 -70 22
h-156v-161z" />
    <glyph glyph-name="rcaron" unicode="&#x159;" horiz-adv-x="437" 
d="M154 561l-115 155h154l41 -56l40 56h155l-116 -155h-159zM218 502v-96c41 69 99 103 173 103c13 0 25 -1 36 -4l-7 -160h-29c-115 0 -173 -63 -173 -188v-157h-160v502h160z" />
    <glyph glyph-name="Sacute" unicode="&#x15a;" horiz-adv-x="646" 
d="M402 735h-142l71 152h190zM321 685v-3c73 0 134 -17 183 -51s80 -81 93 -142l-162 -33c-6 30 -20 53 -42 69s-47 24 -75 24c-27 0 -49 -6 -66 -19s-25 -29 -25 -48c0 -29 18 -48 54 -56l139 -31c123 -27 184 -92 184 -195c0 -69 -26 -122 -79 -160s-119 -57 -198 -57
c-78 0 -144 18 -198 54s-85 86 -94 150l170 33c16 -66 60 -99 132 -99c31 0 55 6 73 19s27 30 27 51c0 16 -4 29 -13 38s-25 16 -48 21l-140 30c-120 26 -180 92 -180 194c0 65 24 116 73 154s113 57 192 57z" />
    <glyph glyph-name="sacute" unicode="&#x15b;" horiz-adv-x="515" 
d="M335 567h-142l71 152h190zM24 131l153 31c7 -39 37 -59 90 -59c20 0 36 4 48 12s18 18 18 29c0 19 -17 31 -50 37l-102 20c-97 19 -146 67 -146 146c0 51 20 92 60 123s92 47 156 47c61 0 112 -13 152 -39s65 -61 75 -105l-146 -29c-3 17 -12 31 -27 42s-34 17 -57 17
c-20 0 -34 -4 -43 -12s-13 -17 -13 -28c0 -18 13 -30 38 -35l118 -24c46 -9 81 -28 104 -54s35 -58 35 -96c0 -54 -21 -96 -63 -125s-97 -44 -165 -44c-63 0 -116 12 -159 36s-68 61 -76 110z" />
    <glyph glyph-name="Scedilla" unicode="&#x15e;" horiz-adv-x="646" 
d="M606 202l-1 -2c0 -59 -20 -107 -60 -144s-92 -60 -156 -69l-46 -149h-166l93 149c-63 8 -116 29 -158 64s-67 80 -75 135l170 33c16 -66 60 -99 132 -99c31 0 55 6 73 19s27 30 27 51c0 16 -4 29 -13 38s-25 16 -48 21l-140 30c-120 26 -180 92 -180 194
c0 65 24 116 73 154s113 57 192 57c73 0 134 -17 183 -51s80 -81 93 -142l-162 -33c-6 30 -20 53 -42 69s-47 24 -75 24c-27 0 -49 -6 -66 -19s-25 -29 -25 -48c0 -29 18 -48 54 -56l139 -31c123 -27 184 -92 184 -195z" />
    <glyph glyph-name="scedilla" unicode="&#x15f;" horiz-adv-x="515" 
d="M488 154l-2 -2c0 -44 -14 -80 -43 -108s-68 -46 -117 -55l-46 -151h-166l92 148c-50 6 -91 21 -124 45s-53 57 -60 99l156 32c7 -39 37 -59 90 -59c20 0 36 4 48 12s18 18 18 29c0 19 -17 31 -50 37l-102 20c-97 19 -146 67 -146 146c0 51 20 92 60 123s92 47 156 47
c61 0 112 -13 152 -39s65 -61 75 -105l-146 -29c-3 17 -12 31 -27 42s-34 17 -57 17c-20 0 -34 -4 -43 -12s-13 -17 -13 -28c0 -18 13 -30 38 -35l118 -24c46 -9 81 -28 104 -54s35 -58 35 -96z" />
    <glyph glyph-name="tcedilla" unicode="&#x163;" horiz-adv-x="433" 
d="M393 148l38 -126c-38 -20 -74 -32 -107 -35l-45 -146h-166l98 156c-78 27 -117 90 -117 188v190h-91v127h91v148h160v-148h148v-127h-148v-174c0 -49 22 -73 67 -73c25 0 49 7 72 20z" />
    <glyph glyph-name="Tcaron" unicode="&#x164;" horiz-adv-x="638" 
d="M240 729l-115 155h154l41 -56l40 56h155l-116 -155h-159zM618 526h-217v-526h-164v526h-217v144h598v-144z" />
    <glyph glyph-name="tcaron" unicode="&#x165;" horiz-adv-x="433" 
d="M411 536h-115v199h150zM320 128c25 0 49 7 72 20l37 -126c-46 -25 -92 -37 -137 -37c-63 0 -112 17 -147 51s-52 84 -52 149v190h-91v127h91v148h160v-148h148v-127h-148v-174c0 -49 22 -73 67 -73z" />
    <glyph glyph-name="Tbar" unicode="&#x166;" horiz-adv-x="638" 
d="M401 526v-135h114v-131h-114v-260h-164v260h-114v131h114v135h-217v144h598v-144h-217z" />
    <glyph glyph-name="tbar" unicode="&#x167;" horiz-adv-x="433" 
d="M394 152l21 -133c-39 -23 -81 -34 -127 -34c-63 0 -112 17 -147 51s-52 84 -52 149v45h-70v112h70v43h-87v117h87v148h159v-148h149v-117h-149v-43h103v-112h-103v-29c0 -49 22 -73 67 -73c25 0 51 8 79 24z" />
    <glyph glyph-name="Umacron" unicode="&#x16a;" horiz-adv-x="713" 
d="M522 738h-332v124h332v-124zM657 670l-1 -368c0 -96 -27 -173 -81 -231s-126 -87 -215 -87c-91 0 -164 29 -220 87s-84 135 -84 231v368h165v-368c0 -51 13 -91 38 -121s59 -45 101 -45c40 0 72 15 96 45s36 70 36 121v368h165z" />
    <glyph glyph-name="umacron" unicode="&#x16b;" horiz-adv-x="618" 
d="M473 570h-332v124h332v-124zM560 502l1 -503h-160v48c-40 -42 -91 -63 -154 -63c-59 0 -106 19 -142 57s-54 89 -54 152v308h159v-274c0 -29 8 -53 24 -71s37 -27 62 -27c33 0 59 12 77 35s27 58 27 105v233h160z" />
    <glyph glyph-name="Uring" unicode="&#x16e;" horiz-adv-x="713" 
d="M356 711c-35 0 -65 12 -89 36s-36 53 -36 87c0 35 12 64 36 88s54 36 89 36s65 -12 89 -36s36 -53 36 -88c0 -34 -12 -63 -36 -87s-54 -36 -89 -36zM356 873v-1c-11 0 -21 -4 -29 -12s-12 -17 -12 -28s4 -20 12 -28s18 -12 29 -12s21 4 29 12s12 17 12 28s-4 21 -12 29
s-18 12 -29 12zM657 669l-1 -368c0 -96 -27 -173 -81 -231s-126 -87 -215 -87c-91 0 -164 29 -220 87s-84 135 -84 231v368h165v-368c0 -51 13 -91 38 -121s59 -45 101 -45c40 0 72 15 96 45s36 70 36 121v368h165z" />
    <glyph glyph-name="uring" unicode="&#x16f;" horiz-adv-x="618" 
d="M307 543c-35 0 -65 12 -89 36s-36 53 -36 87c0 35 12 64 36 88s54 36 89 36s65 -12 89 -36s36 -53 36 -88c0 -34 -12 -63 -36 -87s-54 -36 -89 -36zM307 705v-1c-11 0 -21 -4 -29 -12s-12 -17 -12 -28s4 -20 12 -28s18 -12 29 -12s21 4 29 12s12 17 12 28s-4 21 -12 29
s-18 12 -29 12zM560 501l1 -503h-160v48c-40 -42 -91 -63 -154 -63c-59 0 -106 19 -142 57s-54 89 -54 152v308h159v-274c0 -29 8 -53 24 -71s37 -27 62 -27c33 0 59 12 77 35s27 58 27 105v233h160z" />
    <glyph glyph-name="Uhungarumlaut" unicode="&#x170;" horiz-adv-x="713" 
d="M320 735h-137l74 152h180zM384 735l74 152h183l-121 -152h-136zM657 670l-1 -368c0 -96 -27 -173 -81 -231s-126 -87 -215 -87c-91 0 -164 29 -220 87s-84 135 -84 231v368h165v-368c0 -51 13 -91 38 -121s59 -45 101 -45c40 0 72 15 96 45s36 70 36 121v368h165z" />
    <glyph glyph-name="uhungarumlaut" unicode="&#x171;" horiz-adv-x="618" 
d="M271 567h-137l74 152h180zM335 567l74 152h183l-121 -152h-136zM400 502l161 -1v-502h-160v48c-40 -42 -91 -63 -154 -63c-59 0 -106 19 -142 57s-54 89 -54 152v308h159v-274c0 -29 8 -53 24 -71s37 -27 62 -27c33 0 59 12 77 35s27 58 27 105v233z" />
    <glyph glyph-name="Uogonek" unicode="&#x172;" horiz-adv-x="713" 
d="M556 52c-22 -21 -38 -36 -47 -46s-18 -22 -26 -37s-12 -30 -12 -45c0 -20 10 -30 31 -30c9 0 28 5 56 14l25 -93c-42 -22 -83 -33 -124 -33c-32 0 -58 9 -79 27s-31 41 -31 69c0 39 16 75 47 109c-15 -1 -27 -2 -36 -2c-91 0 -164 28 -220 84s-84 131 -84 224v377h165
v-377c0 -48 13 -86 38 -114s59 -42 101 -42c40 0 72 14 96 42s36 66 36 114v377h165v-377c0 -99 -34 -179 -101 -241z" />
    <glyph glyph-name="uogonek" unicode="&#x173;" horiz-adv-x="618" 
d="M578 -100l5 -93c-31 -15 -62 -22 -93 -22c-30 0 -54 8 -73 24s-28 39 -28 68c0 43 22 83 67 120h-56v48c-40 -42 -91 -63 -154 -63c-59 0 -106 19 -142 57s-54 89 -54 152v308h159v-274c0 -29 8 -53 24 -71s37 -27 62 -27c33 0 59 12 77 35s27 58 27 105v233h160v-502
c-4 -5 -9 -11 -16 -18s-12 -12 -14 -15s-5 -7 -10 -12s-8 -9 -9 -11s-3 -5 -5 -9s-3 -7 -4 -10s-1 -6 -1 -9c0 -16 9 -24 28 -24c11 0 28 3 50 10z" />
    <glyph glyph-name="Wcircumflex" unicode="&#x174;" horiz-adv-x="973" 
d="M446 729h-154l115 155h159l116 -155h-155l-40 56zM967 670l-191 -670h-177l-112 414l-113 -414h-176l-191 670h169l117 -422l115 422h157l115 -422l117 422h170z" />
    <glyph glyph-name="wcircumflex" unicode="&#x175;" horiz-adv-x="795" 
d="M358 561h-154l115 155h159l116 -155h-155l-40 56zM788 502l-161 -503h-139l-90 272l-91 -272h-139l-161 503h157l82 -270l95 270h113l95 -271l82 271h157z" />
    <glyph glyph-name="Ycircumflex" unicode="&#x176;" horiz-adv-x="706" 
d="M312 729h-154l115 155h159l116 -155h-155l-40 56zM434 210v-210h-168v208l-259 462h180l165 -294l163 294h184z" />
    <glyph glyph-name="ycircumflex" unicode="&#x177;" horiz-adv-x="604" 
d="M255 562h-154l115 155h159l116 -155h-155l-40 56zM597 503l-290 -673h-173l81 187l-208 486h172l119 -293l127 293h172z" />
    <glyph glyph-name="Zacute" unicode="&#x179;" horiz-adv-x="635" 
d="M393 735h-142l71 152h190zM597 139v-139h-556v106l338 425h-328v139h538v-126l-313 -405h321z" />
    <glyph glyph-name="zacute" unicode="&#x17a;" horiz-adv-x="538" 
d="M345 567h-142l71 152h190zM501 127v-127h-464v103l252 272h-246v127h449v-105l-252 -270h261z" />
    <glyph glyph-name="Zdotaccent" unicode="&#x17b;" horiz-adv-x="635" 
d="M320 732v-2c-26 0 -47 8 -64 25s-25 38 -25 63c0 24 9 45 26 62s38 26 63 26s46 -8 63 -25s26 -37 26 -61c0 -25 -8 -46 -25 -63s-38 -25 -64 -25zM597 137v-139h-556v106l338 425h-328v139h538v-126l-313 -405h321z" />
    <glyph glyph-name="zdotaccent" unicode="&#x17c;" horiz-adv-x="538" 
d="M272 564v-2c-26 0 -47 8 -64 25s-25 38 -25 63c0 24 9 45 26 62s38 26 63 26s46 -8 63 -25s26 -37 26 -61c0 -25 -8 -46 -25 -63s-38 -25 -64 -25zM501 125v-127h-464v103l252 272h-246v127h449v-105l-252 -270h261z" />
    <glyph glyph-name="AEacute" unicode="&#x1fc;" horiz-adv-x="1046" 
d="M737 735h-142l71 152h190zM1007 142v-142h-521v109h-229l-65 -109h-192l429 670h575v-142h-354v-126h326v-134h-326v-126h357zM486 251v241l-144 -241h144z" />
    <glyph glyph-name="aeacute" unicode="&#x1fd;" horiz-adv-x="896" 
d="M515 567h-142l71 152h190zM871 204l-367 1c16 -61 53 -91 112 -91c47 0 80 19 100 58l140 -29c-13 -47 -42 -85 -87 -114s-97 -43 -156 -43c-73 0 -135 24 -186 71c-50 -47 -117 -71 -201 -71c-65 0 -115 15 -150 44s-53 68 -53 117s18 87 54 113s88 39 155 39h127v23
c0 22 -7 40 -21 53s-33 20 -56 20c-22 0 -40 -6 -54 -17s-22 -27 -25 -48l-148 30c7 47 31 85 71 114s92 44 156 44c70 0 126 -18 167 -53c47 35 101 53 162 53c75 0 137 -25 186 -75s74 -116 74 -199v-40zM504 299h209c-6 30 -18 53 -36 68s-39 23 -64 23
c-27 0 -50 -8 -70 -24s-33 -38 -39 -67zM359 203l-109 1c-46 0 -69 -16 -69 -47c0 -16 6 -29 19 -39s30 -15 51 -15c28 0 53 8 75 25s33 37 33 60v15z" />
    <glyph glyph-name="Scommaaccent" unicode="&#x218;" horiz-adv-x="646" 
d="M321 685v-3c73 0 134 -17 183 -51s80 -81 93 -142l-162 -33c-6 30 -20 53 -42 69s-47 24 -75 24c-27 0 -49 -6 -66 -19s-25 -29 -25 -48c0 -29 18 -48 54 -56l139 -31c123 -27 184 -92 184 -195c0 -69 -26 -122 -79 -160s-119 -57 -198 -57c-78 0 -144 18 -198 54
s-85 86 -94 150l170 33c16 -66 60 -99 132 -99c31 0 55 6 73 19s27 30 27 51c0 16 -4 29 -13 38s-25 16 -48 21l-140 30c-120 26 -180 92 -180 194c0 65 24 116 73 154s113 57 192 57zM199 -205l51 157h162l-99 -157h-114z" />
    <glyph glyph-name="scommaaccent" unicode="&#x219;" horiz-adv-x="515" 
d="M24 131l153 31c7 -39 37 -59 90 -59c20 0 36 4 48 12s18 18 18 29c0 19 -17 31 -50 37l-102 20c-97 19 -146 67 -146 146c0 51 20 92 60 123s92 47 156 47c61 0 112 -13 152 -39s65 -61 75 -105l-146 -29c-3 17 -12 31 -27 42s-34 17 -57 17c-20 0 -34 -4 -43 -12
s-13 -17 -13 -28c0 -18 13 -30 38 -35l118 -24c46 -9 81 -28 104 -54s35 -58 35 -96c0 -54 -21 -96 -63 -125s-97 -44 -165 -44c-63 0 -116 12 -159 36s-68 61 -76 110zM135 -203l51 157h162l-99 -157h-114z" />
    <glyph glyph-name="uni021A" unicode="&#x21a;" horiz-adv-x="638" 
d="M618 670v-144h-217v-526h-164v526h-217v144h598zM243 -45h162l-99 -157h-114z" />
    <glyph glyph-name="uni021B" unicode="&#x21b;" horiz-adv-x="433" 
d="M293 -15c-63 0 -112 17 -147 51s-52 84 -52 149v190h-91v127h91v148h160v-148h148v-127h-148v-174c0 -49 22 -73 67 -73c25 0 49 7 72 20l37 -126c-46 -25 -92 -37 -137 -37zM184 -44h162l-99 -157h-114z" />
    <glyph glyph-name="uni0326" unicode="&#x326;" horiz-adv-x="0" 
d="M186 -202l51 157h162l-99 -157h-114z" />
    <glyph glyph-name="Wgrave" unicode="&#x1e80;" horiz-adv-x="973" 
d="M418 735l-119 152h190l71 -152h-142zM967 670l-191 -670h-177l-112 414l-113 -414h-176l-191 670h169l117 -422l115 422h157l115 -422l117 422h170z" />
    <glyph glyph-name="wgrave" unicode="&#x1e81;" horiz-adv-x="795" 
d="M329 567l-119 152h190l71 -152h-142zM788 502l-161 -503h-139l-90 272l-91 -272h-139l-161 503h157l82 -270l95 270h113l95 -271l82 271h157z" />
    <glyph glyph-name="Wacute" unicode="&#x1e82;" horiz-adv-x="973" 
d="M559 735h-142l71 152h190zM967 670l-191 -670h-177l-112 414l-113 -414h-176l-191 670h169l117 -422l115 422h157l115 -422l117 422h170z" />
    <glyph glyph-name="wacute" unicode="&#x1e83;" horiz-adv-x="795" 
d="M470 567h-142l71 152h190zM788 502l-161 -503h-139l-90 272l-91 -272h-139l-161 503h157l82 -270l95 270h113l95 -271l82 271h157z" />
    <glyph glyph-name="Wdieresis" unicode="&#x1e84;" horiz-adv-x="973" 
d="M373 724c-26 0 -47 8 -64 24s-25 37 -25 62c0 24 9 45 26 62s38 26 63 26s46 -9 63 -26s26 -38 26 -62c0 -25 -8 -46 -25 -62s-38 -24 -64 -24zM601 724c-26 0 -47 8 -64 24s-25 37 -25 62c0 24 9 45 26 62s38 26 63 26s46 -9 63 -26s26 -38 26 -62c0 -25 -8 -46 -25 -62
s-38 -24 -64 -24zM967 670l-191 -670h-177l-112 414l-113 -414h-176l-191 670h169l117 -422l115 422h157l115 -422l117 422h170z" />
    <glyph glyph-name="wdieresis" unicode="&#x1e85;" horiz-adv-x="795" 
d="M284 556c-26 0 -47 8 -64 24s-25 37 -25 62c0 24 9 45 26 62s38 26 63 26s46 -9 63 -26s26 -38 26 -62c0 -25 -8 -46 -25 -62s-38 -24 -64 -24zM512 556c-26 0 -47 8 -64 24s-25 37 -25 62c0 24 9 45 26 62s38 26 63 26s46 -9 63 -26s26 -38 26 -62c0 -25 -8 -46 -25 -62
s-38 -24 -64 -24zM788 502l-161 -503h-139l-90 272l-91 -272h-139l-161 503h157l82 -270l95 270h113l95 -271l82 271h157z" />
    <glyph glyph-name="Ygrave" unicode="&#x1ef2;" horiz-adv-x="706" 
d="M284 735l-119 152h190l71 -152h-142zM434 210v-210h-168v208l-259 462h180l165 -294l163 294h184z" />
    <glyph glyph-name="ygrave" unicode="&#x1ef3;" horiz-adv-x="604" 
d="M226 568l-119 152h190l71 -152h-142zM597 503l-290 -673h-173l81 187l-208 486h172l119 -293l127 293h172z" />
    <glyph glyph-name="uni2116" unicode="&#x2116;" horiz-adv-x="1198" 
d="M954 331v-2c-51 0 -94 16 -130 49s-54 75 -54 126s18 93 54 126s79 49 130 49c52 0 96 -16 132 -49s54 -75 54 -126s-18 -93 -54 -125s-80 -48 -132 -48zM534 668h164v-670h-136l-339 388v-388h-165v670h137l339 -400v400zM954 571l-2 -1c-18 0 -33 -6 -45 -19
s-18 -29 -18 -48s6 -35 19 -48s28 -19 45 -19c19 0 35 6 48 19s20 29 20 48s-6 35 -19 48s-29 20 -48 20zM777 282h353v-120h-353v120z" />
    <glyph glyph-name="uni2117" unicode="&#x2117;" horiz-adv-x="756" 
d="M376 685c97 0 180 -33 248 -100s102 -151 102 -252c0 -100 -34 -183 -102 -249s-151 -99 -248 -99s-180 33 -248 99s-102 149 -102 249c0 101 34 185 102 252s151 100 248 100zM376 42v1c80 0 148 28 204 83s84 125 84 209s-28 154 -84 210s-124 84 -204 84
s-148 -28 -204 -84s-84 -126 -84 -211c0 -84 28 -154 84 -209s124 -83 204 -83zM242 517l175 1c45 0 80 -12 105 -36s38 -55 38 -93c0 -40 -13 -72 -40 -96s-63 -36 -108 -36h-76v-104h-94v364zM337 337l69 -2c19 -1 34 5 45 15s17 23 17 38s-5 27 -16 36s-26 14 -45 14h-70
v-101z" />
    <glyph glyph-name="arrowleft" unicode="&#x2190;" horiz-adv-x="727" 
d="M687 250h-394l154 -155l-104 -104l-333 333l334 334l104 -105l-155 -155h394v-148z" />
    <glyph glyph-name="arrowup" unicode="&#x2191;" horiz-adv-x="747" 
d="M603 240l-155 154v-394h-148v394l-155 -155l-105 104l334 334l333 -333z" />
    <glyph glyph-name="arrowright" unicode="&#x2192;" horiz-adv-x="727" 
d="M717 324l-333 -333l-104 104l154 155h-394v148h394l-155 155l104 105z" />
    <glyph glyph-name="arrowdown" unicode="&#x2193;" horiz-adv-x="747" 
d="M707 326l-333 -333l-334 334l105 104l155 -155v394h148v-394l155 154z" />
    <glyph glyph-name="uni2196" unicode="&#x2196;" horiz-adv-x="748" 
d="M599 -9l-421 423v-236h-148v492h491l-1 -148h-234l422 -422z" />
    <glyph glyph-name="uni2197" unicode="&#x2197;" horiz-adv-x="747" 
d="M717 670v-492h-148v235l-421 -422l-109 109l422 422h-234l-1 148h491z" />
    <glyph glyph-name="uni2198" unicode="&#x2198;" horiz-adv-x="748" 
d="M718 492v-492h-491l1 148h234l-422 422l109 109l421 -422v235h148z" />
    <glyph glyph-name="uni2199" unicode="&#x2199;" horiz-adv-x="748" 
d="M520 148l1 -148h-491v492h148v-236l421 423l109 -109l-422 -422h234z" />
    <glyph glyph-name="approxequal" unicode="&#x2248;" horiz-adv-x="572" 
d="M522 460v-121c-29 -14 -64 -21 -105 -21c-36 0 -77 8 -124 24s-87 24 -121 24c-54 0 -94 -10 -121 -29v119c27 21 67 31 120 31c35 0 77 -8 125 -24s89 -24 122 -24c43 0 78 7 104 21zM522 302l-1 -119c-31 -15 -66 -22 -106 -22c-36 0 -77 8 -124 24s-87 24 -121 24
c-53 0 -93 -10 -121 -29v118c29 21 69 32 121 32c35 0 77 -8 125 -24s89 -24 122 -24c43 0 78 7 105 20z" />
    <glyph glyph-name="notequal" unicode="&#x2260;" horiz-adv-x="573" 
d="M369 351l-39 -71h193v-127h-262l-42 -77h-123l42 77h-88v127h157l39 71h-196v127h265l40 74h123l-40 -74h85v-127h-154z" />
    <glyph glyph-name="lessequal" unicode="&#x2264;" horiz-adv-x="457" 
d="M419 216l-387 114v150l387 114v-143l-233 -46l233 -49v-140zM419 200v-130h-387v130h387z" />
    <glyph glyph-name="greaterequal" unicode="&#x2265;" horiz-adv-x="457" 
d="M273 405l-233 46v143l387 -114v-150l-387 -114v140zM427 70h-387v130h387v-130z" />
    <glyph glyph-name=".null" horiz-adv-x="0" 
 />
    <glyph glyph-name="nonmarkingreturn" horiz-adv-x="333" 
 />
    <glyph glyph-name="K.ss03" horiz-adv-x="714" 
d="M717 0h-200l-176 256l-118 -141v-115h-165v670h165v-331l279 331h187l-241 -287z" />
    <glyph glyph-name="Kcommaaccent.ss03" horiz-adv-x="714" 
d="M717 0h-200l-176 256l-118 -141v-115h-165v670h165v-331l279 331h187l-241 -287zM290 -45h162l-99 -157h-114z" />
    <glyph glyph-name="Q.ss04" horiz-adv-x="784" 
d="M571 -170l-122 159c-21 -3 -41 -5 -60 -5c-100 0 -184 34 -253 102s-103 151 -103 248c0 98 35 181 104 249s154 102 254 102s185 -34 254 -102s104 -151 104 -249c0 -55 -12 -107 -36 -155s-57 -88 -100 -121l174 -228h-216zM197 333c0 -57 18 -104 55 -142
s83 -57 138 -57s101 19 138 57s55 85 55 142s-18 105 -55 143s-83 57 -138 57s-101 -19 -138 -57s-55 -86 -55 -143z" />
    <glyph glyph-name="I.ss05" horiz-adv-x="458" 
d="M311 526v-382h127v-144h-418v144h127v382h-127v144h418v-144h-127z" />
    <glyph glyph-name="IJ.ss05" horiz-adv-x="1066" 
d="M438 670v-144h-127v-382h127v-144h-418v144h127v382h-127v144h418zM1010 670l2 -429c0 -75 -25 -136 -75 -184s-115 -72 -196 -72c-75 0 -136 20 -183 61s-75 96 -85 165l160 32c3 -35 14 -62 33 -81s44 -29 75 -29s56 10 75 30s29 46 29 78v285h-207v144h372z" />
    <glyph glyph-name="Iacute.ss05" horiz-adv-x="458" 
d="M301 735h-142l71 152h190zM311 526v-382h127v-144h-418v144h127v382h-127v144h418v-144h-127z" />
    <glyph glyph-name="Icircumflex.ss05" horiz-adv-x="458" 
d="M189 729h-154l115 155h159l116 -155h-155l-40 56zM311 526v-382h127v-144h-418v144h127v382h-127v144h418v-144h-127z" />
    <glyph glyph-name="Idieresis.ss05" horiz-adv-x="458" 
d="M115 724c-26 0 -47 8 -64 24s-25 37 -25 62c0 24 9 45 26 62s38 26 63 26s46 -9 63 -26s26 -38 26 -62c0 -25 -8 -46 -25 -62s-38 -24 -64 -24zM343 724c-26 0 -47 8 -64 24s-25 37 -25 62c0 24 9 45 26 62s38 26 63 26s46 -9 63 -26s26 -38 26 -62c0 -25 -8 -46 -25 -62
s-38 -24 -64 -24zM311 526v-382h127v-144h-418v144h127v382h-127v144h418v-144h-127z" />
    <glyph glyph-name="Idotaccent.ss05" horiz-adv-x="458" 
d="M228 732v-2c-26 0 -47 8 -64 25s-25 38 -25 63c0 24 9 45 26 62s38 26 63 26s46 -8 63 -25s26 -37 26 -61c0 -25 -8 -46 -25 -63s-38 -25 -64 -25zM311 524v-382h127v-144h-418v144h127v382h-127v144h418v-144h-127z" />
    <glyph glyph-name="Igrave.ss05" horiz-adv-x="458" 
d="M160 735l-119 152h190l71 -152h-142zM311 526v-382h127v-144h-418v144h127v382h-127v144h418v-144h-127z" />
    <glyph glyph-name="Imacron.ss05" horiz-adv-x="458" 
d="M395 738h-332v124h332v-124zM311 526v-382h127v-144h-418v144h127v382h-127v144h418v-144h-127z" />
    <glyph glyph-name="Iogonek.ss05" horiz-adv-x="458" 
d="M311 526l-2 -383h127v-144h-127c-4 -5 -9 -11 -16 -18s-12 -12 -14 -15s-5 -7 -10 -12s-8 -9 -9 -11s-3 -5 -5 -9s-3 -7 -4 -10s-1 -6 -1 -9c0 -16 9 -24 28 -24c11 0 28 3 50 10l6 -91c-31 -15 -62 -22 -93 -22c-30 0 -54 8 -73 24s-28 39 -28 68c0 43 22 83 67 120
h-187v144h127v382h-127v144h418v-144h-127z" />
    <glyph glyph-name="J.ss05" horiz-adv-x="608" 
d="M552 670l2 -429c0 -75 -25 -136 -75 -184s-115 -72 -196 -72c-75 0 -136 20 -183 61s-75 96 -85 165l160 32c3 -35 14 -62 33 -81s44 -29 75 -29s56 10 75 30s29 46 29 78v285h-207v144h372z" />
    <glyph glyph-name="i.loclTRK" horiz-adv-x="297" 
d="M148 739v-2c25 0 46 -8 63 -25s26 -37 26 -61c0 -25 -8 -46 -25 -63s-38 -25 -64 -25s-47 8 -64 25s-25 38 -25 63c0 24 9 45 26 62s38 26 63 26zM228 -2h-159v502h159v-502z" />
    <glyph glyph-name="germandbls.case" horiz-adv-x="1276" 
d="M321 685v-3c73 0 134 -17 183 -51s80 -81 93 -142l-162 -33c-6 30 -20 53 -42 69s-47 24 -75 24c-27 0 -49 -6 -66 -19s-25 -29 -25 -48c0 -29 18 -48 54 -56l139 -31c123 -27 184 -92 184 -195c0 -69 -26 -122 -79 -160s-119 -57 -198 -57c-78 0 -144 18 -198 54
s-85 86 -94 150l170 33c16 -66 60 -99 132 -99c31 0 55 6 73 19s27 30 27 51c0 16 -4 29 -13 38s-25 16 -48 21l-140 30c-120 26 -180 92 -180 194c0 65 24 116 73 154s113 57 192 57zM951 682v-3c73 0 134 -17 183 -51s80 -81 93 -142l-162 -33c-6 30 -20 53 -42 69
s-47 24 -75 24c-27 0 -49 -6 -66 -19s-25 -29 -25 -48c0 -29 18 -48 54 -56l139 -31c123 -27 184 -92 184 -195c0 -69 -26 -122 -79 -160s-119 -57 -198 -57c-78 0 -144 18 -198 54s-85 86 -94 150l170 33c16 -66 60 -99 132 -99c31 0 55 6 73 19s27 30 27 51
c0 16 -4 29 -13 38s-25 16 -48 21l-140 30c-120 26 -180 92 -180 194c0 65 24 116 73 154s113 57 192 57z" />
    <glyph glyph-name="a.ss01" horiz-adv-x="556" 
d="M284 517l-2 -2c71 0 127 -17 168 -52s62 -84 62 -147v-318h-154v37c-41 -35 -91 -52 -150 -52c-56 0 -101 15 -135 45s-51 70 -51 119c0 50 18 90 55 119s88 44 154 44h128v10c0 21 -6 38 -19 51s-30 20 -51 20c-49 0 -77 -21 -84 -63l-151 31c11 49 37 88 78 116
s92 42 152 42zM253 103v1c29 0 54 9 75 26s31 39 31 66v11h-110c-20 0 -36 -5 -48 -15s-18 -22 -18 -37c0 -16 6 -29 19 -38s30 -14 51 -14z" />
    <glyph glyph-name="aacute.ss01" horiz-adv-x="556" 
d="M355 567h-142l71 152h190zM284 517l-2 -2c71 0 127 -17 168 -52s62 -84 62 -147v-318h-154v37c-41 -35 -91 -52 -150 -52c-56 0 -101 15 -135 45s-51 70 -51 119c0 50 18 90 55 119s88 44 154 44h128v10c0 21 -6 38 -19 51s-30 20 -51 20c-49 0 -77 -21 -84 -63l-151 31
c11 49 37 88 78 116s92 42 152 42zM253 103v1c29 0 54 9 75 26s31 39 31 66v11h-110c-20 0 -36 -5 -48 -15s-18 -22 -18 -37c0 -16 6 -29 19 -38s30 -14 51 -14z" />
    <glyph glyph-name="abreve.ss01" horiz-adv-x="556" 
d="M283 550h-3c-54 0 -97 14 -129 43s-48 67 -48 115h126c0 -15 5 -27 15 -37s22 -15 37 -15s28 5 38 15s15 22 15 37h126c0 -48 -16 -86 -48 -115s-75 -43 -129 -43zM281 517l-2 -2c71 0 127 -17 168 -52s62 -84 62 -147v-318h-154v37c-41 -35 -91 -52 -150 -52
c-56 0 -101 15 -135 45s-51 70 -51 119c0 50 18 90 55 119s88 44 154 44h128v10c0 21 -6 38 -19 51s-30 20 -51 20c-49 0 -77 -21 -84 -63l-151 31c11 49 37 88 78 116s92 42 152 42zM250 103v1c29 0 54 9 75 26s31 39 31 66v11h-110c-20 0 -36 -5 -48 -15s-18 -22 -18 -37
c0 -16 6 -29 19 -38s30 -14 51 -14z" />
    <glyph glyph-name="acircumflex.ss01" horiz-adv-x="556" 
d="M243 561h-154l115 155h159l116 -155h-155l-40 56zM284 517l-2 -2c71 0 127 -17 168 -52s62 -84 62 -147v-318h-154v37c-41 -35 -91 -52 -150 -52c-56 0 -101 15 -135 45s-51 70 -51 119c0 50 18 90 55 119s88 44 154 44h128v10c0 21 -6 38 -19 51s-30 20 -51 20
c-49 0 -77 -21 -84 -63l-151 31c11 49 37 88 78 116s92 42 152 42zM253 103v1c29 0 54 9 75 26s31 39 31 66v11h-110c-20 0 -36 -5 -48 -15s-18 -22 -18 -37c0 -16 6 -29 19 -38s30 -14 51 -14z" />
    <glyph glyph-name="adieresis.ss01" horiz-adv-x="556" 
d="M169 556c-26 0 -47 8 -64 24s-25 37 -25 62c0 24 9 45 26 62s38 26 63 26s46 -9 63 -26s26 -38 26 -62c0 -25 -8 -46 -25 -62s-38 -24 -64 -24zM397 556c-26 0 -47 8 -64 24s-25 37 -25 62c0 24 9 45 26 62s38 26 63 26s46 -9 63 -26s26 -38 26 -62c0 -25 -8 -46 -25 -62
s-38 -24 -64 -24zM284 517l-2 -2c71 0 127 -17 168 -52s62 -84 62 -147v-318h-154v37c-41 -35 -91 -52 -150 -52c-56 0 -101 15 -135 45s-51 70 -51 119c0 50 18 90 55 119s88 44 154 44h128v10c0 21 -6 38 -19 51s-30 20 -51 20c-49 0 -77 -21 -84 -63l-151 31
c11 49 37 88 78 116s92 42 152 42zM253 103v1c29 0 54 9 75 26s31 39 31 66v11h-110c-20 0 -36 -5 -48 -15s-18 -22 -18 -37c0 -16 6 -29 19 -38s30 -14 51 -14z" />
    <glyph glyph-name="agrave.ss01" horiz-adv-x="556" 
d="M214 567l-119 152h190l71 -152h-142zM284 517l-2 -2c71 0 127 -17 168 -52s62 -84 62 -147v-318h-154v37c-41 -35 -91 -52 -150 -52c-56 0 -101 15 -135 45s-51 70 -51 119c0 50 18 90 55 119s88 44 154 44h128v10c0 21 -6 38 -19 51s-30 20 -51 20
c-49 0 -77 -21 -84 -63l-151 31c11 49 37 88 78 116s92 42 152 42zM253 103v1c29 0 54 9 75 26s31 39 31 66v11h-110c-20 0 -36 -5 -48 -15s-18 -22 -18 -37c0 -16 6 -29 19 -38s30 -14 51 -14z" />
    <glyph glyph-name="amacron.ss01" horiz-adv-x="556" 
d="M449 570h-332v124h332v-124zM284 517l-2 -2c71 0 127 -17 168 -52s62 -84 62 -147v-318h-154v37c-41 -35 -91 -52 -150 -52c-56 0 -101 15 -135 45s-51 70 -51 119c0 50 18 90 55 119s88 44 154 44h128v10c0 21 -6 38 -19 51s-30 20 -51 20c-49 0 -77 -21 -84 -63
l-151 31c11 49 37 88 78 116s92 42 152 42zM253 103v1c29 0 54 9 75 26s31 39 31 66v11h-110c-20 0 -36 -5 -48 -15s-18 -22 -18 -37c0 -16 6 -29 19 -38s30 -14 51 -14z" />
    <glyph glyph-name="aogonek.ss01" horiz-adv-x="556" 
d="M531 -100l2 -94c-31 -15 -62 -22 -93 -22c-30 0 -54 8 -73 24s-28 39 -28 68c0 43 22 83 67 120h-49v37c-41 -35 -91 -52 -150 -52c-56 0 -101 15 -135 45s-51 70 -51 119c0 50 18 90 55 119s88 44 154 44h128v10c0 21 -6 38 -19 51s-30 20 -51 20c-49 0 -77 -21 -84 -63
l-151 31c11 49 37 88 78 116s92 42 152 42c71 0 127 -17 168 -52s62 -84 62 -147v-318h-1c-4 -5 -9 -11 -16 -18s-12 -12 -14 -15s-5 -7 -10 -12s-8 -9 -9 -11s-3 -5 -5 -9s-3 -7 -4 -10s-1 -6 -1 -9c0 -16 9 -24 28 -24c11 0 28 3 50 10zM251 102v1c29 0 54 9 75 26
s31 39 31 66v11h-110c-20 0 -36 -5 -48 -15s-18 -22 -18 -37c0 -16 6 -29 19 -38s30 -14 51 -14z" />
    <glyph glyph-name="aring.ss01" horiz-adv-x="556" 
d="M283 543c-35 0 -65 12 -89 36s-36 53 -36 87c0 35 12 64 36 88s54 36 89 36s65 -12 89 -36s36 -53 36 -88c0 -34 -12 -63 -36 -87s-54 -36 -89 -36zM283 705v-1c-11 0 -21 -4 -29 -12s-12 -17 -12 -28s4 -20 12 -28s18 -12 29 -12s21 4 29 12s12 17 12 28s-4 21 -12 29
s-18 12 -29 12zM284 516l-2 -2c71 0 127 -17 168 -52s62 -84 62 -147v-318h-154v37c-41 -35 -91 -52 -150 -52c-56 0 -101 15 -135 45s-51 70 -51 119c0 50 18 90 55 119s88 44 154 44h128v10c0 21 -6 38 -19 51s-30 20 -51 20c-49 0 -77 -21 -84 -63l-151 31
c11 49 37 88 78 116s92 42 152 42zM253 102v1c29 0 54 9 75 26s31 39 31 66v11h-110c-20 0 -36 -5 -48 -15s-18 -22 -18 -37c0 -16 6 -29 19 -38s30 -14 51 -14z" />
    <glyph glyph-name="atilde.ss01" horiz-adv-x="556" 
d="M236 612l-2 -1c-17 0 -27 -11 -30 -33h-97c0 51 11 89 34 114s50 38 81 38c23 0 46 -6 69 -18s40 -18 52 -18c17 0 27 12 30 36h97c0 -52 -11 -91 -33 -116s-49 -38 -82 -38c-23 0 -46 6 -68 18s-39 18 -51 18zM282 516l-2 -2c71 0 127 -17 168 -52s62 -84 62 -147v-318
h-154v37c-41 -35 -91 -52 -150 -52c-56 0 -101 15 -135 45s-51 70 -51 119c0 50 18 90 55 119s88 44 154 44h128v10c0 21 -6 38 -19 51s-30 20 -51 20c-49 0 -77 -21 -84 -63l-151 31c11 49 37 88 78 116s92 42 152 42zM251 102v1c29 0 54 9 75 26s31 39 31 66v11h-110
c-20 0 -36 -5 -48 -15s-18 -22 -18 -37c0 -16 6 -29 19 -38s30 -14 51 -14z" />
    <glyph glyph-name="l.ss02" horiz-adv-x="339" 
d="M211 720v-549c0 -13 4 -24 13 -32s21 -12 36 -12c12 0 31 5 58 14l25 -125c-43 -21 -82 -31 -118 -31c-52 0 -94 16 -126 48s-48 74 -48 126v561h160z" />
    <glyph glyph-name="lacute.ss02" horiz-adv-x="339" 
d="M204 785h-142l71 152h190zM211 720v-549c0 -13 4 -24 13 -32s21 -12 36 -12c12 0 31 5 58 14l25 -125c-43 -21 -82 -31 -118 -31c-52 0 -94 16 -126 48s-48 74 -48 126v561h160z" />
    <glyph glyph-name="lcaron.ss02" horiz-adv-x="339" 
d="M211 720v-549c0 -13 4 -24 13 -32s21 -12 36 -12c12 0 31 5 58 14l25 -125c-43 -21 -82 -31 -118 -31c-52 0 -94 16 -126 48s-48 74 -48 126v561h160zM370 521h-115v199h150z" />
    <glyph glyph-name="lcommaaccent.ss02" horiz-adv-x="339" 
d="M211 720v-549c0 -13 4 -24 13 -32s21 -12 36 -12c12 0 31 5 58 14l25 -125c-43 -21 -82 -31 -118 -31c-52 0 -94 16 -126 48s-48 74 -48 126v561h160zM67 -202l51 157h162l-99 -157h-114z" />
    <glyph glyph-name="ldot.ss02" horiz-adv-x="442" 
d="M217 720l-1 -550c0 -13 5 -24 14 -32s21 -12 36 -12c12 0 31 5 57 14l26 -125c-1 -1 -4 -2 -9 -4s-9 -4 -11 -5l-10 -4c-5 -2 -9 -3 -12 -4l-12 -4c-5 -2 -10 -3 -14 -4s-9 -2 -14 -3s-11 -2 -17 -2h-18c-52 0 -94 16 -126 48s-48 74 -48 126v561h159zM347 446
c25 0 46 -9 63 -26s26 -38 26 -62c0 -25 -8 -46 -25 -63s-38 -25 -64 -25s-47 8 -64 25s-25 38 -25 63c0 24 9 45 26 62s38 26 63 26z" />
    <glyph glyph-name="lslash.ss02" horiz-adv-x="364" 
d="M342 141l25 -126c-1 -1 -4 -2 -9 -4s-9 -4 -11 -5l-10 -4c-5 -2 -9 -3 -12 -4l-12 -4c-5 -2 -10 -3 -14 -4s-9 -2 -14 -3s-11 -2 -17 -2h-18c-52 0 -94 16 -126 48s-48 74 -48 126v76l-54 -29v150l54 29v335h159v-248l63 34v-150l-63 -34v-151c0 -13 5 -24 14 -32
s21 -12 36 -12c13 0 32 5 57 14z" />
    <glyph glyph-name="k.ss03" horiz-adv-x="622" 
d="M625 0h-197l-134 171l-76 -86v-85h-160v720h160v-419l181 201h187l-185 -210z" />
    <glyph glyph-name="kcommaaccent.ss03" horiz-adv-x="622" 
d="M625 0h-197l-134 171l-76 -86v-85h-160v720h160v-419l181 201h187l-185 -210zM247 -45h162l-99 -157h-114z" />
    <glyph glyph-name="f_j" horiz-adv-x="684" 
d="M538 561v-2c-27 0 -49 9 -66 26s-26 38 -26 63s9 47 26 65s39 27 66 27s49 -9 67 -27s27 -39 27 -64s-9 -46 -27 -63s-40 -25 -67 -25zM619 500l-2 -523c0 -49 -14 -88 -43 -117s-68 -44 -117 -44c-35 0 -70 7 -105 21l24 126c17 -5 30 -8 39 -8c13 0 23 4 31 11
s12 17 12 29v376h-214v-375h-159v375h-72v127h72v39c0 59 19 106 56 141s87 53 149 53c31 0 61 -6 91 -17l-29 -126c-19 4 -32 6 -40 6c-20 0 -36 -5 -48 -16s-18 -26 -18 -46v-32h373z" />
    <glyph glyph-name="f_t" horiz-adv-x="796" 
d="M757 148l33 -128c-46 -25 -92 -37 -137 -37c-63 0 -112 17 -147 51s-52 84 -52 149v190h-211v-375h-159v375h-72v127h72v39c0 59 19 106 56 141s87 53 149 53c31 0 61 -6 91 -17l-29 -126c-19 4 -32 6 -40 6c-20 0 -36 -5 -48 -16s-18 -26 -18 -46v-32h211v148h160v-148
h148v-127h-148v-174c0 -49 22 -73 66 -73c25 0 50 7 75 20z" />
    <glyph glyph-name="fl.ss02" horiz-adv-x="716" 
d="M311 597l-1 -2c-19 0 -35 -6 -47 -17s-18 -26 -18 -45v-32h138v-127h-138v-375h-159v375h-72v127h72v39c0 59 19 106 56 141s86 53 147 53c34 0 67 -7 99 -21l-34 -124c-16 5 -30 8 -43 8zM693 139l25 -126c-1 -1 -4 -2 -9 -4s-9 -4 -11 -5l-10 -4c-5 -2 -9 -3 -12 -4
l-12 -4c-5 -2 -10 -3 -14 -4s-9 -2 -14 -3s-11 -2 -17 -2h-18c-52 0 -94 16 -126 48s-48 74 -48 126v561h159v-549c0 -13 5 -24 14 -32s21 -12 36 -12c13 0 32 5 57 14z" />
    <glyph glyph-name="zero.tf" 
d="M305 685v-2c83 0 150 -32 201 -96s77 -148 77 -253s-26 -189 -77 -253s-118 -96 -201 -96s-150 32 -201 96s-77 149 -77 254s26 190 77 254s118 96 201 96zM305 128h-2c35 0 63 18 83 54s30 86 30 150s-10 114 -30 150s-47 54 -82 54s-62 -18 -82 -54s-30 -86 -30 -150
s10 -114 30 -150s48 -54 83 -54z" />
    <glyph glyph-name="one.tf" 
d="M553 146v-146h-488v146h180v330l-173 -80v150l229 124h104v-524h148z" />
    <glyph glyph-name="two.tf" 
d="M554 144l2 -147h-486v108l232 217c22 20 36 36 44 44s18 22 29 41s16 38 16 57c0 24 -8 43 -23 58s-35 22 -60 22c-59 0 -91 -36 -96 -108l-153 29c3 67 27 120 72 159s104 59 176 59s130 -20 174 -59s66 -92 66 -158c0 -43 -11 -81 -32 -114s-57 -73 -108 -120l-96 -88
h243z" />
    <glyph glyph-name="three.tf" 
d="M478 339l-4 -2c55 -28 83 -74 83 -138c0 -63 -23 -115 -69 -155s-106 -60 -180 -60c-71 0 -130 19 -177 57s-74 90 -81 155l156 29c11 -69 46 -104 105 -104c28 0 51 8 69 23s27 35 27 59c0 23 -8 41 -24 54s-38 20 -67 20h-77v122h70c28 0 50 7 66 20s24 31 24 53
c0 23 -8 42 -24 56s-37 21 -64 21c-28 0 -51 -9 -69 -27s-28 -45 -31 -81l-151 29c8 66 35 118 80 157s102 58 170 58c71 0 129 -20 174 -59s67 -90 67 -152c0 -61 -22 -110 -73 -135z" />
    <glyph glyph-name="four.tf" 
d="M582 123h-72v-123h-156v123h-322v148l274 399h204v-415h72v-132zM354 255v252l-165 -252h165z" />
    <glyph glyph-name="five.tf" 
d="M234 435l92 -2c73 -2 131 -19 173 -58s63 -91 63 -157c0 -69 -23 -125 -69 -168s-107 -65 -184 -65c-73 0 -134 20 -183 60s-74 97 -76 170l156 31c1 -41 11 -71 31 -91s45 -30 75 -30c29 0 52 9 70 26s27 39 27 66c0 25 -9 45 -27 60s-41 23 -70 23h-230l13 370h439
v-143h-296z" />
    <glyph glyph-name="six.tf" 
d="M349 435v-1c71 0 128 -20 170 -61s63 -94 63 -160c0 -67 -24 -122 -71 -165s-108 -64 -182 -64c-87 0 -156 30 -207 89s-77 142 -77 249c0 126 31 220 93 283c51 53 115 79 192 79c60 0 111 -14 153 -42s70 -68 84 -121l-155 -30c-11 38 -40 57 -87 57
c-31 0 -58 -13 -81 -38c-29 -32 -44 -77 -45 -136c39 41 89 61 150 61zM325 119l-2 1c27 0 51 9 71 28s30 42 30 70s-10 51 -30 69s-43 27 -70 27s-50 -9 -69 -28s-29 -43 -29 -72c0 -27 10 -50 30 -68s43 -27 69 -27z" />
    <glyph glyph-name="seven.tf" 
d="M562 670v-119l-260 -551h-178l255 526h-341v144h524z" />
    <glyph glyph-name="eight.tf" 
d="M448 343l-4 -2c39 -15 69 -36 90 -63s32 -59 32 -96c0 -59 -24 -107 -72 -144s-111 -55 -190 -55s-142 18 -190 55s-72 85 -72 144c0 76 40 129 121 160c-66 31 -99 82 -99 154c0 55 23 100 68 135s103 53 174 53s129 -17 174 -52s68 -80 68 -135
c0 -72 -34 -121 -100 -154zM302 559v1c-24 0 -44 -7 -61 -21s-25 -33 -25 -58c0 -24 8 -43 25 -57s37 -21 61 -21c25 0 46 7 63 21s26 33 26 57s-9 43 -26 57s-38 21 -63 21zM302 114v-2c25 0 47 7 66 22s28 35 28 60s-9 45 -28 59s-41 21 -66 21s-46 -7 -64 -21
s-27 -34 -27 -60c0 -25 9 -44 26 -58s39 -21 65 -21z" />
    <glyph glyph-name="nine.tf" 
d="M280 684v-2c87 0 156 -30 207 -89s77 -142 77 -249c0 -127 -32 -220 -93 -283c-52 -52 -115 -79 -193 -79c-60 0 -111 14 -153 42s-70 69 -84 122l155 30c13 -38 42 -57 88 -57c31 0 58 13 81 38c30 33 45 78 45 136c-39 -41 -89 -61 -151 -61c-71 0 -127 21 -169 62
s-63 95 -63 161c0 67 24 122 71 165s108 64 182 64zM284 352v-1c27 0 50 9 69 28s29 43 29 72c0 27 -10 50 -29 68s-42 27 -69 27s-50 -9 -70 -28s-30 -42 -30 -70s10 -51 30 -69s43 -27 70 -27z" />
    <glyph glyph-name="zero.zero.tf" 
d="M305 685v-2c83 0 150 -32 201 -96s77 -148 77 -253s-26 -189 -77 -253s-118 -96 -201 -96s-150 32 -201 96s-77 149 -77 254s26 190 77 254s118 96 201 96zM305 537l-1 -1c-35 0 -62 -18 -82 -54s-30 -86 -30 -150c0 -21 2 -43 5 -66l177 237c-19 23 -42 34 -69 34z
M304 127l-1 1c35 0 63 18 83 54s30 86 30 150c0 26 -1 48 -4 66l-177 -238c19 -22 42 -33 69 -33z" />
    <glyph glyph-name="zero.zero" horiz-adv-x="653" 
d="M332 685l-1 -2c89 0 161 -32 215 -96s81 -148 81 -253s-27 -189 -81 -253s-125 -96 -214 -96s-160 32 -214 96s-81 149 -81 254s27 190 81 254s125 96 214 96zM331 538h-2c-39 0 -70 -18 -93 -55s-35 -87 -35 -150c0 -26 2 -50 6 -72l190 254c-19 15 -41 23 -66 23z
M329 128l-1 -1c39 0 71 19 95 56s36 87 36 150c0 34 -4 65 -11 93l-197 -263c21 -23 47 -35 78 -35z" />
    <glyph glyph-name="zero.dnom" horiz-adv-x="409" 
d="M205 390v-2c53 0 95 -18 127 -54s48 -84 48 -145s-16 -109 -48 -145s-74 -54 -127 -54c-52 0 -94 18 -126 55s-48 85 -48 145s16 108 48 145s74 55 126 55zM205 83h-1c39 0 59 35 59 105c0 33 -5 59 -15 77s-24 27 -43 27c-18 0 -32 -9 -43 -27s-16 -44 -16 -77
c0 -34 5 -60 15 -78s25 -27 44 -27z" />
    <glyph glyph-name="one.dnom" horiz-adv-x="257" 
d="M204 0h-109v244l-78 -46v111l115 74h72v-383z" />
    <glyph glyph-name="two.dnom" horiz-adv-x="357" 
d="M193 93l129 -2v-93h-294v69l141 124c13 11 23 20 29 26s11 13 15 21s6 16 6 24c0 11 -4 20 -12 27s-18 11 -31 11c-32 0 -48 -21 -49 -62l-97 21c0 40 13 72 40 96s62 36 106 36s80 -11 107 -34s41 -55 41 -96c0 -25 -7 -47 -21 -66s-35 -40 -63 -63z" />
    <glyph glyph-name="three.dnom" horiz-adv-x="351" 
d="M272 195l-4 6c35 -17 52 -44 52 -80s-14 -66 -42 -90s-64 -36 -108 -36c-43 0 -78 11 -106 34s-43 53 -46 91l95 21c4 -38 23 -57 58 -57c14 0 25 4 34 11s13 16 13 27s-4 20 -13 26s-20 9 -34 9h-42v76h36c15 0 27 3 37 9s15 15 15 26s-4 20 -12 27s-19 10 -33 10
c-33 0 -50 -18 -51 -54l-98 21c4 35 20 64 47 86s61 33 102 33c43 0 78 -11 105 -34s41 -52 41 -87c0 -33 -15 -58 -46 -75z" />
    <glyph glyph-name="four.dnom" horiz-adv-x="386" 
d="M363 64h-48v-64h-101v64h-196v98l170 221h127v-230h48v-89zM214 153v121l-92 -121h92z" />
    <glyph glyph-name="five.dnom" horiz-adv-x="352" 
d="M137 250l62 -1c40 -1 72 -11 96 -34s36 -53 36 -90c0 -41 -14 -74 -42 -99s-65 -37 -110 -37c-43 0 -79 12 -108 35s-45 52 -49 86l102 18c3 -15 9 -26 19 -34s22 -12 35 -12c14 0 26 4 35 11s14 17 14 30s-5 23 -15 30s-23 11 -39 11h-137l10 218h264v-94h-171z" />
    <glyph glyph-name="six.dnom" horiz-adv-x="359" 
d="M206 249l-1 -1c39 0 71 -12 96 -36s37 -55 37 -93c0 -39 -14 -70 -42 -94s-63 -36 -106 -36c-53 0 -94 17 -124 50s-45 80 -45 140c0 72 19 127 56 164c30 30 68 45 114 45c39 0 71 -9 96 -28s41 -46 48 -81l-104 -16c-4 25 -19 38 -44 38c-15 0 -28 -6 -39 -19
s-18 -31 -20 -54c23 14 49 21 78 21zM185 73h-1c15 0 27 5 37 15s15 22 15 37s-5 27 -15 37s-22 15 -37 15s-27 -5 -37 -15s-15 -22 -15 -37s5 -27 15 -37s23 -15 38 -15z" />
    <glyph glyph-name="seven.dnom" horiz-adv-x="307" 
d="M298 383v-83l-132 -300h-116l133 289h-176v94h291z" />
    <glyph glyph-name="eight.dnom" horiz-adv-x="376" 
d="M281 199h-2c45 -17 67 -49 67 -95c0 -33 -15 -60 -44 -82s-68 -33 -116 -33c-47 0 -85 11 -114 33s-44 49 -44 82c0 46 22 78 67 95c-35 17 -52 44 -52 81c0 30 14 56 42 77s63 32 104 32s75 -11 103 -32s42 -47 42 -77c0 -38 -18 -65 -53 -81zM186 310l-1 2
c-13 0 -24 -4 -33 -11s-13 -17 -13 -30c0 -11 5 -20 14 -28s20 -12 33 -12s24 4 33 11s14 16 14 27c0 13 -4 23 -13 30s-20 11 -34 11zM186 76v1c14 0 26 4 35 12s14 18 14 31c0 12 -5 22 -15 30s-22 12 -36 12c-15 0 -27 -4 -36 -12s-14 -18 -14 -31s5 -23 15 -31
s22 -12 37 -12z" />
    <glyph glyph-name="nine.dnom" horiz-adv-x="359" 
d="M169 389c53 0 95 -17 125 -50s45 -80 45 -140c0 -72 -19 -127 -56 -165c-29 -29 -67 -44 -114 -44c-39 0 -71 10 -97 29s-42 46 -48 81l103 16c4 -25 19 -37 45 -37c15 0 28 6 39 19s18 31 21 55c-23 -15 -49 -23 -79 -23c-39 0 -71 12 -96 36s-37 55 -37 92
c0 39 14 71 42 95s64 36 107 36zM173 203c15 0 27 5 37 15s15 22 15 37s-5 27 -15 36s-22 14 -37 14s-28 -5 -38 -14s-15 -21 -15 -36s5 -27 15 -37s23 -15 38 -15z" />
    <glyph glyph-name="zero.numr" horiz-adv-x="409" 
d="M205 680v-2c53 0 95 -18 127 -54s48 -84 48 -145s-16 -109 -48 -145s-74 -54 -127 -54c-52 0 -94 18 -126 55s-48 85 -48 145s16 108 48 145s74 55 126 55zM205 373h-1c39 0 59 35 59 105c0 33 -5 59 -15 77s-24 27 -43 27c-18 0 -32 -9 -43 -27s-16 -44 -16 -77
c0 -34 5 -60 15 -78s25 -27 44 -27z" />
    <glyph glyph-name="one.numr" horiz-adv-x="257" 
d="M204 287h-109v244l-78 -46v111l115 74h72v-383z" />
    <glyph glyph-name="two.numr" horiz-adv-x="357" 
d="M193 380l129 -2v-93h-294v69l141 124c13 11 23 20 29 26s11 13 15 21s6 16 6 24c0 11 -4 20 -12 27s-18 11 -31 11c-32 0 -48 -21 -49 -62l-97 21c0 40 13 72 40 96s62 36 106 36s80 -11 107 -34s41 -55 41 -96c0 -25 -7 -47 -21 -66s-35 -40 -63 -63z" />
    <glyph glyph-name="three.numr" horiz-adv-x="351" 
d="M272 486l-4 6c35 -17 52 -44 52 -80s-14 -66 -42 -90s-64 -36 -108 -36c-43 0 -78 11 -106 34s-43 53 -46 91l95 21c4 -38 23 -57 58 -57c14 0 25 4 34 11s13 16 13 27s-4 20 -13 26s-20 9 -34 9h-42v76h36c15 0 27 3 37 9s15 15 15 26s-4 20 -12 27s-19 10 -33 10
c-33 0 -50 -18 -51 -54l-98 21c4 35 20 64 47 86s61 33 102 33c43 0 78 -11 105 -34s41 -52 41 -87c0 -33 -15 -58 -46 -75z" />
    <glyph glyph-name="four.numr" horiz-adv-x="386" 
d="M363 351h-48v-64h-101v64h-196v98l170 221h127v-230h48v-89zM214 440v121l-92 -121h92z" />
    <glyph glyph-name="five.numr" horiz-adv-x="352" 
d="M137 538l62 -1c40 -1 72 -11 96 -34s36 -53 36 -90c0 -41 -14 -74 -42 -99s-65 -37 -110 -37c-43 0 -79 12 -108 35s-45 52 -49 86l102 18c3 -15 9 -26 19 -34s22 -12 35 -12c14 0 26 4 35 11s14 17 14 30s-5 23 -15 30s-23 11 -39 11h-137l10 218h264v-94h-171z" />
    <glyph glyph-name="six.numr" horiz-adv-x="359" 
d="M206 540l-1 -1c39 0 71 -12 96 -36s37 -55 37 -93c0 -39 -14 -70 -42 -94s-63 -36 -106 -36c-53 0 -94 17 -124 50s-45 80 -45 140c0 72 19 127 56 164c30 30 68 45 114 45c39 0 71 -9 96 -28s41 -46 48 -81l-104 -16c-4 25 -19 38 -44 38c-15 0 -28 -6 -39 -19
s-18 -31 -20 -54c23 14 49 21 78 21zM185 364h-1c15 0 27 5 37 15s15 22 15 37s-5 27 -15 37s-22 15 -37 15s-27 -5 -37 -15s-15 -22 -15 -37s5 -27 15 -37s23 -15 38 -15z" />
    <glyph glyph-name="seven.numr" horiz-adv-x="307" 
d="M298 670v-83l-132 -300h-116l133 289h-176v94h291z" />
    <glyph glyph-name="eight.numr" horiz-adv-x="376" 
d="M281 490h-2c45 -17 67 -49 67 -95c0 -33 -15 -60 -44 -82s-68 -33 -116 -33c-47 0 -85 11 -114 33s-44 49 -44 82c0 46 22 78 67 95c-35 17 -52 44 -52 81c0 30 14 56 42 77s63 32 104 32s75 -11 103 -32s42 -47 42 -77c0 -38 -18 -65 -53 -81zM186 601l-1 2
c-13 0 -24 -4 -33 -11s-13 -17 -13 -30c0 -11 5 -20 14 -28s20 -12 33 -12s24 4 33 11s14 16 14 27c0 13 -4 23 -13 30s-20 11 -34 11zM186 367v1c14 0 26 4 35 12s14 18 14 31c0 12 -5 22 -15 30s-22 12 -36 12c-15 0 -27 -4 -36 -12s-14 -18 -14 -31s5 -23 15 -31
s22 -12 37 -12z" />
    <glyph glyph-name="nine.numr" horiz-adv-x="359" 
d="M169 680h-1c53 0 95 -17 125 -50s45 -80 45 -140c0 -72 -19 -127 -56 -165c-29 -29 -67 -44 -114 -44c-39 0 -71 10 -97 29s-42 46 -48 81l103 16c4 -25 19 -37 45 -37c15 0 28 6 39 19s18 31 21 55c-23 -15 -49 -23 -78 -23c-39 0 -71 12 -96 36s-37 55 -37 92
c0 39 14 71 42 95s64 36 107 36zM172 494c15 0 27 5 37 15s15 22 15 37s-5 27 -15 36s-22 14 -37 14s-28 -5 -38 -14s-15 -21 -15 -36s5 -27 15 -37s23 -15 38 -15z" />
    <glyph glyph-name="backslash.case" horiz-adv-x="435" 
d="M411 0h-150l-237 670h150z" />
    <glyph glyph-name="periodcentered.case" horiz-adv-x="246" 
d="M123 416h-1c26 0 48 -9 66 -27s27 -39 27 -64s-9 -46 -26 -63s-39 -26 -66 -26c-26 0 -48 9 -65 26s-26 38 -26 63s9 46 26 64s39 27 65 27z" />
    <glyph glyph-name="bullet.case" horiz-adv-x="415" 
d="M207 498l-1 -1c50 0 92 -17 126 -51s51 -74 51 -121c0 -49 -17 -90 -50 -123s-75 -49 -126 -49s-93 16 -126 49s-49 74 -49 123c0 47 17 88 50 122s75 51 125 51z" />
    <glyph glyph-name="colon.case" horiz-adv-x="246" 
d="M123 563l-1 -1c26 0 48 -9 66 -27s27 -39 27 -64s-9 -46 -26 -63s-39 -25 -66 -25c-26 0 -48 9 -65 26s-26 38 -26 63s9 46 26 64s39 27 65 27zM122 254l-1 -2c26 0 48 -9 66 -27s27 -39 27 -64s-9 -46 -26 -63s-39 -26 -66 -26c-26 0 -48 9 -65 26s-26 39 -26 65
c0 25 9 46 26 64s39 27 65 27z" />
    <glyph glyph-name="exclamdown.case" horiz-adv-x="297" 
d="M151 498h-1c-27 0 -49 9 -66 26s-26 38 -26 63s9 46 26 63s39 25 66 25s49 -8 66 -25s26 -38 26 -63s-9 -46 -26 -63s-39 -26 -65 -26zM59 31l10 410h158l10 -410v-31h-178v31z" />
    <glyph glyph-name="questiondown.case" horiz-adv-x="543" 
d="M278 502c-26 0 -48 9 -66 27s-27 39 -27 63c0 25 9 46 26 63s39 25 66 25s49 -8 66 -25s26 -38 26 -63c0 -24 -9 -45 -26 -63s-39 -27 -65 -27zM360 224l153 -33c-7 -57 -34 -105 -80 -144s-106 -58 -179 -58c-70 0 -127 20 -170 60s-65 92 -65 155c0 49 16 90 48 123
s76 55 131 66v50h152v-161h-80c-27 0 -49 -7 -66 -20s-25 -31 -25 -53c0 -24 8 -43 23 -58s35 -22 60 -22c26 0 48 9 65 26s28 40 33 69z" />
    <glyph glyph-name="semicolon.case" horiz-adv-x="280" 
d="M157 563v-1c26 0 48 -9 65 -27s26 -39 26 -64s-9 -46 -26 -63s-39 -25 -65 -25c-27 0 -49 9 -66 26s-26 38 -26 63s9 46 26 64s39 27 66 27zM124 -133h-121l59 288h177v-4z" />
    <glyph glyph-name="slash.case" horiz-adv-x="481" 
d="M182 0h-135l252 670h135z" />
    <glyph glyph-name="braceleft.case" horiz-adv-x="421" 
d="M263 511l-1 -69c-1 -53 -21 -89 -62 -108c41 -19 62 -55 62 -108v-68c0 -19 9 -29 26 -29h95v-129h-133c-41 0 -74 12 -99 36s-37 56 -37 95v74c0 16 -5 28 -15 37s-25 16 -45 22l-34 10v119l34 10c20 6 35 13 45 21s15 20 15 36v79c0 39 13 71 38 95s58 36 99 36h133
v-129h-95c-17 0 -26 -10 -26 -30z" />
    <glyph glyph-name="braceright.case" horiz-adv-x="421" 
d="M401 393l-2 -123l-34 -10c-20 -6 -35 -14 -45 -22s-15 -20 -15 -36v-74c0 -39 -12 -71 -37 -95s-58 -36 -99 -36h-133v129h94c18 0 27 10 27 29v68c0 53 20 89 61 108c-41 19 -61 55 -61 108v71c0 9 -2 16 -7 22s-11 9 -19 9h-94v129h133c41 0 74 -12 99 -36
s38 -56 38 -95v-79c0 -16 5 -28 15 -36s25 -15 45 -21z" />
    <glyph glyph-name="bracketleft.case" horiz-adv-x="410" 
d="M207 539v-408h166v-131h-315v670h315v-131h-166z" />
    <glyph glyph-name="bracketright.case" horiz-adv-x="410" 
d="M352 670v-670h-315v131h166v408h-166v131h315z" />
    <glyph glyph-name="parenleft.case" horiz-adv-x="350" 
d="M204 335l1 1c0 -50 9 -94 27 -132s46 -79 84 -124l-103 -95c-118 105 -177 222 -177 351s59 246 177 351l100 -96c-37 -45 -64 -86 -82 -124s-27 -82 -27 -132z" />
    <glyph glyph-name="parenright.case" horiz-adv-x="350" 
d="M38 591l100 96c119 -105 178 -222 178 -352s-59 -247 -178 -352l-102 95c38 45 66 87 84 125s27 82 27 132s-9 94 -27 132s-45 79 -82 124z" />
    <glyph glyph-name="emdash.case" horiz-adv-x="1040" 
d="M980 267h-920v123h920v-123z" />
    <glyph glyph-name="endash.case" horiz-adv-x="620" 
d="M560 267h-500v123h500v-123z" />
    <glyph glyph-name="hyphen.case" horiz-adv-x="451" 
d="M391 261h-331v135h331v-135z" />
    <glyph glyph-name="guillemotleft.case" horiz-adv-x="505" 
d="M25 322l105 178h150l-105 -178l105 -178h-150zM225 322l105 178h150l-105 -178l105 -178h-150z" />
    <glyph glyph-name="guillemotright.case" horiz-adv-x="505" 
d="M25 144l105 178l-105 178h150l105 -178l-105 -178h-150zM225 144l105 178l-105 178h150l105 -178l-105 -178h-150z" />
    <glyph glyph-name="guilsinglleft.case" horiz-adv-x="305" 
d="M25 322l105 178h150l-105 -178l105 -178h-150z" />
    <glyph glyph-name="guilsinglright.case" horiz-adv-x="305" 
d="M25 144l105 178l-105 178h150l105 -178l-105 -178h-150z" />
    <glyph glyph-name="cent.tf" 
d="M302 125c56 0 93 29 110 88l146 -32c-10 -48 -32 -89 -66 -122s-75 -55 -124 -66v-122h-133v123c-61 14 -110 44 -148 90s-57 102 -57 167s19 121 57 167s88 76 149 90v121h133v-120c48 -11 89 -33 123 -65s57 -72 68 -120l-150 -36c-7 29 -20 51 -39 66s-42 23 -69 23
c-36 0 -65 -12 -87 -36s-33 -54 -33 -91s11 -67 33 -90s51 -35 87 -35z" />
    <glyph glyph-name="dollar.tf" 
d="M565 211l2 -2c0 -55 -18 -100 -54 -134s-82 -55 -139 -64v-112h-133v115c-55 12 -101 35 -139 70s-59 78 -64 129l156 30c5 -37 19 -64 42 -81s50 -25 81 -25c27 0 49 6 66 18s26 27 26 46c0 28 -19 47 -57 55l-128 28c-114 25 -171 84 -171 178c0 53 17 97 51 131
s80 56 137 65v111h133v-114c53 -12 96 -35 129 -69s52 -76 57 -126l-152 -26c-2 37 -14 63 -35 79s-46 24 -74 24c-25 0 -45 -6 -61 -18s-24 -27 -24 -45c0 -27 17 -44 50 -51l128 -29c115 -26 173 -87 173 -183z" />
    <glyph glyph-name="Euro.tf" 
d="M324 130h-1c47 0 81 43 102 128l162 -30c-14 -73 -44 -132 -91 -177s-104 -67 -172 -67c-67 0 -123 20 -169 61s-77 99 -93 174h-48v96h37v20v20h-37v95h48c16 75 47 133 93 174s102 61 169 61c69 0 127 -23 174 -68s77 -105 90 -180l-161 -28c-16 88 -50 132 -103 132
c-48 0 -80 -30 -96 -91h150l-20 -95h-143v-20v-20h138l-20 -96h-105c17 -59 49 -89 96 -89z" />
    <glyph glyph-name="florin.tf" 
d="M483 547h-2c-43 0 -70 -23 -78 -70l-15 -85h137v-127h-161l-45 -250c-10 -55 -33 -99 -70 -131s-82 -48 -136 -48c-34 0 -71 11 -110 32l47 121c22 -7 41 -11 56 -11c14 0 26 4 36 12s18 19 20 32l44 244h-96v127h119l16 91c11 61 38 110 80 146s94 54 155 54
c47 0 89 -11 126 -34l-50 -124c-23 14 -47 21 -73 21z" />
    <glyph glyph-name="sterling.tf" 
d="M574 143l-2 -143h-539v103l72 22v108h-72v137h72v91c0 67 21 121 64 162s100 62 171 62c67 0 121 -20 162 -59s64 -92 69 -159l-149 -26c-5 36 -14 61 -27 75s-31 21 -54 21c-22 0 -40 -7 -53 -21s-20 -32 -20 -55v-91h157v-137h-157v-90h306z" />
    <glyph glyph-name="yen.tf" 
d="M428 331h102v-103h-147v-43h147v-104h-147v-81h-164v81h-139v104h139v43h-139v103h95l-166 339h175l117 -278l116 278h183z" />
    <glyph glyph-name="approxequal.tf" 
d="M541 460v-121c-29 -14 -64 -21 -105 -21c-36 0 -77 8 -124 24s-87 24 -121 24c-54 0 -94 -10 -121 -29v119c27 21 67 31 120 31c35 0 77 -8 125 -24s89 -24 122 -24c43 0 78 7 104 21zM541 302l-1 -119c-31 -15 -66 -22 -106 -22c-36 0 -77 8 -124 24s-87 24 -121 24
c-53 0 -93 -10 -121 -29v118c29 21 69 32 121 32c35 0 77 -8 125 -24s89 -24 122 -24c43 0 78 7 105 20z" />
    <glyph glyph-name="divide.tf" 
d="M302 561c23 0 43 -8 59 -24s24 -35 24 -57c0 -23 -8 -42 -24 -57s-36 -23 -60 -23s-44 8 -59 23s-23 34 -23 57c0 22 8 41 24 57s36 24 59 24zM542 238h-474v131h474v-131zM302 200c23 0 43 -8 59 -24s24 -35 24 -57c0 -23 -8 -42 -24 -57s-36 -23 -60 -23s-44 8 -59 23
s-23 34 -23 57c0 22 8 41 24 57s36 24 59 24z" />
    <glyph glyph-name="equal.tf" 
d="M542 351h-474v127h474v-127zM542 153h-474v127h474v-127z" />
    <glyph glyph-name="greater.tf" 
d="M348 328l-229 65v154l398 -143v-155l-398 -141v152z" />
    <glyph glyph-name="greaterequal.tf" 
d="M348 405l-233 46v143l387 -114v-150l-387 -114v140zM503 70h-388v130h388v-130z" />
    <glyph glyph-name="less.tf" 
d="M491 108l-398 141v155l398 143v-154l-229 -65l229 -68v-152z" />
    <glyph glyph-name="lessequal.tf" 
d="M496 216l-387 114v150l387 114v-143l-233 -46l233 -49v-140zM496 200v-130h-387v130h387z" />
    <glyph glyph-name="minus.tf" 
d="M542 238h-474v131h474v-131z" />
    <glyph glyph-name="multiply.tf" 
d="M397 304l132 -132l-92 -93l-133 132l-132 -132l-93 93l132 132l-132 131l93 93l132 -132l133 132l92 -93z" />
    <glyph glyph-name="notequal.tf" 
d="M388 351l-39 -71h193v-127h-262l-42 -77h-124l42 77h-88v127h157l39 71h-196v127h265l40 74h124l-40 -74h85v-127h-154z" />
    <glyph glyph-name="plus.tf" 
d="M542 238h-172v-174h-130v174h-172v131h172v174h130v-174h172v-131z" />
    <glyph glyph-name="plusminus.tf" 
d="M542 465v-130h-172v-141h-130v141h-172v130h172v160h130v-160h172zM68 130h474v-130h-474v130z" />
    <glyph glyph-name="bar.case" horiz-adv-x="265" 
d="M207 -41h-149v752h149v-752z" />
    <glyph glyph-name="at.case" horiz-adv-x="936" 
d="M671 509l-4 -282c0 -15 5 -26 15 -34s22 -12 36 -12c26 0 46 16 60 48s21 69 21 111c0 89 -31 161 -94 217s-140 84 -232 84c-98 0 -179 -31 -244 -94s-97 -142 -97 -238c0 -95 32 -173 96 -235s144 -93 239 -93c88 0 168 28 240 83l45 -71c-77 -63 -171 -94 -282 -94
c-121 0 -222 39 -303 116s-121 175 -121 293c0 119 41 218 123 297s184 118 306 118c115 0 213 -35 293 -106s120 -161 120 -270c0 -29 -3 -57 -10 -84s-17 -53 -31 -78s-34 -45 -60 -60s-57 -22 -92 -22c-59 0 -99 20 -120 61c-32 -39 -77 -59 -136 -59
c-57 0 -104 19 -142 56s-57 87 -57 149c0 63 19 113 57 151s85 57 141 57c49 0 90 -15 122 -46v37h111zM460 206l-2 -1c26 0 49 9 68 28s29 44 29 75c0 30 -9 54 -28 73s-41 28 -67 28s-48 -9 -67 -27s-28 -42 -28 -73s9 -56 28 -75s41 -28 67 -28z" />
    <glyph glyph-name="caron.alt" horiz-adv-x="600" 
d="M354 451h-115v199h150z" />
    </font>
</defs>
</svg>
