<?xml version="1.0" standalone="no"?>
<!DOCTYPE svg PUBLIC "-//W3C//DTD SVG 1.1//EN" "http://www.w3.org/Graphics/SVG/1.1/DTD/svg11.dtd" >
<svg xmlns="http://www.w3.org/2000/svg" xmlns:xlink="http://www.w3.org/1999/xlink" version="1.1">
<metadata></metadata>
<defs>
<font id="itc_avant_garde_gothic_ltbold" horiz-adv-x="1265" >
<font-face units-per-em="2048" ascent="1638" descent="-410" />
<missing-glyph horiz-adv-x="632" />
<glyph horiz-adv-x="0" />
<glyph horiz-adv-x="682" />
<glyph unicode=" "  horiz-adv-x="632" />
<glyph unicode="&#x09;" horiz-adv-x="632" />
<glyph unicode="&#xa0;" horiz-adv-x="632" />
<glyph unicode="!" horiz-adv-x="681" d="M166 0v348h350v-348h-350zM166 500v1016h350v-1016h-350z" />
<glyph unicode="&#x22;" horiz-adv-x="948" d="M70 1516h356l-70 -609h-219zM522 1516h357l-70 -609h-219z" />
<glyph unicode="#" d="M63 449l31 227h205l20 149h-204l30 228h205l45 323h234l-45 -323h159l45 323h234l-45 -323h227l-30 -228h-230l-20 -149h227l-31 -227h-229l-49 -357h-232l49 357h-159l-49 -357h-234l49 357h-203zM532 676h160l21 149h-160z" />
<glyph unicode="$" d="M164 436v23h350q1 -17 5.5 -35t15.5 -46.5t37 -46.5t63 -18q43 0 80 32.5t37 88.5q0 57 -40.5 99.5t-148.5 82.5q-38 14 -58.5 21.5t-57.5 23.5t-59.5 29t-54.5 34.5t-51.5 42.5t-42 50.5t-34.5 62t-20.5 73.5t-8.5 87q0 90 28.5 164t77.5 122.5t104 79.5t118 48v207h276 v-207q129 -31 208.5 -132.5t76.5 -256.5h-317q-8 129 -113 129q-50 0 -80.5 -34t-30.5 -81q0 -22 7 -41t15.5 -33.5t31 -30.5t38 -26t53 -26t59.5 -25t73 -29q73 -27 128.5 -67.5t87.5 -81.5t52 -88t26.5 -83.5t6.5 -72.5q0 -14 -1 -29t-7.5 -50t-18 -67t-36 -73t-57 -75.5 t-85 -67.5t-117.5 -54v-215h-276v207q-34 8 -56 14t-60 21.5t-71.5 41.5t-62.5 62q-40 51 -65 118t-25 128z" />
<glyph unicode="%" horiz-adv-x="1757" d="M74 1176q0 154 108 262t260 108q154 0 261.5 -108t107.5 -262q0 -153 -108 -261t-261 -108q-151 0 -259.5 108t-108.5 261zM301 1176q0 -57 41.5 -99.5t99.5 -42.5q57 0 99.5 42t42.5 102t-41.5 100.5t-100.5 40.5t-100 -41t-41 -102zM442 0l627 1516h238l-629 -1516 h-236zM944 340q0 154 108.5 262.5t262.5 108.5q152 0 260 -108.5t108 -262.5t-109 -262.5t-259 -108.5q-152 0 -261.5 108t-109.5 263zM1171 340q0 -59 42 -101t102 -42q57 0 99 41.5t42 101.5q0 61 -41.5 102t-99.5 41q-61 0 -102.5 -42t-41.5 -101z" />
<glyph unicode="&#x26;" horiz-adv-x="1552" d="M100 410q0 54 12 102.5t37.5 89.5t49 71t62.5 62.5t60 48t60 41.5q-143 147 -143 328q0 165 122 278t297 113q172 0 285 -108.5t113 -264.5q0 -57 -16.5 -109t-37 -85.5t-54.5 -68.5t-53 -49.5t-48 -35.5l178 -180l111 248h358l-117 -281q-47 -114 -114 -200l206 -213 l-231 -228l-178 185q-30 -25 -47 -39t-66 -46t-92.5 -50t-111 -34t-136.5 -16q-213 0 -359.5 128t-146.5 313zM473 444q0 -69 50.5 -109t123.5 -40q49 0 88.5 14.5t57.5 29.5t38 38l-241 244q-35 -28 -54.5 -46t-41 -55t-21.5 -76zM567 1169q0 -33 16 -67t30.5 -52t39.5 -44 q31 31 46.5 48.5t32 51.5t16.5 68q0 41 -24 68.5t-65 27.5q-37 0 -64.5 -26.5t-27.5 -74.5z" />
<glyph unicode="'" horiz-adv-x="495" d="M70 1516h356l-70 -609h-219z" />
<glyph unicode="(" horiz-adv-x="968" d="M133 502q0 118 24.5 235t81.5 237t141.5 223.5t213 195t287.5 151.5v-356q-66 -36 -129 -99t-118 -149.5t-88.5 -202t-33.5 -239.5q0 -117 31.5 -228.5t84 -198.5t117.5 -153t136 -104v-355q-133 50 -244.5 121.5t-192 155.5t-141.5 177.5t-97.5 193.5t-54.5 198.5 t-18 196.5z" />
<glyph unicode=")" horiz-adv-x="968" d="M88 -186q66 36 129 99t118 149.5t88.5 202t33.5 239.5q0 117 -31.5 228.5t-84 198.5t-117.5 153t-136 104v356q158 -60 286.5 -151.5t213 -195t141.5 -224t82 -237.5t25 -236q0 -98 -18 -195.5t-54 -197.5t-97 -194t-141.5 -177.5t-192.5 -155t-245 -121.5v355z" />
<glyph unicode="*" horiz-adv-x="1372" d="M236 1104l73 223l262 -98l-6 287h244l-14 -287l264 98l78 -223l-269 -84l170 -225l-190 -144l-168 236l-162 -236l-190 144l176 225z" />
<glyph unicode="+" horiz-adv-x="1228" d="M98 354v328h353v354h327v-354h352v-328h-352v-354h-327v354h-353z" />
<glyph unicode="," horiz-adv-x="643" d="M145 0v348h355v-430q0 -71 -22 -123t-56.5 -77.5t-67 -36.5t-63.5 -11h-146v183h72q50 0 69 25t19 52v70h-160z" />
<glyph unicode="-" horiz-adv-x="575" d="M0 424v334h575v-334h-575z" />
<glyph unicode="." horiz-adv-x="643" d="M145 0v348h355v-348h-355z" />
<glyph unicode="/" horiz-adv-x="1214" d="M147 -205l543 1721h377l-541 -1721h-379z" />
<glyph unicode="0" d="M68 547v422q0 126 39 227.5t99.5 164.5t138.5 106t151 60t143 17q64 0 133.5 -16t147 -58t138 -104t100.5 -165.5t40 -231.5v-422q0 -122 -35.5 -221.5t-92.5 -164t-131.5 -108.5t-149.5 -63t-150 -19q-71 0 -145.5 18t-151.5 62t-137.5 108t-98.5 164.5t-38 223.5z M455 537q0 -39 7 -74t25 -71.5t55.5 -58.5t90.5 -22q42 0 74.5 13t51 36.5t30 46t16 53t5.5 44.5t1 33v442q0 225 -178 225q-44 0 -77.5 -16t-52 -39.5t-30 -55.5t-15 -59t-3.5 -55v-442z" />
<glyph unicode="1" d="M213 1190v326h635v-1516h-387v1190h-248z" />
<glyph unicode="2" d="M90 965q2 52 4.5 81t11 80t27 97t47.5 90q45 71 109.5 120t132.5 71.5t121.5 31t103.5 8.5q122 0 222.5 -38.5t163 -101.5t96.5 -140.5t34 -159.5q0 -67 -16 -134t-41 -123.5t-67 -118t-80 -108.5t-96 -104.5t-99.5 -96t-104.5 -93.5h515v-326h-1070v301 q124 82 179.5 120t135.5 105.5t148 143.5q209 236 209 387q0 56 -34.5 101.5t-108.5 45.5q-43 0 -75.5 -17.5t-50 -40.5t-28.5 -60t-14.5 -61.5t-5.5 -59.5h-369z" />
<glyph unicode="3" d="M68 453h391q32 -140 174 -142q81 0 123.5 47t42.5 123q0 41 -16.5 71t-38.5 45.5t-53 24.5t-52 11t-43 2h-137v285h65q19 0 34 1t47.5 9t53.5 22t38.5 45t17.5 74q0 55 -27 94t-80 39q-39 0 -65 -14t-36.5 -39.5t-13.5 -40t-4 -37.5h-380q2 104 37 187.5t88 135t123 86.5 t137 48.5t133 13.5q107 0 198 -34.5t150.5 -92.5t93 -132.5t33.5 -154.5q0 -59 -17 -110.5t-36.5 -82t-54 -60t-50 -39t-43.5 -25.5q58 -20 105 -48.5t76 -57t50.5 -64t31.5 -61.5t15.5 -58t6 -46t0.5 -32q0 -129 -76 -239t-205.5 -173t-279.5 -63q-141 0 -272 55t-201 158 q-65 93 -84 269z" />
<glyph unicode="4" d="M31 266v283l678 967h360v-947h168v-303h-168v-266h-371v266h-667zM420 569h303v475h-4z" />
<glyph unicode="5" d="M53 406h389q48 -64 107 -82q36 -13 72 -13q84 0 144 59t60 142q0 79 -55.5 139t-151.5 60q-140 0 -198 -131l-314 77l132 859h837v-326h-540l-33 -207q26 14 46 22.5t61.5 15.5t97.5 7q103 0 189.5 -33t143.5 -85.5t97 -120.5t57.5 -136t17.5 -133q0 -59 -15 -121 t-44.5 -124.5t-78.5 -117t-111 -97t-147.5 -67t-184.5 -24.5q-235 0 -389 124t-189 313z" />
<glyph unicode="6" d="M43 557q0 192 139 406l377 553h449l-334 -457l4 -4q18 8 74 8q85 0 168 -33t153 -94.5t113 -162t43 -224.5q0 -168 -80.5 -301.5t-214 -205t-293.5 -71.5q-146 0 -270 53t-199 152q-67 76 -98 179t-31 202zM424 522q0 -99 63 -155t142 -56q88 0 150.5 58t62.5 147 q0 80 -57.5 143.5t-155.5 63.5q-90 0 -147.5 -59.5t-57.5 -141.5z" />
<glyph unicode="7" d="M133 1190v326h987v-297l-532 -1219h-426l559 1190h-588z" />
<glyph unicode="8" d="M80 451q0 26 2.5 53t16 77.5t36.5 92.5t70.5 87t111.5 73q-27 22 -45 39.5t-45.5 53t-42 84.5t-14.5 107q0 83 31.5 159t89.5 136t147 95.5t195 35.5q109 0 199 -37t146.5 -97.5t87 -135t30.5 -152.5q0 -48 -12 -92t-25.5 -71t-39 -56.5t-37 -39.5t-34.5 -29 q63 -27 110 -70.5t70.5 -85.5t37.5 -91.5t17 -78.5t3 -57q0 -128 -71 -238t-198 -176t-282 -66t-283 66t-200 176t-72 238zM467 485q0 -72 47.5 -123t124.5 -51q70 0 115 53.5t45 118.5q0 67 -45.5 120.5t-120.5 53.5q-68 0 -117 -47t-49 -125zM494 1092q0 -70 44 -105 t93 -35q56 0 98.5 41t42.5 103q0 57 -41.5 96t-95.5 39q-56 0 -98.5 -39t-42.5 -100z" />
<glyph unicode="9" d="M41 969q0 127 47 235.5t127 182.5t187.5 115.5t226.5 41.5q145 0 270 -50.5t207 -147.5q127 -130 127 -377q-2 -199 -146 -414l-376 -555h-449l334 459l-4 4q-19 -8 -74 -8q-66 0 -133 21t-129 64t-110 102.5t-76.5 144.5t-28.5 182zM428 1001q0 -80 56 -143t153 -63 q92 0 150.5 59t58.5 141q0 98 -64 153.5t-145 55.5q-86 0 -147.5 -57t-61.5 -146z" />
<glyph unicode=":" horiz-adv-x="643" d="M145 0v348h355v-348h-355zM145 788v349h355v-349h-355z" />
<glyph unicode=";" horiz-adv-x="643" d="M145 0v348h355v-430q0 -71 -22 -123t-56.5 -77.5t-67 -36.5t-63.5 -11h-146v183h72q50 0 69 25t19 52v70h-160zM145 788v349h355v-349h-355z" />
<glyph unicode="&#x3c;" horiz-adv-x="1228" d="M94 360v316l1041 438v-358l-697 -236v-4l697 -235v-359z" />
<glyph unicode="=" horiz-adv-x="1228" d="M98 84v328h1032v-328h-1032zM98 625v327h1032v-327h-1032z" />
<glyph unicode="&#x3e;" horiz-adv-x="1228" d="M94 -78v359l697 235v4l-697 236v358l1041 -438v-316z" />
<glyph unicode="?" horiz-adv-x="1212" d="M98 1034q0 221 152 365.5t387 144.5q115 0 210.5 -39t155.5 -102t92.5 -139t32.5 -154q0 -54 -14.5 -105t-33.5 -87t-55 -79t-60 -66t-68 -64q-94 -87 -123.5 -132t-34.5 -96h-356q1 100 50.5 176.5t162.5 184.5q76 74 107.5 125.5t31.5 99.5q0 59 -29.5 93t-89.5 34 q-33 0 -58 -8.5t-39.5 -26t-23.5 -33.5t-13 -44t-5 -42.5t-2 -42.5h-375q-2 18 -2 37zM383 0v348h356v-348h-356z" />
<glyph unicode="@" horiz-adv-x="1531" d="M-6 748q0 122 35.5 239.5t106 218.5t166 177.5t223.5 120.5t272 44q158 0 294 -52.5t230 -143t147.5 -213.5t53.5 -262q0 -145 -56 -273t-149 -203t-197 -75q-148 0 -200 147q-51 -83 -108 -115t-136 -32q-132 0 -224 103.5t-92 258.5q0 80 29.5 161.5t80 148t127 108 t163.5 41.5q78 0 131 -35t72 -86h4l16 96h213l-76 -446q-11 -70 -14 -98q-3 -60 55 -60q60 0 114 106.5t54 249.5q0 214 -148.5 351t-375.5 137q-132 0 -246.5 -52.5t-191 -139t-120.5 -198t-44 -229.5q0 -39 5.5 -83.5t23 -103.5t44.5 -113t74 -108t107.5 -93t149.5 -63.5 t196 -24.5q228 0 432 75l43 -188q-205 -74 -475 -74q-124 0 -232.5 26.5t-189.5 72.5t-147 108.5t-110 132.5t-74 147.5t-43 150.5t-13 143zM580 696q0 -90 46 -134t107 -44q84 0 136.5 76.5t52.5 193.5q0 41 -12 76.5t-44 62.5t-80 27q-87 0 -146.5 -79t-59.5 -179z" />
<glyph unicode="A" horiz-adv-x="1552" d="M18 0l609 1516h305l602 -1516h-420l-74 219h-526l-80 -219h-416zM621 526h317l-156 518h-2h-4z" />
<glyph unicode="B" horiz-adv-x="1325" d="M137 0v1516h467q200 0 302.5 -29.5t183.5 -118.5q90 -93 90 -250q0 -93 -44 -174t-132 -131q249 -88 249 -352q0 -95 -36 -185t-103 -145q-100 -84 -196.5 -107.5t-299.5 -23.5h-481zM508 340h182q193 0 193 145q0 31 -9.5 55t-28 37.5t-35.5 22t-43.5 12t-40.5 4 t-36 0.5h-182v-276zM508 940h137q19 0 31 0.5t34.5 3.5t37 11t30 20.5t23.5 34.5t8 51q0 33 -12.5 56t-27.5 34.5t-41.5 17t-42 6.5t-40.5 1h-137v-236z" />
<glyph unicode="C" horiz-adv-x="1703" d="M76 760q0 116 34.5 230t103 213.5t162.5 176t222 120.5t272 44q136 0 257.5 -40t207.5 -104t152.5 -145t103 -160.5t49.5 -154.5h-405q-14 36 -34.5 71t-53.5 70.5t-72 62t-93 43.5t-114 17q-94 0 -172.5 -38.5t-128 -102t-77 -141.5t-27.5 -160q0 -116 48 -218 t143 -167.5t216 -65.5q68 0 128.5 22.5t97.5 51t70 70.5t45 64t24 48h405q-66 -268 -278 -432t-488 -164q-173 0 -324 65.5t-254 175t-161.5 252.5t-58.5 296z" />
<glyph unicode="D" horiz-adv-x="1519" d="M117 0v1516h501q51 0 81 -0.5t90.5 -6t103 -15.5t102 -31t105.5 -50t96.5 -75t91.5 -105q139 -191 139 -471q0 -128 -25.5 -238.5t-84 -208t-147 -166.5t-222 -109t-301.5 -40h-530zM504 340h166q104 0 179 34t115 94.5t58 131t18 156.5q0 166 -73 280q-93 140 -295 140 h-168v-836z" />
<glyph unicode="E" horiz-adv-x="1081" d="M137 0v1516h842v-340h-471v-236h457v-340h-457v-260h471v-340h-842z" />
<glyph unicode="F" horiz-adv-x="1036" d="M137 0v1516h828v-340h-457v-258h440v-340h-440v-578h-371z" />
<glyph unicode="G" horiz-adv-x="1748" d="M72 764q0 222 109.5 401.5t295 279t406.5 99.5q176 0 336.5 -73t269.5 -195t151 -268h-434q-48 87 -133 141.5t-201 54.5q-74 0 -145.5 -27.5t-132 -79.5t-98 -139t-37.5 -194q0 -92 25 -169t66.5 -128.5t95.5 -88t111.5 -53t116.5 -16.5q142 0 237 65.5t126 178.5h-453 v309h899q3 -41 3 -80q0 -149 -43.5 -279.5t-120.5 -227t-179 -166.5t-221 -105t-245 -35q-169 0 -319 63.5t-256 170.5t-168 253.5t-62 307.5z" />
<glyph unicode="H" horiz-adv-x="1544" d="M137 0v1516h387v-570h496v570h387v-1516h-387v606h-496v-606h-387z" />
<glyph unicode="I" horiz-adv-x="661" d="M137 0v1516h387v-1516h-387z" />
<glyph unicode="J" horiz-adv-x="1183" d="M12 487h412q2 -27 4 -46t9.5 -45.5t19 -43.5t33.5 -29t51 -12q28 0 49 8.5t33 26.5t19.5 34.5t10.5 43.5t3.5 40.5t0.5 39.5v1012h387v-916q0 -186 -21 -275.5t-73 -154.5q-74 -96 -190.5 -147.5t-237.5 -51.5q-14 0 -28 0.5t-51 5.5t-70 13t-78 26.5t-82 43t-75.5 64.5 t-65 89.5t-43.5 120t-17 153.5z" />
<glyph unicode="K" horiz-adv-x="1447" d="M178 0v1516h387v-682h4l428 682h406l-502 -756l535 -760h-453l-414 655h-4v-655h-387z" />
<glyph unicode="L" horiz-adv-x="997" d="M147 0v1516h388v-1176h448v-340h-836z" />
<glyph unicode="M" horiz-adv-x="1873" d="M137 0v1516h498l301 -998h4l297 998h500v-1516h-357l13 1135l-4 4l-324 -1139h-256l-324 1139l-4 -4l13 -1135h-357z" />
<glyph unicode="N" horiz-adv-x="1554" d="M137 0v1516h334l586 -953l4 4l-17 949h371v-1516h-336l-577 922l-4 -2l10 -920h-371z" />
<glyph unicode="O" horiz-adv-x="1742" d="M72 739q0 178 59 324q26 63 66.5 126t106.5 128.5t145.5 114.5t189 80.5t231.5 31.5q171 0 321.5 -63.5t255 -171t164.5 -251t60 -300.5t-60 -301t-164 -251t-255.5 -171t-323.5 -64q-173 0 -324.5 65.5t-253.5 173t-160 245.5t-58 284zM459 762q0 -88 29 -169t82 -144 t132.5 -100.5t174.5 -37.5q79 0 147 27.5t115 73t80.5 103.5t49 119.5t15.5 121.5q0 61 -15.5 122.5t-49.5 120.5t-81 104.5t-116 73t-150 27.5q-97 0 -177 -39t-130.5 -102.5t-78 -141.5t-27.5 -159z" />
<glyph unicode="P" horiz-adv-x="1302" d="M137 0v1516h496q197 0 298 -27t169 -84q87 -72 132.5 -177t45.5 -224q0 -116 -44 -226.5t-116 -171.5q-83 -70 -178 -100.5t-264 -30.5h-168v-475h-371zM508 815h158q20 0 32 0.5t36.5 2.5t41 7t38.5 13t36.5 21.5t28.5 32t21 45.5t7 60q0 37 -10.5 66t-25 47.5t-39 31.5 t-44.5 19.5t-50 10t-46 4t-41 0.5h-143v-361z" />
<glyph unicode="Q" horiz-adv-x="1773" d="M72 750q0 119 35.5 235t104.5 216.5t164 177t222 121t270 44.5t271.5 -43t225 -118t168 -173t108 -211t36.5 -229q0 -88 -12.5 -163t-36.5 -131.5t-38.5 -82.5t-37.5 -61q56 -53 166 -53q19 0 33 2v-308q-58 -4 -96 -4q-138 0 -226 37t-131 82q-192 -119 -426 -119 q-143 0 -270.5 44t-223 120t-165.5 175.5t-105.5 213t-35.5 228.5zM461 821q43 18 67 26.5t65 16.5t83 8q135 0 281 -76.5t282 -242.5q45 80 51 217q0 130 -58.5 230.5t-153.5 152t-208 51.5q-157 0 -268 -102t-141 -281zM500 565q36 -85 101 -145.5t133 -85.5 q65 -25 129 -25h5h13q89 0 163 39q-74 89 -121 129q-132 113 -288 113q-62 0 -135 -25z" />
<glyph unicode="R" horiz-adv-x="1337" d="M137 0v1516h479q192 0 291 -24.5t176 -84.5q91 -71 139 -182t48 -232q0 -55 -11.5 -112t-39 -117.5t-69.5 -109.5t-108 -86.5t-149 -51.5l412 -516h-443l-350 489h-4v-489h-371zM508 754h137q65 0 113.5 16t74.5 38.5t41.5 54.5t20 56.5t4.5 51.5q0 100 -67 152.5 t-183 52.5h-141v-422z" />
<glyph unicode="S" horiz-adv-x="1173" d="M51 453v49h385q0 -62 17 -106t44 -64t51 -28.5t46 -8.5q66 0 106.5 44.5t40.5 100.5q0 63 -46 101q-41 34 -195 99q-15 7 -56 24q-34 14 -54.5 23t-64 32t-72.5 44.5t-66 57.5t-59 74t-38 91t-16 112q0 103 47 189.5t123 141t169.5 85t190.5 30.5q118 0 228.5 -44 t181.5 -128q42 -52 65 -110.5t27.5 -94.5t7.5 -94h-383l-6 36t-12 37t-23 38.5t-38.5 25t-59.5 11.5q-53 0 -93 -33.5t-40 -85.5q0 -65 49.5 -100t263.5 -132q138 -62 217.5 -131t108 -139.5t28.5 -163.5q0 -70 -16 -133.5t-55 -125t-97.5 -106.5t-151 -72.5t-208.5 -27.5 q-126 0 -224.5 32t-157.5 81t-98 115.5t-53 128t-14 125.5z" />
<glyph unicode="T" horiz-adv-x="1021" d="M20 1176v340h984v-340h-297v-1176h-388v1176h-299z" />
<glyph unicode="U" horiz-adv-x="1429" d="M133 600v916h387v-916q0 -28 1 -48.5t5 -52.5t11.5 -56t22.5 -50t35 -43t51.5 -28t70.5 -11q31 0 57 6.5t45 15.5t33.5 26.5t24 32t16 39t9.5 40.5t5 44.5t2 42.5v42v916h387v-916q0 -180 -36.5 -283t-114.5 -182q-161 -164 -424 -164q-48 0 -99 7t-112.5 23t-121 50 t-103.5 82q-91 100 -121.5 197.5t-30.5 269.5z" />
<glyph unicode="V" horiz-adv-x="1478" d="M33 1516h397l305 -1063h4l308 1063h399l-508 -1516h-399z" />
<glyph unicode="W" horiz-adv-x="2009" d="M33 1516h393l203 -986h4l223 986h297l219 -990h4l207 990h391l-401 -1516h-340l-227 981h-5l-227 -981h-350z" />
<glyph unicode="X" horiz-adv-x="1554" d="M23 0l530 807l-469 709h438l260 -433l252 433h436l-462 -717l524 -799h-438l-328 537l-311 -537h-432z" />
<glyph unicode="Y" horiz-adv-x="1325" d="M18 1516h420l226 -609l227 609h416l-449 -965v-551h-387v551z" />
<glyph unicode="Z" horiz-adv-x="1021" d="M33 0v254l522 922h-522v340h956v-314l-483 -862h483v-340h-956z" />
<glyph unicode="[" horiz-adv-x="968" d="M213 104v795q0 56 2.5 98t15.5 104t36 112t67 106.5t106 101.5q54 39 111.5 65.5t116 37.5t84 14t69.5 6v-356q-60 -3 -102.5 -22t-65.5 -44t-36 -64.5t-16 -70.5t-3 -74v-823q0 -44 3.5 -75.5t16.5 -70t36 -63.5t65.5 -43.5t101.5 -21.5v-357q-42 2 -72 5.5t-85 15 t-112 37.5t-112 65q-64 44 -109 103.5t-67.5 110.5t-34.5 117.5t-14 103t-2 87.5z" />
<glyph unicode="\" horiz-adv-x="1214" d="M147 1516h377l543 -1721h-379z" />
<glyph unicode="]" horiz-adv-x="968" d="M147 -184q60 3 103 21.5t65.5 44t36 64.5t16.5 70t3 74v823q0 43 -3.5 75.5t-16.5 71t-36 63.5t-66 43.5t-102 21.5v356q42 -2 72 -5.5t85 -15t112 -37.5t112 -65q64 -44 109.5 -103.5t67.5 -111t34.5 -117t14.5 -102.5t2 -88v-795q0 -56 -3 -98t-16 -104t-36 -112 t-67 -106.5t-106 -101.5q-54 -39 -111.5 -65.5t-116 -37.5t-84 -14t-69.5 -6v357z" />
<glyph unicode="^" horiz-adv-x="1228" d="M88 768l356 748h340l357 -748h-369l-156 457h-4l-157 -457h-367z" />
<glyph unicode="_" horiz-adv-x="1024" d="M0 -154h1024v-102h-1024v102z" />
<glyph unicode="`" horiz-adv-x="1136" d="M227 1479l105 239l495 -262l-94 -199z" />
<glyph unicode="a" horiz-adv-x="1441" d="M70 569q0 136 46.5 251.5t125.5 192.5t182 120t217 43q126 0 210.5 -48t121.5 -112h4v121h340v-1137h-340v123h-4q-41 -79 -133 -120.5t-199 -41.5q-131 0 -240.5 49t-181 133t-110.5 193.5t-39 232.5zM410 565q0 -34 9.5 -70.5t31 -75.5t53 -70t80.5 -50.5t108 -19.5 q61 0 111 19.5t81.5 50.5t53 70.5t30.5 77t9 72.5q0 72 -30.5 136t-97.5 108.5t-159 44.5q-70 0 -125.5 -27.5t-88 -71t-49.5 -93.5t-17 -101z" />
<glyph unicode="b" horiz-adv-x="1419" d="M123 0v1516h340v-469q121 129 330 129q74 0 149.5 -20.5t150 -67.5t131.5 -115t92.5 -171t35.5 -227q0 -119 -32 -220.5t-87 -173t-128.5 -122t-156 -74.5t-170.5 -24q-114 0 -202 47t-123 113h-4v-121h-326zM451 571q0 -122 76 -207t200 -85q126 0 205.5 86.5 t79.5 203.5q0 115 -78.5 202t-200.5 87q-128 0 -205 -87t-77 -200z" />
<glyph unicode="c" horiz-adv-x="1335" d="M68 571q0 165 78.5 304t216.5 220t305 81q225 0 392 -134t210 -344h-344q-76 160 -246 160h-16q-108 0 -178 -78q-76 -84 -76 -210.5t75 -207.5t195 -81q166 0 246 151h346q-47 -201 -210 -335t-386 -134q-169 0 -309 81t-219.5 220.5t-79.5 306.5z" />
<glyph unicode="d" horiz-adv-x="1429" d="M70 571q0 112 30.5 210t84.5 169.5t125 123t153.5 77t169.5 25.5q70 0 129 -14.5t101.5 -41t61.5 -42t42 -38.5v476h340v-1516h-324v123h-4q-99 -160 -340 -160q-126 0 -233.5 47t-180.5 128.5t-114 193.5t-41 239zM410 573q0 -130 81 -211t203 -81q61 0 111.5 19 t83 49.5t55 69.5t32 77.5t9.5 76.5q0 71 -31.5 134.5t-98.5 107t-157 43.5q-71 0 -127.5 -26t-90.5 -68t-52 -91t-18 -100z" />
<glyph unicode="e" horiz-adv-x="1323" d="M61 565q0 118 45 229t122.5 195.5t190 135.5t238.5 51q127 0 239 -48.5t191 -132t124.5 -198t45.5 -242.5q0 -36 -8 -90h-852q15 -99 90 -157t177 -58q72 0 118.5 27.5t87.5 78.5h349q-80 -186 -232 -290q-142 -103 -323 -103q-161 0 -299.5 79t-221 218.5t-82.5 304.5z M401 694h517q-6 29 -22.5 59.5t-45.5 62.5t-79 52.5t-112 20.5t-112 -20.5t-79 -52.5t-45 -62.5t-22 -59.5z" />
<glyph unicode="f" horiz-adv-x="643" d="M8 879v258h127v59q0 66 16 119.5t41 89t62 62t74 41t83 23t81.5 11t76.5 2.5h49v-256h-38q-11 0 -22.5 -1.5t-27 -8t-27 -17.5t-20 -31.5t-8.5 -47.5v-45h143v-258h-143v-879h-340v879h-127z" />
<glyph unicode="g" horiz-adv-x="1419" d="M70 561q0 141 48 259t128 194t182.5 118t214.5 42q100 0 184.5 -36.5t128.5 -107.5h5v107h339v-1000q0 -136 -14 -221.5t-53 -153.5q-71 -115 -223.5 -191.5t-352.5 -76.5q-113 0 -207.5 26.5t-156.5 67.5t-107 95.5t-67 106.5t-29 104h393q17 -39 46.5 -64.5t64.5 -34.5 t52.5 -11.5t35.5 -2.5q15 0 29 1t44 7t54 17t53 34.5t49 55t33.5 81.5t13.5 113v35h-4q-33 -62 -112 -112t-199 -50q-116 0 -220 42.5t-182.5 119t-124.5 190t-46 246.5zM410 573q0 -131 80.5 -211.5t191.5 -80.5q123 0 201 79.5t78 202.5q0 133 -79.5 213t-197.5 80 q-112 0 -193 -80.5t-81 -202.5z" />
<glyph unicode="h" horiz-adv-x="1294" d="M123 0v1516h340v-484h4q41 73 119 108.5t174 35.5q88 0 173 -32t136 -93q68 -80 87.5 -165.5t19.5 -250.5v-635h-340v618q0 238 -183 238q-190 0 -190 -225v-631h-340z" />
<glyph unicode="i" horiz-adv-x="585" d="M123 0v1137h340v-1137h-340zM123 1257v259h340v-259h-340z" />
<glyph unicode="j" horiz-adv-x="657" d="M12 -160h45q34 0 58 11t36 25t18.5 40.5t7.5 45t1 50.5v1125h340v-1112q0 -62 -3.5 -108.5t-14.5 -94.5t-30.5 -82.5t-51 -66t-75.5 -50.5t-106 -30t-141 -11h-84v258zM178 1257v259h340v-259h-340z" />
<glyph unicode="k" horiz-adv-x="1210" d="M135 0v1516h340v-791h4l316 412h403l-428 -500l416 -637h-385l-322 547h-4v-547h-340z" />
<glyph unicode="l" horiz-adv-x="585" d="M123 0v1516h340v-1516h-340z" />
<glyph unicode="m" horiz-adv-x="1984" d="M123 0v1137h317v-121h4q92 160 314 160q218 0 327 -203q58 91 148.5 147t212.5 56q189 0 299 -115q78 -83 100.5 -165.5t22.5 -274.5v-621h-340v604q0 33 -1 52t-5.5 53.5t-15.5 56t-29 44.5t-49.5 34.5t-73.5 11.5q-53 0 -91.5 -19.5t-56.5 -44t-28 -63t-11.5 -59 t-1.5 -49.5v-621h-340v618q0 238 -170 238q-46 0 -81 -13t-55 -38t-32.5 -48.5t-17 -58t-5.5 -51.5t-1 -43v-604h-340z" />
<glyph unicode="n" horiz-adv-x="1294" d="M123 0v1137h317v-121h4q18 29 36 49.5t54 49.5t92.5 45t127.5 16q79 0 161 -29t129 -70q27 -23 47 -49.5t41 -68.5t32.5 -105.5t11.5 -142.5v-711h-340v621q0 24 -0.5 39t-4 42t-10 45.5t-19.5 41t-31.5 35.5t-47.5 22.5t-66 9.5q-32 0 -58 -6t-45 -15.5t-34 -25 t-24.5 -29.5t-16 -34.5t-9.5 -34.5t-5 -35t-2 -31v-27v-618h-340z" />
<glyph unicode="o" horiz-adv-x="1363" d="M70 569q0 85 23.5 170t73.5 163.5t120.5 139t172.5 96.5t222 36t222 -36t172.5 -96.5t120.5 -139t73.5 -163.5t23.5 -170t-23.5 -170t-73.5 -163.5t-120.5 -138.5t-172.5 -96t-222 -36t-222 36t-172.5 96t-120.5 138.5t-73.5 163.5t-23.5 170zM410 569q0 -123 80 -204.5 t192 -81.5t192 81.5t80 204.5t-80 205t-192 82t-192 -82t-80 -205z" />
<glyph unicode="p" horiz-adv-x="1427" d="M123 -379v1516h319v-125h2h5q130 164 354 164q116 0 212 -39t158 -102.5t105 -146t61.5 -165.5t18.5 -166q0 -163 -70 -299t-197.5 -216.5t-285.5 -80.5q-72 0 -132 14.5t-102.5 41t-63.5 44t-44 41.5v-481h-340zM449 567q0 -114 78.5 -201t205.5 -87t206 87t79 201 q0 52 -19 102.5t-53.5 93t-90 69t-122.5 26.5q-88 0 -155 -45.5t-98 -110.5t-31 -135z" />
<glyph unicode="q" horiz-adv-x="1429" d="M70 547q0 144 45.5 263.5t123.5 199t181.5 123t220.5 43.5q63 0 117.5 -13.5t89 -32t64 -43.5t42.5 -41.5t23 -33.5h4v125h326v-1516h-340v496h-4q-113 -154 -345 -154q-158 0 -284 78t-195 211t-69 295zM410 561q0 -46 18 -94t51.5 -90.5t90 -69t126.5 -26.5 q126 0 204.5 88.5t78.5 197.5q0 48 -17 97t-50 93.5t-90.5 72.5t-129.5 28q-130 0 -206 -88.5t-76 -208.5z" />
<glyph unicode="r" horiz-adv-x="743" d="M121 0v1137h319v-121h4q12 23 22 38.5t34 41t52 41t74.5 27.5t102.5 12v-342q-51 -1 -89 -6.5t-73.5 -19.5t-57.5 -36.5t-35 -59.5t-13 -87v-625h-340z" />
<glyph unicode="s" horiz-adv-x="1021" d="M49 338h338q4 -29 18 -50.5t29 -31.5t35 -16t29 -6.5t18 -0.5q46 0 82.5 25t36.5 64q0 19 -4.5 33t-18 27t-27 22t-43 21t-53.5 21t-71 26.5t-84 31.5q-120 38 -195.5 113t-75.5 184t61 196t161.5 133t218.5 46q50 0 100.5 -8t109 -32.5t104 -62.5t80 -104t42.5 -152 h-334q-1 15 -3.5 25t-12 26.5t-32.5 25.5t-58 9q-49 0 -73 -24t-24 -52q0 -41 46.5 -69.5t128.5 -52.5q42 -11 65 -18t62 -20t62 -23.5t55.5 -28t51.5 -35t40.5 -42.5t33 -52t19.5 -62.5t8 -75.5q0 -117 -63.5 -206t-168 -135t-231.5 -46q-56 0 -111.5 10t-116.5 37 t-108.5 68t-82.5 108.5t-44 153.5z" />
<glyph unicode="t" horiz-adv-x="718" d="M23 879v258h167v379h340v-379h164v-258h-164v-879h-340v879h-167z" />
<glyph unicode="u" horiz-adv-x="1298" d="M119 457v680h340v-629q0 -24 0.5 -38t4 -40.5t10 -44t19.5 -39t32 -34.5t48.5 -22t67.5 -9q85 0 140 53.5t55 177.5v625h340v-1137h-322v121h-4q-76 -158 -295 -158q-33 0 -69 5t-85 18.5t-97 44t-83 75.5q-64 80 -83 152.5t-19 198.5z" />
<glyph unicode="v" horiz-adv-x="1212" d="M35 1137h352l217 -709h4l217 709h353l-410 -1137h-326z" />
<glyph unicode="w" horiz-adv-x="1740" d="M14 1137h353l170 -707h4l186 707h287l188 -707h4l170 707h350l-348 -1137h-315l-191 735h-4l-190 -735h-316z" />
<glyph unicode="x" horiz-adv-x="1290" d="M2 0l432 608l-383 529h408l184 -299l182 299h404l-383 -529l440 -608h-416l-227 352l-231 -352h-410z" />
<glyph unicode="y" horiz-adv-x="1175" d="M2 1137h363l227 -660h4l217 660h361l-570 -1516h-360l180 436z" />
<glyph unicode="z" horiz-adv-x="909" d="M31 0v233l479 646h-479v258h846v-258l-445 -621h445v-258h-846z" />
<glyph unicode="{" horiz-adv-x="1134" d="M215 301v352q25 0 53 5t64 17.5t59 42.5t23 73v442q0 71 26 127t70.5 89t99.5 50t117 17h262v-259h-112q-32 0 -55 -9t-35 -21.5t-19 -32t-8.5 -35t-1.5 -35.5v-428q-1 -56 -18 -96.5t-38.5 -61.5t-57 -34.5t-56 -16.5t-51.5 -6v-8q33 -2 66 -10.5t70 -28t60.5 -58 t24.5 -91.5v-435q0 -20 1.5 -35.5t8.5 -35t19 -32t35 -21.5t55 -9h112v-258h-262q-62 0 -117 17t-99.5 50t-70.5 89t-26 127v434q0 39 -23 66.5t-59.5 39t-64 15.5t-52.5 4z" />
<glyph unicode="|" horiz-adv-x="1136" d="M381 -205v1721h375v-1721h-375z" />
<glyph unicode="}" horiz-adv-x="1134" d="M145 -283h113q32 0 55 9t35 21.5t19 32t8.5 35t1.5 35.5v435q1 53 24.5 91.5t60.5 58t70 28t66 10.5v8q-31 3 -51.5 6t-56 16.5t-57 34.5t-38.5 61.5t-18 96.5v428q0 20 -1.5 35.5t-8.5 35t-19 32t-35 21.5t-55 9h-113v259h263q62 0 117 -17t99.5 -50t70.5 -89t26 -127 v-442q0 -43 23 -73t59 -42.5t64 -17.5t53 -5v-352q-25 0 -52.5 -4t-64 -15.5t-59.5 -39t-23 -66.5v-434q0 -71 -26 -127t-70.5 -89t-99.5 -50t-117 -17h-263v258z" />
<glyph unicode="~" horiz-adv-x="1228" d="M137 586q44 82 105.5 132t154.5 50q81 0 228 -66q12 -5 44 -19.5t48 -21t40.5 -15.5t42.5 -13t34 -4q29 0 54.5 10.5t51 36.5t38.5 42.5t40 53.5l74 -323q-34 -46 -52.5 -67.5t-53 -53.5t-72.5 -46t-83 -14q-52 0 -99 17t-109 51q-128 72 -236 72q-60 0 -100.5 -38.5 t-75.5 -103.5z" />
<glyph unicode="&#xa1;" horiz-adv-x="681" d="M166 -379v1016h350v-1016h-350zM166 788v349h350v-349h-350z" />
<glyph unicode="&#xa2;" d="M127 764q0 70 20.5 141.5t62.5 141t115.5 126.5t168.5 87v215h268v-207q89 -24 161.5 -73t116.5 -107.5t69 -116.5t30 -111h-353q-22 38 -61 60t-84 22q-71 0 -123.5 -50.5t-52.5 -123.5q0 -71 51 -121.5t125 -50.5q36 0 65.5 12.5t43 25.5t28.5 32h361q-16 -81 -58 -157 t-122.5 -141.5t-184.5 -88.5v-216h-280v216q-85 29 -151.5 75.5t-106 97t-65 109t-34.5 107.5t-10 96z" />
<glyph unicode="&#xa3;" d="M29 582v272h98q-57 85 -57 193q0 71 23 142.5t69.5 135.5t110.5 113.5t152.5 78.5t188.5 29q149 0 270 -64.5t189 -176.5q39 -63 54 -121t24 -144h-356q-2 21 -6.5 39.5t-17 43t-30 42t-49 29.5t-71.5 12q-72 0 -118 -52.5t-46 -117.5q0 -45 12.5 -84t24.5 -56t32 -42 h320v-272h-158q22 -25 34 -42.5t23 -44.5t11 -55q0 -31 -13.5 -58.5t-26.5 -41t-40 -37.5h84q168 0 168 139q0 25 -15 74h330q23 -76 23 -131q0 -41 -12.5 -88t-45.5 -101t-82 -96.5t-129.5 -71t-179.5 -28.5h-727v303h100q42 0 71.5 4t58 14.5t43 34t14.5 58.5 q0 56 -37 102l-49 66h-262z" />
<glyph unicode="&#xa4;" d="M-20 541l67 164h92v120h-159l67 164h92q11 252 177 403.5t434 151.5q158 0 294 -51q110 -43 183 -102l-144 -299q-64 50 -125 75q-86 37 -172 37q-130 0 -192.5 -62t-67.5 -153h512l-67 -164h-445v-120h398l-68 -164h-330v-17q0 -213 176 -213q73 0 113 42t47 102h387 q-12 -221 -161.5 -352.5t-397.5 -131.5q-254 0 -402.5 151t-148.5 402v17h-159z" />
<glyph unicode="&#xa5;" d="M2 1516h410l223 -486l227 486h404l-240 -445h199v-283h-348l-54 -100v-61h402v-285h-404v-342h-381v342h-401v285h401v55l-53 106h-344v283h203z" />
<glyph unicode="&#xa6;" horiz-adv-x="1136" d="M381 -205v688h375v-688h-375zM381 827v689h375v-689h-375z" />
<glyph unicode="&#xa7;" horiz-adv-x="1372" d="M82 582q0 187 194 329q-63 99 -63 228q0 104 43.5 184.5t115 127t156 70t174.5 23.5q113 0 207.5 -36t155 -95.5t94.5 -134.5t37 -156h-334q-33 119 -178 119q-23 0 -44.5 -4t-45.5 -14.5t-38.5 -33.5t-14.5 -56q0 -23 10.5 -42.5t32 -35t37 -23.5t41.5 -20l372 -168 q32 -14 54.5 -26t55.5 -33.5t56 -46.5t45 -58.5t33.5 -78.5t11.5 -97q0 -57 -14 -105t-44.5 -90t-53 -66t-64.5 -63q23 -32 35.5 -51.5t32 -58t28.5 -83t9 -96.5q0 -84 -31.5 -161.5t-92.5 -142t-161.5 -103.5t-226.5 -39q-34 0 -73.5 4.5t-94 18t-105.5 34.5t-104 59 t-93 86.5t-68.5 121t-35.5 159.5h336q29 -174 231 -174q95 0 140 42.5t45 90.5q0 24 -11.5 45.5t-26 36t-43 31.5t-47 26t-52.5 25l-351 162q-31 14 -48 22.5t-50 28t-53 37.5t-45.5 48t-40 61.5t-25 76t-10.5 95.5zM391 639q0 -28 10 -50.5t30 -38t33.5 -23.5t35.5 -17 l413 -191q76 49 76 127q0 42 -34 73.5t-105 62.5l-379 170q-80 -39 -80 -113z" />
<glyph unicode="&#xa8;" horiz-adv-x="1136" d="M166 1319v309h326v-309h-326zM643 1319v309h326v-309h-326z" />
<glyph unicode="&#xa9;" horiz-adv-x="1638" d="M37 758q0 157 60.5 301.5t164.5 251t251 170t312 63.5q159 0 304 -63.5t249 -169.5t165 -251t61 -302q0 -213 -105.5 -394.5t-285.5 -287t-392 -105.5q-159 0 -304 62.5t-250.5 168.5t-167.5 251.5t-62 304.5zM207 758q0 -172 83 -317t224 -228.5t307 -83.5q124 0 237 49 t195.5 133t131.5 201t49 246q0 126 -47.5 241.5t-128.5 200.5t-195 135.5t-240 50.5q-171 0 -313.5 -85.5t-222.5 -229.5t-80 -313zM393 764q0 90 28.5 172t82 146t137.5 101.5t188 37.5q88 0 162 -29t121.5 -76.5t75 -105t31.5 -117.5h-215q-37 139 -173 139 q-61 0 -106 -25t-68.5 -67t-34 -86t-10.5 -92q0 -115 55 -190.5t164 -75.5q13 0 24.5 1t37.5 10.5t46 26.5t40.5 53.5t30.5 86.5h217q-13 -169 -123 -268t-281 -99q-197 0 -313.5 128t-116.5 329z" />
<glyph unicode="&#xaa;" horiz-adv-x="788" d="M39 1231q0 144 86 228.5t205 84.5q103 0 147 -80h-2h4v60h203v-586h-203v59h-4q-38 -79 -149 -79q-123 0 -205 90t-82 223zM242 1231q0 -42 30 -81.5t88 -39.5q61 0 91 39t30 82q0 48 -32 84.5t-89 36.5t-87.5 -37.5t-30.5 -83.5z" />
<glyph unicode="&#xab;" horiz-adv-x="864" d="M96 471v234l264 266v-287l-104 -92l104 -96v-285zM504 471v234l264 266v-287l-104 -92l104 -96v-285z" />
<glyph unicode="&#xac;" horiz-adv-x="1228" d="M68 584v327h1073v-690h-328v363h-745z" />
<glyph unicode="&#xad;" horiz-adv-x="575" d="M0 424v334h575v-334h-575z" />
<glyph unicode="&#xae;" horiz-adv-x="1638" d="M37 758q0 156 60.5 300.5t164.5 251t251 170.5t312 64q159 0 304 -63.5t248.5 -170t165 -251t61.5 -301.5q0 -213 -105.5 -394.5t-285.5 -287t-392 -105.5q-159 0 -304 62.5t-250.5 168.5t-167.5 251.5t-62 304.5zM207 758q0 -171 83 -316t224.5 -229t306.5 -84 q124 0 237 49t195.5 133t131.5 201t49 246q0 125 -47.5 240.5t-128 200.5t-194.5 136t-241 51q-171 0 -313 -85t-222.5 -229t-80.5 -314zM485 330v872h369q65 0 121 -14t101.5 -42.5t71.5 -77t26 -112.5q0 -147 -142 -211q56 -24 88 -67.5t37 -134.5q8 -118 11.5 -149 t15.5 -64h-211q-7 14 -13 57.5t-10.5 95t-5.5 56.5q-3 25 -8 41.5t-20 39t-47.5 34.5t-80.5 12h-86v-336h-217zM702 807h105q20 0 33.5 1t37.5 8t39 19.5t27 39.5t12 65q0 39 -14 64t-39 34.5t-42.5 12t-41.5 2.5h-117v-246z" />
<glyph unicode="&#xaf;" horiz-adv-x="1136" d="M201 1348v258h735v-258h-735z" />
<glyph unicode="&#xb0;" horiz-adv-x="819" d="M117 1165q0 123 85 208t208 85t207.5 -85t84.5 -208t-84.5 -208t-207.5 -85t-208 85t-85 208zM289 1165q0 -51 36 -88t85 -37t84.5 37t35.5 88q0 50 -35.5 87.5t-84.5 37.5t-85 -37.5t-36 -87.5z" />
<glyph unicode="&#xb1;" horiz-adv-x="1228" d="M98 160h1032v-328h-1032v328zM98 532v328h353v279h327v-279h352v-328h-352v-266h-327v266h-353z" />
<glyph unicode="&#xb2;" horiz-adv-x="833" d="M61 1176q4 135 60 217q39 56 101 89.5t110 42.5t96 9q156 0 247 -80.5t91 -187.5q0 -96 -68 -201t-241 -238v-4h313v-217h-698v199q55 35 85 55t80 55t78.5 59t64 59t54.5 64t33 63.5t14 68.5q0 86 -71 86q-89 0 -97 -139h-252z" />
<glyph unicode="&#xb3;" horiz-adv-x="833" d="M45 887h264q4 -16 8.5 -26t15 -24t30.5 -21t49 -7q47 0 72.5 23t25.5 65q0 31 -24.5 54.5t-75.5 23.5h-113v184h49q123 0 123 86q0 27 -15.5 47.5t-50.5 20.5q-20 0 -34.5 -5.5t-21 -12t-11 -19t-5 -17.5t-1.5 -18h-258q1 71 26.5 125.5t63 85t86 50t88 26t76.5 6.5 q140 0 225.5 -75t85.5 -177q0 -125 -117 -188q79 -26 124.5 -85t45.5 -132q0 -120 -108 -204.5t-258 -84.5q-94 0 -179 33t-129 94q-46 62 -57 172z" />
<glyph unicode="&#xb4;" horiz-adv-x="1136" d="M309 1473l492 264l108 -242l-503 -223z" />
<glyph unicode="&#xb5;" horiz-adv-x="1298" d="M106 -389v1526h340v-562q0 -59 9.5 -108t31 -92.5t62.5 -68.5t98 -25t98 25t63 68.5t32 93t10 107.5v562h340v-1137h-324v141h-2h-4q-5 -16 -14 -34.5t-27.5 -41.5t-40.5 -41.5t-55.5 -31t-71.5 -12.5q-76 0 -126.5 33t-73.5 77h-5v-479h-340z" />
<glyph unicode="&#xb6;" horiz-adv-x="1435" d="M-14 1114q0 402 520 402h737v-242h-100v-1485h-262v1485h-199v-1485h-262v938h-29q-55 0 -108.5 12t-108 41t-95.5 72t-67 110.5t-26 151.5z" />
<glyph unicode="&#xb7;" horiz-adv-x="643" d="M145 344v348h355v-348h-355z" />
<glyph unicode="&#xb8;" horiz-adv-x="1136" d="M342 -309h156q5 -15 8.5 -21.5t11 -17t19 -15t28.5 -4.5q34 0 54 21.5t20 56.5q0 32 -20 51t-50 19q-32 0 -55 -31l-133 72l86 178h170l-59 -109q21 7 43 7q67 0 120.5 -48t53.5 -139q0 -85 -60.5 -149t-169.5 -64q-16 0 -34.5 2.5t-51 13.5t-58.5 30t-49 57.5t-30 89.5z " />
<glyph unicode="&#xb9;" horiz-adv-x="833" d="M141 1298v218h412v-910h-252v692h-160z" />
<glyph unicode="&#xba;" horiz-adv-x="788" d="M76 1231q0 56 20 110.5t57.5 100.5t100 74t139.5 28t139.5 -28t100.5 -74t58 -100.5t20 -110.5t-20 -110.5t-58 -100.5t-100.5 -74t-139.5 -28t-139.5 28t-100 74t-57.5 100.5t-20 110.5zM279 1231q0 -52 33.5 -86.5t80.5 -34.5t81 34.5t34 86.5t-34 86.5t-81 34.5 t-80.5 -34.5t-33.5 -86.5z" />
<glyph unicode="&#xbb;" horiz-adv-x="864" d="M96 211v287l105 92l-105 96v285l264 -269v-231zM504 211v287l106 92l-106 96v285l264 -269v-231z" />
<glyph unicode="&#xbc;" horiz-adv-x="1843" d="M98 1298v218h412v-910h-252v692h-160zM385 0l635 1516h280l-636 -1516h-279zM956 158v176l439 575h241v-559h107v-192h-107v-158h-252v158h-428zM1227 350h162v240h-5z" />
<glyph unicode="&#xbd;" horiz-adv-x="1884" d="M98 1298v218h412v-910h-252v692h-160zM385 0l635 1516h280l-636 -1516h-279zM1077 569q4 135 60 217q56 80 142 111t165 31q156 0 247 -81t91 -188q0 -96 -68 -200.5t-241 -237.5v-4h313v-217h-699v199q56 36 85.5 55t79.5 54.5t78.5 59.5t64.5 59t55 64t33 63.5t14 68.5 q0 86 -72 86q-88 0 -96 -140h-252z" />
<glyph unicode="&#xbe;" horiz-adv-x="2048" d="M84 887h264q4 -16 8.5 -26t15 -24t30.5 -21t49 -7q47 0 72.5 23t25.5 65q0 31 -24.5 54.5t-75.5 23.5h-113v184h49q123 0 123 86q0 27 -15.5 47.5t-50.5 20.5q-20 0 -34.5 -5.5t-21 -12t-11 -19t-5 -17.5t-1.5 -18h-258q1 71 26.5 125.5t63 85t86 50t88 26t76.5 6.5 q140 0 225.5 -75t85.5 -177q0 -125 -117 -188q79 -26 124.5 -85t45.5 -132q0 -120 -108 -204.5t-258 -84.5q-94 0 -179 33t-129 94q-46 62 -57 172zM616 0l635 1516h281l-637 -1516h-279zM1178 158v176l438 575h242v-559h106v-192h-106v-158h-252v158h-428zM1438 350h172 v248h-4z" />
<glyph unicode="&#xbf;" horiz-adv-x="1212" d="M84 25q0 67 18.5 125.5t57.5 111t69.5 84.5t85.5 82q94 87 123.5 131.5t34.5 93.5h356q-1 -52 -14 -96t-43.5 -89t-64.5 -82.5t-91 -92.5q-77 -75 -108 -125.5t-31 -99.5q0 -127 117 -127q39 0 67 14t41.5 31.5t21.5 49t9 50t2 51.5h375q2 -18 2 -37q0 -221 -152 -365.5 t-387 -144.5q-92 0 -172 25.5t-137.5 69t-98.5 99.5t-61 117.5t-20 123.5zM473 788v349h356v-349h-356z" />
<glyph unicode="&#xc0;" horiz-adv-x="1552" d="M18 0l609 1516h305l602 -1516h-420l-74 219h-526l-80 -219h-416zM436 1776l105 239l495 -262l-94 -199zM621 526h317l-156 518h-2h-4z" />
<glyph unicode="&#xc1;" horiz-adv-x="1552" d="M18 0l609 1516h305l602 -1516h-420l-74 219h-526l-80 -219h-416zM518 1769l492 265l108 -242l-504 -223zM621 526h317l-156 518h-2h-4z" />
<glyph unicode="&#xc2;" horiz-adv-x="1552" d="M18 0l609 1516h305l602 -1516h-420l-74 219h-526l-80 -219h-416zM352 1608l320 340h221l307 -340h-328l-94 118l-94 -118h-332zM621 526h317l-156 518h-2h-4z" />
<glyph unicode="&#xc3;" horiz-adv-x="1552" d="M18 0l609 1516h305l602 -1516h-420l-74 219h-526l-80 -219h-416zM362 1866q125 71 226 71q35 0 67 -5.5t148 -30.5q59 -15 117 -15q30 0 57.5 5.5t42 10.5t49.5 19l123 -174q-122 -76 -231 -76q-36 0 -167.5 26.5t-160.5 26.5q-14 0 -28.5 -2t-25 -3.5t-26 -7t-22 -7.5 t-24 -9l-22.5 -9zM621 526h317l-156 518h-2h-4z" />
<glyph unicode="&#xc4;" horiz-adv-x="1552" d="M18 0l609 1516h305l602 -1516h-420l-74 219h-526l-80 -219h-416zM375 1616v309h325v-309h-325zM621 526h317l-156 518h-2h-4zM852 1616v309h326v-309h-326z" />
<glyph unicode="&#xc5;" horiz-adv-x="1552" d="M18 0l609 1516h305l602 -1516h-420l-74 219h-526l-80 -219h-416zM518 1825q0 106 75.5 182t182.5 76t182.5 -76t75.5 -182t-75.5 -182t-182.5 -76t-182.5 76t-75.5 182zM621 526h317l-156 518h-2h-4zM686 1825q0 -37 26.5 -62.5t63.5 -25.5t63.5 26t26.5 64 q0 37 -26 63.5t-64 26.5q-39 0 -64.5 -27t-25.5 -65z" />
<glyph unicode="&#xc6;" horiz-adv-x="1996" d="M-20 0l1052 1516h862v-340h-467v-236h453v-340h-453v-260h467v-340h-841v254h-441l-163 -254h-469zM770 553h283v412h-4z" />
<glyph unicode="&#xc7;" horiz-adv-x="1703" d="M76 760q0 116 34.5 230t103 213.5t162.5 176t222 120.5t272 44q136 0 257.5 -40t207.5 -104t152.5 -145t103 -160.5t49.5 -154.5h-405q-14 36 -34.5 71t-53.5 70.5t-72 62t-93 43.5t-114 17q-94 0 -172.5 -38.5t-128 -102t-77 -141.5t-27.5 -160q0 -116 48 -218 t143 -167.5t216 -65.5q68 0 128.5 22.5t97.5 51t70 70.5t45 64t24 48h405q-64 -259 -265 -421t-466 -173l-45 -82q21 7 43 7q62 0 118 -48.5t56 -138.5q0 -85 -60 -149t-169 -64q-16 0 -34.5 2.5t-51 13.5t-58.5 30t-49 57.5t-30 89.5h155q7 -19 12 -28.5t19.5 -19.5 t36.5 -10q34 0 54 21.5t20 56.5q0 32 -20 51t-50 19q-32 0 -55 -31l-133 72l77 160q-196 29 -350.5 144t-236.5 281t-82 353z" />
<glyph unicode="&#xc8;" horiz-adv-x="1081" d="M137 0v1516h842v-340h-471v-236h457v-340h-457v-260h471v-340h-842zM201 1817l104 239l496 -262l-94 -199z" />
<glyph unicode="&#xc9;" horiz-adv-x="1081" d="M137 0v1516h842v-340h-471v-236h457v-340h-457v-260h471v-340h-842zM283 1810l491 265l109 -242l-504 -223z" />
<glyph unicode="&#xca;" horiz-adv-x="1081" d="M117 1649l319 340h221l308 -340h-328l-94 118l-94 -118h-332zM137 0v1516h842v-340h-471v-236h457v-340h-457v-260h471v-340h-842z" />
<glyph unicode="&#xcb;" horiz-adv-x="1081" d="M137 0v1516h842v-340h-471v-236h457v-340h-457v-260h471v-340h-842zM139 1657v309h326v-309h-326zM616 1657v309h326v-309h-326z" />
<glyph unicode="&#xcc;" horiz-adv-x="661" d="M-61 1817l104 239l496 -262l-95 -199zM137 0v1516h387v-1516h-387z" />
<glyph unicode="&#xcd;" horiz-adv-x="661" d="M123 1810l491 265l109 -242l-504 -223zM137 0v1516h387v-1516h-387z" />
<glyph unicode="&#xce;" horiz-adv-x="661" d="M-94 1649l319 340h221l308 -340h-328l-94 118l-94 -118h-332zM137 0v1516h387v-1516h-387z" />
<glyph unicode="&#xcf;" horiz-adv-x="661" d="M-72 1657v309h326v-309h-326zM137 0v1516h387v-1516h-387zM406 1657v309h325v-309h-325z" />
<glyph unicode="&#xd0;" horiz-adv-x="1519" d="M0 606v340h137v570h510q51 0 80.5 -0.5t88.5 -6t100 -15.5t99.5 -31t104.5 -50t96.5 -75t92.5 -105q139 -191 139 -471q0 -126 -28 -238.5t-88 -208.5t-146 -166t-208 -109.5t-269 -39.5h-572v606h-137zM524 340h166q104 0 179 34t115.5 94.5t58.5 131t18 156.5 q0 164 -74 280q-93 140 -295 140h-168v-230h221v-340h-221v-266z" />
<glyph unicode="&#xd1;" horiz-adv-x="1554" d="M137 0v1516h334l586 -953l4 4l-17 949h371v-1516h-336l-577 922l-4 -2l10 -920h-371zM362 1866q125 71 226 71q35 0 67 -5.5t148 -30.5q59 -15 117 -15q30 0 57.5 5.5t42 10.5t49.5 19l123 -174q-122 -76 -231 -76q-36 0 -167.5 26.5t-160.5 26.5q-14 0 -28.5 -2 t-25 -3.5t-26 -7t-22 -7.5t-24 -9l-22.5 -9z" />
<glyph unicode="&#xd2;" horiz-adv-x="1742" d="M72 739q0 178 59 324q26 63 66.5 126t106.5 128.5t145.5 114.5t189 80.5t231.5 31.5q171 0 321.5 -63.5t255 -171t164.5 -251t60 -300.5t-60 -301t-164 -251t-255.5 -171t-323.5 -64q-173 0 -324.5 65.5t-253.5 173t-160 245.5t-58 284zM459 762q0 -88 29 -169t82 -144 t132.5 -100.5t174.5 -37.5q79 0 147 27.5t115 73t80.5 103.5t49 119.5t15.5 121.5q0 61 -15.5 122.5t-49.5 120.5t-81 104.5t-116 73t-150 27.5q-97 0 -177 -39t-130.5 -102.5t-78 -141.5t-27.5 -159zM530 1817l105 239l495 -262l-94 -199z" />
<glyph unicode="&#xd3;" horiz-adv-x="1742" d="M72 739q0 178 59 324q26 63 66.5 126t106.5 128.5t145.5 114.5t189 80.5t231.5 31.5q171 0 321.5 -63.5t255 -171t164.5 -251t60 -300.5t-60 -301t-164 -251t-255.5 -171t-323.5 -64q-173 0 -324.5 65.5t-253.5 173t-160 245.5t-58 284zM459 762q0 -88 29 -169t82 -144 t132.5 -100.5t174.5 -37.5q79 0 147 27.5t115 73t80.5 103.5t49 119.5t15.5 121.5q0 61 -15.5 122.5t-49.5 120.5t-81 104.5t-116 73t-150 27.5q-97 0 -177 -39t-130.5 -102.5t-78 -141.5t-27.5 -159zM612 1810l492 265l108 -242l-503 -223z" />
<glyph unicode="&#xd4;" horiz-adv-x="1742" d="M72 739q0 178 59 324q26 63 66.5 126t106.5 128.5t145.5 114.5t189 80.5t231.5 31.5q171 0 321.5 -63.5t255 -171t164.5 -251t60 -300.5t-60 -301t-164 -251t-255.5 -171t-323.5 -64q-173 0 -324.5 65.5t-253.5 173t-160 245.5t-58 284zM446 1649l320 340h221l307 -340 h-327l-95 118l-94 -118h-332zM459 762q0 -88 29 -169t82 -144t132.5 -100.5t174.5 -37.5q79 0 147 27.5t115 73t80.5 103.5t49 119.5t15.5 121.5q0 61 -15.5 122.5t-49.5 120.5t-81 104.5t-116 73t-150 27.5q-97 0 -177 -39t-130.5 -102.5t-78 -141.5t-27.5 -159z" />
<glyph unicode="&#xd5;" horiz-adv-x="1742" d="M72 739q0 178 59 324q26 63 66.5 126t106.5 128.5t145.5 114.5t189 80.5t231.5 31.5q171 0 321.5 -63.5t255 -171t164.5 -251t60 -300.5t-60 -301t-164 -251t-255.5 -171t-323.5 -64q-173 0 -324.5 65.5t-253.5 173t-160 245.5t-58 284zM457 1866q125 71 225 71 q35 0 67 -5.5t148 -30.5q59 -15 117 -15q30 0 57.5 5.5t42 10.5t49.5 19l123 -174q-122 -76 -231 -76q-36 0 -167.5 26.5t-160.5 26.5q-14 0 -28.5 -2t-25 -4t-25 -6.5t-22 -7.5t-24 -9.5t-22.5 -8.5zM459 762q0 -88 29 -169t82 -144t132.5 -100.5t174.5 -37.5 q79 0 147 27.5t115 73t80.5 103.5t49 119.5t15.5 121.5q0 61 -15.5 122.5t-49.5 120.5t-81 104.5t-116 73t-150 27.5q-97 0 -177 -39t-130.5 -102.5t-78 -141.5t-27.5 -159z" />
<glyph unicode="&#xd6;" horiz-adv-x="1742" d="M72 739q0 178 59 324q26 63 66.5 126t106.5 128.5t145.5 114.5t189 80.5t231.5 31.5q171 0 321.5 -63.5t255 -171t164.5 -251t60 -300.5t-60 -301t-164 -251t-255.5 -171t-323.5 -64q-173 0 -324.5 65.5t-253.5 173t-160 245.5t-58 284zM459 762q0 -88 29 -169t82 -144 t132.5 -100.5t174.5 -37.5q79 0 147 27.5t115 73t80.5 103.5t49 119.5t15.5 121.5q0 61 -15.5 122.5t-49.5 120.5t-81 104.5t-116 73t-150 27.5q-97 0 -177 -39t-130.5 -102.5t-78 -141.5t-27.5 -159zM469 1657v309h326v-309h-326zM946 1657v309h326v-309h-326z" />
<glyph unicode="&#xd7;" horiz-adv-x="1228" d="M115 231l266 267l-266 266l231 231l266 -266l269 268l233 -233l-268 -266l264 -267l-231 -231l-265 264l-268 -264z" />
<glyph unicode="&#xd8;" horiz-adv-x="1742" d="M72 758q0 163 61.5 308.5t167.5 250.5t254.5 166t316.5 61q189 0 342 -71l132 178l241 -176l-131 -177q215 -233 215 -540q0 -125 -38 -243t-109.5 -216t-168.5 -172t-223 -115t-264 -41q-178 0 -342 72l-129 -172l-241 178l127 170q-211 227 -211 539zM459 764 q0 -133 55 -234l485 654q-57 20 -127 20q-100 0 -181.5 -40.5t-130.5 -105.5t-75 -141t-26 -153zM739 334q72 -23 135 -23q82 0 151 28.5t116 74t80 104.5t48 119.5t15 118.5q0 123 -59 233z" />
<glyph unicode="&#xd9;" horiz-adv-x="1429" d="M133 600v916h387v-916q0 -28 1 -48.5t5 -52.5t11.5 -56t22.5 -50t35 -43t51.5 -28t70.5 -11q31 0 57 6.5t45 15.5t33.5 26.5t24 32t16 39t9.5 40.5t5 44.5t2 42.5v42v916h387v-916q0 -180 -36.5 -283t-114.5 -182q-161 -164 -424 -164q-48 0 -99 7t-112.5 23t-121 50 t-103.5 82q-91 100 -121.5 197.5t-30.5 269.5zM303 1817l105 239l495 -262l-94 -199z" />
<glyph unicode="&#xda;" horiz-adv-x="1429" d="M133 600v916h387v-916q0 -28 1 -48.5t5 -52.5t11.5 -56t22.5 -50t35 -43t51.5 -28t70.5 -11q31 0 57 6.5t45 15.5t33.5 26.5t24 32t16 39t9.5 40.5t5 44.5t2 42.5v42v916h387v-916q0 -180 -36.5 -283t-114.5 -182q-161 -164 -424 -164q-48 0 -99 7t-112.5 23t-121 50 t-103.5 82q-91 100 -121.5 197.5t-30.5 269.5zM528 1810l492 265l108 -242l-503 -223z" />
<glyph unicode="&#xdb;" horiz-adv-x="1429" d="M133 600v916h387v-916q0 -28 1 -48.5t5 -52.5t11.5 -56t22.5 -50t35 -43t51.5 -28t70.5 -11q31 0 57 6.5t45 15.5t33.5 26.5t24 32t16 39t9.5 40.5t5 44.5t2 42.5v42v916h387v-916q0 -180 -36.5 -283t-114.5 -182q-161 -164 -424 -164q-48 0 -99 7t-112.5 23t-121 50 t-103.5 82q-91 100 -121.5 197.5t-30.5 269.5zM291 1649l319 340h221l308 -340h-328l-94 118l-94 -118h-332z" />
<glyph unicode="&#xdc;" horiz-adv-x="1429" d="M133 600v916h387v-916q0 -28 1 -48.5t5 -52.5t11.5 -56t22.5 -50t35 -43t51.5 -28t70.5 -11q31 0 57 6.5t45 15.5t33.5 26.5t24 32t16 39t9.5 40.5t5 44.5t2 42.5v42v916h387v-916q0 -180 -36.5 -283t-114.5 -182q-161 -164 -424 -164q-48 0 -99 7t-112.5 23t-121 50 t-103.5 82q-91 100 -121.5 197.5t-30.5 269.5zM313 1657v309h326v-309h-326zM791 1657v309h325v-309h-325z" />
<glyph unicode="&#xdd;" horiz-adv-x="1325" d="M18 1516h420l226 -609l227 609h416l-449 -965v-551h-387v551zM475 1810l492 265l108 -242l-504 -223z" />
<glyph unicode="&#xde;" horiz-adv-x="1302" d="M137 0v1516h371v-199l125 2q197 0 298 -27t169 -84q87 -72 132.5 -177t45.5 -224q0 -116 -44 -226t-116 -171q-83 -70 -178 -100.5t-264 -30.5h-168v-279h-371zM508 618h158q23 0 37.5 0.5t42 4t46.5 10t42.5 20t38 32.5t24.5 48.5t10 67.5q0 37 -10.5 66t-25 47.5 t-39.5 31.5t-44.5 19t-49.5 9.5t-45.5 4t-41.5 0.5h-143v-361z" />
<glyph unicode="&#xdf;" horiz-adv-x="1421" d="M119 0v874q0 190 26 292t105 190q86 96 206 147t242 51q104 0 195.5 -36t153.5 -95.5t97.5 -137t35.5 -159.5q0 -48 -12 -89.5t-26 -67t-38.5 -50.5t-36.5 -34t-33 -23q131 -32 224.5 -140.5t93.5 -254.5q0 -93 -38 -183t-104.5 -161.5t-168 -115.5t-218.5 -44 q-58 0 -110 12t-85.5 26t-70.5 41.5t-53 43t-45 45.5v-131h-340zM459 428h190q7 -27 15.5 -45.5t27 -45.5t52.5 -41.5t81 -14.5q85 0 136 56t51 128q0 18 -3.5 38t-17.5 48.5t-37.5 50.5t-68 37.5t-103.5 15.5h-184v256h70q78 0 125 43.5t47 112.5q0 76 -50.5 123t-130.5 47 q-41 0 -74 -12.5t-53.5 -31t-35.5 -46.5t-22 -50t-10.5 -52t-4 -43t-0.5 -31v-543z" />
<glyph unicode="&#xe0;" horiz-adv-x="1441" d="M70 569q0 136 46.5 251.5t125.5 192.5t182 120t217 43q126 0 210.5 -48t121.5 -112h4v121h340v-1137h-340v123h-4q-41 -79 -133 -120.5t-199 -41.5q-131 0 -240.5 49t-181 133t-110.5 193.5t-39 232.5zM381 1479l104 239l496 -262l-94 -199zM410 565q0 -34 9.5 -70.5 t31 -75.5t53 -70t80.5 -50.5t108 -19.5q61 0 111 19.5t81.5 50.5t53 70.5t30.5 77t9 72.5q0 72 -30.5 136t-97.5 108.5t-159 44.5q-70 0 -125.5 -27.5t-88 -71t-49.5 -93.5t-17 -101z" />
<glyph unicode="&#xe1;" horiz-adv-x="1441" d="M70 569q0 136 46.5 251.5t125.5 192.5t182 120t217 43q126 0 210.5 -48t121.5 -112h4v121h340v-1137h-340v123h-4q-41 -79 -133 -120.5t-199 -41.5q-131 0 -240.5 49t-181 133t-110.5 193.5t-39 232.5zM410 565q0 -34 9.5 -70.5t31 -75.5t53 -70t80.5 -50.5t108 -19.5 q61 0 111 19.5t81.5 50.5t53 70.5t30.5 77t9 72.5q0 72 -30.5 136t-97.5 108.5t-159 44.5q-70 0 -125.5 -27.5t-88 -71t-49.5 -93.5t-17 -101zM463 1473l491 264l109 -242l-504 -223z" />
<glyph unicode="&#xe2;" horiz-adv-x="1441" d="M70 569q0 136 46.5 251.5t125.5 192.5t182 120t217 43q126 0 210.5 -48t121.5 -112h4v121h340v-1137h-340v123h-4q-41 -79 -133 -120.5t-199 -41.5q-131 0 -240.5 49t-181 133t-110.5 193.5t-39 232.5zM297 1311l319 340h222l307 -340h-328l-94 119l-94 -119h-332z M410 565q0 -34 9.5 -70.5t31 -75.5t53 -70t80.5 -50.5t108 -19.5q61 0 111 19.5t81.5 50.5t53 70.5t30.5 77t9 72.5q0 72 -30.5 136t-97.5 108.5t-159 44.5q-70 0 -125.5 -27.5t-88 -71t-49.5 -93.5t-17 -101z" />
<glyph unicode="&#xe3;" horiz-adv-x="1441" d="M70 569q0 136 46.5 251.5t125.5 192.5t182 120t217 43q126 0 210.5 -48t121.5 -112h4v121h340v-1137h-340v123h-4q-41 -79 -133 -120.5t-199 -41.5q-131 0 -240.5 49t-181 133t-110.5 193.5t-39 232.5zM307 1528q125 71 225 71q35 0 68 -5.5t148 -30.5q59 -15 116 -15 q30 0 57.5 5.5t43 11t49.5 18.5l123 -174q-122 -76 -232 -76q-36 0 -167 26.5t-160 26.5q-14 0 -28.5 -2t-25 -3.5t-26 -7t-22 -7.5t-24 -9l-22.5 -9zM410 565q0 -34 9.5 -70.5t31 -75.5t53 -70t80.5 -50.5t108 -19.5q61 0 111 19.5t81.5 50.5t53 70.5t30.5 77t9 72.5 q0 72 -30.5 136t-97.5 108.5t-159 44.5q-70 0 -125.5 -27.5t-88 -71t-49.5 -93.5t-17 -101z" />
<glyph unicode="&#xe4;" horiz-adv-x="1441" d="M70 569q0 136 46.5 251.5t125.5 192.5t182 120t217 43q126 0 210.5 -48t121.5 -112h4v121h340v-1137h-340v123h-4q-41 -79 -133 -120.5t-199 -41.5q-131 0 -240.5 49t-181 133t-110.5 193.5t-39 232.5zM319 1319v309h326v-309h-326zM410 565q0 -34 9.5 -70.5t31 -75.5 t53 -70t80.5 -50.5t108 -19.5q61 0 111 19.5t81.5 50.5t53 70.5t30.5 77t9 72.5q0 72 -30.5 136t-97.5 108.5t-159 44.5q-70 0 -125.5 -27.5t-88 -71t-49.5 -93.5t-17 -101zM797 1319v309h325v-309h-325z" />
<glyph unicode="&#xe5;" horiz-adv-x="1441" d="M70 569q0 136 46.5 251.5t125.5 192.5t182 120t217 43q126 0 210.5 -48t121.5 -112h4v121h340v-1137h-340v123h-4q-41 -79 -133 -120.5t-199 -41.5q-131 0 -240.5 49t-181 133t-110.5 193.5t-39 232.5zM410 565q0 -34 9.5 -70.5t31 -75.5t53 -70t80.5 -50.5t108 -19.5 q61 0 111 19.5t81.5 50.5t53 70.5t30.5 77t9 72.5q0 72 -30.5 136t-97.5 108.5t-159 44.5q-70 0 -125.5 -27.5t-88 -71t-49.5 -93.5t-17 -101zM463 1487q0 106 75.5 182t182.5 76t182.5 -76t75.5 -182t-75.5 -182t-182.5 -76t-182.5 76t-75.5 182zM631 1487 q0 -37 26.5 -62.5t63.5 -25.5t63.5 26t26.5 64q0 37 -26 63.5t-64 26.5q-39 0 -64.5 -27t-25.5 -65z" />
<glyph unicode="&#xe6;" horiz-adv-x="2234" d="M70 567q0 126 43.5 238.5t119.5 194t186 129t236 47.5q99 0 192.5 -43t123.5 -107h4v111h309v-109h4q14 18 22 28t37 35t59 40t81.5 29t111.5 16q107 0 208 -43t182 -120.5t130.5 -199t49.5 -266.5q0 -51 -8 -84h-854q9 -59 37.5 -103t67.5 -66.5t77.5 -33t77.5 -10.5 q43 0 78 9t63 28t43 33t37 38h342q-172 -395 -539 -395q-207 8 -303 150h-4v-113h-309v113h-4q-34 -64 -126 -109t-198 -41q-109 0 -205 38t-162.5 100t-115 141t-71.5 162.5t-23 162.5zM410 575q0 -131 82.5 -212.5t205.5 -81.5q117 0 197 81.5t80 202.5q0 127 -78.5 210 t-210.5 83q-59 0 -108 -21t-79 -53t-51 -71.5t-29.5 -74t-8.5 -63.5zM1315 688h518q-54 199 -254 199q-63 0 -114 -20t-81 -52t-47 -64t-22 -63z" />
<glyph unicode="&#xe7;" horiz-adv-x="1335" d="M68 571q0 165 78.5 304t216.5 220t305 81q225 0 392 -134t210 -344h-344q-80 152 -246 152q-119 6 -194.5 -76t-75.5 -205q0 -126 75 -207t195 -81q166 0 246 151h346q-46 -192 -197 -323.5t-360 -141.5l-41 -76q21 7 43 7q62 0 118 -48.5t56 -138.5q0 -85 -60 -149 t-169 -64q-16 0 -35 2.5t-51.5 13.5t-58.5 30t-49 57.5t-30 89.5h156q7 -19 12 -28.5t19.5 -19.5t36.5 -10q34 0 53.5 21.5t19.5 56.5q0 32 -19.5 51t-49.5 19q-33 0 -56 -31l-133 72l74 153q-212 43 -347.5 209.5t-135.5 386.5z" />
<glyph unicode="&#xe8;" horiz-adv-x="1323" d="M61 565q0 118 45 229t122.5 195.5t190 135.5t238.5 51q127 0 239 -48.5t191 -132t124.5 -198t45.5 -242.5q0 -36 -8 -90h-852q15 -99 90 -157t177 -58q72 0 118.5 27.5t87.5 78.5h349q-80 -186 -232 -290q-142 -103 -323 -103q-161 0 -299.5 79t-221 218.5t-82.5 304.5z M322 1479l104 239l496 -262l-95 -199zM401 694h517q-6 29 -22.5 59.5t-45.5 62.5t-79 52.5t-112 20.5t-112 -20.5t-79 -52.5t-45 -62.5t-22 -59.5z" />
<glyph unicode="&#xe9;" horiz-adv-x="1323" d="M61 565q0 118 45 229t122.5 195.5t190 135.5t238.5 51q127 0 239 -48.5t191 -132t124.5 -198t45.5 -242.5q0 -36 -8 -90h-852q15 -99 90 -157t177 -58q72 0 118.5 27.5t87.5 78.5h349q-80 -186 -232 -290q-142 -103 -323 -103q-161 0 -299.5 79t-221 218.5t-82.5 304.5z M401 694h517q-6 29 -22.5 59.5t-45.5 62.5t-79 52.5t-112 20.5t-112 -20.5t-79 -52.5t-45 -62.5t-22 -59.5zM403 1473l492 264l109 -242l-504 -223z" />
<glyph unicode="&#xea;" horiz-adv-x="1323" d="M61 565q0 118 45 229t122.5 195.5t190 135.5t238.5 51q127 0 239 -48.5t191 -132t124.5 -198t45.5 -242.5q0 -36 -8 -90h-852q15 -99 90 -157t177 -58q72 0 118.5 27.5t87.5 78.5h349q-80 -186 -232 -290q-142 -103 -323 -103q-161 0 -299.5 79t-221 218.5t-82.5 304.5z M238 1311l319 340h221l307 -340h-327l-94 119l-95 -119h-331zM401 694h517q-6 29 -22.5 59.5t-45.5 62.5t-79 52.5t-112 20.5t-112 -20.5t-79 -52.5t-45 -62.5t-22 -59.5z" />
<glyph unicode="&#xeb;" horiz-adv-x="1323" d="M61 565q0 118 45 229t122.5 195.5t190 135.5t238.5 51q127 0 239 -48.5t191 -132t124.5 -198t45.5 -242.5q0 -36 -8 -90h-852q15 -99 90 -157t177 -58q72 0 118.5 27.5t87.5 78.5h349q-80 -186 -232 -290q-142 -103 -323 -103q-161 0 -299.5 79t-221 218.5t-82.5 304.5z M260 1319v309h326v-309h-326zM401 694h517q-6 29 -22.5 59.5t-45.5 62.5t-79 52.5t-112 20.5t-112 -20.5t-79 -52.5t-45 -62.5t-22 -59.5zM737 1319v309h326v-309h-326z" />
<glyph unicode="&#xec;" horiz-adv-x="585" d="M-98 1479l104 239l496 -262l-94 -199zM123 0v1137h340v-1137h-340z" />
<glyph unicode="&#xed;" horiz-adv-x="585" d="M86 1473l492 264l108 -242l-504 -223zM123 0v1137h340v-1137h-340z" />
<glyph unicode="&#xee;" horiz-adv-x="585" d="M-131 1311l319 340h222l307 -340h-328l-94 119l-94 -119h-332zM123 0v1137h340v-1137h-340z" />
<glyph unicode="&#xef;" horiz-adv-x="585" d="M-109 1319v309h326v-309h-326zM123 0v1137h340v-1137h-340zM369 1319v309h325v-309h-325z" />
<glyph unicode="&#xf0;" horiz-adv-x="1363" d="M70 565q0 138 48 252.5t126 185.5t174 109.5t196 36.5q150 -3 240 -96l4 4q-54 94 -199 190l-307 -92l-190 123l287 88q-119 54 -203 74l327 108q103 -25 207 -80l264 80l170 -131l-247 -76q148 -121 229 -280q46 -88 72 -206t26 -237q0 -134 -44 -253.5t-123 -208 t-194.5 -140t-250.5 -51.5q-126 0 -239 46t-195 125t-130 190.5t-48 238.5zM410 571q0 -51 17 -100.5t49.5 -92t87 -69t122.5 -26.5q69 0 123.5 28t84.5 72t45 92t15 96q0 50 -16 99.5t-47 92.5t-83 70t-116 27q-72 0 -129 -28.5t-89 -73.5t-48 -93t-16 -94z" />
<glyph unicode="&#xf1;" horiz-adv-x="1294" d="M123 0v1137h317v-121h4q18 29 36 49.5t54 49.5t92.5 45t127.5 16q79 0 161 -29t129 -70q27 -23 47 -49.5t41 -68.5t32.5 -105.5t11.5 -142.5v-711h-340v621q0 24 -0.5 39t-4 42t-10 45.5t-19.5 41t-31.5 35.5t-47.5 22.5t-66 9.5q-32 0 -58 -6t-45 -15.5t-34 -25 t-24.5 -29.5t-16 -34.5t-9.5 -34.5t-5 -35t-2 -31v-27v-618h-340zM233 1528q125 71 226 71q35 0 67 -5.5t148 -30.5q59 -15 117 -15q30 0 57.5 5.5t42 10.5t49.5 19l123 -174q-122 -76 -232 -76q-36 0 -167 26.5t-160 26.5q-14 0 -28.5 -2t-25 -3.5t-26 -7t-22 -7.5t-24 -9 l-22.5 -9z" />
<glyph unicode="&#xf2;" horiz-adv-x="1363" d="M70 569q0 85 23.5 170t73.5 163.5t120.5 139t172.5 96.5t222 36t222 -36t172.5 -96.5t120.5 -139t73.5 -163.5t23.5 -170t-23.5 -170t-73.5 -163.5t-120.5 -138.5t-172.5 -96t-222 -36t-222 36t-172.5 96t-120.5 138.5t-73.5 163.5t-23.5 170zM342 1479l104 239l496 -262 l-94 -199zM410 569q0 -123 80 -204.5t192 -81.5t192 81.5t80 204.5t-80 205t-192 82t-192 -82t-80 -205z" />
<glyph unicode="&#xf3;" horiz-adv-x="1363" d="M70 569q0 85 23.5 170t73.5 163.5t120.5 139t172.5 96.5t222 36t222 -36t172.5 -96.5t120.5 -139t73.5 -163.5t23.5 -170t-23.5 -170t-73.5 -163.5t-120.5 -138.5t-172.5 -96t-222 -36t-222 36t-172.5 96t-120.5 138.5t-73.5 163.5t-23.5 170zM410 569q0 -123 80 -204.5 t192 -81.5t192 81.5t80 204.5t-80 205t-192 82t-192 -82t-80 -205zM424 1473l491 264l109 -242l-504 -223z" />
<glyph unicode="&#xf4;" horiz-adv-x="1363" d="M70 569q0 85 23.5 170t73.5 163.5t120.5 139t172.5 96.5t222 36t222 -36t172.5 -96.5t120.5 -139t73.5 -163.5t23.5 -170t-23.5 -170t-73.5 -163.5t-120.5 -138.5t-172.5 -96t-222 -36t-222 36t-172.5 96t-120.5 138.5t-73.5 163.5t-23.5 170zM258 1311l320 340h221 l307 -340h-328l-94 119l-94 -119h-332zM410 569q0 -123 80 -204.5t192 -81.5t192 81.5t80 204.5t-80 205t-192 82t-192 -82t-80 -205z" />
<glyph unicode="&#xf5;" horiz-adv-x="1363" d="M70 569q0 85 23.5 170t73.5 163.5t120.5 139t172.5 96.5t222 36t222 -36t172.5 -96.5t120.5 -139t73.5 -163.5t23.5 -170t-23.5 -170t-73.5 -163.5t-120.5 -138.5t-172.5 -96t-222 -36t-222 36t-172.5 96t-120.5 138.5t-73.5 163.5t-23.5 170zM268 1528q125 71 226 71 q35 0 67 -5.5t148 -30.5q59 -15 116 -15q30 0 57.5 5.5t43 11t49.5 18.5l123 -174q-122 -76 -232 -76q-36 0 -167 26.5t-160 26.5q-14 0 -28.5 -2t-25 -3.5t-26 -7t-22 -7.5t-24 -9l-22.5 -9zM410 569q0 -123 80 -204.5t192 -81.5t192 81.5t80 204.5t-80 205t-192 82 t-192 -82t-80 -205z" />
<glyph unicode="&#xf6;" horiz-adv-x="1363" d="M70 569q0 85 23.5 170t73.5 163.5t120.5 139t172.5 96.5t222 36t222 -36t172.5 -96.5t120.5 -139t73.5 -163.5t23.5 -170t-23.5 -170t-73.5 -163.5t-120.5 -138.5t-172.5 -96t-222 -36t-222 36t-172.5 96t-120.5 138.5t-73.5 163.5t-23.5 170zM281 1319v309h325v-309 h-325zM410 569q0 -123 80 -204.5t192 -81.5t192 81.5t80 204.5t-80 205t-192 82t-192 -82t-80 -205zM758 1319v309h325v-309h-325z" />
<glyph unicode="&#xf7;" horiz-adv-x="1228" d="M98 354v328h1032v-328h-1032zM453 -117v328h321v-328h-321zM453 825v328h321v-328h-321z" />
<glyph unicode="&#xf8;" horiz-adv-x="1363" d="M70 565q0 87 23.5 172.5t73.5 165t120.5 139.5t173 96t223.5 36q132 0 248 -48l125 170l219 -157l-127 -170q145 -174 145 -400q0 -87 -24 -173t-74.5 -164.5t-121 -138t-171.5 -95t-219 -35.5q-133 0 -248 47l-133 -180l-215 164l125 168q-66 75 -104.5 181t-38.5 222z M410 569q0 -67 26 -127l303 408q-36 6 -55 6q-116 0 -195 -83t-79 -204zM631 287q36 -6 51 -6q123 0 197.5 86t74.5 202q0 59 -24 119z" />
<glyph unicode="&#xf9;" horiz-adv-x="1298" d="M119 457v680h340v-629q0 -24 0.5 -38t4 -40.5t10 -44t19.5 -39t32 -34.5t48.5 -22t67.5 -9q85 0 140 53.5t55 177.5v625h340v-1137h-322v121h-4q-76 -158 -295 -158q-33 0 -69 5t-85 18.5t-97 44t-83 75.5q-64 80 -83 152.5t-19 198.5zM238 1479l104 239l496 -262 l-95 -199z" />
<glyph unicode="&#xfa;" horiz-adv-x="1298" d="M119 457v680h340v-629q0 -24 0.5 -38t4 -40.5t10 -44t19.5 -39t32 -34.5t48.5 -22t67.5 -9q85 0 140 53.5t55 177.5v625h340v-1137h-322v121h-4q-76 -158 -295 -158q-33 0 -69 5t-85 18.5t-97 44t-83 75.5q-64 80 -83 152.5t-19 198.5zM463 1473l491 264l109 -242 l-504 -223z" />
<glyph unicode="&#xfb;" horiz-adv-x="1298" d="M119 457v680h340v-629q0 -24 0.5 -38t4 -40.5t10 -44t19.5 -39t32 -34.5t48.5 -22t67.5 -9q85 0 140 53.5t55 177.5v625h340v-1137h-322v121h-4q-76 -158 -295 -158q-33 0 -69 5t-85 18.5t-97 44t-83 75.5q-64 80 -83 152.5t-19 198.5zM225 1311l320 340h221l307 -340 h-328l-94 119l-94 -119h-332z" />
<glyph unicode="&#xfc;" horiz-adv-x="1298" d="M119 457v680h340v-629q0 -24 0.5 -38t4 -40.5t10 -44t19.5 -39t32 -34.5t48.5 -22t67.5 -9q85 0 140 53.5t55 177.5v625h340v-1137h-322v121h-4q-76 -158 -295 -158q-33 0 -69 5t-85 18.5t-97 44t-83 75.5q-64 80 -83 152.5t-19 198.5zM248 1319v309h325v-309h-325z M725 1319v309h326v-309h-326z" />
<glyph unicode="&#xfd;" horiz-adv-x="1175" d="M2 1137h363l227 -660h4l217 660h361l-570 -1516h-360l180 436zM401 1473l492 264l108 -242l-503 -223z" />
<glyph unicode="&#xfe;" horiz-adv-x="1423" d="M121 -379v1895h340v-480q30 29 51 45.5t63.5 42t98.5 38t125 12.5q117 0 213.5 -39t159 -102t106 -145t62 -165t18.5 -166q0 -163 -70.5 -299t-198.5 -216.5t-286 -80.5q-60 0 -113.5 11.5t-86.5 25.5t-66 37.5t-45 35t-31 31.5v-481h-340zM444 567q0 -114 79 -201 t208 -87t208 87t79 201q0 111 -77.5 200t-209.5 89t-209.5 -89t-77.5 -200z" />
<glyph unicode="&#xff;" horiz-adv-x="1175" d="M2 1137h363l227 -660h4l217 660h361l-570 -1516h-360l180 436zM186 1319v309h326v-309h-326zM664 1319v309h325v-309h-325z" />
<glyph unicode="&#x152;" horiz-adv-x="2222" d="M72 754q0 150 55 291t154 252.5t252 179t335 67.5q81 0 148.5 -12t119.5 -36t77.5 -39.5t62.5 -41.5v101h844v-340h-471v-236h454v-340h-454v-260h471v-340h-844v100q-179 -129 -418 -129q-166 0 -313.5 63.5t-250 170t-162.5 250t-60 299.5zM459 754q0 -55 14 -113.5 t46 -118t77.5 -106t115 -76t152.5 -29.5q98 0 177.5 39t129.5 104t76.5 145t26.5 165q0 186 -112.5 313t-295.5 127q-99 0 -179 -40t-128.5 -105.5t-74 -144t-25.5 -160.5z" />
<glyph unicode="&#x153;" horiz-adv-x="2203" d="M70 565q0 119 43 229t120.5 195t195.5 136t259 51q132 0 249.5 -57t176.5 -138q59 81 176.5 138t249.5 57q164 0 301.5 -81t218 -223.5t80.5 -314.5q0 -42 -10 -94h-852q9 -93 77.5 -153t176.5 -60q56 0 101 17t67.5 36t52.5 51h348q-61 -143 -176 -248 q-163 -145 -385 -145q-275 0 -426 205q-22 -28 -37.5 -45t-57 -51.5t-84.5 -54.5t-113 -37t-150 -17q-163 0 -301 78.5t-219.5 217.5t-81.5 308zM410 567q0 -118 80 -203t196 -85q64 0 117 27t85.5 70t50 93t17.5 100q0 114 -77.5 201.5t-194.5 87.5q-67 0 -128.5 -32.5 t-103.5 -101t-42 -157.5zM1288 690h512q-21 92 -91.5 144.5t-164.5 52.5q-95 0 -167 -53.5t-89 -143.5z" />
<glyph unicode="&#x178;" horiz-adv-x="1325" d="M18 1516h420l226 -609l227 609h416l-449 -965v-551h-387v551zM260 1657v309h326v-309h-326zM737 1657v309h326v-309h-326z" />
<glyph unicode="&#x2c6;" horiz-adv-x="1136" d="M143 1311l320 340h221l307 -340h-327l-95 119l-94 -119h-332z" />
<glyph unicode="&#x2dc;" horiz-adv-x="1136" d="M154 1528q125 71 225 71q35 0 67 -5.5t148 -30.5q59 -15 117 -15q30 0 57.5 5.5t42 10.5t49.5 19l123 -174q-122 -76 -231 -76q-36 0 -167.5 26.5t-160.5 26.5q-14 0 -28.5 -2t-25 -3.5t-26 -7t-22 -7.5t-24 -9l-22.5 -9z" />
<glyph unicode="&#x2000;" horiz-adv-x="1041" />
<glyph unicode="&#x2001;" horiz-adv-x="2083" />
<glyph unicode="&#x2002;" horiz-adv-x="1041" />
<glyph unicode="&#x2003;" horiz-adv-x="2083" />
<glyph unicode="&#x2004;" horiz-adv-x="694" />
<glyph unicode="&#x2005;" horiz-adv-x="520" />
<glyph unicode="&#x2006;" horiz-adv-x="347" />
<glyph unicode="&#x2007;" horiz-adv-x="347" />
<glyph unicode="&#x2008;" horiz-adv-x="260" />
<glyph unicode="&#x2009;" horiz-adv-x="416" />
<glyph unicode="&#x200a;" horiz-adv-x="115" />
<glyph unicode="&#x2010;" horiz-adv-x="575" d="M0 424v334h575v-334h-575z" />
<glyph unicode="&#x2011;" horiz-adv-x="575" d="M0 424v334h575v-334h-575z" />
<glyph unicode="&#x2012;" horiz-adv-x="575" d="M0 424v334h575v-334h-575z" />
<glyph unicode="&#x2013;" horiz-adv-x="1024" d="M72 424v334h880v-334h-880z" />
<glyph unicode="&#x2014;" horiz-adv-x="2048" d="M72 424v334h1904v-334h-1904z" />
<glyph unicode="&#x2018;" horiz-adv-x="643" d="M143 838v430q0 71 22 123t56.5 77.5t67 36.5t63.5 11h148v-183h-74q-48 0 -67 -26.5t-19 -51.5v-69h160v-348h-357z" />
<glyph unicode="&#x2019;" horiz-adv-x="643" d="M143 838v182h74q50 0 69 25.5t19 52.5v69h-162v349h357v-431q0 -58 -15 -103.5t-37.5 -71.5t-52 -43t-55 -23t-49.5 -6h-148z" />
<glyph unicode="&#x201a;" horiz-adv-x="643" d="M143 0v348h357v-430q0 -71 -22 -123t-56.5 -77.5t-67 -36.5t-63.5 -11h-148v183h74q35 0 56 16t26.5 31.5t5.5 29.5v70h-162z" />
<glyph unicode="&#x201c;" horiz-adv-x="1136" d="M137 838v430q0 71 22 123t56.5 77.5t67 36.5t63.5 11h148v-185h-74q-27 0 -46 -9t-27.5 -22.5t-11.5 -24.5t-3 -20v-69h162v-348h-357zM643 838v430q0 71 22 123t56.5 77.5t67 36.5t63.5 11h147v-185h-73q-27 0 -45.5 -8.5t-27 -22t-12 -24.5t-3.5 -21v-69h161v-348h-356 z" />
<glyph unicode="&#x201d;" horiz-adv-x="1136" d="M137 838v182h74q50 0 69 25.5t19 52.5v69h-162v349h357v-431q0 -58 -15 -103.5t-37.5 -71.5t-52 -43t-55 -23t-49.5 -6h-148zM643 838v182h74q48 0 67 25.5t19 52.5v69h-160v349h356v-431q0 -72 -21.5 -123.5t-56 -76.5t-67 -36t-63.5 -11h-148z" />
<glyph unicode="&#x201e;" horiz-adv-x="1136" d="M137 0v348h357v-430q1 -71 -21 -123t-57 -77.5t-68 -36.5t-65 -11h-146v183h72q35 0 56 16t26.5 31.5t5.5 29.5v70h-160zM643 0v348h356v-430q0 -57 -15 -102.5t-37.5 -72t-51.5 -44t-54.5 -23.5t-49.5 -6h-148v183h74q48 0 67 26t19 51v70h-160z" />
<glyph unicode="&#x2022;" horiz-adv-x="1513" d="M444 772q0 129 91 223.5t225 94.5q127 0 218 -93.5t91 -224.5q0 -132 -91.5 -224.5t-219.5 -92.5q-130 0 -222 93.5t-92 223.5z" />
<glyph unicode="&#x2026;" horiz-adv-x="2048" d="M166 0v348h354v-348h-354zM848 0v348h354v-348h-354zM1530 0v348h354v-348h-354z" />
<glyph unicode="&#x202f;" horiz-adv-x="416" />
<glyph unicode="&#x2039;" horiz-adv-x="454" d="M96 471v234l262 266v-287l-104 -92l104 -96v-285z" />
<glyph unicode="&#x203a;" horiz-adv-x="454" d="M96 211v287l105 92l-105 96v285l262 -269v-231z" />
<glyph unicode="&#x205f;" horiz-adv-x="520" />
<glyph unicode="&#x20ac;" d="M-20 541l67 164h92v120h-159l67 164h92q11 252 177 403.5t434 151.5q158 0 294 -51q110 -43 183 -102l-144 -299q-64 50 -125 75q-86 37 -172 37q-130 0 -192.5 -62t-67.5 -153h512l-67 -164h-445v-120h398l-68 -164h-330v-17q0 -213 176 -213q73 0 113 42t47 102h387 q-12 -221 -161.5 -352.5t-397.5 -131.5q-254 0 -402.5 151t-148.5 402v17h-159z" />
<glyph unicode="&#x2122;" horiz-adv-x="2027" d="M43 1298v218h629v-218h-185v-692h-258v692h-186zM791 606v910h325l178 -568h4l177 568h325v-910h-239l4 617h-4l-179 -617h-172l-184 617l-4 -4l8 -613h-239z" />
<glyph unicode="&#x25fc;" horiz-adv-x="1136" d="M0 0v1137h1137v-1137h-1137z" />
<glyph unicode="&#xfb01;" horiz-adv-x="1230" d="M8 879v258h127v59q0 66 16 119.5t41 89t62 62t74 41t83 23t81.5 11t76.5 2.5h52v-256h-39q-12 0 -23.5 -1.5t-27.5 -8t-27.5 -17.5t-20 -31.5t-8.5 -47.5v-45h633v-1137h-340v879h-293v-879h-340v879h-127zM768 1257v259h340v-259h-340z" />
<glyph unicode="&#xfb02;" horiz-adv-x="1230" d="M8 879v258h127v59q0 66 16 119.5t41 89t62 62t74 41t83 23t81.5 11t76.5 2.5h52v-256h-39q-12 0 -23.5 -1.5t-27.5 -8t-27.5 -17.5t-20 -31.5t-8.5 -47.5v-45h293v376h340v-1513h-340v879h-293v-879h-340v879h-127z" />
</font>
</defs>
</svg>
