<?xml version="1.0" standalone="no"?>
<!DOCTYPE svg PUBLIC "-//W3C//DTD SVG 1.1//EN" "http://www.w3.org/Graphics/SVG/1.1/DTD/svg11.dtd" >
<svg xmlns="http://www.w3.org/2000/svg" xmlns:xlink="http://www.w3.org/1999/xlink" version="1.1">
<metadata>
Created by FontForge 20150824 at Mon Oct 17 02:20:03 2016
 By Everything Fonts
Copyright A^(c) 2014 by RenA~(c) Bieder. All rights reserved.
</metadata>
<defs>
<font id="GalanoGrotesqueRegular" horiz-adv-x="610" >
  <font-face 
    font-family="GalanoGrotesqueRegular"
    font-weight="400"
    font-stretch="normal"
    units-per-em="1000"
    panose-1="0 0 0 0 0 0 0 0 0 0"
    ascent="795"
    descent="-205"
    x-height="493"
    cap-height="670"
    bbox="-175 -204 1188 935"
    underline-thickness="50"
    underline-position="-150"
    unicode-range="U+0020-FB02"
  />
<missing-glyph horiz-adv-x="792" 
d="M396 684q146 0 247 -100q102 -100 102 -252q0 -149 -102 -248t-247 -99t-247 99t-102 248q0 152 102 252q101 100 247 100zM396 647q-127 0 -218 -89q-90 -88 -90 -224q0 -133 90 -223t218 -90t218 90t90 223q0 136 -90 224q-91 89 -218 89zM527 400h-3q0 -45 -32 -75
q-32 -31 -81 -35v-43h-44v81h26q37 0 62 20q24 20 24 51q0 34 -22 55q-23 21 -60 21q-40 0 -64 -24q-23 -23 -25 -63l-46 8q2 52 39 87q38 35 96 35t94 -33t36 -85zM387 202v1q13 0 22 -9t9 -21q0 -14 -9 -23t-22 -9t-22 9t-9 23q0 11 9 20t22 9z" />
    <glyph glyph-name=".notdef" horiz-adv-x="792" 
d="M396 684q146 0 247 -100q102 -100 102 -252q0 -149 -102 -248t-247 -99t-247 99t-102 248q0 152 102 252q101 100 247 100zM396 647q-127 0 -218 -89q-90 -88 -90 -224q0 -133 90 -223t218 -90t218 90t90 223q0 136 -90 224q-91 89 -218 89zM527 400h-3q0 -45 -32 -75
q-32 -31 -81 -35v-43h-44v81h26q37 0 62 20q24 20 24 51q0 34 -22 55q-23 21 -60 21q-40 0 -64 -24q-23 -23 -25 -63l-46 8q2 52 39 87q38 35 96 35t94 -33t36 -85zM387 202v1q13 0 22 -9t9 -21q0 -14 -9 -23t-22 -9t-22 9t-9 23q0 11 9 20t22 9z" />
    <glyph glyph-name=".null" horiz-adv-x="0" 
 />
    <glyph glyph-name="nonmarkingreturn" horiz-adv-x="333" 
 />
    <glyph glyph-name="space" unicode=" " horiz-adv-x="252" 
 />
    <glyph glyph-name="exclam" unicode="!" horiz-adv-x="269" 
d="M177 670v-31l-3 -440h-78l-2 440v31h83zM135 98q22 0 37 -15t15 -36t-15 -36t-37 -15t-37 15t-15 36t15 36t37 15z" />
    <glyph glyph-name="quotedbl" unicode="&#x22;" horiz-adv-x="338" 
d="M55 392v278h78v-278h-78zM205 392v278h78v-278h-78z" />
    <glyph glyph-name="numbersign" unicode="#" horiz-adv-x="679" 
d="M525 421l-46 -185h107l-18 -65h-106l-43 -171h-69l43 171h-188l-43 -171h-69l43 171h-107l17 65h107l47 185h-108l18 65h106l47 184h69l-47 -184h188l46 184h69l-46 -184h108l-19 -65h-106zM456 421h-187l-47 -185h188z" />
    <glyph glyph-name="dollar" unicode="$" horiz-adv-x="588" 
d="M534 197h-4q0 -79 -56 -129t-147 -54v-114h-67v116q-87 10 -146 62q-59 51 -66 130l77 16q6 -59 44 -95q37 -36 95 -45v226l-45 10q-152 33 -152 157q0 77 54 125q55 49 141 56v113h67v-115q83 -10 135 -60q53 -50 60 -121l-76 -15q-5 54 -37 86q-33 33 -83 42v-218
l50 -11q156 -35 156 -162zM263 384v207q-54 -6 -86 -35t-32 -74q0 -39 24 -60q23 -20 70 -32zM324 296l-1 -217q60 5 96 36t36 78q0 41 -25 63q-26 22 -75 33z" />
    <glyph glyph-name="percent" unicode="%" horiz-adv-x="847" 
d="M215 683h1q67 0 116 -44q48 -43 48 -116q0 -69 -48 -114t-115 -45t-117 45q-49 45 -49 114q0 73 48 116q49 44 116 44zM140 0l501 670h55l-501 -670h-55zM216 629h-2q-43 0 -75 -29t-32 -75t32 -75t75 -29q42 0 74 29t32 75q0 47 -31 75q-32 29 -73 29zM632 306h1
q67 0 116 -44q48 -43 48 -116q0 -69 -48 -114t-115 -45q-68 0 -117 45t-49 114q0 73 48 116q49 44 116 44zM633 252h-2q-43 0 -75 -29t-32 -75t32 -75t75 -29q42 0 74 29t32 75q0 47 -31 75q-32 29 -73 29z" />
    <glyph glyph-name="ampersand" unicode="&#x26;" horiz-adv-x="711" 
d="M641 -20l-112 95q-83 -89 -216 -89q-113 0 -180 55q-68 56 -68 145q0 60 35 107q34 47 93 75q-57 66 -57 138q0 78 54 127q53 49 139 49q82 0 134 -47t62 -129l-72 -14q-6 65 -39 95t-85 30q-53 0 -86 -30t-33 -81q0 -45 32 -88q25 -33 113 -108l158 -132q24 52 24 119
v43h68v-43q0 -94 -38 -165l119 -99zM313 52l-1 -2q97 0 162 68l-177 150l-60 51q-46 -21 -72 -56t-26 -78q0 -61 48 -97t126 -36z" />
    <glyph glyph-name="quotesingle" unicode="'" horiz-adv-x="188" 
d="M55 392v278h78v-278h-78z" />
    <glyph glyph-name="parenleft" unicode="(" horiz-adv-x="353" 
d="M137 335h-1q0 -107 36 -195q35 -87 125 -175l-54 -47q-189 174 -189 417t189 417l54 -48q-88 -85 -124 -174q-36 -88 -36 -195z" />
    <glyph glyph-name="parenright" unicode=")" horiz-adv-x="353" 
d="M55 704l53 47q189 -174 189 -417t-189 -417l-54 47q89 87 125 176q36 88 36 195t-36 195q-36 89 -124 174z" />
    <glyph glyph-name="asterisk" unicode="*" horiz-adv-x="427" 
d="M265 544l120 -69l-26 -44l-118 68v-132h-55v132l-118 -68l-26 44l120 69l-120 69l26 44l118 -68v131h55v-131l118 68l26 -44z" />
    <glyph glyph-name="plus" unicode="+" horiz-adv-x="580" 
d="M510 271h-186v-188h-68v188h-186v68h186v188h68v-188h186v-68z" />
    <glyph glyph-name="comma" unicode="," horiz-adv-x="210" 
d="M75 -132h-60l66 263h90v-2z" />
    <glyph glyph-name="hyphen" unicode="-" horiz-adv-x="443" 
d="M383 222h-323v67h323v-67z" />
    <glyph glyph-name="period" unicode="." horiz-adv-x="204" 
d="M102 98q22 0 37 -15t15 -36t-15 -36t-37 -15t-37 15t-15 36t15 36t37 15z" />
    <glyph glyph-name="slash" unicode="/" horiz-adv-x="368" 
d="M361 741l-288 -813h-65l288 813h65z" />
    <glyph glyph-name="zero" unicode="0" horiz-adv-x="665" 
d="M333 683l-2 1q125 0 201 -96q77 -97 77 -252q0 -157 -76 -252q-77 -96 -201 -96t-201 96q-76 95 -76 252q0 154 77 251q76 96 201 96zM331 62q89 0 143 75t54 198q0 122 -54 199q-54 76 -143 76q-90 0 -144 -76q-54 -77 -54 -199q0 -123 54 -198t144 -75z" />
    <glyph glyph-name="one" unicode="1" horiz-adv-x="355" 
d="M268 670v-670h-77v575l-179 -100v73l207 122h49z" />
    <glyph glyph-name="two" unicode="2" horiz-adv-x="515" 
d="M482 72l-2 -72h-451v51l239 223q43 39 70 66q23 23 41 59t18 77q0 62 -40 99q-41 38 -105 38q-68 0 -109 -42q-40 -41 -43 -118l-73 15q5 98 66 156q62 59 161 59q98 0 160 -57q61 -57 61 -148q0 -68 -35 -121q-36 -55 -122 -135l-161 -150h325z" />
    <glyph glyph-name="three" unicode="3" horiz-adv-x="586" 
d="M414 343l-4 -3q54 -15 84 -54t30 -96q0 -91 -63 -148t-165 -57q-106 0 -172 60t-72 158l74 15q5 -75 50 -119q46 -44 120 -44q70 0 113 37q44 38 44 97q0 55 -39 87q-40 32 -109 32h-68v63h63q65 0 102 31q38 32 38 84q0 56 -40 90q-41 35 -106 35q-70 0 -111 -40
t-46 -114l-73 14q8 95 70 153t163 58q98 0 158 -54t60 -141q0 -53 -27 -90t-74 -54z" />
    <glyph glyph-name="four" unicode="4" horiz-adv-x="620" 
d="M589 161h-104v-161h-77v161h-373v76l350 433h100v-444h104v-65zM408 226v361l-287 -361h287z" />
    <glyph glyph-name="five" unicode="5" horiz-adv-x="563" 
d="M159 405h139q102 0 161 -52q60 -53 60 -148q0 -97 -64 -157q-65 -60 -171 -60q-105 0 -173 62q-67 62 -69 168l76 15q0 -80 47 -127q46 -46 120 -46q71 0 114 39q44 39 44 104t-40 98q-41 33 -111 33h-211l15 336h396v-71h-323z" />
    <glyph glyph-name="six" unicode="6" horiz-adv-x="609" 
d="M325 433h-1q105 0 167 -62t62 -158q0 -97 -65 -162q-64 -64 -170 -64q-125 0 -194 87t-69 243q0 200 91 294q70 73 177 73q79 0 136 -39q58 -40 77 -109l-76 -15q-29 92 -141 92q-75 0 -123 -53q-73 -79 -67 -234q26 50 79 78q55 29 117 29zM317 59l1 -3q68 0 113 45
t45 111t-45 110q-46 44 -114 44q-71 0 -116 -45t-45 -110t47 -109q46 -43 114 -43z" />
    <glyph glyph-name="seven" unicode="7" horiz-adv-x="495" 
d="M477 670v-54l-262 -616h-87l262 599h-367v71h454z" />
    <glyph glyph-name="eight" unicode="8" horiz-adv-x="578" 
d="M390 343l-2 -3q72 -18 108 -64t36 -102q0 -86 -67 -138t-177 -52q-111 0 -179 53t-68 138q0 57 37 101q38 46 108 65q-62 19 -94 63q-31 43 -31 101q0 80 63 128t166 48q104 0 165 -48q62 -48 62 -128q0 -55 -32 -99q-31 -43 -95 -63zM138 497l4 1q-1 -52 39 -85
q41 -33 108 -33t108 33t41 86t-42 84q-43 32 -108 32t-108 -32q-42 -31 -42 -86zM291 53v-1q69 0 115 35q45 35 45 92q0 55 -44 90t-116 35q-70 0 -114 -35t-44 -92q0 -58 44 -91q43 -33 114 -33z" />
    <glyph glyph-name="nine" unicode="9" horiz-adv-x="609" 
d="M290 683l1 2q125 0 194 -87t69 -243q0 -200 -91 -294q-70 -73 -177 -73q-79 0 -136 39t-76 109l76 14q26 -92 138 -92q73 0 123 53q73 79 67 234q-26 -50 -79 -78q-55 -29 -115 -29q-102 0 -166 62q-63 62 -63 159q0 98 65 161t170 63zM293 305v1q71 0 116 45t45 110
q0 66 -47 110t-114 44q-69 0 -114 -45t-45 -111q0 -67 45 -110q46 -44 114 -44z" />
    <glyph glyph-name="colon" unicode=":" horiz-adv-x="204" 
d="M102 462q22 0 37 -15t15 -36t-15 -36t-37 -15t-37 15t-15 36t15 36t37 15zM102 98q22 0 37 -15t15 -36t-15 -36t-37 -15t-37 15t-15 36t15 36t37 15z" />
    <glyph glyph-name="semicolon" unicode=";" horiz-adv-x="231" 
d="M129 462q22 0 37 -15t15 -36t-15 -36t-37 -15t-37 15t-15 36t15 36t37 15zM75 -132h-60l66 263h90v-2z" />
    <glyph glyph-name="less" unicode="&#x3c;" horiz-adv-x="437" 
d="M398 120l-366 159v76l366 160v-82l-274 -116l274 -117v-80z" />
    <glyph glyph-name="equal" unicode="=" horiz-adv-x="580" 
d="M510 379h-440v68h440v-68zM510 190h-440v68h440v-68z" />
    <glyph glyph-name="greater" unicode="&#x3e;" horiz-adv-x="437" 
d="M314 317l-274 116v82l367 -160v-76l-367 -159v80z" />
    <glyph glyph-name="question" unicode="?" horiz-adv-x="522" 
d="M267 683l-3 -3q100 0 162 -57t62 -151q0 -82 -55 -134t-144 -60v-77h-71v138h43q64 0 108 38t44 96q0 63 -40 102q-41 39 -108 39q-68 0 -110 -43q-43 -44 -47 -114l-74 14q3 92 68 152q64 60 165 60zM251 95q22 0 37 -15t15 -36t-15 -36t-37 -15t-37 15t-15 36t15 36
t37 15z" />
    <glyph glyph-name="at" unicode="@" horiz-adv-x="959" 
d="M663 473l-3 -297q0 -30 21 -48t52 -18q53 0 80 56t27 131q0 148 -103 242q-104 95 -256 95q-157 0 -261 -101t-104 -255q0 -153 102 -255t251 -102q61 0 126 18t113 51l27 -43q-49 -36 -123 -57q-73 -21 -142 -21q-170 0 -288 115t-118 291q0 175 120 291
q119 115 299 115q175 0 293 -108q119 -108 119 -274q0 -94 -41 -164q-40 -69 -125 -69q-47 0 -77 21t-38 59q-52 -76 -153 -76q-86 0 -143 57t-57 148q0 92 57 149t141 57q97 0 151 -75v67h53zM463 120v-1q60 0 102 42t42 111q0 68 -42 110t-102 42t-102 -42t-42 -109
q0 -69 42 -111t102 -42z" />
    <glyph glyph-name="A" unicode="A" horiz-adv-x="693" 
d="M683 0h-85l-75 170h-353l-75 -170h-85l300 670h73zM492 241l-145 331l-146 -331h291z" />
    <glyph glyph-name="B" unicode="B" horiz-adv-x="668" 
d="M482 344l-3 -3q58 -7 97 -49t39 -109q0 -83 -54 -132q-55 -50 -153 -50h-321v670h308q93 0 146 -48t53 -128q0 -61 -33 -103t-79 -48zM164 602l1 -231h228q55 0 90 33t35 87q0 51 -36 81t-96 30h-222zM165 69l235 1q62 0 98 33t36 88q0 53 -37 84q-38 32 -96 32h-236
v-238z" />
    <glyph glyph-name="C" unicode="C" horiz-adv-x="777" 
d="M403 61h-3q88 0 153 45t90 127l76 -18q-31 -104 -117 -166q-85 -61 -201 -61q-145 0 -246 101t-101 246t101 246t246 101q115 0 202 -60q86 -59 118 -161l-76 -22q-26 80 -90 125q-65 45 -153 45q-112 0 -190 -79q-78 -80 -78 -195t78 -195q78 -79 191 -79z" />
    <glyph glyph-name="D" unicode="D" horiz-adv-x="736" 
d="M88 670l221 -1q175 -2 272 -94q99 -95 99 -241t-99 -240q-98 -94 -271 -94h-222v670zM166 71l141 1q138 2 215 74q78 74 78 189t-78 189q-79 74 -214 74h-142v-527z" />
    <glyph glyph-name="E" unicode="E" horiz-adv-x="637" 
d="M577 72v-72h-489v670h488v-71h-409v-227h380v-71h-380v-229h410z" />
    <glyph glyph-name="F" unicode="F" horiz-adv-x="590" 
d="M167 599v-234h366v-71h-366v-294h-79v670h480v-71h-401z" />
    <glyph glyph-name="G" unicode="G" horiz-adv-x="795" 
d="M368 368h371q1 -9 1 -34q0 -149 -94 -247q-94 -99 -241 -99t-248 101t-101 246t101 246t246 101q111 0 195 -51t120 -142l-71 -25q-35 70 -99 108q-64 37 -147 37q-113 0 -189 -79q-77 -80 -77 -195t78 -195q78 -79 192 -79q106 0 176 66q71 67 83 169h-296v72z" />
    <glyph glyph-name="H" unicode="H" horiz-adv-x="736" 
d="M648 670v-670h-79v302h-402v-302h-79v670h79v-297h402v297h79z" />
    <glyph glyph-name="I" unicode="I" horiz-adv-x="254" 
d="M167 0h-79v670h79v-670z" />
    <glyph glyph-name="J" unicode="J" horiz-adv-x="595" 
d="M516 670l-1 -427q0 -113 -69 -185t-180 -72q-100 0 -165 60t-78 157l75 17q9 -74 54 -117q46 -44 116 -44q76 0 122 52q47 53 47 133v426h79z" />
    <glyph glyph-name="K" unicode="K" horiz-adv-x="673" 
d="M648 0h-107l-337 297h-37v-297h-79v670h79v-302h31l329 302h99l-363 -335z" />
    <glyph glyph-name="L" unicode="L" horiz-adv-x="586" 
d="M551 72v-72h-463v670h79v-598h384z" />
    <glyph glyph-name="M" unicode="M" horiz-adv-x="898" 
d="M810 670v-670h-76v492l-259 -492h-51l-260 492v-492h-76v670h69l292 -552l292 552h69z" />
    <glyph glyph-name="N" unicode="N" horiz-adv-x="760" 
d="M673 670v-670h-68l-438 532v-532h-79v670h68l438 -538v538h79z" />
    <glyph glyph-name="O" unicode="O" horiz-adv-x="803" 
d="M402 683h-2q145 0 246 -101t101 -246q0 -146 -100 -246q-101 -101 -246 -101t-246 101q-100 100 -100 246q0 145 101 246t246 101zM400 62v-1q112 0 189 78q77 79 77 194t-77 195t-189 80q-113 0 -189 -79q-77 -80 -77 -195t77 -194q77 -78 189 -78z" />
    <glyph glyph-name="P" unicode="P" horiz-adv-x="651" 
d="M88 670l291 -2q107 0 170 -57t63 -150t-63 -150t-169 -57h-213v-254h-79v670zM166 323h213q70 0 113 38q42 37 42 99t-42 99q-43 38 -113 38h-213v-274z" />
    <glyph glyph-name="Q" unicode="Q" horiz-adv-x="803" 
d="M692 -161l-152 178q-67 -29 -140 -29q-145 0 -246 101q-100 100 -100 246q0 145 101 246t246 101t246 -101t101 -246q0 -84 -36 -156q-36 -73 -97 -120l138 -165zM133 336v-1q0 -115 77 -194q76 -78 189 -78t189 78q77 79 77 194t-77 195t-189 80q-113 0 -189 -79
q-77 -80 -77 -195z" />
    <glyph glyph-name="R" unicode="R" horiz-adv-x="670" 
d="M645 0l-99 -2l-256 287h-123v-287h-79v670h310q99 0 158 -52q60 -52 60 -138t-60 -138q-61 -53 -158 -53h-12zM167 357h231q63 0 102 33t39 87t-39 87t-102 33h-231v-240z" />
    <glyph glyph-name="S" unicode="S" horiz-adv-x="627" 
d="M311 683l-4 1q99 0 167 -50q67 -49 84 -134l-79 -18q-10 61 -57 97q-46 36 -116 36q-68 0 -110 -33t-42 -87q0 -43 26 -67q25 -23 75 -34l146 -33q169 -37 169 -174q0 -91 -68 -145t-180 -54q-109 0 -184 54t-87 147l83 17q10 -70 63 -109t132 -39q76 0 120 35t44 90
q0 47 -25 69q-26 22 -84 36l-151 33q-161 35 -161 171q0 86 66 138q67 53 173 53z" />
    <glyph glyph-name="T" unicode="T" horiz-adv-x="627" 
d="M602 599h-248v-599h-80v599h-249v71h577v-71z" />
    <glyph glyph-name="U" unicode="U" horiz-adv-x="721" 
d="M641 670v-377q0 -138 -76 -221q-76 -84 -202 -84q-127 0 -205 84t-78 221v377h79v-377q0 -103 56 -167q55 -63 147 -63q90 0 145 63q55 62 55 167v377h79z" />
    <glyph glyph-name="V" unicode="V" horiz-adv-x="696" 
d="M678 670l-292 -670h-76l-292 670h86l244 -562l244 562h86z" />
    <glyph glyph-name="W" unicode="W" horiz-adv-x="953" 
d="M936 670l-206 -670h-83l-170 544l-171 -544h-82l-206 670h82l167 -549l171 549h77l171 -549l167 549h83z" />
    <glyph glyph-name="X" unicode="X" horiz-adv-x="632" 
d="M518 0l-202 286l-201 -286h-97l239 337l-234 333h96l197 -282l197 282h97l-235 -333l240 -337h-97z" />
    <glyph glyph-name="Y" unicode="Y" horiz-adv-x="671" 
d="M374 235v-235h-79v234l-277 436h88l228 -357l228 357h91z" />
    <glyph glyph-name="Z" unicode="Z" horiz-adv-x="626" 
d="M575 68v-68h-516v50l410 552h-398v68h500v-57l-401 -545h405z" />
    <glyph glyph-name="bracketleft" unicode="[" horiz-adv-x="391" 
d="M162 674v-690h174v-66h-248v823h248v-67h-174z" />
    <glyph glyph-name="backslash" unicode="\" horiz-adv-x="368" 
d="M361 -72h-65l-288 813h65z" />
    <glyph glyph-name="bracketright" unicode="]" horiz-adv-x="391" 
d="M304 741v-823h-249v66h174v690h-174v67h249z" />
    <glyph glyph-name="asciicircum" unicode="^" horiz-adv-x="394" 
d="M95 456h-70l145 214h54l145 -214h-70l-102 148z" />
    <glyph glyph-name="underscore" unicode="_" horiz-adv-x="505" 
d="M485 -121h-465v65h465v-65z" />
    <glyph glyph-name="grave" unicode="`" horiz-adv-x="600" 
d="M259 707l79 -140h-66l-102 140h89z" />
    <glyph glyph-name="a" unicode="a" horiz-adv-x="644" 
d="M556 493v-491h-76v78q-69 -91 -196 -91q-101 0 -173 72t-72 186t72 186t173 72q127 0 196 -91v79h76zM296 57l-1 -4q73 0 129 54t56 138q0 85 -55 139t-129 54q-78 0 -131 -53t-53 -138t53 -138q52 -52 131 -52z" />
    <glyph glyph-name="b" unicode="b" horiz-adv-x="649" 
d="M360 505v-2q101 0 173 -72t72 -186t-72 -186t-173 -72q-127 0 -196 91v-78h-76v720h76v-306q69 91 196 91zM348 53l-1 3q78 0 131 53t53 138t-53 138t-131 53q-73 0 -129 -54q-55 -54 -55 -139q0 -84 56 -138q55 -54 129 -54z" />
    <glyph glyph-name="c" unicode="c" horiz-adv-x="576" 
d="M300 58h-5q56 0 102 29q45 29 62 83l70 -19q-19 -73 -84 -118t-147 -45q-107 0 -182 72t-75 187q0 114 75 186t182 72q82 0 147 -45t87 -120l-73 -22q-17 56 -60 86t-101 30q-76 0 -129 -53t-53 -135q0 -83 53 -136q52 -52 131 -52z" />
    <glyph glyph-name="d" unicode="d" horiz-adv-x="649" 
d="M561 720v-718h-76v78q-69 -91 -196 -91q-101 0 -173 72t-72 186t72 186t173 72q127 0 196 -91v306h76zM301 57l-1 -4q74 0 129 54q56 54 56 138q0 85 -55 139q-56 54 -129 54q-79 0 -132 -53q-52 -52 -52 -138q0 -85 53 -138q52 -52 131 -52z" />
    <glyph glyph-name="e" unicode="e" horiz-adv-x="583" 
d="M540 259l-3 -28h-423q5 -80 57 -128q53 -48 120 -48q122 0 168 106l68 -16q-29 -77 -90 -117t-145 -40q-102 0 -176 72t-74 186q0 116 75 188t180 72q101 0 170 -69t73 -178zM295 438q-65 0 -115 -40q-52 -41 -62 -109h343q-11 71 -57 110t-109 39z" />
    <glyph glyph-name="f" unicode="f" horiz-adv-x="356" 
d="M361 429l-177 -2v-429h-76v429h-86v64h86v73q0 79 46 125q47 47 123 47q44 0 80 -18l-19 -62q-30 11 -57 11q-45 0 -72 -27t-27 -74v-73h179v-64z" />
    <glyph glyph-name="g" unicode="g" horiz-adv-x="633" 
d="M545 493v-456q0 -105 -69 -168q-67 -61 -180 -61q-179 0 -241 128l64 44q27 -52 69 -78q41 -25 109 -25q77 0 126 47q48 47 48 125v60q-61 -81 -185 -81q-99 0 -172 68q-72 68 -72 171t72 170q73 68 172 68q122 0 185 -80v68h74zM296 92l1 -2q71 0 122 48t51 125
q0 76 -51 124t-123 48q-76 0 -128 -47q-51 -46 -51 -123t51 -125t128 -48z" />
    <glyph glyph-name="h" unicode="h" horiz-adv-x="625" 
d="M350 505l2 3q89 0 143 -58t54 -153v-295h-76v281q0 68 -38 111q-37 42 -99 42q-80 0 -126 -52t-46 -147v-237h-76v720h76v-309q63 94 186 94z" />
    <glyph glyph-name="i" unicode="i" horiz-adv-x="269" 
d="M134 693q23 0 38 -15t15 -36q0 -22 -15 -37t-38 -15q-22 0 -37 15t-15 37q0 21 15 36t37 15zM173 0h-77v493h77v-493z" />
    <glyph glyph-name="j" unicode="j" horiz-adv-x="285" 
d="M151 693q22 0 37 -15t15 -36q0 -22 -15 -37t-37 -15q-23 0 -38 15t-15 37q0 21 15 36t38 15zM-16 -163l16 65q27 -11 48 -11q28 0 47 17q18 16 18 45v540h77v-549q0 -56 -34 -90t-90 -34q-42 0 -82 17z" />
    <glyph glyph-name="k" unicode="k" horiz-adv-x="574" 
d="M569 0h-106l-266 218h-33v-218h-76v720h76v-427h37l237 200h99l-280 -239z" />
    <glyph glyph-name="l" unicode="l" horiz-adv-x="252" 
d="M164 0h-76v720h76v-720z" />
    <glyph glyph-name="m" unicode="m" horiz-adv-x="946" 
d="M686 505l-2 -5q80 0 132 -51q53 -51 53 -134v-319h-76v306q0 58 -36 94t-91 36q-70 0 -110 -48q-41 -49 -41 -134v-252h-76v306q0 58 -36 94t-91 36q-68 0 -109 -48q-40 -47 -40 -134v-252h-76v493h76v-75q55 87 168 87q57 0 102 -27t67 -73q61 100 186 100z" />
    <glyph glyph-name="n" unicode="n" horiz-adv-x="624" 
d="M350 505l2 3q89 0 143 -58t54 -153v-295h-76v281q0 68 -38 111q-37 42 -99 42q-80 0 -126 -52t-46 -147v-237h-76v493h76v-82q63 94 186 94z" />
    <glyph glyph-name="o" unicode="o" horiz-adv-x="608" 
d="M305 504v-2q110 0 185 -72t75 -184t-75 -186q-74 -73 -185 -73q-110 0 -186 74q-75 73 -75 186t75 185t186 72zM305 53v-1q77 0 131 54t54 138q0 83 -54 137t-131 54t-133 -54q-55 -54 -55 -136q0 -84 55 -138q56 -54 133 -54z" />
    <glyph glyph-name="p" unicode="p" horiz-adv-x="649" 
d="M360 505v-2q101 0 173 -72t72 -186t-72 -186t-173 -72q-127 0 -196 91v-248h-76v663h76v-79q69 91 196 91zM348 53l-1 3q78 0 131 53t53 138t-53 138t-131 53q-73 0 -129 -54q-55 -54 -55 -139q0 -84 56 -138q55 -54 129 -54z" />
    <glyph glyph-name="q" unicode="q" horiz-adv-x="649" 
d="M561 493v-661h-76v248q-69 -91 -196 -91q-101 0 -173 72t-72 186t72 186t173 72q127 0 196 -91v79h76zM301 57l-1 -4q74 0 129 54q56 54 56 138q0 85 -55 139q-56 54 -129 54q-79 0 -132 -53q-52 -52 -52 -138q0 -85 53 -138q52 -52 131 -52z" />
    <glyph glyph-name="r" unicode="r" horiz-adv-x="412" 
d="M363 498h-1q23 0 35 -4l-6 -73q-6 1 -29 1q-95 0 -146 -64t-51 -168v-190h-77v493h77v-121q69 126 198 126z" />
    <glyph glyph-name="s" unicode="s" horiz-adv-x="506" 
d="M46 133l76 15q5 -49 45 -74q41 -26 100 -26q52 0 86 23q33 23 33 60q0 53 -81 71l-113 25q-128 29 -128 126q0 67 51 108q52 41 136 41q82 0 134 -37q53 -37 66 -99l-73 -16q-8 40 -42 66q-34 25 -88 25q-52 0 -80 -22q-29 -23 -29 -58q0 -28 18 -43q20 -17 56 -24
l119 -26q127 -28 127 -129q0 -71 -54 -112q-53 -40 -144 -40q-88 0 -147 38t-68 108z" />
    <glyph glyph-name="t" unicode="t" horiz-adv-x="394" 
d="M359 89l26 -63q-55 -39 -114 -39q-75 0 -119 44t-44 123v275h-107v64h107v157h77v-157h176v-64h-176v-270q0 -46 24 -73t66 -27t84 30z" />
    <glyph glyph-name="u" unicode="u" horiz-adv-x="624" 
d="M537 493l-3 -493h-77v80q-63 -93 -186 -93q-89 0 -143 58q-54 59 -54 153v295h77v-281q0 -68 38 -111q37 -42 99 -42q80 0 126 51q46 50 46 146v237h77z" />
    <glyph glyph-name="v" unicode="v" horiz-adv-x="555" 
d="M537 493l-218 -493h-83l-218 493h83l177 -403l176 403h83z" />
    <glyph glyph-name="w" unicode="w" horiz-adv-x="769" 
d="M751 493l-166 -495h-71l-129 374l-130 -374h-71l-166 495h77l127 -382l132 382h61l132 -382l127 382h77z" />
    <glyph glyph-name="x" unicode="x" horiz-adv-x="578" 
d="M345 243l188 -243h-92l-152 197l-152 -197h-92l188 243l-188 250h92l152 -203l152 203h92z" />
    <glyph glyph-name="y" unicode="y" horiz-adv-x="563" 
d="M545 493l-302 -663h-85l81 177l-221 486h86l176 -394l180 394h85z" />
    <glyph glyph-name="z" unicode="z" horiz-adv-x="506" 
d="M466 64v-64h-426v52l321 377h-312v64h407v-53l-321 -376h331z" />
    <glyph glyph-name="braceleft" unicode="{" horiz-adv-x="430" 
d="M227 608v-171q0 -39 -18 -68t-49 -42q67 -28 67 -110v-168q0 -31 18 -49t47 -18h83v-65h-92q-57 0 -94 35q-36 35 -36 92v167q0 35 -21 55t-64 29l-23 5v59l23 5q39 4 62 26q23 21 23 58v167q0 55 36 90q37 35 94 35h92v-66h-83q-29 0 -47 -18t-18 -48z" />
    <glyph glyph-name="bar" unicode="|" horiz-adv-x="250" 
d="M162 -72h-74v813h74v-813z" />
    <glyph glyph-name="braceright" unicode="}" horiz-adv-x="430" 
d="M385 359v-59l-23 -5q-43 -9 -64 -29t-21 -55v-167q0 -56 -36 -91q-35 -34 -94 -34h-92v65h83q29 0 47 18t18 50v168q0 82 67 110q-31 13 -49 42q-18 28 -18 68v168q0 30 -18 48t-47 18h-83v66h92q57 0 94 -35q36 -35 36 -90v-167q0 -37 23 -58q23 -22 62 -26z" />
    <glyph glyph-name="asciitilde" unicode="~" horiz-adv-x="476" 
d="M108 238l-65 1q0 65 33 96q34 32 78 32q40 0 86 -32t71 -32t40 17t14 45h67q0 -67 -34 -98q-35 -32 -81 -32q-40 0 -86 32t-69 32q-26 0 -41 -17q-15 -16 -13 -44z" />
    <glyph glyph-name="exclamdown" unicode="&#xa1;" horiz-adv-x="269" 
d="M135 404h-2q-22 0 -37 15t-15 36q0 23 15 36q16 14 38 14t38 -14q15 -13 15 -36q0 -21 -15 -36t-37 -15zM92 -138l2 440h78l3 -440v-31h-83v31z" />
    <glyph glyph-name="cent" unicode="&#xa2;" horiz-adv-x="576" 
d="M325 433l-3 -377q49 6 87 35q37 28 52 75l70 -19q-18 -67 -75 -111t-132 -51v-118h-66v120q-94 13 -156 83t-62 173t63 173t156 84v128h66v-126q74 -8 131 -51q58 -44 77 -111l-73 -22q-13 48 -50 79q-36 30 -85 36zM114 243h2q0 -73 41 -123q40 -49 105 -61v371
q-64 -12 -106 -63t-42 -124z" />
    <glyph glyph-name="sterling" unicode="&#xa3;" horiz-adv-x="643" 
d="M595 72l-1 -73h-540v49l85 17v206h-85v71h85v118q0 100 63 161q64 62 164 62q101 0 161 -61q61 -62 65 -160l-74 -15q-4 76 -45 118t-108 42q-66 0 -106 -40t-40 -106v-118h234v-71h-234v-200h376z" />
    <glyph glyph-name="yen" unicode="&#xa5;" horiz-adv-x="666" 
d="M404 313h161v-60h-194v-75h194v-60h-194v-118h-79v118h-190v60h190v75h-190v60h157l-229 357h88l214 -338l213 338h91z" />
    <glyph glyph-name="section" unicode="&#xa7;" horiz-adv-x="532" 
d="M492 236h-2q0 -94 -84 -133q36 -39 36 -93q0 -70 -51 -111q-50 -40 -133 -40q-97 0 -151 48t-54 128l67 14q2 -63 36 -96t98 -33q49 0 81 26t32 66q0 54 -68 84l-148 65q-67 29 -93 60q-28 32 -28 83q0 92 85 132q-37 37 -37 93q0 71 51 111q52 41 134 41q91 0 143 -48
t54 -125l-68 -14q-2 61 -34 93q-33 33 -90 33q-51 0 -82 -25t-31 -66q0 -54 68 -84l148 -66q67 -29 93 -60q28 -32 28 -83zM333 151l19 -10q66 31 66 90q0 28 -18 49q-20 23 -64 43l-149 67q-4 2 -21 11q-65 -29 -65 -91q0 -28 18 -49t64 -42z" />
    <glyph glyph-name="dieresis" unicode="&#xa8;" horiz-adv-x="600" 
d="M201 679q23 0 38 -15t15 -36q0 -22 -15 -37t-38 -15q-22 0 -37 15t-15 37q0 21 15 36t37 15zM399 679q23 0 38 -15t15 -36q0 -22 -15 -37t-38 -15q-22 0 -37 15t-15 37q0 21 15 36t37 15z" />
    <glyph glyph-name="copyright" unicode="&#xa9;" horiz-adv-x="775" 
d="M386 683v-2q146 0 246 -99q101 -99 101 -250q0 -148 -101 -247q-100 -99 -246 -99t-246 99q-101 99 -101 248q0 152 101 251q100 99 246 99zM386 643v-1q-128 0 -217 -88q-90 -88 -90 -222q0 -132 90 -220q89 -88 217 -88t217 88q90 88 90 220q0 134 -90 222
q-91 89 -217 89zM392 520l-3 2q71 0 120 -37t58 -96l-53 -11q-10 40 -45 66t-78 26q-55 0 -93 -39q-38 -40 -38 -97q0 -59 38 -99q38 -39 93 -39q45 0 80 26t44 69l53 -10q-11 -62 -58 -99q-49 -38 -118 -38q-79 0 -135 53q-55 52 -55 135t55 135q56 53 135 53z" />
    <glyph glyph-name="ordfeminine" unicode="&#xaa;" horiz-adv-x="387" 
d="M202 673h-1q63 0 101 -32t38 -93v-205h-58v39q-41 -47 -117 -47q-53 0 -84 27t-31 72t38 72t102 27h91v18q0 35 -21 56t-56 21q-67 0 -84 -68l-52 12q11 50 46 75q37 26 88 26zM177 379l-1 -1q46 0 75 26t29 65v25h-86q-41 0 -63 -16t-22 -43q0 -26 18 -41t50 -15z" />
    <glyph glyph-name="guillemotleft" unicode="&#xab;" horiz-adv-x="415" 
d="M25 262l122 178h78l-122 -178l122 -178h-78zM190 262l122 178h78l-122 -178l122 -178h-78z" />
    <glyph glyph-name="registered" unicode="&#xae;" horiz-adv-x="500" 
d="M250 683q84 0 142 -57t58 -144q0 -86 -58 -143t-142 -57t-142 57t-58 143q0 87 58 144q59 57 142 57zM250 310v-2q73 0 122 49q50 50 50 123q0 75 -50 125t-122 50q-71 0 -120 -49q-50 -50 -50 -124q0 -73 50 -123q49 -49 120 -49zM336 519v-1q0 -22 -15 -39t-40 -21
l66 -67h-36l-63 65h-41v-65h-28v189h83q35 0 54 -16q20 -17 20 -45zM207 481l53 -1q21 0 34 10t13 27t-12 27q-11 10 -33 10h-55v-73z" />
    <glyph glyph-name="macron" unicode="&#xaf;" horiz-adv-x="600" 
d="M442 584h-284v62h284v-62z" />
    <glyph glyph-name="degree" unicode="&#xb0;" horiz-adv-x="407" 
d="M204 683l2 -1q58 0 96 -37q39 -37 39 -96q0 -58 -40 -94q-41 -36 -96 -36t-96 36q-40 36 -40 95q0 58 39 96q38 37 96 37zM206 468q31 0 56 23q24 23 24 59t-24 59q-25 23 -56 23t-56 -23q-24 -23 -24 -59t24 -59q25 -23 56 -23z" />
    <glyph glyph-name="plusminus" unicode="&#xb1;" horiz-adv-x="580" 
d="M510 394v-68h-186v-168h-68v168h-186v68h186v178h68v-178h186zM70 68h440v-68h-440v68z" />
    <glyph glyph-name="acute" unicode="&#xb4;" horiz-adv-x="600" 
d="M314 567h-67l80 140h89z" />
    <glyph glyph-name="paragraph" unicode="&#xb6;" horiz-adv-x="561" 
d="M340 0l-62 1v299h-50q-92 0 -150 51q-59 51 -59 137q0 88 53 135t143 47h125v-670zM472 1h-61v670h61v-670z" />
    <glyph glyph-name="periodcentered" unicode="&#xb7;" horiz-adv-x="204" 
d="M102 314q22 0 37 -15t15 -36t-15 -36t-37 -15t-37 15t-15 36t15 36t37 15z" />
    <glyph glyph-name="cedilla" unicode="&#xb8;" horiz-adv-x="600" 
d="M293 0h59l-77 -170h-83z" />
    <glyph glyph-name="ordmasculine" unicode="&#xba;" horiz-adv-x="439" 
d="M219 673v-2q72 0 123 -48t51 -121t-51 -121t-123 -48q-70 0 -121 48t-51 122t51 122t121 48zM219 386h-1q46 0 81 33q34 33 34 83t-34 83q-35 33 -81 33t-79 -33t-33 -83t33 -83t80 -33z" />
    <glyph glyph-name="guillemotright" unicode="&#xbb;" horiz-adv-x="415" 
d="M25 84l122 178l-122 178h78l122 -178l-122 -178h-78zM190 84l122 178l-122 178h78l122 -178l-122 -178h-78z" />
    <glyph glyph-name="onequarter" unicode="&#xbc;" horiz-adv-x="702" 
d="M107 593l-83 -51v62l103 66h38v-369h-58v292zM621 670l-501 -670h-55l501 670h55zM677 83h-58v-83h-55v83h-203v54l191 232h67v-238h58v-48zM564 131v176l-146 -176h146z" />
    <glyph glyph-name="onehalf" unicode="&#xbd;" horiz-adv-x="777" 
d="M107 593l-83 -51v62l103 66h38v-369h-58v292zM612 670l-501 -670h-55l501 670h55zM743 51v-56h-268v39l140 120q39 33 54 54t15 48q0 30 -21 49q-20 19 -55 19q-37 0 -58 -23q-20 -22 -22 -63l-51 11q0 55 36 90q37 35 96 35q60 0 95 -31q36 -31 36 -85q0 -38 -21 -68
q-18 -25 -67 -68l-84 -71h175z" />
    <glyph glyph-name="threequarters" unicode="&#xbe;" horiz-adv-x="793" 
d="M307 412l-2 1q0 -49 -38 -82q-37 -33 -96 -33t-100 33t-42 90l49 11q2 -40 27 -63q25 -22 66 -22q35 0 58 18q22 18 22 47q0 28 -21 45q-20 16 -57 16h-37v42h33q35 0 56 15t21 41q0 29 -21 45q-22 17 -55 17q-36 0 -59 -21q-22 -21 -24 -59l-51 11q3 53 40 84
q38 32 94 32q57 0 93 -30t36 -77q0 -55 -55 -77q63 -22 63 -84zM711 671l-501 -670h-55l501 670h55zM767 84h-58v-83h-55v83h-203v54l191 232h67v-238h58v-48zM654 132v176l-146 -176h146z" />
    <glyph glyph-name="questiondown" unicode="&#xbf;" horiz-adv-x="522" 
d="M269 404h-2q-22 0 -37 15t-15 36q0 23 15 36q16 14 38 14t38 -14q15 -13 15 -36q0 -21 -15 -36t-37 -15zM412 45l73 -14q-3 -92 -67 -152t-165 -60t-162 57t-61 152q0 81 56 134q56 52 144 60v77h72v-137h-44q-66 0 -109 -37t-43 -97q0 -63 41 -102t107 -39q69 0 111 43
q43 44 47 115z" />
    <glyph glyph-name="Agrave" unicode="&#xc0;" horiz-adv-x="693" 
d="M312 745l-102 140h89l79 -140h-66zM683 0h-85l-75 170h-353l-75 -170h-85l300 670h73zM492 241l-145 331l-146 -331h291z" />
    <glyph glyph-name="Aacute" unicode="&#xc1;" horiz-adv-x="693" 
d="M386 745h-67l80 140h89zM683 0h-85l-75 170h-353l-75 -170h-85l300 670h73zM492 241l-145 331l-146 -331h291z" />
    <glyph glyph-name="Acircumflex" unicode="&#xc2;" horiz-adv-x="693" 
d="M272 737h-77l116 142h73l117 -142h-78l-75 93zM683 0h-85l-75 170h-353l-75 -170h-85l300 670h73zM492 241l-145 331l-146 -331h291z" />
    <glyph glyph-name="Atilde" unicode="&#xc3;" horiz-adv-x="693" 
d="M290 815l-3 -3q-17 0 -27 -12q-10 -11 -10 -32h-54q0 52 26 78q25 25 62 25q32 0 66 -24q35 -24 56 -24q17 0 27 13t10 34h54q0 -53 -25 -78t-61 -25q-31 0 -66 24t-55 24zM680 -3h-85l-75 170h-353l-75 -170h-85l300 670h73zM489 238l-145 331l-146 -331h291z" />
    <glyph glyph-name="Adieresis" unicode="&#xc4;" horiz-adv-x="693" 
d="M248 755q-22 0 -37 15t-15 37q0 21 15 36t37 15q23 0 38 -15t15 -36q0 -22 -15 -37t-38 -15zM446 755q-22 0 -37 15t-15 37q0 21 15 36t37 15q23 0 38 -15t15 -36q0 -22 -15 -37t-38 -15zM683 0h-85l-75 170h-353l-75 -170h-85l300 670h73zM492 241l-145 331l-146 -331
h291z" />
    <glyph glyph-name="Aring" unicode="&#xc5;" horiz-adv-x="693" 
d="M347 727l-1 -1q-43 0 -73 30t-30 72q0 41 30 71t73 30q44 0 74 -30t30 -70q0 -42 -30 -72t-73 -30zM346 881l-1 2q-23 0 -39 -16t-16 -39q0 -22 17 -39q16 -16 39 -16q24 0 40 15t16 38t-16 39t-40 16zM681 1h-85l-75 170h-353l-75 -170h-85l300 670h73zM490 242
l-145 331l-146 -331h291z" />
    <glyph glyph-name="AE" unicode="&#xc6;" horiz-adv-x="1040" 
d="M1000 72v-72h-489v155h-300l-109 -155h-92l480 670h509v-71h-409v-227h380v-71h-380v-229h410zM511 226v355l-250 -355h250z" />
    <glyph glyph-name="Ccedilla" unicode="&#xc7;" horiz-adv-x="777" 
d="M403 61h-2q89 0 153 45q65 45 90 127l76 -18q-28 -100 -110 -162q-81 -62 -190 -66l-71 -157h-83l95 159q-132 15 -220 113q-87 98 -87 233q0 145 101 246t246 101q115 0 202 -60q86 -59 118 -161l-76 -22q-26 80 -90 125q-65 45 -153 45q-112 0 -190 -79
q-78 -80 -78 -195t78 -195q78 -79 191 -79z" />
    <glyph glyph-name="Egrave" unicode="&#xc8;" horiz-adv-x="637" 
d="M306 745l-102 140h89l79 -140h-66zM577 72v-72h-489v670h488v-71h-409v-227h380v-71h-380v-229h410z" />
    <glyph glyph-name="Eacute" unicode="&#xc9;" horiz-adv-x="637" 
d="M379 745h-67l80 140h89zM577 72v-72h-489v670h488v-71h-409v-227h380v-71h-380v-229h410z" />
    <glyph glyph-name="Ecircumflex" unicode="&#xca;" horiz-adv-x="637" 
d="M265 737h-77l116 142h73l117 -142h-78l-75 93zM577 72v-72h-489v670h488v-71h-409v-227h380v-71h-380v-229h410z" />
    <glyph glyph-name="Edieresis" unicode="&#xcb;" horiz-adv-x="637" 
d="M241 755q-22 0 -37 15t-15 37q0 21 15 36t37 15q23 0 38 -15t15 -36q0 -22 -15 -37t-38 -15zM439 755q-22 0 -37 15t-15 37q0 21 15 36t37 15q23 0 38 -15t15 -36q0 -22 -15 -37t-38 -15zM577 72v-72h-489v670h488v-71h-409v-227h380v-71h-380v-229h410z" />
    <glyph glyph-name="Igrave" unicode="&#xcc;" horiz-adv-x="254" 
d="M79 885l79 -140h-66l-103 140h90zM167 0h-79v670h79v-670z" />
    <glyph glyph-name="Iacute" unicode="&#xcd;" horiz-adv-x="254" 
d="M166 745h-67l80 140h89zM167 0h-79v670h79v-670z" />
    <glyph glyph-name="Icircumflex" unicode="&#xce;" horiz-adv-x="254" 
d="M281 737h-78l-75 93l-76 -93h-78l117 142h73zM88 670h79v-670h-79v670z" />
    <glyph glyph-name="Idieresis" unicode="&#xcf;" horiz-adv-x="254" 
d="M28 857q23 0 38 -15t15 -36q0 -22 -15 -37t-38 -15q-22 0 -37 15t-15 37q0 21 15 36t37 15zM226 857q23 0 38 -15t15 -36q0 -22 -15 -37t-38 -15q-22 0 -37 15t-15 37q0 21 15 36t37 15zM167 0h-79v670h79v-670z" />
    <glyph glyph-name="Eth" unicode="&#xd0;" horiz-adv-x="743" 
d="M105 670l221 -1q175 -2 272 -94q99 -95 99 -241t-99 -240q-98 -94 -271 -94h-222v302h-75v71h75v297zM183 71l143 -1q134 -1 214 74q78 74 78 189t-78 190t-214 75h-143v-226h164v-71h-164v-230z" />
    <glyph glyph-name="Ntilde" unicode="&#xd1;" horiz-adv-x="760" 
d="M332 815l-3 -3q-17 0 -27 -12q-10 -11 -10 -32h-54q0 52 26 78q25 25 62 25q32 0 66 -24t56 -24q17 0 27 13t10 34h54q0 -53 -25 -78t-61 -25q-31 0 -66 24t-55 24zM670 667v-670h-68l-438 532v-532h-79v670h68l438 -538v538h79z" />
    <glyph glyph-name="Ograve" unicode="&#xd2;" horiz-adv-x="803" 
d="M367 745l-102 140h89l79 -140h-66zM402 683h-2q145 0 246 -101t101 -246q0 -146 -100 -246q-101 -101 -246 -101t-246 101q-100 100 -100 246q0 145 101 246t246 101zM400 62v-1q112 0 189 78q77 79 77 194t-77 195t-189 80q-113 0 -189 -79q-77 -80 -77 -195t77 -194
q77 -78 189 -78z" />
    <glyph glyph-name="Oacute" unicode="&#xd3;" horiz-adv-x="803" 
d="M441 745h-67l80 140h89zM402 683h-2q145 0 246 -101t101 -246q0 -146 -100 -246q-101 -101 -246 -101t-246 101q-100 100 -100 246q0 145 101 246t246 101zM400 62v-1q112 0 189 78q77 79 77 194t-77 195t-189 80q-113 0 -189 -79q-77 -80 -77 -195t77 -194
q77 -78 189 -78z" />
    <glyph glyph-name="Ocircumflex" unicode="&#xd4;" horiz-adv-x="803" 
d="M327 737h-77l116 142h73l117 -142h-78l-75 93zM402 683h-2q145 0 246 -101t101 -246q0 -146 -100 -246q-101 -101 -246 -101t-246 101q-100 100 -100 246q0 145 101 246t246 101zM400 62v-1q112 0 189 78q77 79 77 194t-77 195t-189 80q-113 0 -189 -79q-77 -80 -77 -195
t77 -194q77 -78 189 -78z" />
    <glyph glyph-name="Otilde" unicode="&#xd5;" horiz-adv-x="803" 
d="M345 815l-3 -3q-16 0 -27 -12q-10 -11 -10 -32h-54q0 52 26 78q25 25 62 25q31 0 66 -24q34 -24 56 -24q17 0 27 13t10 34h54q0 -53 -25 -78t-61 -25q-32 0 -66 24t-55 24zM399 680h-2q145 0 246 -101t101 -246q0 -146 -100 -246q-101 -101 -246 -101t-246 101
q-100 100 -100 246q0 145 101 246t246 101zM397 59v-1q113 0 189 78q77 79 77 194t-77 195t-189 80q-113 0 -189 -79q-77 -80 -77 -195t77 -194q76 -78 189 -78z" />
    <glyph glyph-name="Odieresis" unicode="&#xd6;" horiz-adv-x="803" 
d="M303 755q-22 0 -37 15t-15 37q0 21 15 36t37 15q23 0 38 -15t15 -36q0 -22 -15 -37t-38 -15zM501 755q-22 0 -37 15t-15 37q0 21 15 36t37 15q23 0 38 -15t15 -36q0 -22 -15 -37t-38 -15zM402 683h-2q145 0 246 -101t101 -246q0 -146 -100 -246q-101 -101 -246 -101
t-246 101q-100 100 -100 246q0 145 101 246t246 101zM400 62v-1q112 0 189 78q77 79 77 194t-77 195t-189 80q-113 0 -189 -79q-77 -80 -77 -195t77 -194q77 -78 189 -78z" />
    <glyph glyph-name="multiply" unicode="&#xd7;" horiz-adv-x="507" 
d="M303 305l141 -141l-49 -49l-141 141l-142 -141l-49 49l141 141l-141 141l49 50l142 -141l141 141l49 -50z" />
    <glyph glyph-name="Oslash" unicode="&#xd8;" horiz-adv-x="803" 
d="M733 615l-62 -61q76 -92 76 -219q0 -146 -100 -246q-101 -101 -246 -101q-124 0 -219 77l-65 -65l-46 46l65 65q-81 95 -81 225q0 145 101 246t246 101q130 0 225 -82l60 60zM134 335h-1q0 -96 56 -170l382 382q-74 62 -171 62q-113 0 -189 -79q-77 -80 -77 -195zM400 62
v1q112 0 189 78q77 79 77 194q0 93 -51 164l-380 -380q71 -57 165 -57z" />
    <glyph glyph-name="Ugrave" unicode="&#xd9;" horiz-adv-x="721" 
d="M326 745l-102 140h89l79 -140h-66zM641 670v-377q0 -138 -76 -221q-76 -84 -202 -84q-127 0 -205 84t-78 221v377h79v-377q0 -103 56 -167q55 -63 147 -63q90 0 145 63q55 62 55 167v377h79z" />
    <glyph glyph-name="Uacute" unicode="&#xda;" horiz-adv-x="721" 
d="M399 745h-67l80 140h89zM641 670v-377q0 -138 -76 -221q-76 -84 -202 -84q-127 0 -205 84t-78 221v377h79v-377q0 -103 56 -167q55 -63 147 -63q90 0 145 63q55 62 55 167v377h79z" />
    <glyph glyph-name="Ucircumflex" unicode="&#xdb;" horiz-adv-x="721" 
d="M285 737h-77l116 142h73l117 -142h-78l-75 93zM641 670v-377q0 -138 -76 -221q-76 -84 -202 -84q-127 0 -205 84t-78 221v377h79v-377q0 -103 56 -167q55 -63 147 -63q90 0 145 63q55 62 55 167v377h79z" />
    <glyph glyph-name="Udieresis" unicode="&#xdc;" horiz-adv-x="721" 
d="M261 755q-22 0 -37 15t-15 37q0 21 15 36t37 15q23 0 38 -15t15 -36q0 -22 -15 -37t-38 -15zM459 755q-22 0 -37 15t-15 37q0 21 15 36t37 15q23 0 38 -15t15 -36q0 -22 -15 -37t-38 -15zM641 670v-377q0 -138 -76 -221q-76 -84 -202 -84q-127 0 -205 84t-78 221v377h79
v-377q0 -103 56 -167q55 -63 147 -63q90 0 145 63q55 62 55 167v377h79z" />
    <glyph glyph-name="Yacute" unicode="&#xdd;" horiz-adv-x="671" 
d="M374 745h-67l80 140h89zM374 235v-235h-79v234l-277 436h88l228 -357l228 357h91z" />
    <glyph glyph-name="Thorn" unicode="&#xde;" horiz-adv-x="628" 
d="M167 549l192 1q105 0 169 -60t64 -154t-64 -154t-168 -60h-193v-122h-79v670h79v-121zM166 194l189 1q71 0 114 40q44 41 44 102q0 63 -44 102q-43 39 -114 39h-189v-284z" />
    <glyph glyph-name="germandbls" unicode="&#xdf;" horiz-adv-x="656" 
d="M461 385l-5 -1q71 -17 111 -64t40 -123q0 -89 -58 -148q-59 -60 -157 -60q-87 0 -162 31l14 64q72 -30 143 -30t113 42t42 101q0 70 -52 109t-142 39h-47v64h37q68 0 111 35q42 34 42 90q0 60 -42 97q-41 37 -111 37q-79 0 -127 -51t-48 -136v-483h-76v478q0 118 69 188
q69 71 182 71q101 0 164 -54t63 -137q0 -57 -27 -99t-77 -60z" />
    <glyph glyph-name="agrave" unicode="&#xe0;" horiz-adv-x="644" 
d="M275 567l-102 140h89l79 -140h-66zM556 493v-491h-76v78q-69 -91 -196 -91q-101 0 -173 72t-72 186t72 186t173 72q127 0 196 -91v79h76zM296 57l-1 -4q73 0 129 54t56 138q0 85 -55 139t-129 54q-78 0 -131 -53t-53 -138t53 -138q52 -52 131 -52z" />
    <glyph glyph-name="aacute" unicode="&#xe1;" horiz-adv-x="644" 
d="M349 567h-67l80 140h89zM556 493v-491h-76v78q-69 -91 -196 -91q-101 0 -173 72t-72 186t72 186t173 72q127 0 196 -91v79h76zM296 57l-1 -4q73 0 129 54t56 138q0 85 -55 139t-129 54q-78 0 -131 -53t-53 -138t53 -138q52 -52 131 -52z" />
    <glyph glyph-name="acircumflex" unicode="&#xe2;" horiz-adv-x="644" 
d="M235 559h-77l116 142h73l117 -142h-78l-75 93zM556 493v-491h-76v78q-69 -91 -196 -91q-101 0 -173 72t-72 186t72 186t173 72q127 0 196 -91v79h76zM296 57l-1 -4q73 0 129 54t56 138q0 85 -55 139t-129 54q-78 0 -131 -53t-53 -138t53 -138q52 -52 131 -52z" />
    <glyph glyph-name="atilde" unicode="&#xe3;" horiz-adv-x="644" 
d="M253 637l-3 -3q-16 0 -27 -12q-10 -11 -10 -32h-54q0 52 26 78q25 25 62 25q31 0 66 -24t56 -24q17 0 27 13t10 34h54q0 -53 -25 -78t-61 -25q-32 0 -66 24t-55 24zM553 490v-491h-76v78q-69 -91 -196 -91q-101 0 -173 72t-72 186t72 186t173 72q127 0 196 -91v79h76z
M293 54l-1 -4q74 0 129 54q56 54 56 138q0 85 -55 139q-56 54 -129 54q-78 0 -131 -53t-53 -138t53 -138q52 -52 131 -52z" />
    <glyph glyph-name="adieresis" unicode="&#xe4;" horiz-adv-x="644" 
d="M211 577q-22 0 -37 15t-15 37q0 21 15 36t37 15q23 0 38 -15t15 -36q0 -22 -15 -37t-38 -15zM409 577q-22 0 -37 15t-15 37q0 21 15 36t37 15q23 0 38 -15t15 -36q0 -22 -15 -37t-38 -15zM556 493v-491h-76v78q-69 -91 -196 -91q-101 0 -173 72t-72 186t72 186t173 72
q127 0 196 -91v79h76zM296 57l-1 -4q73 0 129 54t56 138q0 85 -55 139t-129 54q-78 0 -131 -53t-53 -138t53 -138q52 -52 131 -52z" />
    <glyph glyph-name="aring" unicode="&#xe5;" horiz-adv-x="644" 
d="M310 550l-1 -1q-43 0 -73 30t-30 72q0 41 30 71t73 30q44 0 74 -30t30 -70q0 -42 -30 -72t-73 -30zM309 704l-1 2q-23 0 -39 -16t-16 -39q0 -22 17 -39q16 -16 39 -16t40 15q16 15 16 38t-16 39t-40 16zM554 494v-491h-76v78q-69 -91 -196 -91q-101 0 -173 72t-72 186
t72 186t173 72q127 0 196 -91v79h76zM294 58l-1 -4q73 0 129 54t56 138q0 85 -55 139t-129 54q-78 0 -131 -53t-53 -138t53 -138q52 -52 131 -52z" />
    <glyph glyph-name="ae" unicode="&#xe6;" horiz-adv-x="927" 
d="M885 222l-406 1q7 -78 54 -123t118 -45q45 0 90 27q46 28 65 79l69 -16q-20 -70 -84 -113q-65 -44 -141 -44q-143 0 -209 120q-28 -55 -85 -88t-127 -33q-89 0 -137 42t-48 107q0 68 51 105q52 38 140 38h175v41q0 54 -36 87t-94 33q-59 0 -95 -27t-44 -74l-70 15
q8 68 63 110q56 42 146 42q62 0 108 -25t69 -72q69 96 191 96q100 0 168 -72q69 -74 69 -184v-27zM478 280l330 -1q-8 73 -51 117q-44 44 -105 44q-68 0 -117 -43t-57 -117zM410 222l-176 -2q-56 0 -87 -22t-31 -61q0 -40 32 -64t89 -24q72 0 122 46q51 47 51 117v10z" />
    <glyph glyph-name="ccedilla" unicode="&#xe7;" horiz-adv-x="576" 
d="M300 58h-3q56 0 102 29q45 29 62 83l70 -19q-18 -67 -75 -111t-130 -51l-72 -158h-83l94 159q-95 12 -160 81q-64 68 -64 176q0 114 75 186t182 72q82 0 147 -45t87 -120l-73 -22q-17 56 -60 86t-101 30q-76 0 -129 -53t-53 -135q0 -83 53 -136q52 -52 131 -52z" />
    <glyph glyph-name="egrave" unicode="&#xe8;" horiz-adv-x="583" 
d="M263 567l-102 140h89l79 -140h-66zM540 259l-3 -28h-423q5 -80 57 -128q53 -48 120 -48q122 0 168 106l68 -16q-29 -77 -90 -117t-145 -40q-102 0 -176 72t-74 186q0 116 75 188t180 72q101 0 170 -69t73 -178zM295 438q-65 0 -115 -40q-52 -41 -62 -109h343
q-11 71 -57 110t-109 39z" />
    <glyph glyph-name="eacute" unicode="&#xe9;" horiz-adv-x="583" 
d="M337 567h-67l80 140h89zM540 259l-3 -28h-423q5 -80 57 -128q53 -48 120 -48q122 0 168 106l68 -16q-29 -77 -90 -117t-145 -40q-102 0 -176 72t-74 186q0 116 75 188t180 72q101 0 170 -69t73 -178zM295 438q-65 0 -115 -40q-52 -41 -62 -109h343q-11 71 -57 110
t-109 39z" />
    <glyph glyph-name="ecircumflex" unicode="&#xea;" horiz-adv-x="583" 
d="M223 559h-77l116 142h73l117 -142h-78l-75 93zM540 259l-3 -28h-423q5 -80 57 -128q53 -48 120 -48q122 0 168 106l68 -16q-29 -77 -90 -117t-145 -40q-102 0 -176 72t-74 186q0 116 75 188t180 72q101 0 170 -69t73 -178zM295 438q-65 0 -115 -40q-52 -41 -62 -109h343
q-11 71 -57 110t-109 39z" />
    <glyph glyph-name="edieresis" unicode="&#xeb;" horiz-adv-x="583" 
d="M199 577q-22 0 -37 15t-15 37q0 21 15 36t37 15q23 0 38 -15t15 -36q0 -22 -15 -37t-38 -15zM397 577q-22 0 -37 15t-15 37q0 21 15 36t37 15q23 0 38 -15t15 -36q0 -22 -15 -37t-38 -15zM540 259l-3 -28h-423q5 -80 57 -128q53 -48 120 -48q122 0 168 106l68 -16
q-29 -77 -90 -117t-145 -40q-102 0 -176 72t-74 186q0 116 75 188t180 72q101 0 170 -69t73 -178zM295 438q-65 0 -115 -40q-52 -41 -62 -109h343q-11 71 -57 110t-109 39z" />
    <glyph glyph-name="igrave" unicode="&#xec;" horiz-adv-x="279" 
d="M92 707l79 -140h-66l-102 140h89zM178 0h-77v493h77v-493z" />
    <glyph glyph-name="iacute" unicode="&#xed;" horiz-adv-x="279" 
d="M178 567h-67l80 140h89zM178 0h-77v493h77v-493z" />
    <glyph glyph-name="icircumflex" unicode="&#xee;" horiz-adv-x="279" 
d="M293 559h-78l-75 93l-76 -93h-78l117 142h73zM101 493h77v-493h-77v493z" />
    <glyph glyph-name="idieresis" unicode="&#xef;" horiz-adv-x="279" 
d="M40 679q23 0 38 -15t15 -36q0 -22 -15 -37t-38 -15q-22 0 -37 15t-15 37q0 21 15 36t37 15zM238 679q23 0 38 -15t15 -36q0 -22 -15 -37t-38 -15q-22 0 -37 15t-15 37q0 21 15 36t37 15zM178 0h-77v493h77v-493z" />
    <glyph glyph-name="eth" unicode="&#xf0;" horiz-adv-x="607" 
d="M455 656l-81 -33q86 -77 138 -175t52 -196q0 -120 -77 -192t-180 -72q-109 0 -187 72t-78 186t72 186t178 72q68 0 123 -37q-44 69 -108 122l-134 -59l-23 54l102 46q-68 44 -147 75v15h125q44 -20 94 -57l107 48zM305 57h-2q86 0 134 60t48 135q0 80 -54 134t-129 54
q-79 0 -133 -54t-54 -138q0 -83 56 -137q55 -54 134 -54z" />
    <glyph glyph-name="ntilde" unicode="&#xf1;" horiz-adv-x="624" 
d="M265 637l-3 -3q-16 0 -27 -12q-10 -11 -10 -32h-54q0 52 26 78q25 25 62 25q31 0 66 -24t56 -24q17 0 27 13t10 34h54q0 -53 -25 -78t-61 -25q-32 0 -66 24q-35 24 -55 24zM347 502l2 3q89 0 143 -58q54 -59 54 -153v-295h-76v281q0 68 -38 111q-38 42 -99 42
q-80 0 -126 -52t-46 -147v-237h-76v493h76v-82q63 94 186 94z" />
    <glyph glyph-name="ograve" unicode="&#xf2;" horiz-adv-x="608" 
d="M270 572l-102 140h89l79 -140h-66zM305 504v-2q110 0 185 -72t75 -184t-75 -186q-74 -73 -185 -73q-110 0 -186 74q-75 73 -75 186t75 185t186 72zM305 53v-1q77 0 131 54t54 138q0 83 -54 137t-131 54t-133 -54q-55 -54 -55 -136q0 -84 55 -138q56 -54 133 -54z" />
    <glyph glyph-name="oacute" unicode="&#xf3;" horiz-adv-x="608" 
d="M344 572h-67l80 140h89zM305 504v-2q110 0 185 -72t75 -184t-75 -186q-74 -73 -185 -73q-110 0 -186 74q-75 73 -75 186t75 185t186 72zM305 53v-1q77 0 131 54t54 138q0 83 -54 137t-131 54t-133 -54q-55 -54 -55 -136q0 -84 55 -138q56 -54 133 -54z" />
    <glyph glyph-name="ocircumflex" unicode="&#xf4;" horiz-adv-x="608" 
d="M230 564h-77l116 142h73l117 -142h-78l-75 93zM305 504v-2q110 0 185 -72t75 -184t-75 -186q-74 -73 -185 -73q-110 0 -186 74q-75 73 -75 186t75 185t186 72zM305 53v-1q77 0 131 54t54 138q0 83 -54 137t-131 54t-133 -54q-55 -54 -55 -136q0 -84 55 -138
q56 -54 133 -54z" />
    <glyph glyph-name="otilde" unicode="&#xf5;" horiz-adv-x="608" 
d="M248 643l-3 -3q-17 0 -27 -12q-10 -11 -10 -32h-54q0 52 26 78q25 25 62 25q32 0 66 -24t56 -24q17 0 27 13t10 34h54q0 -53 -25 -78t-61 -25q-31 0 -66 24t-55 24zM302 501v-2q110 0 185 -72t75 -184q0 -113 -75 -186q-74 -73 -185 -73q-110 0 -186 74q-75 74 -75 186
q0 113 75 185t186 72zM302 50v-1q77 0 131 54t54 138q0 83 -54 137t-131 54q-78 0 -133 -54t-55 -136q0 -84 55 -138t133 -54z" />
    <glyph glyph-name="odieresis" unicode="&#xf6;" horiz-adv-x="608" 
d="M206 582q-22 0 -37 15t-15 37q0 21 15 36t37 15q23 0 38 -15t15 -36q0 -22 -15 -37t-38 -15zM404 582q-22 0 -37 15t-15 37q0 21 15 36t37 15q23 0 38 -15t15 -36q0 -22 -15 -37t-38 -15zM305 504v-2q110 0 185 -72t75 -184t-75 -186q-74 -73 -185 -73q-110 0 -186 74
q-75 73 -75 186t75 185t186 72zM305 53v-1q77 0 131 54t54 138q0 83 -54 137t-131 54t-133 -54q-55 -54 -55 -136q0 -84 55 -138q56 -54 133 -54z" />
    <glyph glyph-name="divide" unicode="&#xf7;" horiz-adv-x="580" 
d="M288 535q22 0 37 -15t15 -36q0 -22 -15 -36q-16 -14 -37 -14t-37 14q-15 14 -15 36q0 21 15 36t37 15zM510 271h-440v68h440v-68zM288 176q22 0 37 -15t15 -36q0 -23 -15 -36q-16 -14 -37 -14t-37 14q-15 13 -15 36q0 21 15 36t37 15z" />
    <glyph glyph-name="oslash" unicode="&#xf8;" horiz-adv-x="606" 
d="M562 466l-54 -54q58 -68 58 -165q0 -113 -75 -186q-74 -73 -185 -73q-95 0 -165 55l-55 -55l-39 39l55 55q-57 70 -57 165q0 113 75 185t186 72q94 0 162 -54l55 55zM117 247h1q0 -65 34 -114l267 267q-49 37 -114 37q-77 0 -133 -54q-55 -54 -55 -136zM306 55l2 -1
q77 0 131 54t54 138q0 65 -34 114l-267 -266q50 -39 114 -39z" />
    <glyph glyph-name="ugrave" unicode="&#xf9;" horiz-adv-x="624" 
d="M273 567l-102 140h89l79 -140h-66zM537 493l-3 -493h-77v80q-63 -93 -186 -93q-89 0 -143 58q-54 59 -54 153v295h77v-281q0 -68 38 -111q37 -42 99 -42q80 0 126 51q46 50 46 146v237h77z" />
    <glyph glyph-name="uacute" unicode="&#xfa;" horiz-adv-x="624" 
d="M346 567h-67l80 140h89zM537 493l-3 -493h-77v80q-63 -93 -186 -93q-89 0 -143 58q-54 59 -54 153v295h77v-281q0 -68 38 -111q37 -42 99 -42q80 0 126 51q46 50 46 146v237h77z" />
    <glyph glyph-name="ucircumflex" unicode="&#xfb;" horiz-adv-x="624" 
d="M232 559h-77l116 142h73l117 -142h-78l-75 93zM537 493l-3 -493h-77v80q-63 -93 -186 -93q-89 0 -143 58q-54 59 -54 153v295h77v-281q0 -68 38 -111q37 -42 99 -42q80 0 126 51q46 50 46 146v237h77z" />
    <glyph glyph-name="udieresis" unicode="&#xfc;" horiz-adv-x="624" 
d="M208 577q-22 0 -37 15t-15 37q0 21 15 36t37 15q23 0 38 -15t15 -36q0 -22 -15 -37t-38 -15zM406 577q-22 0 -37 15t-15 37q0 21 15 36t37 15q23 0 38 -15t15 -36q0 -22 -15 -37t-38 -15zM537 493l-3 -493h-77v80q-63 -93 -186 -93q-89 0 -143 58q-54 59 -54 153v295h77
v-281q0 -68 38 -111q37 -42 99 -42q80 0 126 51q46 50 46 146v237h77z" />
    <glyph glyph-name="yacute" unicode="&#xfd;" horiz-adv-x="563" 
d="M321 568h-67l80 140h89zM545 493l-302 -663h-85l81 177l-221 486h86l176 -394l180 394h85z" />
    <glyph glyph-name="thorn" unicode="&#xfe;" horiz-adv-x="649" 
d="M360 505v-2q101 0 173 -72t72 -186t-72 -186t-173 -72q-127 0 -196 91v-248h-76v890h76v-306q69 91 196 91zM348 53l-1 3q78 0 131 53t53 138t-53 138t-131 53q-73 0 -129 -54q-55 -54 -55 -139q0 -84 56 -138q55 -54 129 -54z" />
    <glyph glyph-name="ydieresis" unicode="&#xff;" horiz-adv-x="563" 
d="M182 578q-22 0 -37 15t-15 37q0 21 15 36t37 15q23 0 38 -15t15 -36q0 -22 -15 -37t-38 -15zM380 578q-22 0 -37 15t-15 37q0 21 15 36t37 15q23 0 38 -15t15 -36q0 -22 -15 -37t-38 -15zM545 493l-302 -663h-85l81 177l-221 486h86l176 -394l180 394h85z" />
    <glyph glyph-name="Amacron" unicode="&#x100;" horiz-adv-x="693" 
d="M489 762h-284v62h284v-62zM683 0h-85l-75 170h-353l-75 -170h-85l300 670h73zM492 241l-145 331l-146 -331h291z" />
    <glyph glyph-name="amacron" unicode="&#x101;" horiz-adv-x="644" 
d="M452 584h-284v62h284v-62zM556 493v-491h-76v78q-69 -91 -196 -91q-101 0 -173 72t-72 186t72 186t173 72q127 0 196 -91v79h76zM296 57l-1 -4q73 0 129 54t56 138q0 85 -55 139t-129 54q-78 0 -131 -53t-53 -138t53 -138q52 -52 131 -52z" />
    <glyph glyph-name="Abreve" unicode="&#x102;" horiz-adv-x="693" 
d="M347 732h2q-65 0 -105 37t-40 99h64q0 -35 23 -58q22 -22 57 -22t57 22q23 23 23 58h64q0 -62 -40 -99t-105 -37zM685 0h-85l-75 170h-353l-75 -170h-85l300 670h73zM494 241l-145 331l-146 -331h291z" />
    <glyph glyph-name="abreve" unicode="&#x103;" horiz-adv-x="644" 
d="M310 555h2q-65 0 -105 37t-40 99h64q0 -35 23 -58q22 -22 57 -22t57 22q23 23 23 58h64q0 -62 -40 -99t-105 -37zM558 493v-491h-76v78q-69 -91 -196 -91q-101 0 -173 72t-72 186t72 186t173 72q127 0 196 -91v79h76zM298 57l-1 -4q73 0 129 54t56 138q0 85 -55 139
t-129 54q-78 0 -131 -53t-53 -138t53 -138q52 -52 131 -52z" />
    <glyph glyph-name="Aogonek" unicode="&#x104;" horiz-adv-x="693" 
d="M702 -135l4 -50q-39 -15 -68 -15q-34 0 -59 20q-24 20 -24 63q0 56 70 117h-28l-75 170h-353l-75 -170h-85l300 670h73l300 -670q-40 -44 -54 -63q-14 -20 -14 -42q0 -40 42 -40q15 0 46 10zM490 241l-145 331l-146 -331h291z" />
    <glyph glyph-name="aogonek" unicode="&#x105;" horiz-adv-x="644" 
d="M575 -135l4 -48q-39 -15 -68 -15q-34 0 -59 20q-24 20 -24 63q0 56 70 117h-19v78q-69 -91 -196 -91q-101 0 -173 72t-72 186t72 186t173 72q127 0 196 -91v79h76v-493q-41 -44 -54 -63q-14 -20 -14 -42q0 -40 42 -40q15 0 46 10zM294 57l-1 -4q73 0 129 54t56 138
q0 85 -55 139t-129 54q-78 0 -131 -53t-53 -138t53 -138q52 -52 131 -52z" />
    <glyph glyph-name="Cacute" unicode="&#x106;" horiz-adv-x="777" 
d="M440 745h-67l80 140h89zM403 61h-3q88 0 153 45t90 127l76 -18q-31 -104 -117 -166q-85 -61 -201 -61q-145 0 -246 101t-101 246t101 246t246 101q115 0 202 -60q86 -59 118 -161l-76 -22q-26 80 -90 125q-65 45 -153 45q-112 0 -190 -79q-78 -80 -78 -195t78 -195
q78 -79 191 -79z" />
    <glyph glyph-name="cacute" unicode="&#x107;" horiz-adv-x="576" 
d="M340 567h-67l80 140h89zM300 58h-5q56 0 102 29q45 29 62 83l70 -19q-19 -73 -84 -118t-147 -45q-107 0 -182 72t-75 187q0 114 75 186t182 72q82 0 147 -45t87 -120l-73 -22q-17 56 -60 86t-101 30q-76 0 -129 -53t-53 -135q0 -83 53 -136q52 -52 131 -52z" />
    <glyph glyph-name="Cdotaccent" unicode="&#x10a;" horiz-adv-x="777" 
d="M400 763l1 -1q-21 0 -37 14q-15 14 -15 36q0 20 15 35t36 15q22 0 37 -15t15 -34q0 -23 -15 -36q-16 -14 -37 -14zM404 60h-3q89 0 153 45q65 45 90 127l76 -18q-31 -104 -117 -166q-85 -61 -201 -61q-145 0 -246 101t-101 246t101 246t246 101q115 0 202 -60
q86 -59 118 -161l-76 -22q-26 80 -90 125t-153 45q-112 0 -190 -79t-78 -195t78 -195t191 -79z" />
    <glyph glyph-name="cdotaccent" unicode="&#x10b;" horiz-adv-x="576" 
d="M301 585l1 -1q-21 0 -37 14q-15 14 -15 36q0 20 15 35t36 15q22 0 37 -15t15 -34q0 -23 -15 -36q-16 -14 -37 -14zM301 57h-5q56 0 102 29q45 29 62 83l70 -19q-19 -73 -84 -118q-64 -45 -147 -45q-107 0 -182 72t-75 187q0 114 75 186t182 72q83 0 147 -45t87 -120
l-73 -22q-17 56 -60 86q-44 30 -101 30q-76 0 -129 -53t-53 -135q0 -83 53 -136q52 -52 131 -52z" />
    <glyph glyph-name="Ccaron" unicode="&#x10c;" horiz-adv-x="777" 
d="M365 738l-116 142h77l76 -92l75 92h78l-117 -142h-73zM403 61h-3q88 0 153 45t90 127l76 -18q-31 -104 -117 -166q-85 -61 -201 -61q-145 0 -246 101t-101 246t101 246t246 101q115 0 202 -60q86 -59 118 -161l-76 -22q-26 80 -90 125q-65 45 -153 45q-112 0 -190 -79
q-78 -80 -78 -195t78 -195q78 -79 191 -79z" />
    <glyph glyph-name="ccaron" unicode="&#x10d;" horiz-adv-x="576" 
d="M265 560l-116 142h77l76 -92l75 92h78l-117 -142h-73zM300 58h-5q56 0 102 29q45 29 62 83l70 -19q-19 -73 -84 -118t-147 -45q-107 0 -182 72t-75 187q0 114 75 186t182 72q82 0 147 -45t87 -120l-73 -22q-17 56 -60 86t-101 30q-76 0 -129 -53t-53 -135q0 -83 53 -136
q52 -52 131 -52z" />
    <glyph glyph-name="Dcaron" unicode="&#x10e;" horiz-adv-x="736" 
d="M313 738l-116 142h77l76 -92l75 92h78l-117 -142h-73zM88 670l221 -1q175 -2 272 -94q99 -95 99 -241t-99 -240q-98 -94 -271 -94h-222v670zM166 71l141 1q138 2 215 74q78 74 78 189t-78 189q-79 74 -214 74h-142v-527z" />
    <glyph glyph-name="dcaron" unicode="&#x10f;" horiz-adv-x="649" 
d="M485 720l76 2v-720h-76v78q-69 -91 -196 -91q-101 0 -173 72t-72 186t72 186t173 72q127 0 196 -91v306zM720 722l-16 -172h-61v172h77zM301 57l-1 -4q74 0 129 54q56 54 56 138q0 85 -55 139q-56 54 -129 54q-79 0 -132 -53q-52 -52 -52 -138q0 -85 53 -138
q52 -52 131 -52z" />
    <glyph glyph-name="Dcroat" unicode="&#x110;" horiz-adv-x="743" 
d="M105 670l221 -1q175 -2 272 -94q99 -95 99 -241t-99 -240q-98 -94 -271 -94h-222v302h-75v71h75v297zM183 71l143 -1q134 -1 214 74q78 74 78 189t-78 190t-214 75h-143v-226h164v-71h-164v-230z" />
    <glyph glyph-name="dcroat" unicode="&#x111;" horiz-adv-x="668" 
d="M636 574l-75 2v-574h-76v78q-69 -91 -196 -91q-101 0 -173 72t-72 186t72 186t173 72q127 0 196 -91v160h-173v61h173v85h76v-85h75v-61zM301 57l-1 -4q74 0 129 54q56 54 56 138q0 85 -55 139q-56 54 -129 54q-79 0 -132 -53q-52 -52 -52 -138q0 -85 53 -138
q52 -52 131 -52z" />
    <glyph glyph-name="Emacron" unicode="&#x112;" horiz-adv-x="637" 
d="M482 762h-284v62h284v-62zM577 72v-72h-489v670h488v-71h-409v-227h380v-71h-380v-229h410z" />
    <glyph glyph-name="emacron" unicode="&#x113;" horiz-adv-x="583" 
d="M440 584h-284v62h284v-62zM540 259l-3 -28h-423q5 -80 57 -128q53 -48 120 -48q122 0 168 106l68 -16q-29 -77 -90 -117t-145 -40q-102 0 -176 72t-74 186q0 116 75 188t180 72q101 0 170 -69t73 -178zM295 438q-65 0 -115 -40q-52 -41 -62 -109h343q-11 71 -57 110
t-109 39z" />
    <glyph glyph-name="Edotaccent" unicode="&#x116;" horiz-adv-x="637" 
d="M340 763l1 -1q-21 0 -37 14q-15 14 -15 36q0 20 15 35t36 15q22 0 37 -15t15 -34q0 -23 -15 -36q-16 -14 -37 -14zM578 71v-72h-489v670h488v-71h-409v-227h380v-71h-380v-229h410z" />
    <glyph glyph-name="edotaccent" unicode="&#x117;" horiz-adv-x="583" 
d="M297 585l1 -1q-21 0 -37 14q-15 14 -15 36q0 20 15 35t36 15q22 0 37 -15t15 -34q0 -23 -15 -36q-16 -14 -37 -14zM541 258l-3 -28h-423q5 -80 57 -128t120 -48q122 0 168 106l68 -16q-28 -76 -90 -117q-61 -40 -145 -40q-103 0 -176 72q-74 72 -74 186q0 116 75 188
t180 72q101 0 170 -69q68 -68 73 -178zM296 437q-65 0 -115 -40q-52 -41 -62 -109h343q-11 71 -57 110t-109 39z" />
    <glyph glyph-name="Eogonek" unicode="&#x118;" horiz-adv-x="637" 
d="M577 0h-33q-40 -44 -54 -63q-14 -20 -14 -42q0 -40 42 -40q15 0 46 10l6 -50q-39 -15 -68 -15q-34 0 -59 20q-24 20 -24 63q0 56 70 117h-401v670h488v-71h-409v-227h380v-71h-380v-229h410v-72z" />
    <glyph glyph-name="eogonek" unicode="&#x119;" horiz-adv-x="583" 
d="M541 231l-429 -4q5 -80 56 -128t118 -48q55 0 102 29t68 80l67 -16q-15 -32 -55 -79q-52 -60 -78 -101q-21 -33 -21 -63q0 -21 14 -33q13 -12 36 -12q19 0 47 11l6 -45q-38 -23 -72 -23q-41 0 -67 23q-25 22 -25 62q0 50 45 112q-30 -10 -65 -10q-103 0 -175 72t-72 187
q0 113 75 187q74 73 179 73q103 0 174 -71q72 -72 72 -180v-23zM114 284l339 -1q-7 72 -53 111q-45 39 -109 39q-62 0 -114 -40q-53 -41 -63 -109z" />
    <glyph glyph-name="Ecaron" unicode="&#x11a;" horiz-adv-x="637" 
d="M304 738l-116 142h77l76 -92l75 92h78l-117 -142h-73zM577 72v-72h-489v670h488v-71h-409v-227h380v-71h-380v-229h410z" />
    <glyph glyph-name="ecaron" unicode="&#x11b;" horiz-adv-x="583" 
d="M262 560l-116 142h77l76 -92l75 92h78l-117 -142h-73zM540 259l-3 -28h-423q5 -80 57 -128q53 -48 120 -48q122 0 168 106l68 -16q-29 -77 -90 -117t-145 -40q-102 0 -176 72t-74 186q0 116 75 188t180 72q101 0 170 -69t73 -178zM295 438q-65 0 -115 -40
q-52 -41 -62 -109h343q-11 71 -57 110t-109 39z" />
    <glyph glyph-name="Gbreve" unicode="&#x11e;" horiz-adv-x="795" 
d="M406 732h2q-65 0 -105 37t-40 99h64q0 -35 23 -58q22 -22 57 -22t57 22q23 23 23 58h64q0 -62 -40 -99t-105 -37zM370 368h371q1 -9 1 -34q0 -149 -94 -247q-94 -99 -241 -99t-248 101t-101 246t101 246t246 101q111 0 195 -51t120 -142l-71 -25q-35 70 -99 108
q-64 37 -147 37q-113 0 -189 -79q-77 -80 -77 -195t78 -195q78 -79 192 -79q105 0 176 66q71 67 83 169h-296v72z" />
    <glyph glyph-name="gbreve" unicode="&#x11f;" horiz-adv-x="633" 
d="M304 555h2q-65 0 -105 37t-40 99h64q0 -35 23 -58q22 -22 57 -22t57 22q23 23 23 58h64q0 -62 -40 -99t-105 -37zM547 493v-456q0 -105 -69 -168q-67 -61 -180 -61q-179 0 -241 128l64 44q27 -52 69 -78q41 -25 109 -25q77 0 126 47q48 47 48 125v60q-61 -81 -185 -81
q-99 0 -172 68q-72 68 -72 171t72 170q73 68 172 68q122 0 185 -80v68h74zM298 92l1 -2q71 0 122 48t51 125q0 76 -51 124t-123 48q-76 0 -128 -47q-51 -46 -51 -123t51 -125t128 -48z" />
    <glyph glyph-name="Gdotaccent" unicode="&#x120;" horiz-adv-x="795" 
d="M405 763l1 -1q-21 0 -37 14q-15 14 -15 36q0 20 15 35t36 15q22 0 37 -15t15 -34q0 -23 -15 -36q-16 -14 -37 -14zM369 367h371q1 -9 1 -34q0 -149 -94 -247q-95 -99 -241 -99q-147 0 -248 101t-101 246t101 246t246 101q111 0 195 -51t120 -142l-71 -25q-34 71 -99 108
q-64 37 -147 37q-113 0 -189 -79q-77 -80 -77 -195q0 -116 78 -195t192 -79q106 0 176 66q71 67 83 169h-296v72z" />
    <glyph glyph-name="gdotaccent" unicode="&#x121;" horiz-adv-x="633" 
d="M304 585l1 -1q-21 0 -37 14q-15 14 -15 36q0 20 15 35t36 15q22 0 37 -15t15 -34q0 -23 -15 -36q-16 -14 -37 -14zM546 492v-456q0 -105 -69 -168q-67 -61 -180 -61q-179 0 -241 128l64 44q27 -53 69 -78q41 -25 109 -25q77 0 126 47q48 46 48 125v60q-61 -81 -185 -81
q-99 0 -172 68q-72 67 -72 171q0 102 72 170q73 68 172 68q122 0 185 -80v68h74zM297 91l1 -2q71 0 122 48t51 125q0 76 -51 124t-123 48q-76 0 -128 -47q-51 -47 -51 -123q0 -77 51 -125t128 -48z" />
    <glyph glyph-name="Gcommaaccent" unicode="&#x122;" horiz-adv-x="795" 
d="M368 368h371q1 -9 1 -34q0 -149 -94 -247q-94 -99 -241 -99t-248 101t-101 246t101 246t246 101q111 0 195 -51t120 -142l-71 -25q-35 70 -99 108q-64 37 -147 37q-113 0 -189 -79q-77 -80 -77 -195t78 -195q78 -79 192 -79q106 0 176 66q71 67 83 169h-296v72zM353 -45
h83l-71 -143h-60z" />
    <glyph glyph-name="gcommaaccent" unicode="&#x123;" horiz-adv-x="638" 
d="M356 569h-83l72 143h59zM545 493v-456q0 -105 -69 -168q-67 -61 -180 -61q-179 0 -241 128l64 44q27 -52 69 -78q41 -25 109 -25q77 0 126 47q48 47 48 125v60q-61 -81 -185 -81q-99 0 -172 68q-72 68 -72 171t72 170q73 68 172 68q122 0 185 -80v68h74zM296 92l1 -2
q71 0 122 48t51 125q0 76 -51 124t-123 48q-76 0 -128 -47q-51 -46 -51 -123t51 -125t128 -48z" />
    <glyph glyph-name="Hbar" unicode="&#x126;" horiz-adv-x="758" 
d="M726 466h-70v-466h-79v282h-398v-282h-79v466h-70v66h70v138h79v-138h398v138h79v-138h70v-66zM577 466h-398v-113h398v113z" />
    <glyph glyph-name="hbar" unicode="&#x127;" horiz-adv-x="627" 
d="M368 505l2 3q89 0 143 -58t54 -153v-295h-77v281q0 70 -37 111q-37 42 -99 42q-80 0 -126 -52t-46 -147v-237h-77v579h-75v56h75v85h77v-85h172v-56h-172v-167q63 93 186 93z" />
    <glyph glyph-name="Imacron" unicode="&#x12a;" horiz-adv-x="254" 
d="M269 762h-284v62h284v-62zM167 0h-79v670h79v-670z" />
    <glyph glyph-name="imacron" unicode="&#x12b;" horiz-adv-x="279" 
d="M281 584h-284v62h284v-62zM178 0h-77v493h77v-493z" />
    <glyph glyph-name="Iogonek" unicode="&#x12e;" horiz-adv-x="254" 
d="M185 -135l4 -50q-39 -15 -68 -15q-34 0 -59 20q-24 20 -24 63q0 56 70 117h-21v670h79v-670h-1q-41 -44 -54 -63q-14 -20 -14 -42q0 -40 42 -40q15 0 46 10z" />
    <glyph glyph-name="iogonek" unicode="&#x12f;" horiz-adv-x="279" 
d="M139 585l1 -1q-21 0 -37 14q-15 14 -15 36q0 20 15 35t36 15q22 0 37 -15t15 -34q0 -23 -15 -36q-16 -14 -37 -14zM197 -136l4 -50q-39 -15 -68 -15q-34 0 -59 20q-24 19 -24 63q0 56 70 117h-19v493h77v-493h-1q-41 -43 -54 -63q-14 -20 -14 -42q0 -40 42 -40
q15 0 46 10z" />
    <glyph glyph-name="Idotaccent" unicode="&#x130;" horiz-adv-x="254" 
d="M126 862l1 -1q22 0 37 -15t15 -34q0 -22 -15 -36q-16 -14 -37 -14t-37 14q-15 14 -15 36q0 20 15 35t36 15zM168 -1h-79v670h79v-670z" />
    <glyph glyph-name="dotlessi" unicode="&#x131;" horiz-adv-x="279" 
d="M178 0h-77v493h77v-493z" />
    <glyph glyph-name="IJ" unicode="&#x132;" horiz-adv-x="849" 
d="M88 670h79v-670h-79v670zM770 670l-1 -427q0 -113 -69 -185t-180 -72q-100 0 -165 60t-78 157l75 17q9 -74 54 -117q46 -44 116 -44q76 0 122 52q47 53 47 133v426h79z" />
    <glyph glyph-name="ij" unicode="&#x133;" horiz-adv-x="554" 
d="M134 693q23 0 38 -15t15 -36q0 -22 -15 -37t-38 -15q-22 0 -37 15t-15 37q0 21 15 36t37 15zM420 693q22 0 37 -15t15 -36q0 -22 -15 -37t-37 -15q-23 0 -38 15t-15 37q0 21 15 36t38 15zM173 0h-77v493h77v-493zM254 -163l15 65q27 -11 48 -11q28 0 47 17q18 16 18 45
v540h77v-549q0 -56 -34 -90t-90 -34q-42 0 -81 17z" />
    <glyph glyph-name="Kcommaaccent" unicode="&#x136;" horiz-adv-x="673" 
d="M648 0h-107l-337 297h-37v-297h-79v670h79v-302h31l329 302h99l-363 -335zM288 -45h83l-71 -143h-60z" />
    <glyph glyph-name="kcommaaccent" unicode="&#x137;" horiz-adv-x="574" 
d="M569 0h-106l-266 218h-33v-218h-76v720h76v-427h37l237 200h99l-280 -239zM240 -45h83l-71 -143h-60z" />
    <glyph glyph-name="Lacute" unicode="&#x139;" horiz-adv-x="586" 
d="M165 745h-67l80 140h89zM551 72v-72h-463v670h79v-598h384z" />
    <glyph glyph-name="lacute" unicode="&#x13a;" horiz-adv-x="252" 
d="M165 795h-67l80 140h89zM164 0h-76v720h76v-720z" />
    <glyph glyph-name="Lcommaaccent" unicode="&#x13b;" horiz-adv-x="586" 
d="M551 72v-72h-463v670h79v-598h384zM281 -45h83l-71 -143h-60z" />
    <glyph glyph-name="lcommaaccent" unicode="&#x13c;" horiz-adv-x="252" 
d="M164 0h-76v720h76v-720zM36 -188l48 143h83l-71 -143h-60z" />
    <glyph glyph-name="Lcaron" unicode="&#x13d;" horiz-adv-x="586" 
d="M551 72v-72h-463v670h79v-598h384zM369 498h-61v172h77z" />
    <glyph glyph-name="lcaron" unicode="&#x13e;" horiz-adv-x="252" 
d="M164 0h-76v720h76v-720zM300 548h-61v172h77z" />
    <glyph glyph-name="Ldot" unicode="&#x13f;" horiz-adv-x="581" 
d="M551 72v-72h-463v670h79v-598h384zM388 294l1 -1q-21 0 -37 14q-15 13 -15 36q0 20 15 35t36 15q22 0 37 -15t15 -34q0 -22 -15 -36q-16 -14 -37 -14z" />
    <glyph glyph-name="ldot" unicode="&#x140;" horiz-adv-x="333" 
d="M164 0h-76v720h76v-720zM273 388l1 -1q22 0 37 -15t15 -34q0 -22 -15 -36q-16 -14 -37 -14t-37 14q-15 14 -15 36q0 20 15 35t36 15z" />
    <glyph glyph-name="Lslash" unicode="&#x141;" horiz-adv-x="596" 
d="M566 72v-72h-463v249l-73 -35v74l73 35v347h79v-308l158 76v-74l-158 -76v-216h384z" />
    <glyph glyph-name="lslash" unicode="&#x142;" horiz-adv-x="301" 
d="M271 388l-82 -51v-337h-76v290l-83 -52v75l83 52v355h76v-308l82 51v-75z" />
    <glyph glyph-name="Nacute" unicode="&#x143;" horiz-adv-x="760" 
d="M427 745h-67l80 140h89zM673 670v-670h-68l-438 532v-532h-79v670h68l438 -538v538h79z" />
    <glyph glyph-name="nacute" unicode="&#x144;" horiz-adv-x="624" 
d="M360 567h-67l80 140h89zM350 505l2 3q89 0 143 -58t54 -153v-295h-76v281q0 68 -38 111q-37 42 -99 42q-80 0 -126 -52t-46 -147v-237h-76v493h76v-82q63 94 186 94z" />
    <glyph glyph-name="Ncommaaccent" unicode="&#x145;" horiz-adv-x="760" 
d="M673 670v-670h-68l-438 532v-532h-79v670h68l438 -538v538h79zM358 -45h83l-71 -143h-60z" />
    <glyph glyph-name="ncommaaccent" unicode="&#x146;" horiz-adv-x="624" 
d="M350 505l2 3q89 0 143 -58t54 -153v-295h-76v281q0 68 -38 111q-37 42 -99 42q-80 0 -126 -52t-46 -147v-237h-76v493h76v-82q63 94 186 94zM282 -42h83l-71 -143h-60z" />
    <glyph glyph-name="Ncaron" unicode="&#x147;" horiz-adv-x="760" 
d="M352 738l-116 142h77l76 -92l75 92h78l-117 -142h-73zM673 670v-670h-68l-438 532v-532h-79v670h68l438 -538v538h79z" />
    <glyph glyph-name="ncaron" unicode="&#x148;" horiz-adv-x="624" 
d="M285 560l-116 142h77l76 -92l75 92h78l-117 -142h-73zM350 505l2 3q89 0 143 -58t54 -153v-295h-76v281q0 68 -38 111q-37 42 -99 42q-80 0 -126 -52t-46 -147v-237h-76v493h76v-82q63 94 186 94z" />
    <glyph glyph-name="Eng" unicode="&#x14a;" horiz-adv-x="750" 
d="M673 670v-723q0 -57 -34 -92q-35 -36 -90 -36q-50 0 -93 22l16 60q31 -14 59 -14q30 0 47 16q18 17 18 45v63l-429 521v-532h-79v670h68l438 -538v538h79z" />
    <glyph glyph-name="eng" unicode="&#x14b;" horiz-adv-x="625" 
d="M350 505l2 2q89 0 143 -58q54 -59 54 -153v-347q0 -57 -34 -92q-35 -36 -90 -36q-49 0 -92 22l16 59q31 -14 59 -14t47 17q18 17 18 45v333q0 68 -38 111q-37 42 -99 42q-80 0 -126 -52t-46 -147v-237h-76v493h76v-82q63 94 186 94z" />
    <glyph glyph-name="Omacron" unicode="&#x14c;" horiz-adv-x="803" 
d="M544 762h-284v62h284v-62zM402 683h-2q145 0 246 -101t101 -246q0 -146 -100 -246q-101 -101 -246 -101t-246 101q-100 100 -100 246q0 145 101 246t246 101zM400 62v-1q112 0 189 78q77 79 77 194t-77 195t-189 80q-113 0 -189 -79q-77 -80 -77 -195t77 -194
q77 -78 189 -78z" />
    <glyph glyph-name="omacron" unicode="&#x14d;" horiz-adv-x="608" 
d="M447 589h-284v62h284v-62zM305 504v-2q110 0 185 -72t75 -184t-75 -186q-74 -73 -185 -73q-110 0 -186 74q-75 73 -75 186t75 185t186 72zM305 53v-1q77 0 131 54t54 138q0 83 -54 137t-131 54t-133 -54q-55 -54 -55 -136q0 -84 55 -138q56 -54 133 -54z" />
    <glyph glyph-name="Ohungarumlaut" unicode="&#x150;" horiz-adv-x="803" 
d="M357 745h-70l79 140h95zM441 745l79 140h95l-104 -140h-70zM402 683h-2q145 0 246 -101t101 -246q0 -146 -100 -246q-101 -101 -246 -101t-246 101q-100 100 -100 246q0 145 101 246t246 101zM400 62v-1q112 0 189 78q77 79 77 194t-77 195t-189 80q-113 0 -189 -79
q-77 -80 -77 -195t77 -194q77 -78 189 -78z" />
    <glyph glyph-name="ohungarumlaut" unicode="&#x151;" horiz-adv-x="608" 
d="M260 572h-70l79 140h95zM344 572l79 140h95l-104 -140h-70zM305 504v-2q110 0 185 -72t75 -184t-75 -186q-74 -73 -185 -73q-110 0 -186 74q-75 73 -75 186t75 185t186 72zM305 53v-1q77 0 131 54t54 138q0 83 -54 137t-131 54t-133 -54q-55 -54 -55 -136q0 -84 55 -138
q56 -54 133 -54z" />
    <glyph glyph-name="OE" unicode="&#x152;" horiz-adv-x="1046" 
d="M986 72v-72h-536q-182 0 -288 93q-107 93 -107 242t107 242q106 93 288 93h535v-71h-409v-227h380v-71h-380v-229h410zM497 72v526h-47q-148 0 -232 -72t-84 -191t84 -191t232 -72h47z" />
    <glyph glyph-name="oe" unicode="&#x153;" horiz-adv-x="1032" 
d="M989 259l-3 -31h-423q5 -80 57 -128t120 -48q122 0 168 106l68 -16q-28 -76 -90 -117q-61 -40 -145 -40q-65 0 -123 32q-56 31 -91 89q-35 -56 -93 -87q-59 -32 -129 -32q-110 0 -186 74q-75 73 -75 186t75 185t186 72q70 0 129 -32q58 -32 93 -87q35 58 93 89
q59 32 126 32q101 0 170 -69q68 -69 73 -178zM744 435q-65 0 -115 -40q-52 -41 -62 -109h343q-11 71 -57 110q-47 39 -109 39zM302 52v-1q77 0 131 54t54 138q0 83 -54 137t-131 54q-78 0 -133 -54t-55 -136q0 -84 55 -138t133 -54z" />
    <glyph glyph-name="Racute" unicode="&#x154;" horiz-adv-x="670" 
d="M366 745h-67l80 140h89zM645 0l-99 -2l-256 287h-123v-287h-79v670h310q99 0 158 -52q60 -52 60 -138t-60 -138q-61 -53 -158 -53h-12zM167 357h231q63 0 102 33t39 87t-39 87t-102 33h-231v-240z" />
    <glyph glyph-name="racute" unicode="&#x155;" horiz-adv-x="412" 
d="M257 567h-67l80 140h89zM363 498h-1q23 0 35 -4l-6 -73q-6 1 -29 1q-95 0 -146 -64t-51 -168v-190h-77v493h77v-121q69 126 198 126z" />
    <glyph glyph-name="Rcommaaccent" unicode="&#x156;" horiz-adv-x="670" 
d="M645 0l-99 -2l-256 287h-123v-287h-79v670h310q99 0 158 -52q60 -52 60 -138t-60 -138q-61 -53 -158 -53h-12zM167 357h231q63 0 102 33t39 87t-39 87t-102 33h-231v-240zM297 -47h83l-71 -143h-60z" />
    <glyph glyph-name="rcommaaccent" unicode="&#x157;" horiz-adv-x="412" 
d="M363 498h-1q23 0 35 -4l-6 -73q-6 1 -29 1q-95 0 -146 -64t-51 -168v-190h-77v493h77v-121q69 126 198 126zM84 -45h83l-71 -143h-60z" />
    <glyph glyph-name="Rcaron" unicode="&#x158;" horiz-adv-x="670" 
d="M291 738l-116 142h77l76 -92l75 92h78l-117 -142h-73zM645 0l-99 -2l-256 287h-123v-287h-79v670h310q99 0 158 -52q60 -52 60 -138t-60 -138q-61 -53 -158 -53h-12zM167 357h231q63 0 102 33t39 87t-39 87t-102 33h-231v-240z" />
    <glyph glyph-name="rcaron" unicode="&#x159;" horiz-adv-x="412" 
d="M182 560l-116 142h77l76 -92l75 92h78l-117 -142h-73zM363 498h-1q23 0 35 -4l-6 -73q-6 1 -29 1q-95 0 -146 -64t-51 -168v-190h-77v493h77v-121q69 126 198 126z" />
    <glyph glyph-name="Sacute" unicode="&#x15a;" horiz-adv-x="627" 
d="M359 745h-67l80 140h89zM311 683l-4 1q99 0 167 -50q67 -49 84 -134l-79 -18q-10 61 -57 97q-46 36 -116 36q-68 0 -110 -33t-42 -87q0 -43 26 -67q25 -23 75 -34l146 -33q169 -37 169 -174q0 -91 -68 -145t-180 -54q-109 0 -184 54t-87 147l83 17q10 -70 63 -109
t132 -39q76 0 120 35t44 90q0 47 -25 69q-26 22 -84 36l-151 33q-161 35 -161 171q0 86 66 138q67 53 173 53z" />
    <glyph glyph-name="sacute" unicode="&#x15b;" horiz-adv-x="506" 
d="M296 567h-67l80 140h89zM46 133l76 15q5 -49 45 -74q41 -26 100 -26q52 0 86 23q33 23 33 60q0 53 -81 71l-113 25q-128 29 -128 126q0 67 51 108q52 41 136 41q82 0 134 -37q53 -37 66 -99l-73 -16q-8 40 -42 66q-34 25 -88 25q-52 0 -80 -22q-29 -23 -29 -58
q0 -28 18 -43q20 -17 56 -24l119 -26q127 -28 127 -129q0 -71 -54 -112q-53 -40 -144 -40q-88 0 -147 38t-68 108z" />
    <glyph glyph-name="Scedilla" unicode="&#x15e;" horiz-adv-x="627" 
d="M573 186h-2q0 -85 -58 -137q-59 -53 -159 -60l-72 -158h-83l94 158q-97 7 -165 60q-67 52 -78 140l83 17q10 -70 63 -109q52 -39 132 -39q76 0 120 35t44 90q0 47 -25 69t-84 36l-151 33q-161 35 -161 171q0 86 66 138q67 53 173 53q99 0 167 -50q67 -49 84 -134l-79 -18
q-10 61 -57 97t-116 36q-68 0 -110 -33t-42 -87q0 -43 26 -67q25 -23 75 -34l146 -33q169 -37 169 -174z" />
    <glyph glyph-name="scedilla" unicode="&#x15f;" horiz-adv-x="506" 
d="M460 139l1 -1q0 -64 -43 -103q-44 -40 -118 -47l-72 -159h-83l94 158q-79 5 -132 42t-60 102l76 17q5 -49 45 -74q41 -26 100 -26q52 0 86 23q33 23 33 60q0 53 -81 71l-113 25q-128 29 -128 126q0 67 51 108q52 41 136 41q82 0 134 -37t66 -99l-73 -16q-7 40 -42 66
q-34 25 -88 25q-52 0 -80 -22q-29 -23 -29 -58q0 -28 18 -43q20 -17 56 -24l119 -26q127 -28 127 -129z" />
    <glyph glyph-name="Scaron" unicode="&#x160;" horiz-adv-x="627" 
d="M284 738l-116 142h77l76 -92l75 92h78l-117 -142h-73zM258 393l142 -32q169 -37 169 -174q0 -91 -68 -145q-67 -54 -180 -54q-109 0 -184 54t-87 147l83 17q10 -70 63 -109q52 -39 132 -39q76 0 120 35t44 90q0 47 -25 69t-84 36l-151 33q-161 35 -161 171q0 86 66 138
q67 53 173 53q99 0 167 -50q67 -49 84 -134l-79 -18q-10 61 -57 97t-116 36q-68 0 -110 -33t-42 -87q0 -43 26 -67q25 -23 75 -34z" />
    <glyph glyph-name="scaron" unicode="&#x161;" horiz-adv-x="506" 
d="M221 560l-116 142h77l76 -92l75 92h78l-117 -142h-73zM214 294l119 -28q127 -30 127 -129q0 -71 -54 -112q-53 -40 -144 -40q-88 0 -147 38t-68 108l76 17q5 -49 45 -74q41 -26 100 -26q52 0 86 23q33 23 33 60q0 53 -81 71l-113 25q-128 29 -128 126q0 67 51 108
q52 41 136 41q82 0 134 -37t66 -99l-73 -16q-7 40 -42 66q-34 25 -88 25q-52 0 -80 -22q-29 -23 -29 -58q0 -28 18 -43t56 -24z" />
    <glyph glyph-name="tcedilla" unicode="&#x163;" horiz-adv-x="394" 
d="M359 89l26 -62q-54 -37 -111 -39l-71 -157h-83l97 164q-52 14 -80 54q-29 41 -29 105v275h-107v64h107v157h77v-157h176v-64h-176v-270q0 -46 24 -73t66 -27t84 30z" />
    <glyph glyph-name="Tcaron" unicode="&#x164;" horiz-adv-x="627" 
d="M278 738l-116 142h77l76 -92l75 92h78l-117 -142h-73zM602 599h-248v-599h-80v599h-249v71h577v-71z" />
    <glyph glyph-name="tcaron" unicode="&#x165;" horiz-adv-x="394" 
d="M312 546h-61v172h77zM359 89l26 -63q-55 -39 -114 -39q-75 0 -119 44t-44 123v275h-107v64h107v157h77v-157h176v-64h-176v-270q0 -46 24 -73t66 -27t84 30z" />
    <glyph glyph-name="Tbar" unicode="&#x166;" horiz-adv-x="637" 
d="M354 599v-230h132v-66h-132v-303h-80v303h-132v66h132v230h-249v71h577v-71h-248z" />
    <glyph glyph-name="tbar" unicode="&#x167;" horiz-adv-x="394" 
d="M356 89l17 -65q-49 -37 -108 -37q-73 0 -117 44t-44 123v116h-96v63h96v96h-103v64h103v157h76v-157h177v-64h-177v-96h142v-63h-142v-111q0 -47 25 -73q25 -27 66 -27t85 30z" />
    <glyph glyph-name="Umacron" unicode="&#x16a;" horiz-adv-x="721" 
d="M502 762h-284v62h284v-62zM641 670v-377q0 -138 -76 -221q-76 -84 -202 -84q-127 0 -205 84t-78 221v377h79v-377q0 -103 56 -167q55 -63 147 -63q90 0 145 63q55 62 55 167v377h79z" />
    <glyph glyph-name="umacron" unicode="&#x16b;" horiz-adv-x="624" 
d="M449 584h-284v62h284v-62zM537 493l-3 -493h-77v80q-63 -93 -186 -93q-89 0 -143 58q-54 59 -54 153v295h77v-281q0 -68 38 -111q37 -42 99 -42q80 0 126 51q46 50 46 146v237h77z" />
    <glyph glyph-name="Uring" unicode="&#x16e;" horiz-adv-x="721" 
d="M360 727l-1 -1q-43 0 -73 30t-30 72q0 41 30 71t73 30q44 0 74 -30t30 -70q0 -42 -30 -72t-73 -30zM359 881l-1 2q-23 0 -39 -16t-16 -39q0 -22 17 -39q16 -16 39 -16t40 15q16 15 16 38t-16 39t-40 16zM639 671v-377q0 -138 -76 -221q-77 -84 -202 -84q-127 0 -205 84
t-78 221v377h79v-377q0 -103 56 -167q55 -63 147 -63q90 0 145 63q55 62 55 167v377h79z" />
    <glyph glyph-name="uring" unicode="&#x16f;" horiz-adv-x="624" 
d="M307 550l-1 -1q-43 0 -73 30t-30 72q0 41 30 71t73 30q44 0 74 -30t30 -70q0 -42 -30 -72t-73 -30zM306 704l-1 2q-23 0 -39 -16t-16 -39q0 -22 17 -39q16 -16 39 -16q24 0 40 15t16 38t-16 39t-40 16zM535 494l-3 -493h-77v80q-63 -93 -186 -93q-89 0 -143 58t-54 153
v295h77v-281q0 -68 38 -111q37 -42 99 -42q80 0 126 51q46 50 46 146v237h77z" />
    <glyph glyph-name="Uhungarumlaut" unicode="&#x170;" horiz-adv-x="721" 
d="M315 745h-70l79 140h95zM399 745l79 140h95l-104 -140h-70zM641 670v-377q0 -138 -76 -221q-76 -84 -202 -84q-127 0 -205 84t-78 221v377h79v-377q0 -103 56 -167q55 -63 147 -63q90 0 145 63q55 62 55 167v377h79z" />
    <glyph glyph-name="uhungarumlaut" unicode="&#x171;" horiz-adv-x="624" 
d="M262 567h-70l79 140h95zM346 567l79 140h95l-104 -140h-70zM537 493l-3 -493h-77v80q-63 -93 -186 -93q-89 0 -143 58q-54 59 -54 153v295h77v-281q0 -68 38 -111q37 -42 99 -42q80 0 126 51q46 50 46 146v237h77z" />
    <glyph glyph-name="Uogonek" unicode="&#x172;" horiz-adv-x="721" 
d="M641 670l-1 -391q0 -142 -98 -231q-78 -69 -98 -93q-21 -25 -21 -57q0 -19 12 -31t35 -12q15 0 51 13l15 -50q-45 -22 -84 -22q-42 0 -68 23t-26 60q0 56 60 113q-25 -7 -56 -7q-126 0 -204 82q-78 83 -78 216v386h79v-386q0 -99 56 -160q55 -60 147 -60q89 0 144 61
q56 62 56 160v386h79z" />
    <glyph glyph-name="uogonek" unicode="&#x173;" horiz-adv-x="624" 
d="M556 -135l1 -51q-39 -15 -68 -15q-34 0 -59 20q-24 19 -24 63q0 53 71 118h-21v80q-63 -93 -186 -93q-89 0 -143 58q-54 59 -54 153v295h77v-281q0 -68 38 -111q38 -42 99 -42q79 0 126 51q46 50 46 146v237h77v-492h-18l18 -1q-40 -44 -54 -63q-14 -20 -14 -42
q0 -40 42 -40q15 0 46 10z" />
    <glyph glyph-name="Wcircumflex" unicode="&#x174;" horiz-adv-x="953" 
d="M402 737h-77l116 142h73l117 -142h-78l-75 93zM936 670l-206 -670h-83l-170 544l-171 -544h-82l-206 670h82l167 -549l171 549h77l171 -549l167 549h83z" />
    <glyph glyph-name="wcircumflex" unicode="&#x175;" horiz-adv-x="769" 
d="M310 559h-77l116 142h73l117 -142h-78l-75 93zM751 493l-166 -495h-71l-129 374l-130 -374h-71l-166 495h77l127 -382l132 382h61l132 -382l127 382h77z" />
    <glyph glyph-name="Ycircumflex" unicode="&#x176;" horiz-adv-x="671" 
d="M260 737h-77l116 142h73l117 -142h-78l-75 93zM374 235v-235h-79v234l-277 436h88l228 -357l228 357h91z" />
    <glyph glyph-name="ycircumflex" unicode="&#x177;" horiz-adv-x="563" 
d="M206 560h-77l116 142h73l117 -142h-78l-75 93zM545 493l-302 -663h-85l81 177l-221 486h86l176 -394l180 394h85z" />
    <glyph glyph-name="Ydieresis" unicode="&#x178;" horiz-adv-x="671" 
d="M236 755q-22 0 -37 15t-15 37q0 21 15 36t37 15q23 0 38 -15t15 -36q0 -22 -15 -37t-38 -15zM434 755q-22 0 -37 15t-15 37q0 21 15 36t37 15q23 0 38 -15t15 -36q0 -22 -15 -37t-38 -15zM374 235v-235h-79v234l-277 436h88l228 -357l228 357h91z" />
    <glyph glyph-name="Zacute" unicode="&#x179;" horiz-adv-x="626" 
d="M360 745h-67l80 140h89zM575 68v-68h-516v50l410 552h-398v68h500v-57l-401 -545h405z" />
    <glyph glyph-name="zacute" unicode="&#x17a;" horiz-adv-x="506" 
d="M300 567h-67l80 140h89zM466 64v-64h-426v52l321 377h-312v64h407v-53l-321 -376h331z" />
    <glyph glyph-name="Zdotaccent" unicode="&#x17b;" horiz-adv-x="626" 
d="M320 763l1 -1q-21 0 -37 14q-15 14 -15 36q0 20 15 35t36 15q22 0 37 -15t15 -34q0 -23 -15 -36q-16 -14 -37 -14zM576 67v-68h-516v50l410 552h-398v68h500v-57l-401 -545h405z" />
    <glyph glyph-name="zdotaccent" unicode="&#x17c;" horiz-adv-x="506" 
d="M260 585l1 -1q-21 0 -37 14q-15 14 -15 36q0 20 15 35t36 15q22 0 37 -15t15 -34q0 -23 -15 -36q-16 -14 -37 -14zM467 63v-64h-426v52l321 377h-312v64h407v-53l-321 -376h331z" />
    <glyph glyph-name="Zcaron" unicode="&#x17d;" horiz-adv-x="626" 
d="M285 738l-116 142h77l76 -92l75 92h78l-117 -142h-73zM575 68v-68h-516v50l410 552h-398v68h500v-57l-401 -545h405z" />
    <glyph glyph-name="zcaron" unicode="&#x17e;" horiz-adv-x="506" 
d="M225 560l-116 142h77l76 -92l75 92h78l-117 -142h-73zM466 64v-64h-426v52l321 377h-312v64h407v-53l-321 -376h331z" />
    <glyph glyph-name="florin" unicode="&#x192;" horiz-adv-x="552" 
d="M417 614l-1 2q-46 0 -78 -30q-32 -31 -41 -81l-25 -139h188v-64h-200l-59 -327q-12 -65 -55 -102t-105 -37q-47 0 -81 25l27 61q26 -14 56 -14q31 0 54 18q21 17 27 48l59 327h-120v64h132l25 139q15 83 68 130q54 48 134 48q65 0 112 -38l-29 -61q-35 31 -88 31z" />
    <glyph glyph-name="AEacute" unicode="&#x1fc;" horiz-adv-x="1040" 
d="M724 745h-67l80 140h89zM1000 72v-72h-489v155h-300l-109 -155h-92l480 670h509v-71h-409v-227h380v-71h-380v-229h410zM511 226v355l-250 -355h250z" />
    <glyph glyph-name="aeacute" unicode="&#x1fd;" horiz-adv-x="927" 
d="M497 567h-67l80 140h89zM885 222l-406 1q7 -78 54 -123t118 -45q45 0 90 27q46 28 65 79l69 -16q-20 -70 -84 -113q-65 -44 -141 -44q-143 0 -209 120q-28 -55 -85 -88t-127 -33q-89 0 -137 42t-48 107q0 68 51 105q52 38 140 38h175v41q0 54 -36 87t-94 33
q-59 0 -95 -27t-44 -74l-70 15q8 68 63 110q56 42 146 42q62 0 108 -25t69 -72q69 96 191 96q100 0 168 -72q69 -74 69 -184v-27zM478 280l330 -1q-8 73 -51 117q-44 44 -105 44q-68 0 -117 -43t-57 -117zM410 222l-176 -2q-56 0 -87 -22t-31 -61q0 -40 32 -64t89 -24
q72 0 122 46q51 47 51 117v10z" />
    <glyph glyph-name="Scommaaccent" unicode="&#x218;" horiz-adv-x="627" 
d="M311 683l-4 1q99 0 167 -50q67 -49 84 -134l-79 -18q-10 61 -57 97q-46 36 -116 36q-68 0 -110 -33t-42 -87q0 -43 26 -67q25 -23 75 -34l146 -33q169 -37 169 -174q0 -91 -68 -145t-180 -54q-109 0 -184 54t-87 147l83 17q10 -70 63 -109t132 -39q76 0 120 35t44 90
q0 47 -25 69q-26 22 -84 36l-151 33q-161 35 -161 171q0 86 66 138q67 53 173 53zM226 -187l48 143h83l-71 -143h-60z" />
    <glyph glyph-name="scommaaccent" unicode="&#x219;" horiz-adv-x="506" 
d="M46 133l76 15q5 -49 45 -74q41 -26 100 -26q52 0 86 23q33 23 33 60q0 53 -81 71l-113 25q-128 29 -128 126q0 67 51 108q52 41 136 41q82 0 134 -37q53 -37 66 -99l-73 -16q-8 40 -42 66q-34 25 -88 25q-52 0 -80 -22q-29 -23 -29 -58q0 -28 18 -43q20 -17 56 -24
l119 -26q127 -28 127 -129q0 -71 -54 -112q-53 -40 -144 -40q-88 0 -147 38t-68 108zM172 -190l48 143h83l-71 -143h-60z" />
    <glyph glyph-name="uni021A" unicode="&#x21a;" horiz-adv-x="627" 
d="M602 670v-71h-248v-599h-80v599h-249v71h577zM274 -45h83l-71 -143h-60z" />
    <glyph glyph-name="uni021B" unicode="&#x21b;" horiz-adv-x="394" 
d="M270 -13h1q-75 0 -119 44t-44 123v275h-107v64h107v157h77v-157h176v-64h-176v-270q0 -46 24 -73t66 -27t84 30l25 -63q-56 -39 -114 -39zM197 -45h83l-71 -143h-60z" />
    <glyph glyph-name="circumflex" unicode="&#x2c6;" horiz-adv-x="600" 
d="M376 559l-75 93l-76 -93h-77l116 142h73l117 -142h-78z" />
    <glyph glyph-name="caron" unicode="&#x2c7;" horiz-adv-x="600" 
d="M454 702l-117 -142h-73l-116 142h77l76 -92l75 92h78z" />
    <glyph glyph-name="breve" unicode="&#x2d8;" horiz-adv-x="600" 
d="M300 554h2q-65 0 -105 37t-40 99h64q0 -35 23 -58q22 -22 57 -22t57 22q23 23 23 58h64q0 -62 -40 -99t-105 -37z" />
    <glyph glyph-name="dotaccent" unicode="&#x2d9;" horiz-adv-x="600" 
d="M300 684l1 -1q22 0 37 -15t15 -34q0 -22 -15 -36q-16 -14 -37 -14t-37 14q-15 14 -15 36q0 20 15 35t36 15z" />
    <glyph glyph-name="ring" unicode="&#x2da;" horiz-adv-x="600" 
d="M404 650l-1 -1q0 -42 -30 -72t-73 -30t-73 30t-30 72q0 41 30 71t73 30q44 0 74 -30t30 -70zM355 649l-1 2q0 23 -16 39t-40 16q-23 0 -39 -16t-16 -39q0 -22 17 -39q16 -16 39 -16t40 15q16 15 16 38z" />
    <glyph glyph-name="ogonek" unicode="&#x2db;" horiz-adv-x="600" 
d="M268 3l52 -3q-40 -44 -54 -63q-14 -20 -14 -42q0 -40 42 -40q15 0 46 10l6 -50q-39 -15 -68 -15q-34 0 -59 20q-24 20 -24 63q0 31 16 57q17 27 57 63z" />
    <glyph glyph-name="tilde" unicode="&#x2dc;" horiz-adv-x="600" 
d="M207 593l-57 -3q0 52 26 78q25 25 62 25q32 0 66 -24q35 -24 56 -24q17 0 27 13t10 34h54q0 -53 -25 -78t-61 -25q-31 0 -66 24t-55 24q-16 0 -27 -12q-10 -11 -10 -32z" />
    <glyph glyph-name="hungarumlaut" unicode="&#x2dd;" horiz-adv-x="600" 
d="M219 567h-70l79 140h95zM373 567h-70l79 140h95z" />
    <glyph glyph-name="uni0326" unicode="&#x326;" horiz-adv-x="0" 
d="M218 -188l48 143h83l-71 -143h-60z" />
    <glyph glyph-name="Wgrave" unicode="&#x1e80;" horiz-adv-x="953" 
d="M442 745l-102 140h89l79 -140h-66zM936 670l-206 -670h-83l-170 544l-171 -544h-82l-206 670h82l167 -549l171 549h77l171 -549l167 549h83z" />
    <glyph glyph-name="wgrave" unicode="&#x1e81;" horiz-adv-x="769" 
d="M350 567l-102 140h89l79 -140h-66zM751 493l-166 -495h-71l-129 374l-130 -374h-71l-166 495h77l127 -382l132 382h61l132 -382l127 382h77z" />
    <glyph glyph-name="Wacute" unicode="&#x1e82;" horiz-adv-x="953" 
d="M516 745h-67l80 140h89zM936 670l-206 -670h-83l-170 544l-171 -544h-82l-206 670h82l167 -549l171 549h77l171 -549l167 549h83z" />
    <glyph glyph-name="wacute" unicode="&#x1e83;" horiz-adv-x="769" 
d="M424 567h-67l80 140h89zM751 493l-166 -495h-71l-129 374l-130 -374h-71l-166 495h77l127 -382l132 382h61l132 -382l127 382h77z" />
    <glyph glyph-name="Wdieresis" unicode="&#x1e84;" horiz-adv-x="953" 
d="M378 755q-22 0 -37 15t-15 37q0 21 15 36t37 15q23 0 38 -15t15 -36q0 -22 -15 -37t-38 -15zM576 755q-22 0 -37 15t-15 37q0 21 15 36t37 15q23 0 38 -15t15 -36q0 -22 -15 -37t-38 -15zM936 670l-206 -670h-83l-170 544l-171 -544h-82l-206 670h82l167 -549l171 549h77
l171 -549l167 549h83z" />
    <glyph glyph-name="wdieresis" unicode="&#x1e85;" horiz-adv-x="769" 
d="M286 577q-22 0 -37 15t-15 37q0 21 15 36t37 15q23 0 38 -15t15 -36q0 -22 -15 -37t-38 -15zM484 577q-22 0 -37 15t-15 37q0 21 15 36t37 15q23 0 38 -15t15 -36q0 -22 -15 -37t-38 -15zM751 493l-166 -495h-71l-129 374l-130 -374h-71l-166 495h77l127 -382l132 382h61
l132 -382l127 382h77z" />
    <glyph glyph-name="Ygrave" unicode="&#x1ef2;" horiz-adv-x="671" 
d="M301 745l-102 140h89l79 -140h-66zM374 235v-235h-79v234l-277 436h88l228 -357l228 357h91z" />
    <glyph glyph-name="ygrave" unicode="&#x1ef3;" horiz-adv-x="563" 
d="M247 568l-102 140h89l79 -140h-66zM545 493l-302 -663h-85l81 177l-221 486h86l176 -394l180 394h85z" />
    <glyph glyph-name="endash" unicode="&#x2013;" horiz-adv-x="620" 
d="M560 225h-500v60h500v-60z" />
    <glyph glyph-name="emdash" unicode="&#x2014;" horiz-adv-x="1040" 
d="M980 225h-920v60h920v-60z" />
    <glyph glyph-name="quoteleft" unicode="&#x2018;" horiz-adv-x="250" 
d="M143 670h60l-66 -263h-90v3z" />
    <glyph glyph-name="quoteright" unicode="&#x2019;" horiz-adv-x="250" 
d="M107 407h-59l66 263h90v-2z" />
    <glyph glyph-name="quotesinglbase" unicode="&#x201a;" horiz-adv-x="250" 
d="M107 -132h-59l66 263h90v-2z" />
    <glyph glyph-name="quotedblleft" unicode="&#x201c;" horiz-adv-x="415" 
d="M143 670h60l-66 -263h-90v3zM308 670h60l-66 -263h-90v3z" />
    <glyph glyph-name="quotedblright" unicode="&#x201d;" horiz-adv-x="415" 
d="M107 407h-59l66 263h90v-2zM272 407h-59l66 263h90v-2z" />
    <glyph glyph-name="quotedblbase" unicode="&#x201e;" horiz-adv-x="415" 
d="M107 -132h-59l66 263h90v-2zM272 -132h-59l66 263h90v-2z" />
    <glyph glyph-name="dagger" unicode="&#x2020;" horiz-adv-x="358" 
d="M318 650v-52h-111v-241h-56v241h-111v52h111v90h56v-90h111z" />
    <glyph glyph-name="daggerdbl" unicode="&#x2021;" horiz-adv-x="358" 
d="M207 598v-99h111v-52h-111v-90h-56v90h-111v52h111v99h-111v52h111v90h56v-90h111v-52h-111z" />
    <glyph glyph-name="bullet" unicode="&#x2022;" horiz-adv-x="398" 
d="M199 407h-2q63 0 106 -42t43 -101q0 -62 -42 -102q-43 -41 -106 -41t-106 41q-42 40 -42 102q0 59 43 101t106 42z" />
    <glyph glyph-name="ellipsis" unicode="&#x2026;" horiz-adv-x="644" 
d="M102 98q22 0 37 -15t15 -36t-15 -36t-37 -15t-37 15t-15 36t15 36t37 15zM322 98q22 0 37 -15t15 -36t-15 -36t-37 -15t-37 15t-15 36t15 36t37 15zM542 98q22 0 37 -15t15 -36t-15 -36t-37 -15t-37 15t-15 36t15 36t37 15z" />
    <glyph glyph-name="perthousand" unicode="&#x2030;" horiz-adv-x="1237" 
d="M215 683h1q67 0 116 -44q48 -43 48 -116q0 -69 -48 -114t-115 -45t-117 45q-49 45 -49 114q0 73 48 116q49 44 116 44zM142 0l501 670h55l-501 -670h-55zM216 629h-2q-43 0 -75 -29t-32 -75t32 -75t75 -29q42 0 74 29t32 75q0 47 -31 75q-32 29 -73 29zM632 306h1
q67 0 116 -44q48 -43 48 -116q0 -69 -48 -114t-115 -45q-68 0 -117 45t-49 114q0 73 48 116q49 44 116 44zM1023 306h1q67 0 116 -44q48 -43 48 -116q0 -69 -48 -114t-115 -45t-117 45q-49 45 -49 114q0 73 48 116q49 44 116 44zM634 252h-2q-43 0 -75 -29t-32 -75t32 -75
t75 -29q42 0 74 29t32 75q0 47 -31 75q-32 29 -73 29zM1022 252h-2q-43 0 -75 -29t-32 -75t32 -75t75 -29q42 0 74 29t32 75q0 47 -31 75q-32 29 -73 29z" />
    <glyph glyph-name="guilsinglleft" unicode="&#x2039;" horiz-adv-x="250" 
d="M25 262l122 178h78l-122 -178l122 -178h-78z" />
    <glyph glyph-name="guilsinglright" unicode="&#x203a;" horiz-adv-x="250" 
d="M25 84l122 178l-122 178h78l122 -178l-122 -178h-78z" />
    <glyph glyph-name="fraction" unicode="&#x2044;" horiz-adv-x="216" 
d="M-175 0l501 670h55l-501 -670h-55z" />
    <glyph glyph-name="Euro" unicode="&#x20ac;" horiz-adv-x="792" 
d="M660 235l75 -17q-26 -106 -96 -167q-71 -62 -169 -62q-102 0 -173 65q-71 64 -93 177h-117v58h108q-2 40 -2 47q0 4 2 42h-108v58h115q22 113 95 181q71 67 175 67q100 0 170 -63q71 -64 95 -169l-79 -17q-18 85 -67 129q-49 45 -117 45q-70 0 -120 -47q-49 -46 -69 -128
h256l-15 -58h-250q-2 -38 -2 -42q0 -7 2 -47h227l-14 -58h-203q21 -78 69 -123t116 -45q67 0 117 45t72 129z" />
    <glyph glyph-name="uni2116" unicode="&#x2116;" horiz-adv-x="1223" 
d="M962 342v-2q-70 0 -121 48t-51 122t51 122t121 48q74 0 123 -48q50 -48 50 -121t-50 -121q-49 -48 -123 -48zM594 668h79v-670h-68l-438 532v-532h-79v670h68l438 -538v538zM962 620v-4q-44 0 -76 -31q-33 -31 -33 -79t33 -79q32 -31 76 -31q45 0 79 32q33 32 33 80
t-33 80q-34 32 -79 32zM801 259h324v-64h-324v64z" />
    <glyph glyph-name="uni2117" unicode="&#x2117;" horiz-adv-x="775" 
d="M386 683v-2q146 0 246 -99q101 -99 101 -250q0 -148 -101 -247q-100 -99 -246 -99t-246 99q-101 99 -101 248q0 152 101 251q100 99 246 99zM386 24v-1q128 0 217 88q90 89 90 220q0 133 -90 222q-91 89 -217 89q-128 0 -217 -88q-90 -88 -90 -222q0 -132 90 -220
q89 -88 217 -88zM260 514l161 -2q67 -2 102 -34q38 -35 38 -90q0 -56 -38 -91q-37 -34 -102 -34h-112v-121h-49v372zM309 306l109 -1q44 0 69 22q26 23 26 60q0 35 -26 58q-25 22 -69 22h-109v-161z" />
    <glyph glyph-name="trademark" unicode="&#x2122;" horiz-adv-x="650" 
d="M270 630h-93v-226h-48v226h-91v40h232v-40zM603 404h-45v179l-86 -177h-30l-86 177v-179h-45v266h51l95 -190l96 190h50v-266z" />
    <glyph glyph-name="oneeighth" unicode="&#x215b;" horiz-adv-x="758" 
d="M107 593l-83 -51v62l103 66h38v-369h-58v292zM616 670l-501 -670h-55l501 670h55zM648 191v-2q81 -22 81 -95q0 -46 -40 -76q-41 -30 -105 -30q-66 0 -106 30t-40 77q0 73 81 96q-67 22 -67 83q0 41 38 70q37 28 95 28q56 0 93 -28q38 -29 38 -70q0 -60 -68 -83zM504 266
l-4 -3q0 -23 23 -40q22 -16 57 -16t57 16q23 17 24 42q1 29 -21 45q-23 17 -57 17q-35 0 -57 -16t-22 -45zM580 32q38 0 62 18t24 47q0 28 -23 46t-62 18q-40 0 -64 -18t-24 -46q0 -29 24 -47t63 -18z" />
    <glyph glyph-name="threeeighths" unicode="&#x215c;" horiz-adv-x="847" 
d="M307 412l-2 1q0 -49 -38 -82q-37 -33 -96 -33t-100 33t-42 90l49 11q2 -40 27 -63q25 -22 66 -22q35 0 58 18q22 18 22 47q0 28 -21 45q-20 16 -57 16h-37v42h33q35 0 56 15t21 41q0 29 -21 45q-22 17 -55 17q-36 0 -59 -21q-22 -21 -24 -59l-51 11q3 53 40 84
q38 32 94 32q57 0 93 -30t36 -77q0 -55 -55 -77q63 -22 63 -84zM696 671l-501 -670h-55l501 670h55zM728 192v-2q81 -22 81 -95q0 -46 -40 -76q-41 -30 -105 -30q-66 0 -106 30t-40 77q0 74 81 96q-67 22 -67 83q0 41 38 70q37 28 95 28q56 0 93 -28q38 -29 38 -70
q0 -60 -68 -83zM584 267l-4 -3q0 -23 23 -40q22 -16 57 -16t57 16q23 16 24 42q1 28 -21 45q-23 17 -57 17q-35 0 -57 -16t-22 -45zM660 33q38 0 62 18t24 47q0 28 -23 46t-62 18q-40 0 -64 -18t-24 -46q0 -29 24 -47t63 -18z" />
    <glyph glyph-name="fiveeighths" unicode="&#x215d;" horiz-adv-x="829" 
d="M312 418l1 -1q0 -55 -39 -90q-38 -34 -102 -34q-56 0 -96 31t-46 78l56 9q4 -31 29 -49q24 -18 57 -18q37 0 62 20q24 20 24 53q0 31 -24 49t-61 18h-124l9 187h236v-51h-186l-4 -87h83q56 0 90 -31q35 -32 35 -84zM696 669l-501 -670h-55l501 670h55zM720 190v-2
q81 -22 81 -95q0 -46 -40 -76q-41 -30 -105 -30q-66 0 -106 30t-40 77q0 74 81 96q-67 22 -67 83q0 41 38 70q37 28 95 28q56 0 93 -28q38 -29 38 -70q0 -60 -68 -83zM576 265l-4 -3q0 -23 23 -40q22 -16 57 -16t57 16q23 16 24 42q1 28 -21 45q-23 17 -57 17q-35 0 -57 -16
t-22 -45zM652 31q38 0 62 18t24 47q0 28 -23 46t-62 18q-40 0 -64 -18t-24 -46q0 -29 24 -47t63 -18z" />
    <glyph glyph-name="seveneighths" unicode="&#x215e;" horiz-adv-x="727" 
d="M208 619h-201v51h265v-44l-156 -325h-64zM595 670l-501 -670h-55l501 670h55zM617 191v-2q81 -22 81 -95q0 -46 -40 -76t-105 -30t-106 30q-40 30 -40 77q0 73 81 96q-67 22 -67 83q0 41 38 70q37 28 95 28q56 0 93 -28q38 -29 38 -70q0 -60 -68 -83zM473 266l-4 -3
q0 -23 23 -40q22 -16 57 -16t57 16q22 17 24 42q2 29 -21 45q-23 17 -57 17q-35 0 -57 -16t-22 -45zM549 32q38 0 62 18t24 47q0 28 -23 46q-22 18 -62 18t-64 -18t-24 -46q0 -29 24 -47t63 -18z" />
    <glyph glyph-name="arrowleft" unicode="&#x2190;" horiz-adv-x="727" 
d="M687 285h-526l239 -238l-56 -57l-334 334l334 334l56 -56l-238 -238h525v-79z" />
    <glyph glyph-name="arrowup" unicode="&#x2191;" horiz-adv-x="748" 
d="M651 288l-237 237v-525h-79v526l-238 -239l-57 56l334 334l334 -333z" />
    <glyph glyph-name="arrowright" unicode="&#x2192;" horiz-adv-x="727" 
d="M717 324l-333 -334l-56 57l238 238h-526v79h525l-238 238l56 56z" />
    <glyph glyph-name="arrowdown" unicode="&#x2193;" horiz-adv-x="748" 
d="M708 327l-334 -334l-334 334l57 56l238 -239v526h79v-525l237 238z" />
    <glyph glyph-name="uni2196" unicode="&#x2196;" horiz-adv-x="746" 
d="M651 -7l-542 543v-358h-79v492h492v-79h-357l541 -541z" />
    <glyph glyph-name="uni2197" unicode="&#x2197;" horiz-adv-x="746" 
d="M716 670v-492h-79v357l-541 -542l-56 57l542 541h-357v79h491z" />
    <glyph glyph-name="uni2198" unicode="&#x2198;" horiz-adv-x="746" 
d="M716 493v-493h-491v79h357l-542 542l56 56l541 -541v357h79z" />
    <glyph glyph-name="uni2199" unicode="&#x2199;" horiz-adv-x="746" 
d="M165 79h357v-79h-492v493h79v-358l542 542l55 -56z" />
    <glyph glyph-name="minus" unicode="&#x2212;" horiz-adv-x="580" 
d="M510 271h-440v68h440v-68z" />
    <glyph glyph-name="approxequal" unicode="&#x2248;" horiz-adv-x="580" 
d="M510 433l-1 -69q-39 -21 -98 -21q-51 0 -117 27t-112 27q-76 0 -114 -33v66q41 32 114 32q50 0 117 -27t114 -27q60 0 97 25zM509 273l-2 -67q-40 -22 -98 -22q-51 0 -117 27t-112 27q-74 0 -113 -33v66q41 32 114 32q49 0 117 -27t114 -27q60 0 97 24z" />
    <glyph glyph-name="notequal" unicode="&#x2260;" horiz-adv-x="580" 
d="M363 379l-74 -121h221v-68h-262l-54 -89h-71l54 89h-107v68h148l73 121h-221v68h262l55 91h72l-55 -91h106v-68h-147z" />
    <glyph glyph-name="lessequal" unicode="&#x2264;" horiz-adv-x="422" 
d="M383 192l-351 134v70l351 134v-79l-263 -90l263 -92v-77zM383 157v-68h-349v68h349z" />
    <glyph glyph-name="greaterequal" unicode="&#x2265;" horiz-adv-x="422" 
d="M303 361l-263 90v79l352 -134v-70l-352 -134v77zM390 89h-350v68h350v-68z" />
    <glyph glyph-name="fi" unicode="&#xfb01;" horiz-adv-x="620" 
d="M524 493v-495h-77v429h-265v-429h-76v429h-86v64h86v73q0 79 46 125q47 47 124 47q50 0 92 -24l-20 -62q-32 17 -66 17q-46 0 -73 -27t-27 -74v-73h342zM485 589q-22 0 -37 15t-15 37q0 21 15 36t37 15q23 0 38 -15t15 -36q0 -22 -15 -37t-38 -15z" />
    <glyph glyph-name="fl" unicode="&#xfb02;" horiz-adv-x="608" 
d="M182 493l181 -2v-64h-179v-429h-76v429h-86v64h86v73q0 79 46 125q47 47 123 47q44 0 80 -18l-19 -62q-30 11 -57 11q-45 0 -72 -27t-27 -74v-73zM522 718v-720h-76v720h76z" />
    <glyph glyph-name="K.ss03" horiz-adv-x="704" 
d="M689 0h-100l-258 326l-164 -177v-149h-79v670h79v-424l390 424h92l-265 -287z" />
    <glyph glyph-name="Kcommaaccent.ss03" horiz-adv-x="704" 
d="M689 0h-100l-258 326l-164 -177v-149h-79v670h79v-424l390 424h92l-265 -287zM323 -45h83l-71 -143h-60z" />
    <glyph glyph-name="Q.ss04" horiz-adv-x="803" 
d="M674 -170l-148 181q-61 -23 -126 -23q-145 0 -246 101q-100 100 -100 246q0 145 101 246t246 101t246 -101t101 -246q0 -88 -39 -163q-40 -76 -106 -122l180 -220h-109zM133 336v-1q0 -115 77 -194q76 -78 189 -78t189 78q77 79 77 194t-77 195t-189 80q-113 0 -189 -79
q-77 -80 -77 -195z" />
    <glyph glyph-name="I.ss05" horiz-adv-x="439" 
d="M259 599v-527h155v-72h-389v72h155v527h-155v71h389v-71h-155z" />
    <glyph glyph-name="IJ.ss05" horiz-adv-x="1034" 
d="M414 670v-71h-155v-527h155v-72h-389v72h155v527h-155v71h389zM955 670l-1 -427q0 -113 -69 -185t-180 -72q-101 0 -165 60q-65 60 -78 157l75 17q9 -74 54 -117q46 -44 116 -44q76 0 122 52q47 53 47 133v355h-251v71h330z" />
    <glyph glyph-name="Iacute.ss05" horiz-adv-x="439" 
d="M258 745h-67l80 140h89zM259 599v-527h155v-72h-389v72h155v527h-155v71h389v-71h-155z" />
    <glyph glyph-name="Icircumflex.ss05" horiz-adv-x="439" 
d="M144 737h-77l116 142h73l117 -142h-78l-75 93zM259 599v-527h155v-72h-389v72h155v527h-155v71h389v-71h-155z" />
    <glyph glyph-name="Idieresis.ss05" horiz-adv-x="439" 
d="M120 755q-22 0 -37 15t-15 37q0 21 15 36t37 15q23 0 38 -15t15 -36q0 -22 -15 -37t-38 -15zM318 755q-22 0 -37 15t-15 37q0 21 15 36t37 15q23 0 38 -15t15 -36q0 -22 -15 -37t-38 -15zM259 599v-527h155v-72h-389v72h155v527h-155v71h389v-71h-155z" />
    <glyph glyph-name="Idotaccent.ss05" horiz-adv-x="439" 
d="M219 763l1 -1q-21 0 -37 14q-15 14 -15 36q0 20 15 35t36 15q22 0 37 -15t15 -34q0 -23 -15 -36q-16 -14 -37 -14zM260 598v-527h155v-72h-389v72h155v527h-155v71h389v-71h-155z" />
    <glyph glyph-name="Igrave.ss05" horiz-adv-x="439" 
d="M185 745l-102 140h89l79 -140h-66zM259 599v-527h155v-72h-389v72h155v527h-155v71h389v-71h-155z" />
    <glyph glyph-name="Imacron.ss05" horiz-adv-x="439" 
d="M361 762h-284v62h284v-62zM259 599v-527h155v-72h-389v72h155v527h-155v71h389v-71h-155z" />
    <glyph glyph-name="Iogonek.ss05" horiz-adv-x="439" 
d="M259 599l-2 -527h155v-72h-155q-41 -44 -54 -63q-14 -20 -14 -42q0 -40 42 -40q15 0 46 10l6 -50q-39 -15 -68 -15q-34 0 -59 20q-24 20 -24 63q0 56 70 117h-177v72h155v527h-155v71h389v-71h-155z" />
    <glyph glyph-name="J.ss05" horiz-adv-x="595" 
d="M516 670l-1 -427q0 -113 -69 -185t-180 -72q-100 0 -165 60t-78 157l75 17q9 -74 54 -117q46 -44 116 -44q76 0 122 52q47 53 47 133v355h-251v71h330z" />
    <glyph glyph-name="i.loclTRK" horiz-adv-x="279" 
d="M139 684l1 -1q22 0 37 -15t15 -34q0 -22 -15 -36q-16 -14 -37 -14t-37 14q-15 14 -15 36q0 20 15 35t36 15zM179 -1h-77v493h77v-493z" />
    <glyph glyph-name="germandbls.case" horiz-adv-x="1233" 
d="M311 683l-4 1q99 0 167 -50q67 -49 84 -134l-79 -18q-10 61 -57 97q-46 36 -116 36q-68 0 -110 -33t-42 -87q0 -43 26 -67q25 -23 75 -34l146 -33q169 -37 169 -174q0 -91 -68 -145t-180 -54q-109 0 -184 54t-87 147l83 17q10 -70 63 -109t132 -39q76 0 120 35t44 90
q0 47 -25 69q-26 22 -84 36l-151 33q-161 35 -161 171q0 86 66 138q67 53 173 53zM914 684l-4 1q99 0 167 -50q67 -49 84 -134l-79 -18q-10 61 -57 97t-116 36q-68 0 -110 -33t-42 -87q0 -43 26 -67q25 -23 75 -34l146 -33q169 -37 169 -174q0 -91 -68 -145
q-67 -54 -180 -54q-109 0 -184 54t-87 147l83 17q10 -70 63 -109q52 -39 132 -39q76 0 120 35t44 90q0 47 -25 69q-25 23 -84 36l-151 33q-161 35 -161 171q0 85 66 138q67 53 173 53z" />
    <glyph glyph-name="a.ss01" horiz-adv-x="545" 
d="M277 505h-1q94 0 150 -48q55 -48 55 -136v-320h-74v75q-66 -88 -185 -88q-80 0 -130 42q-49 42 -49 109q0 69 52 111q53 42 147 42h166v23q0 57 -34 90t-93 33q-55 0 -93 -27t-45 -73l-73 16q12 67 69 109t138 42zM232 50v-1q73 0 124 45t51 111v26h-167q-59 0 -91 -25
q-33 -25 -33 -67q0 -38 32 -64q31 -25 84 -25z" />
    <glyph glyph-name="aacute.ss01" horiz-adv-x="545" 
d="M319 567h-67l80 140h89zM277 505h-1q94 0 150 -48q55 -48 55 -136v-320h-74v75q-66 -88 -185 -88q-80 0 -130 42q-49 42 -49 109q0 69 52 111q53 42 147 42h166v23q0 57 -34 90t-93 33q-55 0 -93 -27t-45 -73l-73 16q12 67 69 109t138 42zM232 50v-1q73 0 124 45t51 111
v26h-167q-59 0 -91 -25q-33 -25 -33 -67q0 -38 32 -64q31 -25 84 -25z" />
    <glyph glyph-name="abreve.ss01" horiz-adv-x="545" 
d="M280 555h2q-65 0 -105 37t-40 99h64q0 -35 23 -58q22 -22 57 -22t57 22q23 23 23 58h64q0 -62 -40 -99t-105 -37zM279 505h-1q94 0 150 -48q55 -48 55 -136v-320h-74v75q-66 -88 -185 -88q-80 0 -130 42q-49 42 -49 109q0 69 52 111q53 42 147 42h166v23q0 57 -34 90
t-93 33q-55 0 -93 -27t-45 -73l-73 16q12 67 69 109t138 42zM234 50v-1q73 0 124 45t51 111v26h-167q-59 0 -91 -25q-33 -25 -33 -67q0 -38 32 -64q31 -25 84 -25z" />
    <glyph glyph-name="acircumflex.ss01" horiz-adv-x="545" 
d="M205 559h-77l116 142h73l117 -142h-78l-75 93zM277 505h-1q94 0 150 -48q55 -48 55 -136v-320h-74v75q-66 -88 -185 -88q-80 0 -130 42q-49 42 -49 109q0 69 52 111q53 42 147 42h166v23q0 57 -34 90t-93 33q-55 0 -93 -27t-45 -73l-73 16q12 67 69 109t138 42zM232 50
v-1q73 0 124 45t51 111v26h-167q-59 0 -91 -25q-33 -25 -33 -67q0 -38 32 -64q31 -25 84 -25z" />
    <glyph glyph-name="adieresis.ss01" horiz-adv-x="545" 
d="M181 577q-22 0 -37 15t-15 37q0 21 15 36t37 15q23 0 38 -15t15 -36q0 -22 -15 -37t-38 -15zM379 577q-22 0 -37 15t-15 37q0 21 15 36t37 15q23 0 38 -15t15 -36q0 -22 -15 -37t-38 -15zM277 505h-1q94 0 150 -48q55 -48 55 -136v-320h-74v75q-66 -88 -185 -88
q-80 0 -130 42q-49 42 -49 109q0 69 52 111q53 42 147 42h166v23q0 57 -34 90t-93 33q-55 0 -93 -27t-45 -73l-73 16q12 67 69 109t138 42zM232 50v-1q73 0 124 45t51 111v26h-167q-59 0 -91 -25q-33 -25 -33 -67q0 -38 32 -64q31 -25 84 -25z" />
    <glyph glyph-name="agrave.ss01" horiz-adv-x="545" 
d="M245 567l-102 140h89l79 -140h-66zM277 505h-1q94 0 150 -48q55 -48 55 -136v-320h-74v75q-66 -88 -185 -88q-80 0 -130 42q-49 42 -49 109q0 69 52 111q53 42 147 42h166v23q0 57 -34 90t-93 33q-55 0 -93 -27t-45 -73l-73 16q12 67 69 109t138 42zM232 50v-1
q73 0 124 45t51 111v26h-167q-59 0 -91 -25q-33 -25 -33 -67q0 -38 32 -64q31 -25 84 -25z" />
    <glyph glyph-name="amacron.ss01" horiz-adv-x="545" 
d="M422 584h-284v62h284v-62zM277 505h-1q94 0 150 -48q55 -48 55 -136v-320h-74v75q-66 -88 -185 -88q-80 0 -130 42q-49 42 -49 109q0 69 52 111q53 42 147 42h166v23q0 57 -34 90t-93 33q-55 0 -93 -27t-45 -73l-73 16q12 67 69 109t138 42zM232 50v-1q73 0 124 45
t51 111v26h-167q-59 0 -91 -25q-33 -25 -33 -67q0 -38 32 -64q31 -25 84 -25z" />
    <glyph glyph-name="aogonek.ss01" horiz-adv-x="545" 
d="M502 -135l3 -50q-39 -15 -68 -15q-34 0 -59 20q-24 20 -24 63q0 56 70 117h-19v75q-66 -88 -185 -88q-80 0 -130 42q-49 42 -49 109q0 69 52 111q53 42 147 42h166v23q0 57 -34 90t-93 33q-55 0 -93 -27t-45 -73l-73 16q12 67 69 109t138 42q95 0 150 -48t55 -136v-320h2
q-40 -44 -54 -63q-14 -20 -14 -42q0 -40 42 -40q15 0 46 10zM230 50v-1q73 0 124 45t51 111v26h-167q-59 0 -91 -25q-33 -25 -33 -67q0 -38 32 -64q31 -25 84 -25z" />
    <glyph glyph-name="aring.ss01" horiz-adv-x="545" 
d="M280 550l-1 -1q-43 0 -73 30t-30 72q0 41 30 71t73 30q44 0 74 -30t30 -70q0 -42 -30 -72t-73 -30zM279 704l-1 2q-23 0 -39 -16t-16 -39q0 -22 17 -39q16 -16 39 -16t40 15q16 15 16 38t-16 39t-40 16zM275 506h-1q94 0 150 -48q55 -48 55 -136v-320h-74v75
q-66 -88 -185 -88q-80 0 -130 42q-49 42 -49 109q0 69 52 111q53 42 147 42h166v23q0 57 -34 90t-93 33q-55 0 -93 -27t-45 -73l-73 16q12 67 69 109t138 42zM230 51v-1q73 0 124 45t51 111v26h-167q-59 0 -91 -25q-33 -26 -33 -67q0 -38 32 -64q31 -25 84 -25z" />
    <glyph glyph-name="atilde.ss01" horiz-adv-x="545" 
d="M223 637l-3 -3q-16 0 -27 -12q-10 -11 -10 -32h-54q0 52 26 78q25 25 62 25q31 0 66 -24q34 -24 56 -24q17 0 27 13t10 34h54q0 -53 -25 -78t-61 -25q-32 0 -66 24t-55 24zM274 502h-1q95 0 150 -48t55 -136v-320h-74v75q-66 -88 -185 -88q-81 0 -130 42t-49 109
q0 69 52 111t147 42h166v23q0 57 -34 90q-35 33 -93 33q-56 0 -93 -27q-38 -27 -45 -73l-73 16q12 67 69 109t138 42zM229 47v-1q73 0 124 45t51 111v26h-167q-59 0 -91 -25q-33 -25 -33 -67q0 -38 32 -64q31 -25 84 -25z" />
    <glyph glyph-name="l.ss02" horiz-adv-x="312" 
d="M154 720l-1 -595q0 -30 19 -48q20 -18 51 -18q30 0 59 16l16 -64q-43 -25 -87 -25q-61 0 -97 37t-36 99v598h76z" />
    <glyph glyph-name="lacute.ss02" horiz-adv-x="312" 
d="M153 795h-67l80 140h89zM154 720l-1 -595q0 -30 19 -48q20 -18 51 -18q30 0 59 16l16 -64q-43 -25 -87 -25q-61 0 -97 37t-36 99v598h76z" />
    <glyph glyph-name="lcaron.ss02" horiz-adv-x="312" 
d="M154 720l-1 -595q0 -30 19 -48q20 -18 51 -18q30 0 59 16l16 -64q-43 -25 -87 -25q-61 0 -97 37t-36 99v598h76zM285 547h-61v172h77z" />
    <glyph glyph-name="lcommaaccent.ss02" horiz-adv-x="312" 
d="M154 720l-1 -595q0 -30 19 -48q20 -18 51 -18q30 0 59 16l16 -64q-43 -25 -87 -25q-61 0 -97 37t-36 99v598h76zM96 -189l48 143h83l-71 -143h-60z" />
    <glyph glyph-name="ldot.ss02" horiz-adv-x="358" 
d="M164 720l-1 -595q0 -30 19 -48q20 -18 51 -18q30 0 59 16l16 -64q-43 -25 -87 -25q-61 0 -97 37t-36 99v598h76zM297 387l1 -1q22 0 37 -15t15 -34q0 -23 -15 -36q-16 -14 -37 -14t-37 14q-15 13 -15 36q0 20 15 35t36 15z" />
    <glyph glyph-name="lslash.ss02" horiz-adv-x="339" 
d="M311 76l16 -65q-43 -25 -88 -25q-60 0 -97 37t-37 99v163l-75 -47v75l75 47v360h77v-312l89 55v-75l-89 -55v-207q0 -30 19 -48t51 -18q30 0 59 16z" />
    <glyph glyph-name="k.ss03" horiz-adv-x="599" 
d="M589 0h-97l-210 232l-118 -124v-108h-76v720h76v-510l275 283h92l-197 -207z" />
    <glyph glyph-name="kcommaaccent.ss03" horiz-adv-x="599" 
d="M589 0h-97l-210 232l-118 -124v-108h-76v720h76v-510l275 283h92l-197 -207zM275 -45h83l-71 -143h-60z" />
    <glyph glyph-name="f_j" horiz-adv-x="647" 
d="M551 493l-1 -552q0 -56 -34 -90t-90 -34q-41 0 -81 17l17 66q27 -11 48 -11q28 0 47 17q18 16 18 45v476h-293v-429h-76v429h-86v64h86v73q0 79 46 125q47 47 124 47q50 0 92 -24l-20 -62q-32 17 -66 17q-46 0 -73 -27t-27 -74v-73h369zM511 588q-22 0 -37 15t-15 37
q0 21 15 36t37 15q23 0 38 -15t15 -36q0 -22 -15 -37t-38 -15z" />
    <glyph glyph-name="f_t" horiz-adv-x="750" 
d="M715 89l26 -65q-55 -39 -114 -39q-75 0 -119 44t-44 123v275h-281v-429h-76v429h-86v64h86v73q0 79 46 125q47 47 124 47q50 0 92 -24l-20 -62q-32 17 -66 17q-46 0 -73 -27t-27 -74v-73h281v157h77v-157h176v-64h-176v-270q0 -46 24 -73t66 -27t84 30z" />
    <glyph glyph-name="fl.ss02" horiz-adv-x="668" 
d="M182 493l181 -2v-64h-179v-429h-76v429h-86v64h86v73q0 79 46 125q47 47 123 47q44 0 80 -18l-19 -62q-30 11 -57 11q-45 0 -72 -27t-27 -74v-73zM642 74l16 -65q-43 -25 -88 -25q-60 0 -97 37t-37 99v598h77v-594q0 -30 19 -48q20 -18 51 -18q30 0 59 16z" />
    <glyph glyph-name="zero.tf" 
d="M305 683v1q121 0 196 -96t75 -252t-75 -252t-196 -96t-196 96t-75 252q0 155 75 251t196 96zM305 62q85 0 138 75q52 74 52 198q0 123 -52 199t-138 76t-138 -76t-52 -199q0 -124 52 -198q53 -75 138 -75z" />
    <glyph glyph-name="one.tf" 
d="M549 72v-72h-469v72h208v502l-198 -101v73l226 124h49v-598h184z" />
    <glyph glyph-name="two.tf" 
d="M543 72l1 -72h-451v51l239 223q48 44 69 66q20 22 39 59q18 36 18 77q0 62 -40 99q-41 38 -105 38q-69 0 -110 -42t-42 -118l-73 15q3 97 65 156t162 59q97 0 159 -57q61 -57 61 -148q0 -69 -35 -122t-122 -134l-161 -150h326z" />
    <glyph glyph-name="three.tf" 
d="M440 343l-4 -3q54 -15 84 -54t30 -96q0 -91 -63 -148t-165 -57q-106 0 -172 60t-72 158l74 15q5 -75 50 -119q46 -44 120 -44q70 0 113 37q44 38 44 97q0 55 -39 87q-40 32 -109 32h-68v63h63q65 0 102 31q38 32 38 84q0 56 -40 90q-41 35 -106 35q-70 0 -111 -40
t-46 -114l-73 14q8 95 70 153t163 58q98 0 158 -54t60 -141q0 -53 -27 -90t-74 -54z" />
    <glyph glyph-name="four.tf" 
d="M576 161h-100v-161h-77v161h-357v76l334 433h100v-444h100v-65zM399 226v360l-279 -360h279z" />
    <glyph glyph-name="five.tf" 
d="M181 405l138 -1q103 0 162 -52q60 -53 60 -148q0 -96 -65 -156q-64 -60 -171 -60q-105 0 -173 62t-69 168l77 15q0 -81 46 -127t121 -46q71 0 114 39q44 39 44 104t-40 98q-41 33 -111 33h-211l15 336h396v-71h-324z" />
    <glyph glyph-name="six.tf" 
d="M335 433l-4 1q103 0 167 -62q63 -62 63 -158q0 -97 -65 -162q-64 -64 -170 -64q-125 0 -194 87t-69 243q0 199 91 293q73 73 177 73q79 0 136 -39t76 -109l-76 -15q-26 92 -138 92q-75 0 -123 -53q-75 -81 -67 -233q26 48 80 77q55 29 116 29zM323 60v-3q69 0 114 45
t45 111q0 67 -45 110q-46 44 -114 44q-71 0 -116 -45t-45 -110t47 -109q46 -43 114 -43z" />
    <glyph glyph-name="seven.tf" 
d="M552 670v-54l-314 -616h-89l309 599h-410v71h504z" />
    <glyph glyph-name="eight.tf" 
d="M414 343l-2 -3q72 -18 108 -64t36 -102q0 -86 -67 -138t-177 -52q-111 0 -179 53t-68 138q0 57 37 101q38 46 108 65q-62 19 -94 63q-31 43 -31 101q0 80 63 128t166 48q104 0 165 -48q62 -48 62 -128q0 -55 -32 -99q-31 -43 -95 -63zM162 497l4 1q-1 -52 39 -85
q41 -33 108 -33t108 33t41 86t-42 84q-43 32 -108 32t-108 -32q-42 -31 -42 -86zM315 53v-1q69 0 115 35q45 35 45 92q0 55 -44 90t-116 35q-70 0 -114 -35t-44 -92q0 -58 44 -91q43 -33 114 -33z" />
    <glyph glyph-name="nine.tf" 
d="M282 682v3q125 0 194 -87t69 -243q0 -199 -91 -293q-70 -73 -177 -73q-79 0 -136 39q-58 40 -77 109l76 14q29 -92 141 -92q73 0 123 53q73 79 67 234q-25 -49 -79 -79t-116 -30q-105 0 -167 62t-62 159q0 98 65 161t170 63zM283 305l-2 1q71 0 116 45t45 110
q0 68 -46 111t-114 43t-113 -45t-45 -111q0 -67 45 -110q46 -44 114 -44z" />
    <glyph glyph-name="zero.zero.tf" 
d="M305 683v1q121 0 196 -96t75 -252t-75 -252t-196 -96t-196 96t-75 252q0 155 75 251t196 96zM305 611q-86 0 -138 -76t-52 -199q0 -88 27 -151l286 369q-50 57 -123 57zM305 62v1q85 0 138 75q52 74 52 198q0 95 -32 165l-289 -372q51 -67 131 -67z" />
    <glyph glyph-name="zero.zero" horiz-adv-x="650" 
d="M333 683l-2 1q125 0 201 -96q77 -97 77 -252q0 -157 -76 -252q-77 -96 -201 -96t-201 96q-76 95 -76 252q0 154 77 251q76 96 201 96zM331 611h-1q-90 0 -144 -76q-54 -77 -54 -199q0 -82 26 -146l290 374q-50 47 -117 47zM330 62v1q89 0 143 75t54 198q0 107 -42 179
l-296 -382q54 -71 141 -71z" />
    <glyph glyph-name="zero.dnom" horiz-adv-x="392" 
d="M196 372v-1q72 0 115 -52t43 -138q0 -87 -43 -139t-115 -52q-70 0 -114 53q-43 52 -43 138t43 138q44 53 114 53zM196 41l-1 -2q44 0 71 38q27 37 27 102t-27 102q-27 38 -70 38t-69 -38t-26 -101q0 -64 26 -102q25 -37 69 -37z" />
    <glyph glyph-name="one.dnom" horiz-adv-x="231" 
d="M165 -1h-58v293l-83 -51v62l103 66h38v-370z" />
    <glyph glyph-name="two.dnom" horiz-adv-x="330" 
d="M296 51v-56h-268v39l140 120q39 33 54 54t15 48q0 30 -21 49q-20 19 -55 19q-37 0 -58 -23q-20 -22 -22 -63l-51 11q0 55 36 90q37 35 96 35q60 0 95 -31q36 -31 36 -85q0 -38 -21 -68q-18 -25 -67 -68l-84 -71h175z" />
    <glyph glyph-name="three.dnom" horiz-adv-x="337" 
d="M244 188l-2 1q63 -23 63 -84q0 -49 -38 -82q-37 -33 -96 -33t-100 33t-42 90l49 11q2 -40 27 -63q25 -22 66 -22q35 0 58 18q22 18 22 47q0 28 -21 45q-20 16 -57 16h-37v42h33q35 0 56 15t21 41q0 29 -21 45q-22 17 -55 17q-36 0 -59 -21q-22 -21 -24 -59l-51 11
q3 53 40 84q38 32 94 32q57 0 93 -30t36 -77q0 -55 -55 -77z" />
    <glyph glyph-name="four.dnom" horiz-adv-x="366" 
d="M341 83h-58v-83h-55v83h-203v54l191 232h67v-238h58v-48zM228 131v176l-146 -176h146z" />
    <glyph glyph-name="five.dnom" horiz-adv-x="340" 
d="M104 228l84 -1q56 0 90 -31q35 -32 35 -84q0 -56 -39 -90q-38 -34 -102 -34q-56 0 -96 31t-46 78l56 9q4 -31 29 -49q24 -18 57 -18q37 0 62 20q24 19 24 53q0 31 -24 49t-61 18h-124l9 187h236v-51h-186z" />
    <glyph glyph-name="six.dnom" horiz-adv-x="355" 
d="M196 238l-1 -1q58 0 92 -34q35 -35 35 -88q0 -56 -37 -90q-38 -35 -97 -35q-74 0 -114 48q-40 47 -40 132q0 109 53 162q40 40 102 40q49 0 84 -24q34 -24 43 -68l-57 -9q-11 53 -71 53q-37 0 -61 -26q-29 -34 -34 -103q36 43 103 43zM185 36l2 1q37 0 60 23t23 57
q0 33 -24 56q-25 23 -60 23q-37 0 -61 -24t-24 -57q0 -35 24 -57q23 -22 60 -22z" />
    <glyph glyph-name="seven.dnom" horiz-adv-x="282" 
d="M272 369v-44l-156 -325h-64l156 318h-201v51h265z" />
    <glyph glyph-name="eight.dnom" horiz-adv-x="355" 
d="M242 191v-2q81 -23 81 -95q0 -46 -40 -76q-41 -30 -105 -30q-66 0 -106 30t-40 77q0 73 81 96q-67 22 -67 83q0 41 38 70q37 28 95 28q56 0 93 -28q38 -29 38 -70q0 -60 -68 -83zM98 266l-4 -3q0 -23 23 -40q22 -16 57 -16t57 16q23 17 24 42q1 29 -21 45q-23 17 -57 17
q-35 0 -57 -16t-22 -45zM174 32q38 0 62 18t24 47q0 28 -23 46q-22 18 -62 18t-64 -18t-24 -46q0 -29 24 -47t63 -18z" />
    <glyph glyph-name="nine.dnom" horiz-adv-x="355" 
d="M167 372v-1q73 0 114 -47q40 -46 40 -132q0 -109 -53 -162q-40 -40 -102 -40q-50 0 -84 24t-42 68l56 8q11 -53 72 -53q37 0 61 27q29 34 34 102q-38 -42 -103 -42q-57 0 -92 35t-35 89q0 55 37 89q38 35 97 35zM169 166l-2 -2q38 0 62 24t24 57q0 35 -24 57
q-23 22 -60 22t-59 -22q-23 -23 -23 -57t23 -57q22 -22 59 -22z" />
    <glyph glyph-name="zero.numr" horiz-adv-x="392" 
d="M196 680v-2q72 0 115 -52t43 -138t-43 -138t-115 -52q-70 0 -114 53q-43 52 -43 138t43 138q44 53 114 53zM196 348l-1 -2q44 0 71 38t27 102t-27 102t-70 38t-69 -38t-26 -101q0 -64 26 -102q25 -37 69 -37z" />
    <glyph glyph-name="one.numr" horiz-adv-x="231" 
d="M165 301h-58v292l-83 -51v62l103 66h38v-369z" />
    <glyph glyph-name="two.numr" horiz-adv-x="330" 
d="M296 355v-55h-268v38l140 120q39 33 54 54t15 48q0 30 -21 49q-20 19 -55 19q-37 0 -58 -23q-20 -22 -22 -63l-51 11q0 55 36 90q37 35 96 35q60 0 95 -31q36 -31 36 -85q0 -38 -21 -68q-20 -29 -67 -68l-85 -71h176z" />
    <glyph glyph-name="three.numr" horiz-adv-x="337" 
d="M244 496l-2 1q63 -23 63 -84q0 -49 -38 -82q-37 -33 -96 -33t-100 33t-42 90l49 11q2 -40 27 -63q25 -22 66 -22q35 0 58 18q22 18 22 47q0 28 -21 45q-20 16 -57 16h-37v42h33q35 0 56 15t21 41q0 29 -21 45q-22 17 -55 17q-36 0 -59 -21q-22 -21 -24 -59l-51 11
q3 53 40 84q38 32 94 32q57 0 93 -30t36 -77q0 -55 -55 -77z" />
    <glyph glyph-name="four.numr" horiz-adv-x="366" 
d="M341 384h-58v-83h-55v83h-203v54l191 232h67v-238h58v-48zM228 432v176l-146 -176h146z" />
    <glyph glyph-name="five.numr" horiz-adv-x="340" 
d="M104 532l84 -1q56 0 90 -31q35 -32 35 -84q0 -56 -39 -90q-38 -34 -102 -34q-56 0 -96 31t-46 78l56 9q4 -31 29 -49q24 -18 57 -18q37 0 62 20q24 19 24 53q0 31 -24 49t-61 18h-124l9 187h236v-51h-186z" />
    <glyph glyph-name="six.numr" horiz-adv-x="355" 
d="M196 546l-1 -1q58 0 92 -34q35 -35 35 -88q0 -56 -37 -90q-38 -35 -97 -35q-74 0 -114 48q-40 47 -40 132q0 109 53 162q40 40 102 40q49 0 84 -24q34 -24 43 -68l-57 -9q-11 53 -71 53q-37 0 -61 -26q-29 -34 -34 -103q36 43 103 43zM185 344l2 1q37 0 60 23t23 57
q0 33 -24 56q-25 23 -60 23q-37 0 -61 -24t-24 -57q0 -35 24 -57q23 -22 60 -22z" />
    <glyph glyph-name="seven.numr" horiz-adv-x="282" 
d="M272 670v-44l-156 -325h-64l156 318h-201v51h265z" />
    <glyph glyph-name="eight.numr" horiz-adv-x="355" 
d="M242 499v-2q81 -23 81 -95q0 -46 -40 -76q-41 -30 -105 -30q-66 0 -106 30t-40 77q0 73 81 96q-67 22 -67 83q0 41 38 70q37 28 95 28q56 0 93 -28q38 -29 38 -70q0 -60 -68 -83zM98 574l-4 -3q0 -23 23 -40q22 -16 57 -16t57 16q23 17 24 42q1 29 -21 45q-23 17 -57 17
q-35 0 -57 -16t-22 -45zM174 340q38 0 62 18t24 47q0 28 -23 46q-22 18 -62 18t-64 -18t-24 -46q0 -29 24 -47t63 -18z" />
    <glyph glyph-name="nine.numr" horiz-adv-x="355" 
d="M167 680v-1q73 0 114 -47q40 -46 40 -132q0 -109 -53 -162q-40 -40 -102 -40q-50 0 -84 24t-42 68l56 8q11 -53 72 -53q37 0 61 27q29 34 34 102q-38 -42 -103 -42q-57 0 -92 35t-35 89q0 55 37 89q38 35 97 35zM169 474l-2 -2q38 0 62 24t24 57q0 35 -24 57
q-23 22 -60 22t-59 -22q-23 -23 -23 -57t23 -57q22 -22 59 -22z" />
    <glyph glyph-name="backslash.case" horiz-adv-x="368" 
d="M340 0h-75l-237 670h75z" />
    <glyph glyph-name="periodcentered.case" horiz-adv-x="204" 
d="M102 379q22 0 37 -15t15 -36t-15 -36t-37 -15t-37 15t-15 36t15 36t37 15z" />
    <glyph glyph-name="bullet.case" horiz-adv-x="398" 
d="M199 475h-2q63 0 106 -42t43 -101q0 -62 -42 -102q-43 -41 -106 -41t-106 41q-42 40 -42 102q0 59 43 101t106 42z" />
    <glyph glyph-name="colon.case" horiz-adv-x="204" 
d="M102 542q22 0 37 -15t15 -36t-15 -36t-37 -15t-37 15t-15 36t15 36t37 15zM102 203q22 0 37 -15t15 -36t-15 -36t-37 -15t-37 15t-15 36t15 36t37 15z" />
    <glyph glyph-name="exclamdown.case" horiz-adv-x="269" 
d="M135 573h-2q-22 0 -37 15t-15 36q0 22 15 36q16 14 38 14t38 -14q15 -14 15 -36q0 -21 -15 -36t-37 -15zM92 31l2 440h78l3 -440v-31h-83v31z" />
    <glyph glyph-name="questiondown.case" horiz-adv-x="522" 
d="M269 575q-22 0 -37 15t-15 36t15 36t37 15t37 -15t15 -36t-15 -36t-37 -15zM414 216l73 -16q-3 -91 -67 -151t-165 -60t-162 57t-61 152q0 80 56 134q56 55 144 62v77h72v-138h-44q-65 0 -108 -37q-44 -38 -44 -96q0 -63 41 -102t107 -39q69 0 111 43q43 44 47 114z" />
    <glyph glyph-name="semicolon.case" horiz-adv-x="231" 
d="M129 542q22 0 37 -15t15 -36t-15 -36t-37 -15t-37 15t-15 36t15 36t37 15zM75 -132h-60l66 263h90v-2z" />
    <glyph glyph-name="slash.case" horiz-adv-x="408" 
d="M110 0h-70l257 670h71z" />
    <glyph glyph-name="braceleft.case" horiz-adv-x="430" 
d="M227 537l-1 -99q-2 -82 -67 -110q67 -28 67 -111v-87q0 -31 18 -49t47 -18h83v-66h-92q-57 0 -94 35q-36 34 -36 93v86q0 38 -23 59q-23 22 -62 26l-23 5v59l23 5q43 9 64 29t21 55v93q0 58 36 92q37 35 95 35h92v-65h-83q-29 0 -47 -18t-18 -49z" />
    <glyph glyph-name="braceright.case" horiz-adv-x="430" 
d="M385 362l-1 -60l-23 -5q-39 -4 -62 -26q-23 -21 -23 -58v-86q0 -59 -36 -93q-35 -34 -94 -34h-92v66h83q29 0 47 18t18 50v87q0 83 67 111q-67 28 -67 110v94q0 32 -18 50t-47 18h-83v65h92q60 0 95 -34q36 -35 36 -91v-93q0 -35 21 -55t64 -29z" />
    <glyph glyph-name="bracketleft.case" horiz-adv-x="391" 
d="M162 604v-537h174v-67h-248v670h248v-66h-174z" />
    <glyph glyph-name="bracketright.case" horiz-adv-x="391" 
d="M304 670v-670h-249v67h174v537h-174v66h249z" />
    <glyph glyph-name="parenleft.case" horiz-adv-x="326" 
d="M224 683l47 -46q-134 -136 -134 -302t134 -302l-47 -46q-169 145 -169 348t169 348z" />
    <glyph glyph-name="parenright.case" horiz-adv-x="326" 
d="M55 637l47 46q169 -144 169 -348t-169 -348l-47 46q134 134 134 302t-134 302z" />
    <glyph glyph-name="emdash.case" horiz-adv-x="1040" 
d="M980 303h-920v60h920v-60z" />
    <glyph glyph-name="endash.case" horiz-adv-x="620" 
d="M560 303h-500v60h500v-60z" />
    <glyph glyph-name="hyphen.case" horiz-adv-x="443" 
d="M383 299h-323v67h323v-67z" />
    <glyph glyph-name="guillemotleft.case" horiz-adv-x="415" 
d="M25 322l122 178h78l-122 -178l122 -178h-78zM190 322l122 178h78l-122 -178l122 -178h-78z" />
    <glyph glyph-name="guillemotright.case" horiz-adv-x="415" 
d="M26 144l122 178l-122 178h77l122 -178l-122 -178h-77zM191 144l122 178l-122 178h77l122 -178l-122 -178h-77z" />
    <glyph glyph-name="guilsinglleft.case" horiz-adv-x="250" 
d="M25 322l122 178h78l-122 -178l122 -178h-78z" />
    <glyph glyph-name="guilsinglright.case" horiz-adv-x="250" 
d="M25 144l122 178l-122 178h78l122 -178l-122 -178h-78z" />
    <glyph glyph-name="cent.tf" 
d="M325 433l-3 -377q49 6 87 35q37 28 52 75l70 -19q-18 -67 -75 -111t-132 -51v-118h-66v120q-94 13 -156 83t-62 173t63 173t156 84v128h66v-126q74 -8 131 -51q58 -44 77 -111l-73 -22q-13 48 -50 79q-36 30 -85 36zM114 243h2q0 -73 41 -123q40 -49 105 -61v371
q-64 -12 -106 -63t-42 -124z" />
    <glyph glyph-name="dollar.tf" 
d="M544 197h-4q0 -79 -56 -129t-147 -54v-114h-67v116q-87 10 -146 62q-59 51 -66 130l77 16q6 -59 44 -95q37 -36 95 -45v226l-45 10q-152 33 -152 157q0 77 54 125q55 49 141 56v113h67v-115q83 -10 135 -60q53 -50 60 -121l-76 -15q-5 54 -37 86q-33 33 -83 42v-218
l50 -11q156 -35 156 -162zM273 384v207q-54 -6 -86 -35t-32 -74q0 -39 24 -60q23 -20 70 -32zM334 296l-1 -217q60 5 96 36t36 78q0 41 -25 63q-26 22 -75 33z" />
    <glyph glyph-name="Euro.tf" 
d="M330 61l-1 -2q60 0 104 44q43 43 66 125l78 -16q-24 -104 -90 -165q-67 -62 -159 -62q-98 0 -165 64q-67 65 -90 180h-56v58h49q-2 40 -2 47q0 33 1 42h-48v58h55q21 116 89 183q67 66 167 66q93 0 159 -63t90 -168l-78 -15q-19 83 -64 127q-45 45 -106 45
q-66 0 -111 -45q-46 -46 -62 -129h238l-15 -58h-230q-2 -34 -2 -42q0 -7 2 -47h209l-13 -58h-188q18 -82 63 -125q46 -44 110 -44z" />
    <glyph glyph-name="florin.tf" 
d="M474 614v2q-46 0 -78 -30q-32 -31 -41 -81l-25 -139h188v-64h-200l-59 -327q-12 -65 -55 -102t-105 -37q-45 0 -82 25l27 61q26 -14 56 -14q32 0 54 18q21 17 27 48l59 327h-120v64h132l25 139q15 83 68 130q54 48 134 48q65 0 112 -38l-29 -61q-35 31 -88 31z" />
    <glyph glyph-name="sterling.tf" 
d="M566 72l-1 -73h-530v49l84 17v206h-84v71h84v123q0 97 61 157q62 60 160 60q99 0 158 -58t64 -156l-72 -13q-4 74 -44 114q-39 39 -105 39q-64 0 -103 -39t-39 -103v-123h227v-71h-227v-200h367z" />
    <glyph glyph-name="yen.tf" 
d="M374 313h151v-60h-182v-75h182v-60h-182v-118h-79v118h-178v60h178v75h-178v60h147l-216 357h88l199 -338l198 338h91z" />
    <glyph glyph-name="approxequal.tf" 
d="M525 433l-1 -69q-39 -21 -98 -21q-51 0 -117 27t-112 27q-77 0 -114 -33v66q41 32 114 32q49 0 117 -27t114 -27q60 0 97 25zM524 273l-2 -67q-40 -22 -98 -22q-51 0 -117 27t-112 27q-74 0 -113 -33v66q41 32 114 32q50 0 117 -27t114 -27q59 0 97 24z" />
    <glyph glyph-name="divide.tf" 
d="M303 530q22 0 37 -15t15 -36q0 -23 -15 -36q-16 -14 -37 -14t-37 14q-15 13 -15 36q0 21 15 36t37 15zM525 271h-440v68h440v-68zM303 171q22 0 37 -15t15 -36q0 -22 -15 -36q-16 -14 -37 -14t-37 14q-15 14 -15 36q0 21 15 36t37 15z" />
    <glyph glyph-name="equal.tf" 
d="M525 379h-440v68h440v-68zM525 190h-440v68h440v-68z" />
    <glyph glyph-name="greater.tf" 
d="M409 317l-274 116v82l366 -160v-76l-366 -159v80z" />
    <glyph glyph-name="greaterequal.tf" 
d="M398 361l-263 90v79l352 -134v-70l-352 -134v77zM485 89h-350v68h350v-68z" />
    <glyph glyph-name="less.tf" 
d="M476 120l-367 159v76l367 160v-82l-274 -116l274 -117v-80z" />
    <glyph glyph-name="lessequal.tf" 
d="M476 192l-351 134v70l351 134v-79l-263 -90l263 -92v-77zM476 157v-68h-349v68h349z" />
    <glyph glyph-name="minus.tf" 
d="M525 271h-440v68h440v-68z" />
    <glyph glyph-name="multiply.tf" 
d="M354 305l141 -141l-49 -49l-141 141l-142 -141l-49 49l141 141l-141 141l49 50l142 -141l141 141l49 -50z" />
    <glyph glyph-name="notequal.tf" 
d="M378 379l-74 -121h221v-68h-262l-54 -89h-71l54 89h-107v68h148l73 121h-221v68h262l55 91h72l-55 -91h106v-68h-147z" />
    <glyph glyph-name="plus.tf" 
d="M525 271h-186v-188h-68v188h-186v68h186v188h68v-188h186v-68z" />
    <glyph glyph-name="plusminus.tf" 
d="M525 394v-68h-186v-168h-68v168h-186v68h186v178h68v-178h186zM85 68h440v-68h-440v68z" />
    <glyph glyph-name="bar.case" horiz-adv-x="250" 
d="M162 -41h-74v752h74v-752z" />
    <glyph glyph-name="at.case" horiz-adv-x="959" 
d="M663 513l-3 -298q0 -30 21 -48t52 -18q53 0 80 56t27 131q0 148 -103 242q-104 95 -256 95q-157 0 -261 -101t-104 -255q0 -153 102 -255t251 -102q61 0 126 18q64 18 113 53l27 -44q-49 -36 -123 -57t-142 -21q-170 0 -288 115t-118 291q0 175 120 291q119 115 299 115
q175 0 293 -108q119 -108 119 -274q0 -94 -41 -164q-40 -69 -125 -69q-47 0 -77 21t-38 59q-52 -76 -153 -76q-86 0 -143 57t-57 148q0 92 57 149t141 57q97 0 151 -75v67h53zM463 159v-1q60 0 102 42t42 111q0 68 -42 110t-102 42t-102 -42t-42 -109q0 -69 42 -111t102 -42
z" />
    <glyph glyph-name="caron.alt" horiz-adv-x="600" 
d="M328 478h-61v172h77z" />
    </font>
</defs>
</svg>
